G04 (created by PCBNEW (2013-07-07 BZR 4022)-stable) date 4/3/2014 12:59:42 PM*
%MOIN*%
G04 Gerber Fmt 3.4, Leading zero omitted, Abs format*
%FSLAX34Y34*%
G01*
G70*
G90*
G04 APERTURE LIST*
%ADD10C,0.00590551*%
%ADD11R,0.055X0.055*%
%ADD12C,0.055*%
%ADD13R,0.35X0.35*%
%ADD14C,0.07*%
%ADD15R,0.07X0.07*%
%ADD16C,0.0354331*%
%ADD17C,0.0590551*%
%ADD18C,0.16*%
%ADD19C,0.0708661*%
G04 APERTURE END LIST*
G54D10*
G54D11*
X94594Y-40444D03*
G54D12*
X93594Y-40444D03*
X93594Y-41444D03*
G54D13*
X83070Y-65062D03*
G54D14*
X84070Y-58562D03*
X83070Y-58562D03*
G54D15*
X82070Y-58562D03*
G54D13*
X95767Y-65062D03*
G54D14*
X96767Y-58562D03*
X95767Y-58562D03*
G54D15*
X94767Y-58562D03*
G54D13*
X53047Y-45078D03*
G54D14*
X59547Y-46078D03*
X59547Y-45078D03*
G54D15*
X59547Y-44078D03*
G54D13*
X70374Y-65062D03*
G54D14*
X71374Y-58562D03*
X70374Y-58562D03*
G54D15*
X69374Y-58562D03*
G54D13*
X53047Y-49311D03*
G54D14*
X59547Y-50311D03*
X59547Y-49311D03*
G54D15*
X59547Y-48311D03*
G54D13*
X74606Y-65062D03*
G54D14*
X75606Y-58562D03*
X74606Y-58562D03*
G54D15*
X73606Y-58562D03*
G54D13*
X91535Y-65062D03*
G54D14*
X92535Y-58562D03*
X91535Y-58562D03*
G54D15*
X90535Y-58562D03*
G54D13*
X53047Y-53543D03*
G54D14*
X59547Y-54543D03*
X59547Y-53543D03*
G54D15*
X59547Y-52543D03*
G54D13*
X53047Y-40846D03*
G54D14*
X59547Y-41846D03*
X59547Y-40846D03*
G54D15*
X59547Y-39846D03*
G54D13*
X78838Y-65062D03*
G54D14*
X79838Y-58562D03*
X78838Y-58562D03*
G54D15*
X77838Y-58562D03*
G54D13*
X87303Y-65062D03*
G54D14*
X88303Y-58562D03*
X87303Y-58562D03*
G54D15*
X86303Y-58562D03*
G54D13*
X66141Y-65062D03*
G54D14*
X67141Y-58562D03*
X66141Y-58562D03*
G54D15*
X65141Y-58562D03*
X59531Y-58562D03*
G54D14*
X61531Y-58562D03*
X60531Y-58562D03*
G54D13*
X60531Y-65062D03*
G54D11*
X97834Y-53133D03*
G54D12*
X97834Y-54133D03*
X97834Y-55133D03*
G54D11*
X67118Y-39960D03*
G54D12*
X68118Y-39960D03*
G54D11*
X77944Y-39960D03*
G54D12*
X78944Y-39960D03*
G54D11*
X62787Y-39960D03*
G54D12*
X63787Y-39960D03*
G54D11*
X69283Y-39960D03*
G54D12*
X70283Y-39960D03*
G54D11*
X82275Y-39960D03*
G54D12*
X83275Y-39960D03*
G54D11*
X64952Y-39960D03*
G54D12*
X65952Y-39960D03*
G54D11*
X80110Y-39960D03*
G54D12*
X81110Y-39960D03*
G54D11*
X71448Y-39960D03*
G54D12*
X72448Y-39960D03*
G54D11*
X96759Y-39960D03*
G54D12*
X95759Y-39960D03*
G54D11*
X96653Y-55125D03*
G54D12*
X96653Y-54125D03*
G54D11*
X75779Y-39960D03*
G54D12*
X76779Y-39960D03*
G54D11*
X84440Y-39960D03*
G54D12*
X85440Y-39960D03*
G54D11*
X60622Y-39960D03*
G54D12*
X61622Y-39960D03*
G54D11*
X73614Y-39960D03*
G54D12*
X74614Y-39960D03*
G54D11*
X59645Y-57192D03*
G54D12*
X59645Y-56192D03*
G54D11*
X96653Y-52055D03*
G54D12*
X96653Y-51055D03*
X96653Y-50055D03*
X96653Y-49055D03*
X96653Y-48055D03*
X96653Y-47055D03*
X96653Y-46055D03*
X96653Y-45055D03*
X96653Y-44055D03*
X96653Y-43055D03*
X96653Y-42055D03*
X96653Y-41055D03*
G54D11*
X97834Y-52055D03*
G54D12*
X97834Y-51055D03*
X97834Y-50055D03*
X97834Y-49055D03*
X97834Y-48055D03*
X97834Y-47055D03*
X97834Y-46055D03*
X97834Y-45055D03*
X97834Y-44055D03*
X97834Y-43055D03*
X97834Y-42055D03*
X97834Y-41055D03*
G54D11*
X97834Y-39960D03*
X84129Y-48645D03*
G54D12*
X85129Y-48645D03*
X86129Y-48645D03*
X87129Y-48645D03*
X87129Y-45645D03*
X86129Y-45645D03*
X85129Y-45645D03*
X84129Y-45645D03*
G54D11*
X74681Y-44413D03*
G54D12*
X75681Y-44413D03*
X76681Y-44413D03*
X77681Y-44413D03*
X77681Y-41413D03*
X76681Y-41413D03*
X75681Y-41413D03*
X74681Y-41413D03*
G54D11*
X74681Y-52877D03*
G54D12*
X75681Y-52877D03*
X76681Y-52877D03*
X77681Y-52877D03*
X77681Y-49877D03*
X76681Y-49877D03*
X75681Y-49877D03*
X74681Y-49877D03*
G54D11*
X84129Y-52877D03*
G54D12*
X85129Y-52877D03*
X86129Y-52877D03*
X87129Y-52877D03*
X87129Y-49877D03*
X86129Y-49877D03*
X85129Y-49877D03*
X84129Y-49877D03*
G54D11*
X84129Y-44413D03*
G54D12*
X85129Y-44413D03*
X86129Y-44413D03*
X87129Y-44413D03*
X87129Y-41413D03*
X86129Y-41413D03*
X85129Y-41413D03*
X84129Y-41413D03*
G54D11*
X84129Y-57110D03*
G54D12*
X85129Y-57110D03*
X86129Y-57110D03*
X87129Y-57110D03*
X87129Y-54110D03*
X86129Y-54110D03*
X85129Y-54110D03*
X84129Y-54110D03*
G54D11*
X65232Y-57110D03*
G54D12*
X66232Y-57110D03*
X67232Y-57110D03*
X68232Y-57110D03*
X68232Y-54110D03*
X67232Y-54110D03*
X66232Y-54110D03*
X65232Y-54110D03*
G54D11*
X74681Y-48645D03*
G54D12*
X75681Y-48645D03*
X76681Y-48645D03*
X77681Y-48645D03*
X77681Y-45645D03*
X76681Y-45645D03*
X75681Y-45645D03*
X74681Y-45645D03*
G54D11*
X65232Y-52877D03*
G54D12*
X66232Y-52877D03*
X67232Y-52877D03*
X68232Y-52877D03*
X68232Y-49877D03*
X67232Y-49877D03*
X66232Y-49877D03*
X65232Y-49877D03*
G54D11*
X65232Y-48645D03*
G54D12*
X66232Y-48645D03*
X67232Y-48645D03*
X68232Y-48645D03*
X68232Y-45645D03*
X67232Y-45645D03*
X66232Y-45645D03*
X65232Y-45645D03*
G54D11*
X65232Y-44413D03*
G54D12*
X66232Y-44413D03*
X67232Y-44413D03*
X68232Y-44413D03*
X68232Y-41413D03*
X67232Y-41413D03*
X66232Y-41413D03*
X65232Y-41413D03*
G54D11*
X74681Y-57110D03*
G54D12*
X75681Y-57110D03*
X76681Y-57110D03*
X77681Y-57110D03*
X77681Y-54110D03*
X76681Y-54110D03*
X75681Y-54110D03*
X74681Y-54110D03*
G54D16*
X63385Y-51673D03*
X63385Y-51082D03*
X63385Y-55905D03*
X63385Y-55314D03*
X82283Y-43208D03*
X82283Y-42618D03*
X82283Y-47440D03*
X82283Y-46850D03*
X72834Y-43208D03*
X72834Y-42618D03*
X72834Y-51673D03*
X72834Y-51082D03*
X63385Y-47440D03*
X63385Y-46850D03*
X72834Y-47440D03*
X72834Y-46850D03*
X82283Y-51673D03*
X82283Y-51082D03*
X63385Y-57972D03*
X63385Y-57381D03*
X72834Y-55905D03*
X72834Y-55314D03*
X63385Y-43208D03*
X63385Y-42618D03*
X82283Y-55905D03*
X82283Y-55314D03*
G54D17*
X61318Y-56889D03*
X61318Y-56102D03*
X80019Y-46653D03*
X80019Y-47637D03*
X89468Y-42421D03*
X89468Y-43405D03*
X70570Y-55118D03*
X70570Y-56102D03*
X89468Y-48031D03*
X89468Y-49015D03*
X70570Y-50885D03*
X70570Y-51870D03*
X89468Y-50885D03*
X89468Y-51870D03*
X70570Y-46653D03*
X70570Y-47637D03*
X70570Y-42421D03*
X70570Y-43405D03*
X89468Y-55118D03*
X89468Y-56102D03*
X80019Y-42421D03*
X80019Y-43405D03*
X80019Y-55118D03*
X80019Y-56102D03*
X80019Y-50885D03*
X80019Y-51870D03*
G54D18*
X93405Y-55019D03*
X61417Y-52559D03*
X61417Y-43996D03*
X90846Y-40649D03*
G54D11*
X95850Y-56299D03*
G54D12*
X96850Y-56299D03*
X97850Y-56299D03*
G54D11*
X96653Y-53149D03*
G54D19*
X90551Y-46712D03*
X90551Y-44625D03*
X92496Y-49409D03*
X95496Y-49409D03*
M02*
