M48
;DRILL file {Pcbnew (2013-07-07 BZR 4022)-stable} date 4/3/2014 12:51:37 PM
;FORMAT={-:-/ absolute / inch / decimal}
FMAT,2
INCH,TZ
T1C0.016
T2C0.024
T3C0.025
T4C0.031
T5C0.032
T6C0.045
T7C0.120
%
G90
G05
M72
T1
X6.3386Y-4.2618
X6.3386Y-4.3209
X6.3386Y-4.685
X6.3386Y-4.7441
X6.3386Y-5.1083
X6.3386Y-5.1673
X6.3386Y-5.5315
X6.3386Y-5.5906
X6.3386Y-5.7382
X6.3386Y-5.7972
X7.2835Y-4.2618
X7.2835Y-4.3209
X7.2835Y-4.685
X7.2835Y-4.7441
X7.2835Y-5.1083
X7.2835Y-5.1673
X7.2835Y-5.5315
X7.2835Y-5.5906
X8.2283Y-4.2618
X8.2283Y-4.3209
X8.2283Y-4.685
X8.2283Y-4.7441
X8.2283Y-5.1083
X8.2283Y-5.1673
X8.2283Y-5.5315
X8.2283Y-5.5906
T2
X6.1319Y-5.6102
X6.1319Y-5.689
X7.0571Y-4.2421
X7.0571Y-4.3406
X7.0571Y-4.6654
X7.0571Y-4.7638
X7.0571Y-5.0886
X7.0571Y-5.187
X7.0571Y-5.5118
X7.0571Y-5.6102
X8.002Y-4.2421
X8.002Y-4.3406
X8.002Y-4.6654
X8.002Y-4.7638
X8.002Y-5.0886
X8.002Y-5.187
X8.002Y-5.5118
X8.002Y-5.6102
X8.9469Y-4.2421
X8.9469Y-4.3406
X8.9469Y-4.8031
X8.9469Y-4.9016
X8.9469Y-5.0886
X8.9469Y-5.187
X8.9469Y-5.5118
X8.9469Y-5.6102
T3
X6.2904Y-4.3313
X6.5633Y-4.6874
X6.6499Y-5.3405
X6.6732Y-4.1712
X6.7521Y-5.7916
X6.8701Y-5.2319
X6.9017Y-5.7153
X7.0105Y-4.4434
X7.0925Y-5.3232
X7.1297Y-5.3911
X7.1937Y-4.9431
X7.5396Y-4.6179
X7.8234Y-5.721
X7.8329Y-4.9671
X7.9215Y-5.2503
X8.003Y-5.7809
X8.0494Y-4.4026
X8.0499Y-5.1313
X8.0548Y-4.0534
X8.1581Y-5.4977
X8.7553Y-5.0657
X8.7957Y-4.5399
X8.8124Y-4.6522
X8.8324Y-5.6497
X8.8325Y-5.7093
X8.8374Y-4.5822
X8.9742Y-4.0955
X8.9867Y-4.5558
X9.0533Y-5.5739
X9.0635Y-4.7997
X9.1252Y-4.6946
X9.1298Y-4.5738
X9.2456Y-4.5534
X9.2841Y-5.4056
X9.3023Y-5.163
X9.358Y-4.7055
X9.3981Y-5.3114
X9.4231Y-5.1665
X9.438Y-5.0211
X9.4786Y-5.1712
X9.4795Y-5.7236
X9.5246Y-5.1747
X9.5703Y-5.4054
X9.6228Y-4.9413
X9.6711Y-5.7017
T4
X9.0551Y-4.4626
X9.0551Y-4.6713
X9.2496Y-4.9409
X9.5496Y-4.9409
T5
X5.9646Y-5.6193
X5.9646Y-5.7193
X6.0622Y-3.9961
X6.1622Y-3.9961
X6.2787Y-3.9961
X6.3787Y-3.9961
X6.4953Y-3.9961
X6.5232Y-4.1413
X6.5232Y-4.4413
X6.5232Y-4.5646
X6.5232Y-4.8646
X6.5232Y-4.9878
X6.5232Y-5.2878
X6.5232Y-5.411
X6.5232Y-5.711
X6.5953Y-3.9961
X6.6232Y-4.1413
X6.6232Y-4.4413
X6.6232Y-4.5646
X6.6232Y-4.8646
X6.6232Y-4.9878
X6.6232Y-5.2878
X6.6232Y-5.411
X6.6232Y-5.711
X6.7118Y-3.9961
X6.7232Y-4.1413
X6.7232Y-4.4413
X6.7232Y-4.5646
X6.7232Y-4.8646
X6.7232Y-4.9878
X6.7232Y-5.2878
X6.7232Y-5.411
X6.7232Y-5.711
X6.8118Y-3.9961
X6.8232Y-4.1413
X6.8232Y-4.4413
X6.8232Y-4.5646
X6.8232Y-4.8646
X6.8232Y-4.9878
X6.8232Y-5.2878
X6.8232Y-5.411
X6.8232Y-5.711
X6.9283Y-3.9961
X7.0283Y-3.9961
X7.1449Y-3.9961
X7.2449Y-3.9961
X7.3614Y-3.9961
X7.4614Y-3.9961
X7.4681Y-4.1413
X7.4681Y-4.4413
X7.4681Y-4.5646
X7.4681Y-4.8646
X7.4681Y-4.9878
X7.4681Y-5.2878
X7.4681Y-5.411
X7.4681Y-5.711
X7.5681Y-4.1413
X7.5681Y-4.4413
X7.5681Y-4.5646
X7.5681Y-4.8646
X7.5681Y-4.9878
X7.5681Y-5.2878
X7.5681Y-5.411
X7.5681Y-5.711
X7.578Y-3.9961
X7.6681Y-4.1413
X7.6681Y-4.4413
X7.6681Y-4.5646
X7.6681Y-4.8646
X7.6681Y-4.9878
X7.6681Y-5.2878
X7.6681Y-5.411
X7.6681Y-5.711
X7.678Y-3.9961
X7.7681Y-4.1413
X7.7681Y-4.4413
X7.7681Y-4.5646
X7.7681Y-4.8646
X7.7681Y-4.9878
X7.7681Y-5.2878
X7.7681Y-5.411
X7.7681Y-5.711
X7.7945Y-3.9961
X7.8945Y-3.9961
X8.011Y-3.9961
X8.111Y-3.9961
X8.2276Y-3.9961
X8.3276Y-3.9961
X8.413Y-4.1413
X8.413Y-4.4413
X8.413Y-4.5646
X8.413Y-4.8646
X8.413Y-4.9878
X8.413Y-5.2878
X8.413Y-5.411
X8.413Y-5.711
X8.4441Y-3.9961
X8.513Y-4.1413
X8.513Y-4.4413
X8.513Y-4.5646
X8.513Y-4.8646
X8.513Y-4.9878
X8.513Y-5.2878
X8.513Y-5.411
X8.513Y-5.711
X8.5441Y-3.9961
X8.613Y-4.1413
X8.613Y-4.4413
X8.613Y-4.5646
X8.613Y-4.8646
X8.613Y-4.9878
X8.613Y-5.2878
X8.613Y-5.411
X8.613Y-5.711
X8.713Y-4.1413
X8.713Y-4.4413
X8.713Y-4.5646
X8.713Y-4.8646
X8.713Y-4.9878
X8.713Y-5.2878
X8.713Y-5.411
X8.713Y-5.711
X9.3594Y-4.0445
X9.3594Y-4.1445
X9.4594Y-4.0445
X9.576Y-3.9961
X9.585Y-5.6299
X9.6654Y-4.1055
X9.6654Y-4.2055
X9.6654Y-4.3055
X9.6654Y-4.4055
X9.6654Y-4.5055
X9.6654Y-4.6055
X9.6654Y-4.7055
X9.6654Y-4.8055
X9.6654Y-4.9055
X9.6654Y-5.0055
X9.6654Y-5.1055
X9.6654Y-5.2055
X9.6654Y-5.315
X9.6654Y-5.4126
X9.6654Y-5.5126
X9.676Y-3.9961
X9.685Y-5.6299
X9.7835Y-3.9961
X9.7835Y-4.1055
X9.7835Y-4.2055
X9.7835Y-4.3055
X9.7835Y-4.4055
X9.7835Y-4.5055
X9.7835Y-4.6055
X9.7835Y-4.7055
X9.7835Y-4.8055
X9.7835Y-4.9055
X9.7835Y-5.0055
X9.7835Y-5.1055
X9.7835Y-5.2055
X9.7835Y-5.3134
X9.7835Y-5.4134
X9.7835Y-5.5134
X9.785Y-5.6299
T6
X5.9531Y-5.8563
X5.9547Y-3.9846
X5.9547Y-4.0846
X5.9547Y-4.1846
X5.9547Y-4.4079
X5.9547Y-4.5079
X5.9547Y-4.6079
X5.9547Y-4.8311
X5.9547Y-4.9311
X5.9547Y-5.0311
X5.9547Y-5.2543
X5.9547Y-5.3543
X5.9547Y-5.4543
X6.0531Y-5.8563
X6.1531Y-5.8563
X6.5142Y-5.8563
X6.6142Y-5.8563
X6.7142Y-5.8563
X6.9374Y-5.8563
X7.0374Y-5.8563
X7.1374Y-5.8563
X7.3606Y-5.8563
X7.4606Y-5.8563
X7.5606Y-5.8563
X7.7839Y-5.8563
X7.8839Y-5.8563
X7.9839Y-5.8563
X8.2071Y-5.8563
X8.3071Y-5.8563
X8.4071Y-5.8563
X8.6303Y-5.8563
X8.7303Y-5.8563
X8.8303Y-5.8563
X9.0535Y-5.8563
X9.1535Y-5.8563
X9.2535Y-5.8563
X9.4768Y-5.8563
X9.5768Y-5.8563
X9.6768Y-5.8563
T7
X5.3047Y-4.0846
X5.3047Y-4.5079
X5.3047Y-4.9311
X5.3047Y-5.3543
X6.0531Y-6.5063
X6.1417Y-4.3996
X6.1417Y-5.2559
X6.6142Y-6.5063
X7.0374Y-6.5063
X7.4606Y-6.5063
X7.8839Y-6.5063
X8.3071Y-6.5063
X8.7303Y-6.5063
X9.0846Y-4.065
X9.1535Y-6.5063
X9.3406Y-5.502
X9.5768Y-6.5063
T0
M30
