G04 (created by PCBNEW (2013-07-07 BZR 4022)-stable) date 4/3/2014 12:54:25 PM*
%MOIN*%
G04 Gerber Fmt 3.4, Leading zero omitted, Abs format*
%FSLAX34Y34*%
G01*
G70*
G90*
G04 APERTURE LIST*
%ADD10C,0.00590551*%
%ADD11C,0.011811*%
%ADD12C,0.005*%
G04 APERTURE END LIST*
G54D10*
G54D11*
X94825Y-52137D02*
X95219Y-52277D01*
X94825Y-52418D01*
X95219Y-52952D02*
X95219Y-52615D01*
X95219Y-52784D02*
X94628Y-52784D01*
X94713Y-52727D01*
X94769Y-52671D01*
X94797Y-52615D01*
X93757Y-45374D02*
X93757Y-44980D01*
X94375Y-44980D02*
X93194Y-44980D01*
X93194Y-45542D01*
X94375Y-45992D02*
X93588Y-45992D01*
X93194Y-45992D02*
X93250Y-45936D01*
X93307Y-45992D01*
X93250Y-46048D01*
X93194Y-45992D01*
X93307Y-45992D01*
X94375Y-46555D02*
X93194Y-46555D01*
X93644Y-46555D02*
X93588Y-46667D01*
X93588Y-46892D01*
X93644Y-47005D01*
X93700Y-47061D01*
X93813Y-47117D01*
X94150Y-47117D01*
X94263Y-47061D01*
X94319Y-47005D01*
X94375Y-46892D01*
X94375Y-46667D01*
X94319Y-46555D01*
X94375Y-47792D02*
X94319Y-47679D01*
X94263Y-47623D01*
X94150Y-47567D01*
X93813Y-47567D01*
X93700Y-47623D01*
X93644Y-47679D01*
X93588Y-47792D01*
X93588Y-47961D01*
X93644Y-48073D01*
X93700Y-48129D01*
X93813Y-48186D01*
X94150Y-48186D01*
X94263Y-48129D01*
X94319Y-48073D01*
X94375Y-47961D01*
X94375Y-47792D01*
X93588Y-48692D02*
X94375Y-48692D01*
X93700Y-48692D02*
X93644Y-48748D01*
X93588Y-48861D01*
X93588Y-49029D01*
X93644Y-49142D01*
X93757Y-49198D01*
X94375Y-49198D01*
X94375Y-50267D02*
X93757Y-50267D01*
X93644Y-50210D01*
X93588Y-50098D01*
X93588Y-49873D01*
X93644Y-49760D01*
X94319Y-50267D02*
X94375Y-50154D01*
X94375Y-49873D01*
X94319Y-49760D01*
X94206Y-49704D01*
X94094Y-49704D01*
X93982Y-49760D01*
X93925Y-49873D01*
X93925Y-50154D01*
X93869Y-50267D01*
X94319Y-51335D02*
X94375Y-51223D01*
X94375Y-50998D01*
X94319Y-50885D01*
X94263Y-50829D01*
X94150Y-50773D01*
X93813Y-50773D01*
X93700Y-50829D01*
X93644Y-50885D01*
X93588Y-50998D01*
X93588Y-51223D01*
X93644Y-51335D01*
X94319Y-52348D02*
X94375Y-52235D01*
X94375Y-52010D01*
X94319Y-51898D01*
X94263Y-51841D01*
X94150Y-51785D01*
X93813Y-51785D01*
X93700Y-51841D01*
X93644Y-51898D01*
X93588Y-52010D01*
X93588Y-52235D01*
X93644Y-52348D01*
X94375Y-52854D02*
X93588Y-52854D01*
X93194Y-52854D02*
X93250Y-52798D01*
X93307Y-52854D01*
X93250Y-52910D01*
X93194Y-52854D01*
X93307Y-52854D01*
X78951Y-43222D02*
X78979Y-43278D01*
X78979Y-43391D01*
X78951Y-43447D01*
X78894Y-43475D01*
X78866Y-43475D01*
X78810Y-43447D01*
X78782Y-43391D01*
X78782Y-43307D01*
X78754Y-43250D01*
X78697Y-43222D01*
X78669Y-43222D01*
X78613Y-43250D01*
X78585Y-43307D01*
X78585Y-43391D01*
X78613Y-43447D01*
X78979Y-43728D02*
X78585Y-43728D01*
X78388Y-43728D02*
X78416Y-43700D01*
X78444Y-43728D01*
X78416Y-43757D01*
X78388Y-43728D01*
X78444Y-43728D01*
X78585Y-44375D02*
X78585Y-44600D01*
X78388Y-44460D02*
X78894Y-44460D01*
X78951Y-44488D01*
X78979Y-44544D01*
X78979Y-44600D01*
X78585Y-45050D02*
X78979Y-45050D01*
X78585Y-44797D02*
X78894Y-44797D01*
X78951Y-44825D01*
X78979Y-44881D01*
X78979Y-44966D01*
X78951Y-45022D01*
X78922Y-45050D01*
X78585Y-45725D02*
X78979Y-45866D01*
X78585Y-46006D01*
X78951Y-46456D02*
X78979Y-46400D01*
X78979Y-46287D01*
X78951Y-46231D01*
X78894Y-46203D01*
X78669Y-46203D01*
X78613Y-46231D01*
X78585Y-46287D01*
X78585Y-46400D01*
X78613Y-46456D01*
X78669Y-46484D01*
X78726Y-46484D01*
X78782Y-46203D01*
X78585Y-46991D02*
X78979Y-46991D01*
X78585Y-46737D02*
X78894Y-46737D01*
X78951Y-46766D01*
X78979Y-46822D01*
X78979Y-46906D01*
X78951Y-46962D01*
X78922Y-46991D01*
X78979Y-47215D02*
X78585Y-47525D01*
X78585Y-47215D02*
X78979Y-47525D01*
X78979Y-48200D02*
X78585Y-48200D01*
X78697Y-48200D02*
X78641Y-48228D01*
X78613Y-48256D01*
X78585Y-48312D01*
X78585Y-48368D01*
X78979Y-48565D02*
X78585Y-48565D01*
X78388Y-48565D02*
X78416Y-48537D01*
X78444Y-48565D01*
X78416Y-48593D01*
X78388Y-48565D01*
X78444Y-48565D01*
X78951Y-49071D02*
X78979Y-49015D01*
X78979Y-48903D01*
X78951Y-48847D01*
X78894Y-48818D01*
X78669Y-48818D01*
X78613Y-48847D01*
X78585Y-48903D01*
X78585Y-49015D01*
X78613Y-49071D01*
X78669Y-49100D01*
X78726Y-49100D01*
X78782Y-48818D01*
X78585Y-49353D02*
X78979Y-49353D01*
X78641Y-49353D02*
X78613Y-49381D01*
X78585Y-49437D01*
X78585Y-49521D01*
X78613Y-49578D01*
X78669Y-49606D01*
X78979Y-49606D01*
X78585Y-50253D02*
X78585Y-50478D01*
X78388Y-50337D02*
X78894Y-50337D01*
X78951Y-50365D01*
X78979Y-50421D01*
X78979Y-50478D01*
X78585Y-50928D02*
X78979Y-50928D01*
X78585Y-50674D02*
X78894Y-50674D01*
X78951Y-50703D01*
X78979Y-50759D01*
X78979Y-50843D01*
X78951Y-50899D01*
X78922Y-50928D01*
X78979Y-51912D02*
X78669Y-51912D01*
X78613Y-51884D01*
X78585Y-51827D01*
X78585Y-51715D01*
X78613Y-51659D01*
X78951Y-51912D02*
X78979Y-51856D01*
X78979Y-51715D01*
X78951Y-51659D01*
X78894Y-51631D01*
X78838Y-51631D01*
X78782Y-51659D01*
X78754Y-51715D01*
X78754Y-51856D01*
X78726Y-51912D01*
X78951Y-52165D02*
X78979Y-52221D01*
X78979Y-52334D01*
X78951Y-52390D01*
X78894Y-52418D01*
X78866Y-52418D01*
X78810Y-52390D01*
X78782Y-52334D01*
X78782Y-52249D01*
X78754Y-52193D01*
X78697Y-52165D01*
X78669Y-52165D01*
X78613Y-52193D01*
X78585Y-52249D01*
X78585Y-52334D01*
X78613Y-52390D01*
X78585Y-53037D02*
X78585Y-53262D01*
X78388Y-53121D02*
X78894Y-53121D01*
X78951Y-53149D01*
X78979Y-53205D01*
X78979Y-53262D01*
X78979Y-53543D02*
X78951Y-53487D01*
X78922Y-53458D01*
X78866Y-53430D01*
X78697Y-53430D01*
X78641Y-53458D01*
X78613Y-53487D01*
X78585Y-53543D01*
X78585Y-53627D01*
X78613Y-53683D01*
X78641Y-53712D01*
X78697Y-53740D01*
X78866Y-53740D01*
X78922Y-53712D01*
X78951Y-53683D01*
X78979Y-53627D01*
X78979Y-53543D01*
X78585Y-54246D02*
X78979Y-54246D01*
X78585Y-53993D02*
X78894Y-53993D01*
X78951Y-54021D01*
X78979Y-54077D01*
X78979Y-54161D01*
X78951Y-54218D01*
X78922Y-54246D01*
X78585Y-54443D02*
X78585Y-54668D01*
X78388Y-54527D02*
X78894Y-54527D01*
X78951Y-54555D01*
X78979Y-54611D01*
X78979Y-54668D01*
X69502Y-43321D02*
X69530Y-43377D01*
X69530Y-43489D01*
X69502Y-43546D01*
X69446Y-43574D01*
X69417Y-43574D01*
X69361Y-43546D01*
X69333Y-43489D01*
X69333Y-43405D01*
X69305Y-43349D01*
X69249Y-43321D01*
X69221Y-43321D01*
X69164Y-43349D01*
X69136Y-43405D01*
X69136Y-43489D01*
X69164Y-43546D01*
X69530Y-43827D02*
X69136Y-43827D01*
X68939Y-43827D02*
X68967Y-43799D01*
X68996Y-43827D01*
X68967Y-43855D01*
X68939Y-43827D01*
X68996Y-43827D01*
X69136Y-44474D02*
X69136Y-44699D01*
X68939Y-44558D02*
X69446Y-44558D01*
X69502Y-44586D01*
X69530Y-44642D01*
X69530Y-44699D01*
X69136Y-45149D02*
X69530Y-45149D01*
X69136Y-44895D02*
X69446Y-44895D01*
X69502Y-44924D01*
X69530Y-44980D01*
X69530Y-45064D01*
X69502Y-45120D01*
X69474Y-45149D01*
X69136Y-45823D02*
X69530Y-45964D01*
X69136Y-46105D01*
X69502Y-46555D02*
X69530Y-46498D01*
X69530Y-46386D01*
X69502Y-46330D01*
X69446Y-46302D01*
X69221Y-46302D01*
X69164Y-46330D01*
X69136Y-46386D01*
X69136Y-46498D01*
X69164Y-46555D01*
X69221Y-46583D01*
X69277Y-46583D01*
X69333Y-46302D01*
X69136Y-47089D02*
X69530Y-47089D01*
X69136Y-46836D02*
X69446Y-46836D01*
X69502Y-46864D01*
X69530Y-46920D01*
X69530Y-47005D01*
X69502Y-47061D01*
X69474Y-47089D01*
X69530Y-47314D02*
X69136Y-47623D01*
X69136Y-47314D02*
X69530Y-47623D01*
X69136Y-48214D02*
X69136Y-48439D01*
X68939Y-48298D02*
X69446Y-48298D01*
X69502Y-48326D01*
X69530Y-48383D01*
X69530Y-48439D01*
X69530Y-48720D02*
X69502Y-48664D01*
X69474Y-48636D01*
X69417Y-48607D01*
X69249Y-48607D01*
X69192Y-48636D01*
X69164Y-48664D01*
X69136Y-48720D01*
X69136Y-48804D01*
X69164Y-48861D01*
X69192Y-48889D01*
X69249Y-48917D01*
X69417Y-48917D01*
X69474Y-48889D01*
X69502Y-48861D01*
X69530Y-48804D01*
X69530Y-48720D01*
X69136Y-49423D02*
X69530Y-49423D01*
X69136Y-49170D02*
X69446Y-49170D01*
X69502Y-49198D01*
X69530Y-49254D01*
X69530Y-49339D01*
X69502Y-49395D01*
X69474Y-49423D01*
X69136Y-49620D02*
X69136Y-49845D01*
X68939Y-49704D02*
X69446Y-49704D01*
X69502Y-49732D01*
X69530Y-49789D01*
X69530Y-49845D01*
X69136Y-50407D02*
X69136Y-50632D01*
X68939Y-50492D02*
X69446Y-50492D01*
X69502Y-50520D01*
X69530Y-50576D01*
X69530Y-50632D01*
X69136Y-51082D02*
X69530Y-51082D01*
X69136Y-50829D02*
X69446Y-50829D01*
X69502Y-50857D01*
X69530Y-50913D01*
X69530Y-50998D01*
X69502Y-51054D01*
X69474Y-51082D01*
X69530Y-52066D02*
X69221Y-52066D01*
X69164Y-52038D01*
X69136Y-51982D01*
X69136Y-51870D01*
X69164Y-51813D01*
X69502Y-52066D02*
X69530Y-52010D01*
X69530Y-51870D01*
X69502Y-51813D01*
X69446Y-51785D01*
X69389Y-51785D01*
X69333Y-51813D01*
X69305Y-51870D01*
X69305Y-52010D01*
X69277Y-52066D01*
X69502Y-52320D02*
X69530Y-52376D01*
X69530Y-52488D01*
X69502Y-52544D01*
X69446Y-52573D01*
X69417Y-52573D01*
X69361Y-52544D01*
X69333Y-52488D01*
X69333Y-52404D01*
X69305Y-52348D01*
X69249Y-52320D01*
X69221Y-52320D01*
X69164Y-52348D01*
X69136Y-52404D01*
X69136Y-52488D01*
X69164Y-52544D01*
X69530Y-53276D02*
X69136Y-53276D01*
X69249Y-53276D02*
X69192Y-53304D01*
X69164Y-53332D01*
X69136Y-53388D01*
X69136Y-53444D01*
X69530Y-53641D02*
X69136Y-53641D01*
X68939Y-53641D02*
X68967Y-53613D01*
X68996Y-53641D01*
X68967Y-53669D01*
X68939Y-53641D01*
X68996Y-53641D01*
X69502Y-54147D02*
X69530Y-54091D01*
X69530Y-53979D01*
X69502Y-53922D01*
X69446Y-53894D01*
X69221Y-53894D01*
X69164Y-53922D01*
X69136Y-53979D01*
X69136Y-54091D01*
X69164Y-54147D01*
X69221Y-54176D01*
X69277Y-54176D01*
X69333Y-53894D01*
X69136Y-54429D02*
X69530Y-54429D01*
X69192Y-54429D02*
X69164Y-54457D01*
X69136Y-54513D01*
X69136Y-54597D01*
X69164Y-54654D01*
X69221Y-54682D01*
X69530Y-54682D01*
X66549Y-42168D02*
X66549Y-42561D01*
X66690Y-41943D02*
X66830Y-42365D01*
X66465Y-42365D01*
X66296Y-41971D02*
X65902Y-41971D01*
X66155Y-42561D01*
X65677Y-42168D02*
X65677Y-42561D01*
X65677Y-42224D02*
X65649Y-42196D01*
X65593Y-42168D01*
X65508Y-42168D01*
X65452Y-42196D01*
X65424Y-42252D01*
X65424Y-42561D01*
X65227Y-42168D02*
X65002Y-42168D01*
X65143Y-42561D02*
X65143Y-42055D01*
X65115Y-41999D01*
X65059Y-41971D01*
X65002Y-41971D01*
X65663Y-43546D02*
X66001Y-43546D01*
X65832Y-43546D02*
X65832Y-42955D01*
X65888Y-43039D01*
X65944Y-43096D01*
X66001Y-43124D01*
X65298Y-42955D02*
X65241Y-42955D01*
X65185Y-42983D01*
X65157Y-43011D01*
X65129Y-43068D01*
X65101Y-43180D01*
X65101Y-43321D01*
X65129Y-43433D01*
X65157Y-43489D01*
X65185Y-43517D01*
X65241Y-43546D01*
X65298Y-43546D01*
X65354Y-43517D01*
X65382Y-43489D01*
X65410Y-43433D01*
X65438Y-43321D01*
X65438Y-43180D01*
X65410Y-43068D01*
X65382Y-43011D01*
X65354Y-42983D01*
X65298Y-42955D01*
X83309Y-55357D02*
X83309Y-55019D01*
X83309Y-55188D02*
X82719Y-55188D01*
X82803Y-55132D01*
X82859Y-55075D01*
X82888Y-55019D01*
X82719Y-55722D02*
X82719Y-55778D01*
X82747Y-55835D01*
X82775Y-55863D01*
X82831Y-55891D01*
X82944Y-55919D01*
X83084Y-55919D01*
X83197Y-55891D01*
X83253Y-55863D01*
X83281Y-55835D01*
X83309Y-55778D01*
X83309Y-55722D01*
X83281Y-55666D01*
X83253Y-55638D01*
X83197Y-55610D01*
X83084Y-55582D01*
X82944Y-55582D01*
X82831Y-55610D01*
X82775Y-55638D01*
X82747Y-55666D01*
X82719Y-55722D01*
X83309Y-56172D02*
X82719Y-56172D01*
X83084Y-56228D02*
X83309Y-56397D01*
X82916Y-56397D02*
X83141Y-56172D01*
X73861Y-55258D02*
X73861Y-54921D01*
X73861Y-55089D02*
X73270Y-55089D01*
X73354Y-55033D01*
X73411Y-54977D01*
X73439Y-54921D01*
X73270Y-55624D02*
X73270Y-55680D01*
X73298Y-55736D01*
X73326Y-55764D01*
X73383Y-55793D01*
X73495Y-55821D01*
X73636Y-55821D01*
X73748Y-55793D01*
X73804Y-55764D01*
X73832Y-55736D01*
X73861Y-55680D01*
X73861Y-55624D01*
X73832Y-55568D01*
X73804Y-55539D01*
X73748Y-55511D01*
X73636Y-55483D01*
X73495Y-55483D01*
X73383Y-55511D01*
X73326Y-55539D01*
X73298Y-55568D01*
X73270Y-55624D01*
X73861Y-56074D02*
X73270Y-56074D01*
X73636Y-56130D02*
X73861Y-56299D01*
X73467Y-56299D02*
X73692Y-56074D01*
X96709Y-57817D02*
X97047Y-57817D01*
X96878Y-57817D02*
X96878Y-57227D01*
X96934Y-57311D01*
X96991Y-57367D01*
X97047Y-57395D01*
X96344Y-57227D02*
X96287Y-57227D01*
X96231Y-57255D01*
X96203Y-57283D01*
X96175Y-57339D01*
X96147Y-57452D01*
X96147Y-57592D01*
X96175Y-57705D01*
X96203Y-57761D01*
X96231Y-57789D01*
X96287Y-57817D01*
X96344Y-57817D01*
X96400Y-57789D01*
X96428Y-57761D01*
X96456Y-57705D01*
X96484Y-57592D01*
X96484Y-57452D01*
X96456Y-57339D01*
X96428Y-57283D01*
X96400Y-57255D01*
X96344Y-57227D01*
X95894Y-57817D02*
X95894Y-57227D01*
X95838Y-57592D02*
X95669Y-57817D01*
X95669Y-57424D02*
X95894Y-57649D01*
X92857Y-56833D02*
X92857Y-56496D01*
X92857Y-56664D02*
X92266Y-56664D01*
X92350Y-56608D01*
X92407Y-56552D01*
X92435Y-56496D01*
X92266Y-57199D02*
X92266Y-57255D01*
X92294Y-57311D01*
X92322Y-57339D01*
X92379Y-57367D01*
X92491Y-57395D01*
X92632Y-57395D01*
X92744Y-57367D01*
X92800Y-57339D01*
X92829Y-57311D01*
X92857Y-57255D01*
X92857Y-57199D01*
X92829Y-57142D01*
X92800Y-57114D01*
X92744Y-57086D01*
X92632Y-57058D01*
X92491Y-57058D01*
X92379Y-57086D01*
X92322Y-57114D01*
X92294Y-57142D01*
X92266Y-57199D01*
X92857Y-57649D02*
X92266Y-57649D01*
X92632Y-57705D02*
X92857Y-57874D01*
X92463Y-57874D02*
X92688Y-57649D01*
X88624Y-56833D02*
X88624Y-56496D01*
X88624Y-56664D02*
X88034Y-56664D01*
X88118Y-56608D01*
X88174Y-56552D01*
X88203Y-56496D01*
X88034Y-57199D02*
X88034Y-57255D01*
X88062Y-57311D01*
X88090Y-57339D01*
X88146Y-57367D01*
X88259Y-57395D01*
X88399Y-57395D01*
X88512Y-57367D01*
X88568Y-57339D01*
X88596Y-57311D01*
X88624Y-57255D01*
X88624Y-57199D01*
X88596Y-57142D01*
X88568Y-57114D01*
X88512Y-57086D01*
X88399Y-57058D01*
X88259Y-57058D01*
X88146Y-57086D01*
X88090Y-57114D01*
X88062Y-57142D01*
X88034Y-57199D01*
X88624Y-57649D02*
X88034Y-57649D01*
X88399Y-57705D02*
X88624Y-57874D01*
X88231Y-57874D02*
X88456Y-57649D01*
X80160Y-56931D02*
X80160Y-56594D01*
X80160Y-56763D02*
X79569Y-56763D01*
X79654Y-56706D01*
X79710Y-56650D01*
X79738Y-56594D01*
X79569Y-57297D02*
X79569Y-57353D01*
X79597Y-57410D01*
X79625Y-57438D01*
X79682Y-57466D01*
X79794Y-57494D01*
X79935Y-57494D01*
X80047Y-57466D01*
X80104Y-57438D01*
X80132Y-57410D01*
X80160Y-57353D01*
X80160Y-57297D01*
X80132Y-57241D01*
X80104Y-57213D01*
X80047Y-57185D01*
X79935Y-57156D01*
X79794Y-57156D01*
X79682Y-57185D01*
X79625Y-57213D01*
X79597Y-57241D01*
X79569Y-57297D01*
X80160Y-57747D02*
X79569Y-57747D01*
X79935Y-57803D02*
X80160Y-57972D01*
X79766Y-57972D02*
X79991Y-57747D01*
X71695Y-56833D02*
X71695Y-56496D01*
X71695Y-56664D02*
X71105Y-56664D01*
X71189Y-56608D01*
X71245Y-56552D01*
X71273Y-56496D01*
X71105Y-57199D02*
X71105Y-57255D01*
X71133Y-57311D01*
X71161Y-57339D01*
X71217Y-57367D01*
X71330Y-57395D01*
X71470Y-57395D01*
X71583Y-57367D01*
X71639Y-57339D01*
X71667Y-57311D01*
X71695Y-57255D01*
X71695Y-57199D01*
X71667Y-57142D01*
X71639Y-57114D01*
X71583Y-57086D01*
X71470Y-57058D01*
X71330Y-57058D01*
X71217Y-57086D01*
X71161Y-57114D01*
X71133Y-57142D01*
X71105Y-57199D01*
X71695Y-57649D02*
X71105Y-57649D01*
X71470Y-57705D02*
X71695Y-57874D01*
X71302Y-57874D02*
X71526Y-57649D01*
X64412Y-55258D02*
X64412Y-54921D01*
X64412Y-55089D02*
X63821Y-55089D01*
X63906Y-55033D01*
X63962Y-54977D01*
X63990Y-54921D01*
X63821Y-55624D02*
X63821Y-55680D01*
X63849Y-55736D01*
X63877Y-55764D01*
X63934Y-55793D01*
X64046Y-55821D01*
X64187Y-55821D01*
X64299Y-55793D01*
X64356Y-55764D01*
X64384Y-55736D01*
X64412Y-55680D01*
X64412Y-55624D01*
X64384Y-55568D01*
X64356Y-55539D01*
X64299Y-55511D01*
X64187Y-55483D01*
X64046Y-55483D01*
X63934Y-55511D01*
X63877Y-55539D01*
X63849Y-55568D01*
X63821Y-55624D01*
X64412Y-56074D02*
X63821Y-56074D01*
X64187Y-56130D02*
X64412Y-56299D01*
X64018Y-56299D02*
X64243Y-56074D01*
X62542Y-55652D02*
X62542Y-55314D01*
X62542Y-55483D02*
X61951Y-55483D01*
X62035Y-55427D01*
X62092Y-55371D01*
X62120Y-55314D01*
X61951Y-56017D02*
X61951Y-56074D01*
X61979Y-56130D01*
X62007Y-56158D01*
X62064Y-56186D01*
X62176Y-56214D01*
X62317Y-56214D01*
X62429Y-56186D01*
X62485Y-56158D01*
X62514Y-56130D01*
X62542Y-56074D01*
X62542Y-56017D01*
X62514Y-55961D01*
X62485Y-55933D01*
X62429Y-55905D01*
X62317Y-55877D01*
X62176Y-55877D01*
X62064Y-55905D01*
X62007Y-55933D01*
X61979Y-55961D01*
X61951Y-56017D01*
X62542Y-56467D02*
X61951Y-56467D01*
X62317Y-56524D02*
X62542Y-56692D01*
X62148Y-56692D02*
X62373Y-56467D01*
X61670Y-49550D02*
X62007Y-49550D01*
X61839Y-49550D02*
X61839Y-48959D01*
X61895Y-49043D01*
X61951Y-49100D01*
X62007Y-49128D01*
X61304Y-48959D02*
X61248Y-48959D01*
X61192Y-48987D01*
X61164Y-49015D01*
X61136Y-49071D01*
X61107Y-49184D01*
X61107Y-49325D01*
X61136Y-49437D01*
X61164Y-49493D01*
X61192Y-49521D01*
X61248Y-49550D01*
X61304Y-49550D01*
X61361Y-49521D01*
X61389Y-49493D01*
X61417Y-49437D01*
X61445Y-49325D01*
X61445Y-49184D01*
X61417Y-49071D01*
X61389Y-49015D01*
X61361Y-48987D01*
X61304Y-48959D01*
X60854Y-49550D02*
X60854Y-48959D01*
X60798Y-49325D02*
X60629Y-49550D01*
X60629Y-49156D02*
X60854Y-49381D01*
X61670Y-47384D02*
X62007Y-47384D01*
X61839Y-47384D02*
X61839Y-46794D01*
X61895Y-46878D01*
X61951Y-46934D01*
X62007Y-46962D01*
X61304Y-46794D02*
X61248Y-46794D01*
X61192Y-46822D01*
X61164Y-46850D01*
X61136Y-46906D01*
X61107Y-47019D01*
X61107Y-47159D01*
X61136Y-47272D01*
X61164Y-47328D01*
X61192Y-47356D01*
X61248Y-47384D01*
X61304Y-47384D01*
X61361Y-47356D01*
X61389Y-47328D01*
X61417Y-47272D01*
X61445Y-47159D01*
X61445Y-47019D01*
X61417Y-46906D01*
X61389Y-46850D01*
X61361Y-46822D01*
X61304Y-46794D01*
X60854Y-47384D02*
X60854Y-46794D01*
X60798Y-47159D02*
X60629Y-47384D01*
X60629Y-46991D02*
X60854Y-47215D01*
X61670Y-41183D02*
X62007Y-41183D01*
X61839Y-41183D02*
X61839Y-40593D01*
X61895Y-40677D01*
X61951Y-40733D01*
X62007Y-40762D01*
X61304Y-40593D02*
X61248Y-40593D01*
X61192Y-40621D01*
X61164Y-40649D01*
X61136Y-40705D01*
X61107Y-40818D01*
X61107Y-40958D01*
X61136Y-41071D01*
X61164Y-41127D01*
X61192Y-41155D01*
X61248Y-41183D01*
X61304Y-41183D01*
X61361Y-41155D01*
X61389Y-41127D01*
X61417Y-41071D01*
X61445Y-40958D01*
X61445Y-40818D01*
X61417Y-40705D01*
X61389Y-40649D01*
X61361Y-40621D01*
X61304Y-40593D01*
X60854Y-41183D02*
X60854Y-40593D01*
X60798Y-40958D02*
X60629Y-41183D01*
X60629Y-40790D02*
X60854Y-41015D01*
G54D12*
X75870Y-47989D02*
X75870Y-47089D01*
X75870Y-47089D02*
X76520Y-47089D01*
X77220Y-47989D02*
X77870Y-47989D01*
X77870Y-47989D02*
X77870Y-47089D01*
X77870Y-47089D02*
X77220Y-47089D01*
X76520Y-47989D02*
X75870Y-47989D01*
X75870Y-43757D02*
X75870Y-42857D01*
X75870Y-42857D02*
X76520Y-42857D01*
X77220Y-43757D02*
X77870Y-43757D01*
X77870Y-43757D02*
X77870Y-42857D01*
X77870Y-42857D02*
X77220Y-42857D01*
X76520Y-43757D02*
X75870Y-43757D01*
X65607Y-56610D02*
X64707Y-56610D01*
X64707Y-56610D02*
X64707Y-55960D01*
X65607Y-55260D02*
X65607Y-54610D01*
X65607Y-54610D02*
X64707Y-54610D01*
X64707Y-54610D02*
X64707Y-55260D01*
X65607Y-55960D02*
X65607Y-56610D01*
X84505Y-56610D02*
X83605Y-56610D01*
X83605Y-56610D02*
X83605Y-55960D01*
X84505Y-55260D02*
X84505Y-54610D01*
X84505Y-54610D02*
X83605Y-54610D01*
X83605Y-54610D02*
X83605Y-55260D01*
X84505Y-55960D02*
X84505Y-56610D01*
X75056Y-56610D02*
X74156Y-56610D01*
X74156Y-56610D02*
X74156Y-55960D01*
X75056Y-55260D02*
X75056Y-54610D01*
X75056Y-54610D02*
X74156Y-54610D01*
X74156Y-54610D02*
X74156Y-55260D01*
X75056Y-55960D02*
X75056Y-56610D01*
X75870Y-52221D02*
X75870Y-51321D01*
X75870Y-51321D02*
X76520Y-51321D01*
X77220Y-52221D02*
X77870Y-52221D01*
X77870Y-52221D02*
X77870Y-51321D01*
X77870Y-51321D02*
X77220Y-51321D01*
X76520Y-52221D02*
X75870Y-52221D01*
X75870Y-56453D02*
X75870Y-55553D01*
X75870Y-55553D02*
X76520Y-55553D01*
X77220Y-56453D02*
X77870Y-56453D01*
X77870Y-56453D02*
X77870Y-55553D01*
X77870Y-55553D02*
X77220Y-55553D01*
X76520Y-56453D02*
X75870Y-56453D01*
X81355Y-58972D02*
X80455Y-58972D01*
X80455Y-58972D02*
X80455Y-58322D01*
X81355Y-57622D02*
X81355Y-56972D01*
X81355Y-56972D02*
X80455Y-56972D01*
X80455Y-56972D02*
X80455Y-57622D01*
X81355Y-58322D02*
X81355Y-58972D01*
X85318Y-52123D02*
X85318Y-51223D01*
X85318Y-51223D02*
X85968Y-51223D01*
X86668Y-52123D02*
X87318Y-52123D01*
X87318Y-52123D02*
X87318Y-51223D01*
X87318Y-51223D02*
X86668Y-51223D01*
X85968Y-52123D02*
X85318Y-52123D01*
X72890Y-58874D02*
X71990Y-58874D01*
X71990Y-58874D02*
X71990Y-58224D01*
X72890Y-57524D02*
X72890Y-56874D01*
X72890Y-56874D02*
X71990Y-56874D01*
X71990Y-56874D02*
X71990Y-57524D01*
X72890Y-58224D02*
X72890Y-58874D01*
X66224Y-43757D02*
X66224Y-42857D01*
X66224Y-42857D02*
X66874Y-42857D01*
X67574Y-43757D02*
X68224Y-43757D01*
X68224Y-43757D02*
X68224Y-42857D01*
X68224Y-42857D02*
X67574Y-42857D01*
X66874Y-43757D02*
X66224Y-43757D01*
X95135Y-43027D02*
X94235Y-43027D01*
X94235Y-43027D02*
X94235Y-42377D01*
X95135Y-41677D02*
X95135Y-41027D01*
X95135Y-41027D02*
X94235Y-41027D01*
X94235Y-41027D02*
X94235Y-41677D01*
X95135Y-42377D02*
X95135Y-43027D01*
X91716Y-43068D02*
X91716Y-42168D01*
X91716Y-42168D02*
X92366Y-42168D01*
X93066Y-43068D02*
X93716Y-43068D01*
X93716Y-43068D02*
X93716Y-42168D01*
X93716Y-42168D02*
X93066Y-42168D01*
X92366Y-43068D02*
X91716Y-43068D01*
X93094Y-44249D02*
X93094Y-43349D01*
X93094Y-43349D02*
X93744Y-43349D01*
X94444Y-44249D02*
X95094Y-44249D01*
X95094Y-44249D02*
X95094Y-43349D01*
X95094Y-43349D02*
X94444Y-43349D01*
X93744Y-44249D02*
X93094Y-44249D01*
X60318Y-42280D02*
X60318Y-41380D01*
X60318Y-41380D02*
X60968Y-41380D01*
X61668Y-42280D02*
X62318Y-42280D01*
X62318Y-42280D02*
X62318Y-41380D01*
X62318Y-41380D02*
X61668Y-41380D01*
X60968Y-42280D02*
X60318Y-42280D01*
X85318Y-43757D02*
X85318Y-42857D01*
X85318Y-42857D02*
X85968Y-42857D01*
X86668Y-43757D02*
X87318Y-43757D01*
X87318Y-43757D02*
X87318Y-42857D01*
X87318Y-42857D02*
X86668Y-42857D01*
X85968Y-43757D02*
X85318Y-43757D01*
X98284Y-58972D02*
X97384Y-58972D01*
X97384Y-58972D02*
X97384Y-58322D01*
X98284Y-57622D02*
X98284Y-56972D01*
X98284Y-56972D02*
X97384Y-56972D01*
X97384Y-56972D02*
X97384Y-57622D01*
X98284Y-58322D02*
X98284Y-58972D01*
X66322Y-56453D02*
X66322Y-55553D01*
X66322Y-55553D02*
X66972Y-55553D01*
X67672Y-56453D02*
X68322Y-56453D01*
X68322Y-56453D02*
X68322Y-55553D01*
X68322Y-55553D02*
X67672Y-55553D01*
X66972Y-56453D02*
X66322Y-56453D01*
X60318Y-46512D02*
X60318Y-45612D01*
X60318Y-45612D02*
X60968Y-45612D01*
X61668Y-46512D02*
X62318Y-46512D01*
X62318Y-46512D02*
X62318Y-45612D01*
X62318Y-45612D02*
X61668Y-45612D01*
X60968Y-46512D02*
X60318Y-46512D01*
X85318Y-47890D02*
X85318Y-46990D01*
X85318Y-46990D02*
X85968Y-46990D01*
X86668Y-47890D02*
X87318Y-47890D01*
X87318Y-47890D02*
X87318Y-46990D01*
X87318Y-46990D02*
X86668Y-46990D01*
X85968Y-47890D02*
X85318Y-47890D01*
X94052Y-58972D02*
X93152Y-58972D01*
X93152Y-58972D02*
X93152Y-58322D01*
X94052Y-57622D02*
X94052Y-56972D01*
X94052Y-56972D02*
X93152Y-56972D01*
X93152Y-56972D02*
X93152Y-57622D01*
X94052Y-58322D02*
X94052Y-58972D01*
X66322Y-52221D02*
X66322Y-51321D01*
X66322Y-51321D02*
X66972Y-51321D01*
X67672Y-52221D02*
X68322Y-52221D01*
X68322Y-52221D02*
X68322Y-51321D01*
X68322Y-51321D02*
X67672Y-51321D01*
X66972Y-52221D02*
X66322Y-52221D01*
X60318Y-50745D02*
X60318Y-49845D01*
X60318Y-49845D02*
X60968Y-49845D01*
X61668Y-50745D02*
X62318Y-50745D01*
X62318Y-50745D02*
X62318Y-49845D01*
X62318Y-49845D02*
X61668Y-49845D01*
X60968Y-50745D02*
X60318Y-50745D01*
X66421Y-47989D02*
X66421Y-47089D01*
X66421Y-47089D02*
X67071Y-47089D01*
X67771Y-47989D02*
X68421Y-47989D01*
X68421Y-47989D02*
X68421Y-47089D01*
X68421Y-47089D02*
X67771Y-47089D01*
X67071Y-47989D02*
X66421Y-47989D01*
X60417Y-54977D02*
X60417Y-54077D01*
X60417Y-54077D02*
X61067Y-54077D01*
X61767Y-54977D02*
X62417Y-54977D01*
X62417Y-54977D02*
X62417Y-54077D01*
X62417Y-54077D02*
X61767Y-54077D01*
X61067Y-54977D02*
X60417Y-54977D01*
X89820Y-58972D02*
X88920Y-58972D01*
X88920Y-58972D02*
X88920Y-58322D01*
X89820Y-57622D02*
X89820Y-56972D01*
X89820Y-56972D02*
X88920Y-56972D01*
X88920Y-56972D02*
X88920Y-57622D01*
X89820Y-58322D02*
X89820Y-58972D01*
X85318Y-56453D02*
X85318Y-55553D01*
X85318Y-55553D02*
X85968Y-55553D01*
X86668Y-56453D02*
X87318Y-56453D01*
X87318Y-56453D02*
X87318Y-55553D01*
X87318Y-55553D02*
X86668Y-55553D01*
X85968Y-56453D02*
X85318Y-56453D01*
X76912Y-46805D02*
X77812Y-46805D01*
X77812Y-46805D02*
X77812Y-46305D01*
X77812Y-46305D02*
X76912Y-46305D01*
X76912Y-46305D02*
X76912Y-46805D01*
X67364Y-55269D02*
X68264Y-55269D01*
X68264Y-55269D02*
X68264Y-54769D01*
X68264Y-54769D02*
X67364Y-54769D01*
X67364Y-54769D02*
X67364Y-55269D01*
X86361Y-42572D02*
X87261Y-42572D01*
X87261Y-42572D02*
X87261Y-42072D01*
X87261Y-42072D02*
X86361Y-42072D01*
X86361Y-42072D02*
X86361Y-42572D01*
X86361Y-55269D02*
X87261Y-55269D01*
X87261Y-55269D02*
X87261Y-54769D01*
X87261Y-54769D02*
X86361Y-54769D01*
X86361Y-54769D02*
X86361Y-55269D01*
X76912Y-51037D02*
X77812Y-51037D01*
X77812Y-51037D02*
X77812Y-50537D01*
X77812Y-50537D02*
X76912Y-50537D01*
X76912Y-50537D02*
X76912Y-51037D01*
X76912Y-42572D02*
X77812Y-42572D01*
X77812Y-42572D02*
X77812Y-42072D01*
X77812Y-42072D02*
X76912Y-42072D01*
X76912Y-42072D02*
X76912Y-42572D01*
X86361Y-46706D02*
X87261Y-46706D01*
X87261Y-46706D02*
X87261Y-46206D01*
X87261Y-46206D02*
X86361Y-46206D01*
X86361Y-46206D02*
X86361Y-46706D01*
X67364Y-51037D02*
X68264Y-51037D01*
X68264Y-51037D02*
X68264Y-50537D01*
X68264Y-50537D02*
X67364Y-50537D01*
X67364Y-50537D02*
X67364Y-51037D01*
X67463Y-46805D02*
X68363Y-46805D01*
X68363Y-46805D02*
X68363Y-46305D01*
X68363Y-46305D02*
X67463Y-46305D01*
X67463Y-46305D02*
X67463Y-46805D01*
X86361Y-50938D02*
X87261Y-50938D01*
X87261Y-50938D02*
X87261Y-50438D01*
X87261Y-50438D02*
X86361Y-50438D01*
X86361Y-50438D02*
X86361Y-50938D01*
X76912Y-55269D02*
X77812Y-55269D01*
X77812Y-55269D02*
X77812Y-54769D01*
X77812Y-54769D02*
X76912Y-54769D01*
X76912Y-54769D02*
X76912Y-55269D01*
X67266Y-42572D02*
X68166Y-42572D01*
X68166Y-42572D02*
X68166Y-42072D01*
X68166Y-42072D02*
X67266Y-42072D01*
X67266Y-42072D02*
X67266Y-42572D01*
M02*
