G04 (created by PCBNEW (2013-07-07 BZR 4022)-stable) date 4/3/2014 12:54:25 PM*
%MOIN*%
G04 Gerber Fmt 3.4, Leading zero omitted, Abs format*
%FSLAX34Y34*%
G01*
G70*
G90*
G04 APERTURE LIST*
%ADD10C,0.00590551*%
%ADD11R,0.055X0.055*%
%ADD12C,0.055*%
%ADD13R,0.35X0.35*%
%ADD14C,0.07*%
%ADD15R,0.07X0.07*%
%ADD16C,0.0354331*%
%ADD17R,0.06X0.08*%
%ADD18R,0.08X0.06*%
%ADD19C,0.0590551*%
%ADD20R,0.025X0.045*%
%ADD21C,0.16*%
%ADD22C,0.0708661*%
%ADD23C,0.035*%
%ADD24C,0.0149606*%
%ADD25C,0.01*%
G04 APERTURE END LIST*
G54D10*
G54D11*
X94594Y-40444D03*
G54D12*
X93594Y-40444D03*
X93594Y-41444D03*
G54D13*
X83070Y-65062D03*
G54D14*
X84070Y-58562D03*
X83070Y-58562D03*
G54D15*
X82070Y-58562D03*
G54D13*
X95767Y-65062D03*
G54D14*
X96767Y-58562D03*
X95767Y-58562D03*
G54D15*
X94767Y-58562D03*
G54D13*
X53047Y-45078D03*
G54D14*
X59547Y-46078D03*
X59547Y-45078D03*
G54D15*
X59547Y-44078D03*
G54D13*
X70374Y-65062D03*
G54D14*
X71374Y-58562D03*
X70374Y-58562D03*
G54D15*
X69374Y-58562D03*
G54D13*
X53047Y-49311D03*
G54D14*
X59547Y-50311D03*
X59547Y-49311D03*
G54D15*
X59547Y-48311D03*
G54D13*
X74606Y-65062D03*
G54D14*
X75606Y-58562D03*
X74606Y-58562D03*
G54D15*
X73606Y-58562D03*
G54D13*
X91535Y-65062D03*
G54D14*
X92535Y-58562D03*
X91535Y-58562D03*
G54D15*
X90535Y-58562D03*
G54D13*
X53047Y-53543D03*
G54D14*
X59547Y-54543D03*
X59547Y-53543D03*
G54D15*
X59547Y-52543D03*
G54D13*
X53047Y-40846D03*
G54D14*
X59547Y-41846D03*
X59547Y-40846D03*
G54D15*
X59547Y-39846D03*
G54D13*
X78838Y-65062D03*
G54D14*
X79838Y-58562D03*
X78838Y-58562D03*
G54D15*
X77838Y-58562D03*
G54D13*
X87303Y-65062D03*
G54D14*
X88303Y-58562D03*
X87303Y-58562D03*
G54D15*
X86303Y-58562D03*
G54D13*
X66141Y-65062D03*
G54D14*
X67141Y-58562D03*
X66141Y-58562D03*
G54D15*
X65141Y-58562D03*
X59531Y-58562D03*
G54D14*
X61531Y-58562D03*
X60531Y-58562D03*
G54D13*
X60531Y-65062D03*
G54D11*
X97834Y-53133D03*
G54D12*
X97834Y-54133D03*
X97834Y-55133D03*
G54D11*
X67118Y-39960D03*
G54D12*
X68118Y-39960D03*
G54D11*
X77944Y-39960D03*
G54D12*
X78944Y-39960D03*
G54D11*
X62787Y-39960D03*
G54D12*
X63787Y-39960D03*
G54D11*
X69283Y-39960D03*
G54D12*
X70283Y-39960D03*
G54D11*
X82275Y-39960D03*
G54D12*
X83275Y-39960D03*
G54D11*
X64952Y-39960D03*
G54D12*
X65952Y-39960D03*
G54D11*
X80110Y-39960D03*
G54D12*
X81110Y-39960D03*
G54D11*
X71448Y-39960D03*
G54D12*
X72448Y-39960D03*
G54D11*
X96759Y-39960D03*
G54D12*
X95759Y-39960D03*
G54D11*
X96653Y-55125D03*
G54D12*
X96653Y-54125D03*
G54D11*
X75779Y-39960D03*
G54D12*
X76779Y-39960D03*
G54D11*
X84440Y-39960D03*
G54D12*
X85440Y-39960D03*
G54D11*
X60622Y-39960D03*
G54D12*
X61622Y-39960D03*
G54D11*
X73614Y-39960D03*
G54D12*
X74614Y-39960D03*
G54D11*
X59645Y-57192D03*
G54D12*
X59645Y-56192D03*
G54D11*
X96653Y-52055D03*
G54D12*
X96653Y-51055D03*
X96653Y-50055D03*
X96653Y-49055D03*
X96653Y-48055D03*
X96653Y-47055D03*
X96653Y-46055D03*
X96653Y-45055D03*
X96653Y-44055D03*
X96653Y-43055D03*
X96653Y-42055D03*
X96653Y-41055D03*
G54D11*
X97834Y-52055D03*
G54D12*
X97834Y-51055D03*
X97834Y-50055D03*
X97834Y-49055D03*
X97834Y-48055D03*
X97834Y-47055D03*
X97834Y-46055D03*
X97834Y-45055D03*
X97834Y-44055D03*
X97834Y-43055D03*
X97834Y-42055D03*
X97834Y-41055D03*
G54D11*
X97834Y-39960D03*
X84129Y-48645D03*
G54D12*
X85129Y-48645D03*
X86129Y-48645D03*
X87129Y-48645D03*
X87129Y-45645D03*
X86129Y-45645D03*
X85129Y-45645D03*
X84129Y-45645D03*
G54D11*
X74681Y-44413D03*
G54D12*
X75681Y-44413D03*
X76681Y-44413D03*
X77681Y-44413D03*
X77681Y-41413D03*
X76681Y-41413D03*
X75681Y-41413D03*
X74681Y-41413D03*
G54D11*
X74681Y-52877D03*
G54D12*
X75681Y-52877D03*
X76681Y-52877D03*
X77681Y-52877D03*
X77681Y-49877D03*
X76681Y-49877D03*
X75681Y-49877D03*
X74681Y-49877D03*
G54D11*
X84129Y-52877D03*
G54D12*
X85129Y-52877D03*
X86129Y-52877D03*
X87129Y-52877D03*
X87129Y-49877D03*
X86129Y-49877D03*
X85129Y-49877D03*
X84129Y-49877D03*
G54D11*
X84129Y-44413D03*
G54D12*
X85129Y-44413D03*
X86129Y-44413D03*
X87129Y-44413D03*
X87129Y-41413D03*
X86129Y-41413D03*
X85129Y-41413D03*
X84129Y-41413D03*
G54D11*
X84129Y-57110D03*
G54D12*
X85129Y-57110D03*
X86129Y-57110D03*
X87129Y-57110D03*
X87129Y-54110D03*
X86129Y-54110D03*
X85129Y-54110D03*
X84129Y-54110D03*
G54D11*
X65232Y-57110D03*
G54D12*
X66232Y-57110D03*
X67232Y-57110D03*
X68232Y-57110D03*
X68232Y-54110D03*
X67232Y-54110D03*
X66232Y-54110D03*
X65232Y-54110D03*
G54D11*
X74681Y-48645D03*
G54D12*
X75681Y-48645D03*
X76681Y-48645D03*
X77681Y-48645D03*
X77681Y-45645D03*
X76681Y-45645D03*
X75681Y-45645D03*
X74681Y-45645D03*
G54D11*
X65232Y-52877D03*
G54D12*
X66232Y-52877D03*
X67232Y-52877D03*
X68232Y-52877D03*
X68232Y-49877D03*
X67232Y-49877D03*
X66232Y-49877D03*
X65232Y-49877D03*
G54D11*
X65232Y-48645D03*
G54D12*
X66232Y-48645D03*
X67232Y-48645D03*
X68232Y-48645D03*
X68232Y-45645D03*
X67232Y-45645D03*
X66232Y-45645D03*
X65232Y-45645D03*
G54D11*
X65232Y-44413D03*
G54D12*
X66232Y-44413D03*
X67232Y-44413D03*
X68232Y-44413D03*
X68232Y-41413D03*
X67232Y-41413D03*
X66232Y-41413D03*
X65232Y-41413D03*
G54D11*
X74681Y-57110D03*
G54D12*
X75681Y-57110D03*
X76681Y-57110D03*
X77681Y-57110D03*
X77681Y-54110D03*
X76681Y-54110D03*
X75681Y-54110D03*
X74681Y-54110D03*
G54D16*
X63385Y-51673D03*
X63385Y-51082D03*
X63385Y-55905D03*
X63385Y-55314D03*
X82283Y-43208D03*
X82283Y-42618D03*
X82283Y-47440D03*
X82283Y-46850D03*
X72834Y-43208D03*
X72834Y-42618D03*
X72834Y-51673D03*
X72834Y-51082D03*
X63385Y-47440D03*
X63385Y-46850D03*
X72834Y-47440D03*
X72834Y-46850D03*
X82283Y-51673D03*
X82283Y-51082D03*
X63385Y-57972D03*
X63385Y-57381D03*
X72834Y-55905D03*
X72834Y-55314D03*
X63385Y-43208D03*
X63385Y-42618D03*
X82283Y-55905D03*
X82283Y-55314D03*
G54D17*
X76220Y-47539D03*
X77520Y-47539D03*
X76220Y-43307D03*
X77520Y-43307D03*
G54D18*
X65157Y-56260D03*
X65157Y-54960D03*
X84055Y-56260D03*
X84055Y-54960D03*
X74606Y-56260D03*
X74606Y-54960D03*
G54D17*
X76220Y-51771D03*
X77520Y-51771D03*
X76220Y-56003D03*
X77520Y-56003D03*
G54D18*
X80905Y-58622D03*
X80905Y-57322D03*
G54D17*
X85668Y-51673D03*
X86968Y-51673D03*
G54D18*
X72440Y-58524D03*
X72440Y-57224D03*
G54D17*
X66574Y-43307D03*
X67874Y-43307D03*
G54D18*
X94685Y-42677D03*
X94685Y-41377D03*
G54D17*
X92066Y-42618D03*
X93366Y-42618D03*
X93444Y-43799D03*
X94744Y-43799D03*
X60668Y-41830D03*
X61968Y-41830D03*
X85668Y-43307D03*
X86968Y-43307D03*
G54D18*
X97834Y-58622D03*
X97834Y-57322D03*
G54D17*
X66672Y-56003D03*
X67972Y-56003D03*
X60668Y-46062D03*
X61968Y-46062D03*
X85668Y-47440D03*
X86968Y-47440D03*
G54D18*
X93602Y-58622D03*
X93602Y-57322D03*
G54D17*
X66672Y-51771D03*
X67972Y-51771D03*
X60668Y-50295D03*
X61968Y-50295D03*
X66771Y-47539D03*
X68071Y-47539D03*
X60767Y-54527D03*
X62067Y-54527D03*
G54D18*
X89370Y-58622D03*
X89370Y-57322D03*
G54D17*
X85668Y-56003D03*
X86968Y-56003D03*
G54D19*
X61318Y-56889D03*
X61318Y-56102D03*
X80019Y-46653D03*
X80019Y-47637D03*
X89468Y-42421D03*
X89468Y-43405D03*
X70570Y-55118D03*
X70570Y-56102D03*
X89468Y-48031D03*
X89468Y-49015D03*
X70570Y-50885D03*
X70570Y-51870D03*
X89468Y-50885D03*
X89468Y-51870D03*
X70570Y-46653D03*
X70570Y-47637D03*
X70570Y-42421D03*
X70570Y-43405D03*
X89468Y-55118D03*
X89468Y-56102D03*
X80019Y-42421D03*
X80019Y-43405D03*
X80019Y-55118D03*
X80019Y-56102D03*
X80019Y-50885D03*
X80019Y-51870D03*
G54D20*
X77062Y-46555D03*
X77662Y-46555D03*
X67514Y-55019D03*
X68114Y-55019D03*
X86511Y-42322D03*
X87111Y-42322D03*
X86511Y-55019D03*
X87111Y-55019D03*
X77062Y-50787D03*
X77662Y-50787D03*
X77062Y-42322D03*
X77662Y-42322D03*
X86511Y-46456D03*
X87111Y-46456D03*
X67514Y-50787D03*
X68114Y-50787D03*
X67613Y-46555D03*
X68213Y-46555D03*
X86511Y-50688D03*
X87111Y-50688D03*
X77062Y-55019D03*
X77662Y-55019D03*
X67416Y-42322D03*
X68016Y-42322D03*
G54D21*
X93405Y-55019D03*
X61417Y-52559D03*
X61417Y-43996D03*
X90846Y-40649D03*
G54D11*
X95850Y-56299D03*
G54D12*
X96850Y-56299D03*
X97850Y-56299D03*
G54D11*
X96653Y-53149D03*
G54D22*
X90551Y-46712D03*
X90551Y-44625D03*
X92496Y-49409D03*
X95496Y-49409D03*
G54D23*
X92456Y-45534D03*
X90533Y-55738D03*
X62903Y-43312D03*
X70105Y-44434D03*
X70924Y-53231D03*
X89866Y-45557D03*
X92841Y-54055D03*
X95702Y-54053D03*
X68701Y-52319D03*
X96227Y-49413D03*
X66498Y-53404D03*
X95245Y-51747D03*
X88324Y-56497D03*
X90634Y-47996D03*
X78234Y-57210D03*
X80499Y-51313D03*
X87553Y-50657D03*
X88124Y-46522D03*
X88325Y-57093D03*
X91252Y-46945D03*
X94794Y-57235D03*
X91298Y-45738D03*
X69017Y-57153D03*
X96710Y-57016D03*
X93981Y-53113D03*
X87957Y-45398D03*
X79214Y-52503D03*
X94786Y-51711D03*
X80493Y-44026D03*
X89741Y-40954D03*
X93580Y-47055D03*
X78328Y-49670D03*
X94380Y-50211D03*
X88373Y-45822D03*
X80030Y-57808D03*
X67521Y-57916D03*
X71297Y-53910D03*
X71936Y-49431D03*
X66732Y-41711D03*
X65632Y-46873D03*
X93022Y-51630D03*
X94230Y-51664D03*
X75396Y-46179D03*
X80548Y-40534D03*
X81581Y-54976D03*
G54D24*
X93444Y-43799D02*
X93444Y-44311D01*
X93444Y-44311D02*
X93444Y-44374D01*
X95070Y-43152D02*
X94685Y-43152D01*
X95219Y-43301D02*
X95070Y-43152D01*
X95219Y-44278D02*
X95219Y-43301D01*
X95123Y-44374D02*
X95219Y-44278D01*
X93444Y-44374D02*
X95123Y-44374D01*
X94685Y-42677D02*
X94685Y-43152D01*
X91002Y-55269D02*
X90533Y-55738D01*
X91002Y-47405D02*
X91002Y-55269D01*
X90551Y-46953D02*
X91002Y-47405D01*
X90551Y-46712D02*
X90551Y-46953D01*
X93444Y-44546D02*
X92456Y-45534D01*
X93444Y-44374D02*
X93444Y-44546D01*
X59562Y-41830D02*
X60668Y-41830D01*
X59547Y-41846D02*
X59562Y-41830D01*
X62477Y-43312D02*
X62903Y-43312D01*
X61143Y-41979D02*
X62477Y-43312D01*
X61143Y-41830D02*
X61143Y-41979D01*
X60668Y-41830D02*
X61143Y-41830D01*
X71057Y-53098D02*
X70924Y-53231D01*
X71057Y-45386D02*
X71057Y-53098D01*
X70105Y-44434D02*
X71057Y-45386D01*
X89082Y-58622D02*
X88795Y-58622D01*
X89370Y-58622D02*
X89082Y-58622D01*
X88735Y-58562D02*
X88303Y-58562D01*
X88795Y-58622D02*
X88735Y-58562D01*
X89958Y-45648D02*
X89866Y-45557D01*
X89958Y-52188D02*
X89958Y-45648D01*
X87970Y-54175D02*
X89958Y-52188D01*
X87970Y-58230D02*
X87970Y-54175D01*
X88303Y-58562D02*
X87970Y-58230D01*
X93602Y-58622D02*
X93027Y-58622D01*
X92967Y-58562D02*
X92535Y-58562D01*
X93027Y-58622D02*
X92967Y-58562D01*
X92430Y-54466D02*
X92841Y-54055D01*
X92430Y-58458D02*
X92430Y-54466D01*
X92535Y-58562D02*
X92430Y-58458D01*
X97353Y-42536D02*
X97834Y-42055D01*
X97353Y-43007D02*
X97353Y-42536D01*
X96805Y-43555D02*
X97353Y-43007D01*
X96506Y-43555D02*
X96805Y-43555D01*
X96072Y-43989D02*
X96506Y-43555D01*
X96072Y-46250D02*
X96072Y-43989D01*
X94030Y-48292D02*
X96072Y-46250D01*
X94030Y-50593D02*
X94030Y-48292D01*
X93880Y-50742D02*
X94030Y-50593D01*
X93880Y-52232D02*
X93880Y-50742D01*
X95702Y-54053D02*
X93880Y-52232D01*
X96827Y-58622D02*
X96767Y-58562D01*
X97834Y-58622D02*
X96827Y-58622D01*
X97284Y-41605D02*
X97834Y-41055D01*
X97284Y-42060D02*
X97284Y-41605D01*
X96792Y-42553D02*
X97284Y-42060D01*
X96508Y-42553D02*
X96792Y-42553D01*
X95469Y-43593D02*
X96508Y-42553D01*
X95469Y-45976D02*
X95469Y-43593D01*
X93531Y-47914D02*
X95469Y-45976D01*
X93531Y-50386D02*
X93531Y-47914D01*
X93381Y-50535D02*
X93531Y-50386D01*
X93381Y-53037D02*
X93381Y-50535D01*
X93808Y-53463D02*
X93381Y-53037D01*
X93950Y-53463D02*
X93808Y-53463D01*
X94996Y-54509D02*
X93950Y-53463D01*
X94996Y-56791D02*
X94996Y-54509D01*
X96767Y-58562D02*
X94996Y-56791D01*
X60178Y-46078D02*
X59547Y-46078D01*
X60193Y-46062D02*
X60178Y-46078D01*
X60668Y-46062D02*
X60431Y-46062D01*
X60431Y-46062D02*
X60193Y-46062D01*
X68674Y-52346D02*
X68701Y-52319D01*
X66284Y-52346D02*
X68674Y-52346D01*
X60431Y-46493D02*
X66284Y-52346D01*
X60431Y-46062D02*
X60431Y-46493D01*
X59562Y-50295D02*
X59547Y-50311D01*
X60668Y-50295D02*
X59562Y-50295D01*
X96369Y-49555D02*
X96227Y-49413D01*
X97334Y-49555D02*
X96369Y-49555D01*
X97834Y-50055D02*
X97334Y-49555D01*
X59562Y-54527D02*
X59547Y-54543D01*
X60767Y-54527D02*
X59562Y-54527D01*
X65157Y-56260D02*
X65444Y-56260D01*
X66732Y-58153D02*
X67141Y-58562D01*
X66732Y-56950D02*
X66732Y-58153D01*
X66410Y-56628D02*
X66732Y-56950D01*
X66346Y-56628D02*
X66410Y-56628D01*
X65711Y-55993D02*
X66346Y-56628D01*
X65444Y-56260D02*
X65711Y-55993D01*
X66682Y-53588D02*
X66498Y-53404D01*
X66682Y-55022D02*
X66682Y-53588D01*
X65711Y-55993D02*
X66682Y-55022D01*
X95245Y-49914D02*
X95245Y-51747D01*
X94949Y-49618D02*
X95245Y-49914D01*
X94949Y-49199D02*
X94949Y-49618D01*
X95593Y-48555D02*
X94949Y-49199D01*
X97334Y-48555D02*
X95593Y-48555D01*
X97834Y-48055D02*
X97334Y-48555D01*
X71412Y-58524D02*
X72440Y-58524D01*
X71374Y-58562D02*
X71412Y-58524D01*
X90634Y-53222D02*
X90634Y-47996D01*
X88324Y-55533D02*
X90634Y-53222D01*
X88324Y-56497D02*
X88324Y-55533D01*
X75181Y-58137D02*
X75606Y-58562D01*
X75181Y-56260D02*
X75181Y-58137D01*
X74606Y-56260D02*
X75181Y-56260D01*
X88124Y-50086D02*
X88124Y-46522D01*
X87553Y-50657D02*
X88124Y-50086D01*
X78234Y-55978D02*
X78234Y-57210D01*
X80499Y-53712D02*
X78234Y-55978D01*
X80499Y-51313D02*
X80499Y-53712D01*
X79898Y-58622D02*
X79838Y-58562D01*
X80905Y-58622D02*
X79898Y-58622D01*
X91252Y-55520D02*
X91252Y-46945D01*
X90091Y-56681D02*
X91252Y-55520D01*
X88736Y-56681D02*
X90091Y-56681D01*
X88325Y-57093D02*
X88736Y-56681D01*
X84055Y-56260D02*
X84630Y-56260D01*
X84630Y-58003D02*
X84070Y-58562D01*
X84630Y-56260D02*
X84630Y-58003D01*
X92579Y-47019D02*
X91298Y-45738D01*
X92579Y-48678D02*
X92579Y-47019D01*
X93031Y-49129D02*
X92579Y-48678D01*
X93031Y-50054D02*
X93031Y-49129D01*
X92659Y-50426D02*
X93031Y-50054D01*
X92659Y-52668D02*
X92659Y-50426D01*
X93704Y-53713D02*
X92659Y-52668D01*
X93846Y-53713D02*
X93704Y-53713D01*
X94746Y-54613D02*
X93846Y-53713D01*
X94746Y-57187D02*
X94746Y-54613D01*
X94794Y-57235D02*
X94746Y-57187D01*
X96786Y-57016D02*
X96710Y-57016D01*
X97303Y-56499D02*
X96786Y-57016D01*
X97303Y-52705D02*
X97303Y-56499D01*
X96653Y-52055D02*
X97303Y-52705D01*
X68602Y-57568D02*
X69017Y-57153D01*
X67690Y-57568D02*
X68602Y-57568D01*
X67232Y-57110D02*
X67690Y-57568D01*
X95734Y-43974D02*
X96653Y-43055D01*
X95734Y-46064D02*
X95734Y-43974D01*
X93780Y-48017D02*
X95734Y-46064D01*
X93780Y-50489D02*
X93780Y-48017D01*
X93631Y-50639D02*
X93780Y-50489D01*
X93631Y-52763D02*
X93631Y-50639D01*
X93981Y-53113D02*
X93631Y-52763D01*
X86595Y-49111D02*
X86129Y-48645D01*
X87317Y-49111D02*
X86595Y-49111D01*
X87774Y-48655D02*
X87317Y-49111D01*
X87774Y-45581D02*
X87774Y-48655D01*
X87957Y-45398D02*
X87774Y-45581D01*
X79214Y-54083D02*
X79214Y-52503D01*
X77869Y-55428D02*
X79214Y-54083D01*
X77115Y-55428D02*
X77869Y-55428D01*
X77012Y-55532D02*
X77115Y-55428D01*
X77012Y-56779D02*
X77012Y-55532D01*
X76681Y-57110D02*
X77012Y-56779D01*
X94786Y-49808D02*
X94786Y-51711D01*
X94696Y-49718D02*
X94786Y-49808D01*
X94696Y-49099D02*
X94696Y-49718D01*
X95740Y-48055D02*
X94696Y-49099D01*
X96653Y-48055D02*
X95740Y-48055D01*
X80493Y-47847D02*
X80493Y-44026D01*
X78683Y-49658D02*
X80493Y-47847D01*
X78683Y-52520D02*
X78683Y-49658D01*
X77865Y-53339D02*
X78683Y-52520D01*
X77142Y-53339D02*
X77865Y-53339D01*
X76681Y-52877D02*
X77142Y-53339D01*
X91201Y-42414D02*
X89741Y-40954D01*
X91201Y-44792D02*
X91201Y-42414D01*
X93463Y-47055D02*
X91201Y-44792D01*
X93580Y-47055D02*
X93463Y-47055D01*
X94380Y-48328D02*
X96653Y-46055D01*
X94380Y-50211D02*
X94380Y-48328D01*
X78086Y-49427D02*
X78328Y-49670D01*
X77463Y-49427D02*
X78086Y-49427D01*
X76681Y-48645D02*
X77463Y-49427D01*
X86588Y-57569D02*
X86129Y-57110D01*
X87322Y-57569D02*
X86588Y-57569D01*
X87615Y-57277D02*
X87322Y-57569D01*
X87615Y-51591D02*
X87615Y-57277D01*
X88474Y-50732D02*
X87615Y-51591D01*
X88474Y-45922D02*
X88474Y-50732D01*
X88373Y-45822D02*
X88474Y-45922D01*
X68232Y-48275D02*
X68232Y-48645D01*
X68071Y-48114D02*
X68232Y-48275D01*
X68071Y-47539D02*
X68071Y-48114D01*
X59547Y-48311D02*
X60072Y-48311D01*
X94242Y-58287D02*
X94242Y-58562D01*
X93752Y-57797D02*
X94242Y-58287D01*
X93602Y-57797D02*
X93752Y-57797D01*
X86968Y-47440D02*
X86968Y-48015D01*
X97834Y-57322D02*
X97834Y-56847D01*
X87129Y-44043D02*
X87129Y-44413D01*
X86968Y-43882D02*
X87129Y-44043D01*
X86968Y-43307D02*
X86968Y-43882D01*
X67874Y-43307D02*
X67874Y-43882D01*
X86968Y-51673D02*
X86968Y-52248D01*
X81545Y-58287D02*
X81545Y-58562D01*
X81055Y-57797D02*
X81545Y-58287D01*
X80905Y-57797D02*
X81055Y-57797D01*
X82070Y-58562D02*
X81545Y-58562D01*
X77681Y-44043D02*
X77681Y-44413D01*
X77520Y-43882D02*
X77681Y-44043D01*
X77520Y-43307D02*
X77520Y-43882D01*
X68071Y-47539D02*
X68071Y-46964D01*
X68232Y-44239D02*
X68232Y-44413D01*
X67874Y-43882D02*
X68232Y-44239D01*
X67992Y-46964D02*
X68071Y-46964D01*
X67913Y-46885D02*
X67992Y-46964D01*
X67913Y-46243D02*
X67913Y-46885D01*
X67753Y-46083D02*
X67913Y-46243D01*
X67734Y-46103D02*
X67753Y-46083D01*
X67047Y-46103D02*
X67734Y-46103D01*
X66772Y-45828D02*
X67047Y-46103D01*
X66772Y-45550D02*
X66772Y-45828D01*
X66331Y-45108D02*
X66772Y-45550D01*
X66331Y-44512D02*
X66331Y-45108D01*
X66331Y-44512D02*
X66331Y-44512D01*
X66232Y-44413D02*
X66331Y-44512D01*
X67782Y-44863D02*
X68232Y-44413D01*
X67782Y-46055D02*
X67782Y-44863D01*
X67753Y-46083D02*
X67782Y-46055D01*
X86303Y-58562D02*
X86303Y-58038D01*
X86057Y-58038D02*
X86303Y-58038D01*
X85129Y-57110D02*
X86057Y-58038D01*
X93841Y-42564D02*
X93841Y-42618D01*
X94218Y-42186D02*
X93841Y-42564D01*
X94834Y-42186D02*
X94218Y-42186D01*
X95759Y-41261D02*
X94834Y-42186D01*
X95759Y-39960D02*
X95759Y-41261D01*
X93366Y-42618D02*
X93841Y-42618D01*
X97850Y-56831D02*
X97850Y-56299D01*
X97834Y-56847D02*
X97850Y-56831D01*
X93602Y-57559D02*
X93602Y-57797D01*
X93602Y-57559D02*
X93602Y-57322D01*
X67972Y-56003D02*
X67972Y-55429D01*
X94767Y-58562D02*
X94242Y-58562D01*
X65141Y-58562D02*
X64616Y-58562D01*
X65304Y-58038D02*
X65141Y-58038D01*
X66232Y-57110D02*
X65304Y-58038D01*
X65141Y-58562D02*
X65141Y-58038D01*
X73606Y-58562D02*
X73606Y-58038D01*
X61968Y-50295D02*
X61731Y-50295D01*
X63435Y-57381D02*
X63385Y-57381D01*
X64616Y-58562D02*
X63435Y-57381D01*
X62598Y-57496D02*
X61531Y-58562D01*
X62598Y-57381D02*
X62598Y-57496D01*
X62598Y-57381D02*
X63385Y-57381D01*
X72440Y-57224D02*
X73015Y-57224D01*
X73606Y-57814D02*
X73015Y-57224D01*
X73606Y-58038D02*
X73606Y-57814D01*
X75181Y-54385D02*
X74606Y-54960D01*
X75181Y-53377D02*
X75181Y-54385D01*
X75681Y-52877D02*
X75181Y-53377D01*
X74606Y-54960D02*
X74606Y-55435D01*
X77520Y-56003D02*
X77520Y-56578D01*
X77520Y-56949D02*
X77681Y-57110D01*
X77520Y-56578D02*
X77520Y-56949D01*
X68232Y-56838D02*
X67972Y-56578D01*
X68232Y-57110D02*
X68232Y-56838D01*
X67972Y-56003D02*
X67972Y-56578D01*
X61318Y-56102D02*
X62598Y-57381D01*
X62067Y-54527D02*
X61829Y-54527D01*
X61829Y-55591D02*
X61829Y-54527D01*
X61318Y-56102D02*
X61829Y-55591D01*
X60072Y-52769D02*
X60072Y-52543D01*
X61829Y-54527D02*
X60072Y-52769D01*
X59547Y-52543D02*
X60072Y-52543D01*
X60072Y-51954D02*
X60072Y-52543D01*
X61731Y-50295D02*
X60072Y-51954D01*
X61731Y-49970D02*
X61731Y-50295D01*
X60072Y-48311D02*
X61731Y-49970D01*
X86889Y-46866D02*
X86968Y-46866D01*
X86810Y-46787D02*
X86889Y-46866D01*
X86810Y-45963D02*
X86810Y-46787D01*
X86579Y-45731D02*
X86810Y-45963D01*
X86579Y-45458D02*
X86579Y-45731D01*
X86159Y-45038D02*
X86579Y-45458D01*
X85754Y-45038D02*
X86159Y-45038D01*
X85129Y-44413D02*
X85754Y-45038D01*
X86968Y-47440D02*
X86968Y-46866D01*
X87129Y-48176D02*
X87129Y-48645D01*
X86968Y-48015D02*
X87129Y-48176D01*
X61493Y-45500D02*
X60072Y-44078D01*
X61493Y-46062D02*
X61493Y-45500D01*
X61968Y-46062D02*
X61493Y-46062D01*
X59547Y-44078D02*
X60072Y-44078D01*
X61968Y-41830D02*
X61493Y-41830D01*
X61493Y-41703D02*
X61493Y-41830D01*
X60072Y-40281D02*
X61493Y-41703D01*
X60072Y-39846D02*
X60072Y-40281D01*
X59547Y-39846D02*
X60072Y-39846D01*
X77681Y-45004D02*
X77681Y-44413D01*
X77217Y-45467D02*
X77681Y-45004D01*
X77217Y-46031D02*
X77217Y-45467D01*
X77362Y-46176D02*
X77217Y-46031D01*
X77362Y-46885D02*
X77362Y-46176D01*
X77441Y-46964D02*
X77362Y-46885D01*
X77520Y-46964D02*
X77441Y-46964D01*
X77520Y-47539D02*
X77520Y-46964D01*
X77520Y-48484D02*
X77520Y-48183D01*
X77681Y-48645D02*
X77520Y-48484D01*
X77520Y-48183D02*
X77520Y-47539D01*
X77520Y-52716D02*
X77520Y-51771D01*
X77681Y-52877D02*
X77520Y-52716D01*
X76612Y-49241D02*
X76020Y-48650D01*
X76681Y-49241D02*
X76612Y-49241D01*
X77181Y-49741D02*
X76681Y-49241D01*
X77181Y-50227D02*
X77181Y-49741D01*
X77362Y-50408D02*
X77181Y-50227D01*
X77362Y-51117D02*
X77362Y-50408D01*
X77441Y-51196D02*
X77362Y-51117D01*
X77520Y-51196D02*
X77441Y-51196D01*
X76487Y-48183D02*
X76020Y-48650D01*
X77520Y-48183D02*
X76487Y-48183D01*
X75685Y-48650D02*
X75681Y-48645D01*
X76020Y-48650D02*
X75685Y-48650D01*
X77520Y-51771D02*
X77520Y-51196D01*
X87129Y-52409D02*
X87129Y-52877D01*
X86968Y-52248D02*
X87129Y-52409D01*
X67893Y-51196D02*
X67972Y-51196D01*
X67814Y-51117D02*
X67893Y-51196D01*
X67814Y-50153D02*
X67814Y-51117D01*
X67744Y-50083D02*
X67814Y-50153D01*
X67744Y-49743D02*
X67744Y-50083D01*
X67271Y-49270D02*
X67744Y-49743D01*
X66856Y-49270D02*
X67271Y-49270D01*
X66232Y-48645D02*
X66856Y-49270D01*
X67972Y-51771D02*
X67972Y-51196D01*
X67972Y-51771D02*
X68447Y-51771D01*
X67559Y-53551D02*
X68232Y-52877D01*
X67727Y-53719D02*
X67559Y-53551D01*
X67727Y-54543D02*
X67727Y-53719D01*
X67814Y-54631D02*
X67727Y-54543D01*
X67814Y-55350D02*
X67814Y-54631D01*
X67893Y-55429D02*
X67814Y-55350D01*
X67972Y-55429D02*
X67893Y-55429D01*
X87129Y-56739D02*
X87129Y-57110D01*
X86968Y-56578D02*
X87129Y-56739D01*
X86968Y-56003D02*
X86968Y-56578D01*
X66353Y-52999D02*
X66232Y-52877D01*
X66353Y-53054D02*
X66353Y-52999D01*
X66643Y-53054D02*
X66353Y-53054D01*
X67082Y-53494D02*
X66643Y-53054D01*
X67502Y-53494D02*
X67082Y-53494D01*
X67559Y-53551D02*
X67502Y-53494D01*
X65732Y-54385D02*
X65157Y-54960D01*
X65732Y-53676D02*
X65732Y-54385D01*
X66353Y-53054D02*
X65732Y-53676D01*
X84679Y-52427D02*
X85129Y-52877D01*
X84679Y-49095D02*
X84679Y-52427D01*
X85129Y-48645D02*
X84679Y-49095D01*
X84055Y-54960D02*
X84630Y-54960D01*
X86968Y-56003D02*
X86968Y-55429D01*
X84661Y-53346D02*
X84661Y-54580D01*
X85129Y-52877D02*
X84661Y-53346D01*
X84661Y-54929D02*
X84630Y-54960D01*
X84661Y-54580D02*
X84661Y-54929D01*
X86670Y-53337D02*
X87129Y-52877D01*
X86670Y-54580D02*
X86670Y-53337D01*
X84661Y-54580D02*
X86670Y-54580D01*
X86889Y-55429D02*
X86968Y-55429D01*
X86810Y-55350D02*
X86889Y-55429D01*
X86810Y-54721D02*
X86810Y-55350D01*
X86670Y-54580D02*
X86810Y-54721D01*
X68648Y-51771D02*
X68447Y-51771D01*
X69051Y-52174D02*
X68648Y-51771D01*
X69051Y-52464D02*
X69051Y-52174D01*
X68637Y-52877D02*
X69051Y-52464D01*
X68232Y-52877D02*
X68637Y-52877D01*
X80905Y-57322D02*
X80905Y-57559D01*
X80905Y-57559D02*
X80905Y-57797D01*
X80656Y-57808D02*
X80030Y-57808D01*
X80905Y-57559D02*
X80656Y-57808D01*
X63113Y-41830D02*
X61968Y-41830D01*
X63738Y-42456D02*
X63113Y-41830D01*
X63738Y-45973D02*
X63738Y-42456D01*
X63649Y-46062D02*
X63738Y-45973D01*
X61968Y-46062D02*
X63649Y-46062D01*
X63649Y-46062D02*
X66232Y-48645D01*
X89610Y-58038D02*
X89370Y-57797D01*
X90535Y-58038D02*
X89610Y-58038D01*
X90535Y-58562D02*
X90535Y-58038D01*
X89370Y-57322D02*
X89370Y-57797D01*
X77838Y-58562D02*
X77838Y-58038D01*
X77681Y-57880D02*
X77681Y-57560D01*
X77838Y-58038D02*
X77681Y-57880D01*
X77681Y-57560D02*
X77681Y-57110D01*
X75681Y-56361D02*
X75681Y-57110D01*
X74754Y-55435D02*
X75681Y-56361D01*
X74606Y-55435D02*
X74754Y-55435D01*
X76131Y-57560D02*
X77681Y-57560D01*
X75681Y-57110D02*
X76131Y-57560D01*
X71586Y-41263D02*
X70283Y-39960D01*
X71586Y-49609D02*
X71586Y-41263D01*
X71647Y-49670D02*
X71586Y-49609D01*
X71647Y-55698D02*
X71647Y-49670D01*
X69429Y-57916D02*
X71647Y-55698D01*
X67521Y-57916D02*
X69429Y-57916D01*
X94677Y-40894D02*
X94594Y-40894D01*
X94685Y-40902D02*
X94677Y-40894D01*
X94685Y-41377D02*
X94685Y-40902D01*
X94594Y-40444D02*
X94594Y-40894D01*
X84129Y-57110D02*
X83680Y-57110D01*
X82475Y-55905D02*
X82283Y-55905D01*
X83680Y-57110D02*
X82475Y-55905D01*
X71317Y-42444D02*
X69283Y-40410D01*
X71317Y-53890D02*
X71317Y-42444D01*
X71297Y-53910D02*
X71317Y-53890D01*
X69283Y-39960D02*
X69283Y-40410D01*
X68232Y-41707D02*
X68232Y-41413D01*
X68016Y-41922D02*
X68232Y-41707D01*
X68016Y-42322D02*
X68016Y-41922D01*
X67116Y-43239D02*
X67049Y-43307D01*
X67116Y-42322D02*
X67116Y-43239D01*
X67416Y-42322D02*
X67116Y-42322D01*
X66574Y-43307D02*
X67049Y-43307D01*
X77681Y-50368D02*
X77681Y-49877D01*
X77662Y-50387D02*
X77681Y-50368D01*
X77662Y-50787D02*
X77662Y-50387D01*
X76762Y-51704D02*
X76695Y-51771D01*
X76762Y-50787D02*
X76762Y-51704D01*
X76220Y-51771D02*
X76695Y-51771D01*
X77062Y-50787D02*
X76762Y-50787D01*
X75132Y-40479D02*
X74614Y-39960D01*
X75132Y-42324D02*
X75132Y-40479D01*
X75745Y-42937D02*
X75132Y-42324D01*
X75745Y-43779D02*
X75745Y-42937D01*
X76135Y-44169D02*
X75745Y-43779D01*
X76135Y-45935D02*
X76135Y-44169D01*
X75541Y-46529D02*
X76135Y-45935D01*
X73182Y-46529D02*
X75541Y-46529D01*
X73135Y-46482D02*
X73182Y-46529D01*
X72678Y-46482D02*
X73135Y-46482D01*
X72482Y-46678D02*
X72678Y-46482D01*
X72482Y-49075D02*
X72482Y-46678D01*
X72556Y-49149D02*
X72482Y-49075D01*
X72556Y-49795D02*
X72556Y-49149D01*
X72482Y-49870D02*
X72556Y-49795D01*
X72482Y-56060D02*
X72482Y-49870D01*
X74606Y-58184D02*
X72482Y-56060D01*
X74606Y-58562D02*
X74606Y-58184D01*
X73026Y-47440D02*
X74231Y-48645D01*
X72834Y-47440D02*
X73026Y-47440D01*
X74681Y-48645D02*
X74231Y-48645D01*
X76762Y-55936D02*
X76695Y-56003D01*
X76762Y-55019D02*
X76762Y-55936D01*
X77062Y-55019D02*
X76762Y-55019D01*
X76220Y-56003D02*
X76695Y-56003D01*
X71936Y-40898D02*
X71448Y-40410D01*
X71936Y-49431D02*
X71936Y-40898D01*
X71448Y-39960D02*
X71448Y-40410D01*
X72231Y-40177D02*
X72448Y-39960D01*
X72231Y-49177D02*
X72231Y-40177D01*
X72306Y-49252D02*
X72231Y-49177D01*
X72306Y-49692D02*
X72306Y-49252D01*
X72231Y-49767D02*
X72306Y-49692D01*
X72231Y-55690D02*
X72231Y-49767D01*
X70374Y-57547D02*
X72231Y-55690D01*
X70374Y-58562D02*
X70374Y-57547D01*
X73026Y-51673D02*
X74231Y-52877D01*
X72834Y-51673D02*
X73026Y-51673D01*
X74681Y-52877D02*
X74231Y-52877D01*
X73026Y-55905D02*
X72834Y-55905D01*
X74231Y-57110D02*
X73026Y-55905D01*
X74681Y-57110D02*
X74231Y-57110D01*
X64590Y-54110D02*
X65232Y-54110D01*
X63385Y-55314D02*
X64590Y-54110D01*
X68232Y-54502D02*
X68232Y-54110D01*
X68114Y-54619D02*
X68232Y-54502D01*
X68114Y-55019D02*
X68114Y-54619D01*
X60622Y-39960D02*
X61071Y-39960D01*
X61071Y-40073D02*
X61071Y-39960D01*
X61409Y-40410D02*
X61071Y-40073D01*
X62046Y-40410D02*
X61409Y-40410D01*
X64046Y-42411D02*
X62046Y-40410D01*
X64046Y-45788D02*
X64046Y-42411D01*
X66385Y-48127D02*
X64046Y-45788D01*
X67356Y-48127D02*
X66385Y-48127D01*
X67732Y-48503D02*
X67356Y-48127D01*
X67732Y-48795D02*
X67732Y-48503D01*
X68082Y-49145D02*
X67732Y-48795D01*
X68141Y-49145D02*
X68082Y-49145D01*
X69174Y-50178D02*
X68141Y-49145D01*
X69174Y-51387D02*
X69174Y-50178D01*
X69860Y-52074D02*
X69174Y-51387D01*
X69860Y-55392D02*
X69860Y-52074D01*
X70570Y-56102D02*
X69860Y-55392D01*
X67147Y-55786D02*
X67147Y-56003D01*
X67514Y-55419D02*
X67147Y-55786D01*
X67514Y-55019D02*
X67514Y-55419D01*
X66672Y-56003D02*
X67147Y-56003D01*
X68232Y-46136D02*
X68232Y-45645D01*
X68213Y-46155D02*
X68232Y-46136D01*
X68213Y-46555D02*
X68213Y-46155D01*
X67313Y-47472D02*
X67246Y-47539D01*
X67313Y-46555D02*
X67313Y-47472D01*
X67613Y-46555D02*
X67313Y-46555D01*
X66771Y-47539D02*
X67246Y-47539D01*
X65782Y-46723D02*
X65632Y-46873D01*
X65782Y-42661D02*
X65782Y-46723D01*
X66732Y-41711D02*
X65782Y-42661D01*
X67568Y-40070D02*
X67568Y-39960D01*
X67910Y-40413D02*
X67568Y-40070D01*
X68583Y-40413D02*
X67910Y-40413D01*
X70088Y-41918D02*
X68583Y-40413D01*
X70088Y-42923D02*
X70088Y-41918D01*
X70570Y-43405D02*
X70088Y-42923D01*
X67118Y-39960D02*
X67568Y-39960D01*
X68232Y-50270D02*
X68232Y-49877D01*
X68114Y-50387D02*
X68232Y-50270D01*
X68114Y-50787D02*
X68114Y-50387D01*
X62787Y-39960D02*
X63237Y-39960D01*
X63237Y-40046D02*
X63237Y-39960D01*
X64147Y-40957D02*
X63237Y-40046D01*
X68420Y-40957D02*
X64147Y-40957D01*
X69424Y-41960D02*
X68420Y-40957D01*
X69424Y-50723D02*
X69424Y-41960D01*
X70570Y-51870D02*
X69424Y-50723D01*
X66672Y-51771D02*
X67147Y-51771D01*
X67147Y-50854D02*
X67215Y-50787D01*
X67147Y-51771D02*
X67147Y-50854D01*
X67514Y-50787D02*
X67215Y-50787D01*
X64952Y-39960D02*
X65402Y-39960D01*
X69755Y-46822D02*
X70570Y-47637D01*
X69755Y-41938D02*
X69755Y-46822D01*
X68524Y-40707D02*
X69755Y-41938D01*
X66036Y-40707D02*
X68524Y-40707D01*
X65402Y-40073D02*
X66036Y-40707D01*
X65402Y-39960D02*
X65402Y-40073D01*
X63577Y-47440D02*
X64782Y-48645D01*
X63385Y-47440D02*
X63577Y-47440D01*
X65232Y-48645D02*
X64782Y-48645D01*
X87129Y-46037D02*
X87129Y-45645D01*
X87111Y-46056D02*
X87129Y-46037D01*
X87111Y-46456D02*
X87111Y-46056D01*
X86511Y-46456D02*
X86211Y-46456D01*
X85668Y-47440D02*
X86143Y-47440D01*
X86211Y-47373D02*
X86143Y-47440D01*
X86211Y-46456D02*
X86211Y-47373D01*
X94790Y-57585D02*
X95767Y-58562D01*
X94649Y-57585D02*
X94790Y-57585D01*
X94444Y-57380D02*
X94649Y-57585D01*
X94444Y-54678D02*
X94444Y-57380D01*
X93729Y-53963D02*
X94444Y-54678D01*
X93566Y-53963D02*
X93729Y-53963D01*
X91951Y-52348D02*
X93566Y-53963D01*
X91951Y-46777D02*
X91951Y-52348D01*
X91261Y-46088D02*
X91951Y-46777D01*
X91153Y-46088D02*
X91261Y-46088D01*
X90948Y-45883D02*
X91153Y-46088D01*
X90948Y-45775D02*
X90948Y-45883D01*
X90019Y-44846D02*
X90948Y-45775D01*
X90019Y-43682D02*
X90019Y-44846D01*
X90445Y-43256D02*
X90019Y-43682D01*
X90445Y-42011D02*
X90445Y-43256D01*
X89738Y-41304D02*
X90445Y-42011D01*
X89558Y-41304D02*
X89738Y-41304D01*
X88214Y-39960D02*
X89558Y-41304D01*
X85440Y-39960D02*
X88214Y-39960D01*
X82925Y-51082D02*
X84129Y-49877D01*
X82283Y-51082D02*
X82925Y-51082D01*
X87129Y-50270D02*
X87129Y-49877D01*
X87111Y-50289D02*
X87129Y-50270D01*
X87111Y-50688D02*
X87111Y-50289D01*
X86211Y-51605D02*
X86143Y-51673D01*
X86211Y-50688D02*
X86211Y-51605D01*
X86511Y-50688D02*
X86211Y-50688D01*
X85668Y-51673D02*
X86143Y-51673D01*
X82475Y-43208D02*
X83680Y-44413D01*
X82283Y-43208D02*
X82475Y-43208D01*
X84129Y-44413D02*
X83680Y-44413D01*
X83772Y-41907D02*
X82275Y-40410D01*
X86720Y-41907D02*
X83772Y-41907D01*
X86811Y-41997D02*
X86720Y-41907D01*
X86811Y-42629D02*
X86811Y-41997D01*
X86913Y-42732D02*
X86811Y-42629D01*
X87359Y-42732D02*
X86913Y-42732D01*
X88130Y-43502D02*
X87359Y-42732D01*
X88130Y-43718D02*
X88130Y-43502D01*
X88973Y-44561D02*
X88130Y-43718D01*
X88973Y-48520D02*
X88973Y-44561D01*
X89468Y-49015D02*
X88973Y-48520D01*
X82275Y-39960D02*
X82275Y-40410D01*
X91622Y-58476D02*
X91535Y-58562D01*
X91622Y-46806D02*
X91622Y-58476D01*
X91153Y-46337D02*
X91622Y-46806D01*
X91050Y-46337D02*
X91153Y-46337D01*
X90698Y-45986D02*
X91050Y-46337D01*
X90698Y-45883D02*
X90698Y-45986D01*
X88997Y-44181D02*
X90698Y-45883D01*
X88997Y-43204D02*
X88997Y-44181D01*
X89288Y-42913D02*
X88997Y-43204D01*
X89654Y-42913D02*
X89288Y-42913D01*
X89942Y-42625D02*
X89654Y-42913D01*
X89942Y-42228D02*
X89942Y-42625D01*
X89517Y-41804D02*
X89942Y-42228D01*
X88383Y-41804D02*
X89517Y-41804D01*
X87489Y-40910D02*
X88383Y-41804D01*
X84225Y-40910D02*
X87489Y-40910D01*
X83275Y-39960D02*
X84225Y-40910D01*
X82475Y-47440D02*
X83680Y-48645D01*
X82283Y-47440D02*
X82475Y-47440D01*
X84129Y-48645D02*
X83680Y-48645D01*
X96484Y-52699D02*
X96653Y-52699D01*
X96203Y-52418D02*
X96484Y-52699D01*
X96203Y-50117D02*
X96203Y-52418D01*
X95496Y-49409D02*
X96203Y-50117D01*
X96653Y-53149D02*
X96653Y-52699D01*
X74039Y-54110D02*
X74681Y-54110D01*
X72834Y-55314D02*
X74039Y-54110D01*
X96653Y-55125D02*
X96653Y-54676D01*
X96203Y-53637D02*
X94230Y-51664D01*
X96203Y-54338D02*
X96203Y-53637D01*
X96541Y-54676D02*
X96203Y-54338D01*
X96653Y-54676D02*
X96541Y-54676D01*
X93022Y-50541D02*
X93022Y-51630D01*
X93281Y-50282D02*
X93022Y-50541D01*
X93281Y-48901D02*
X93281Y-50282D01*
X93031Y-48651D02*
X93281Y-48901D01*
X93031Y-46976D02*
X93031Y-48651D01*
X90680Y-44625D02*
X93031Y-46976D01*
X90551Y-44625D02*
X90680Y-44625D01*
X87111Y-41432D02*
X87129Y-41413D01*
X87111Y-42322D02*
X87111Y-41432D01*
X87509Y-42421D02*
X87410Y-42322D01*
X89468Y-42421D02*
X87509Y-42421D01*
X87111Y-42322D02*
X87410Y-42322D01*
X89520Y-43405D02*
X89468Y-43405D01*
X90195Y-42729D02*
X89520Y-43405D01*
X90195Y-42115D02*
X90195Y-42729D01*
X89635Y-41554D02*
X90195Y-42115D01*
X89444Y-41554D02*
X89635Y-41554D01*
X88300Y-40410D02*
X89444Y-41554D01*
X85228Y-40410D02*
X88300Y-40410D01*
X84890Y-40073D02*
X85228Y-40410D01*
X84890Y-39960D02*
X84890Y-40073D01*
X84440Y-39960D02*
X84890Y-39960D01*
X86511Y-42322D02*
X86211Y-42322D01*
X86143Y-42390D02*
X86211Y-42322D01*
X86143Y-43307D02*
X86143Y-42390D01*
X85668Y-43307D02*
X86143Y-43307D01*
X73026Y-43208D02*
X74231Y-44413D01*
X72834Y-43208D02*
X73026Y-43208D01*
X74681Y-44413D02*
X74231Y-44413D01*
X77681Y-41904D02*
X77681Y-41413D01*
X77662Y-41922D02*
X77681Y-41904D01*
X77662Y-42322D02*
X77662Y-41922D01*
X76762Y-43239D02*
X76695Y-43307D01*
X76762Y-42322D02*
X76762Y-43239D01*
X77062Y-42322D02*
X76762Y-42322D01*
X76220Y-43307D02*
X76695Y-43307D01*
X77662Y-54129D02*
X77681Y-54110D01*
X77662Y-55019D02*
X77662Y-54129D01*
X73614Y-41715D02*
X73614Y-39960D01*
X75132Y-43234D02*
X73614Y-41715D01*
X75132Y-45915D02*
X75132Y-43234D01*
X75396Y-46179D02*
X75132Y-45915D01*
X77662Y-45664D02*
X77681Y-45645D01*
X77662Y-46555D02*
X77662Y-45664D01*
X78060Y-46653D02*
X77962Y-46555D01*
X80019Y-46653D02*
X78060Y-46653D01*
X77662Y-46555D02*
X77962Y-46555D01*
X76762Y-47472D02*
X76695Y-47539D01*
X76762Y-46555D02*
X76762Y-47472D01*
X77062Y-46555D02*
X76762Y-46555D01*
X76220Y-47539D02*
X76695Y-47539D01*
X75779Y-39960D02*
X76229Y-39960D01*
X79956Y-43405D02*
X80019Y-43405D01*
X78154Y-41603D02*
X79956Y-43405D01*
X78154Y-41250D02*
X78154Y-41603D01*
X77627Y-40723D02*
X78154Y-41250D01*
X76879Y-40723D02*
X77627Y-40723D01*
X76229Y-40073D02*
X76879Y-40723D01*
X76229Y-39960D02*
X76229Y-40073D01*
X78838Y-58352D02*
X78838Y-58562D01*
X80864Y-56326D02*
X78838Y-58352D01*
X80864Y-43549D02*
X80864Y-56326D01*
X80243Y-42928D02*
X80864Y-43549D01*
X79832Y-42928D02*
X80243Y-42928D01*
X78528Y-41624D02*
X79832Y-42928D01*
X78528Y-41269D02*
X78528Y-41624D01*
X77670Y-40410D02*
X78528Y-41269D01*
X77229Y-40410D02*
X77670Y-40410D01*
X76779Y-39960D02*
X77229Y-40410D01*
X80110Y-39960D02*
X80560Y-39960D01*
X88723Y-51125D02*
X89468Y-51870D01*
X88723Y-45669D02*
X88723Y-51125D01*
X87967Y-44913D02*
X88723Y-45669D01*
X86979Y-44913D02*
X87967Y-44913D01*
X86629Y-44563D02*
X86979Y-44913D01*
X86629Y-44271D02*
X86629Y-44563D01*
X86321Y-43963D02*
X86629Y-44271D01*
X84476Y-43963D02*
X86321Y-43963D01*
X80560Y-40046D02*
X84476Y-43963D01*
X80560Y-39960D02*
X80560Y-40046D01*
X81725Y-41711D02*
X80548Y-40534D01*
X81725Y-53590D02*
X81725Y-41711D01*
X83851Y-55716D02*
X81725Y-53590D01*
X84465Y-55716D02*
X83851Y-55716D01*
X85168Y-56418D02*
X84465Y-55716D01*
X85168Y-56465D02*
X85168Y-56418D01*
X85629Y-56927D02*
X85168Y-56465D01*
X85629Y-57257D02*
X85629Y-56927D01*
X86066Y-57693D02*
X85629Y-57257D01*
X86336Y-57693D02*
X86066Y-57693D01*
X86468Y-57826D02*
X86336Y-57693D01*
X86566Y-57826D02*
X86468Y-57826D01*
X87303Y-58562D02*
X86566Y-57826D01*
X87129Y-54600D02*
X87129Y-54110D01*
X87111Y-54619D02*
X87129Y-54600D01*
X87111Y-55019D02*
X87111Y-54619D01*
X82475Y-51673D02*
X83680Y-52877D01*
X82283Y-51673D02*
X82475Y-51673D01*
X84129Y-52877D02*
X83680Y-52877D01*
X77944Y-39960D02*
X78394Y-39960D01*
X81139Y-54534D02*
X81581Y-54976D01*
X81139Y-42875D02*
X81139Y-54534D01*
X78394Y-40131D02*
X81139Y-42875D01*
X78394Y-39960D02*
X78394Y-40131D01*
X81931Y-57423D02*
X83070Y-58562D01*
X81931Y-54749D02*
X81931Y-57423D01*
X81416Y-54234D02*
X81931Y-54749D01*
X81416Y-42432D02*
X81416Y-54234D01*
X78944Y-39960D02*
X81416Y-42432D01*
X86211Y-55936D02*
X86143Y-56003D01*
X86211Y-55019D02*
X86211Y-55936D01*
X86511Y-55019D02*
X86211Y-55019D01*
X85668Y-56003D02*
X86143Y-56003D01*
X64590Y-57110D02*
X65232Y-57110D01*
X63385Y-55905D02*
X64590Y-57110D01*
X94269Y-43650D02*
X94269Y-43799D01*
X93827Y-43208D02*
X94269Y-43650D01*
X92983Y-43208D02*
X93827Y-43208D01*
X92541Y-42766D02*
X92983Y-43208D01*
X92541Y-42618D02*
X92541Y-42766D01*
X94744Y-43799D02*
X94269Y-43799D01*
X92066Y-42618D02*
X92304Y-42618D01*
X92304Y-42618D02*
X92541Y-42618D01*
X92304Y-41735D02*
X93594Y-40444D01*
X92304Y-42618D02*
X92304Y-41735D01*
X67232Y-45054D02*
X67232Y-45645D01*
X67684Y-44602D02*
X67232Y-45054D01*
X67684Y-44070D02*
X67684Y-44602D01*
X67399Y-43785D02*
X67684Y-44070D01*
X67399Y-42833D02*
X67399Y-43785D01*
X67509Y-42722D02*
X67399Y-42833D01*
X67620Y-42722D02*
X67509Y-42722D01*
X67716Y-42626D02*
X67620Y-42722D01*
X67716Y-41897D02*
X67716Y-42626D01*
X67232Y-41413D02*
X67716Y-41897D01*
X75231Y-49506D02*
X75563Y-49173D01*
X75231Y-51788D02*
X75231Y-49506D01*
X76140Y-52697D02*
X75231Y-51788D01*
X76140Y-53569D02*
X76140Y-52697D01*
X76681Y-54110D02*
X76140Y-53569D01*
X75976Y-49173D02*
X76681Y-49877D01*
X75563Y-49173D02*
X75976Y-49173D01*
X59531Y-57757D02*
X59531Y-58562D01*
X59645Y-57642D02*
X59531Y-57757D01*
X59645Y-57192D02*
X59645Y-57642D01*
X76681Y-45742D02*
X76681Y-45645D01*
X75212Y-47211D02*
X76681Y-45742D01*
X75212Y-48821D02*
X75212Y-47211D01*
X75563Y-49173D02*
X75212Y-48821D01*
X76756Y-41413D02*
X76681Y-41413D01*
X77362Y-42019D02*
X76756Y-41413D01*
X77362Y-42621D02*
X77362Y-42019D01*
X77251Y-42732D02*
X77362Y-42621D01*
X77141Y-42732D02*
X77251Y-42732D01*
X77045Y-42828D02*
X77141Y-42732D01*
X77045Y-44099D02*
X77045Y-42828D01*
X77131Y-44185D02*
X77045Y-44099D01*
X77131Y-45195D02*
X77131Y-44185D01*
X76681Y-45645D02*
X77131Y-45195D01*
X85180Y-46595D02*
X86129Y-45645D01*
X85180Y-47907D02*
X85180Y-46595D01*
X85629Y-48357D02*
X85180Y-47907D01*
X85629Y-49377D02*
X85629Y-48357D01*
X86129Y-49877D02*
X85629Y-49377D01*
X85193Y-50813D02*
X86129Y-49877D01*
X85193Y-52303D02*
X85193Y-50813D01*
X85629Y-52739D02*
X85193Y-52303D01*
X85629Y-53610D02*
X85629Y-52739D01*
X86129Y-54110D02*
X85629Y-53610D01*
G54D10*
G36*
X59605Y-39896D02*
X59597Y-39896D01*
X59597Y-39904D01*
X59497Y-39904D01*
X59497Y-39896D01*
X59489Y-39896D01*
X59489Y-39796D01*
X59497Y-39796D01*
X59497Y-39788D01*
X59597Y-39788D01*
X59597Y-39796D01*
X59605Y-39796D01*
X59605Y-39896D01*
X59605Y-39896D01*
G37*
G54D25*
X59605Y-39896D02*
X59597Y-39896D01*
X59597Y-39904D01*
X59497Y-39904D01*
X59497Y-39896D01*
X59489Y-39896D01*
X59489Y-39796D01*
X59497Y-39796D01*
X59497Y-39788D01*
X59597Y-39788D01*
X59597Y-39796D01*
X59605Y-39796D01*
X59605Y-39896D01*
G54D10*
G36*
X63367Y-42190D02*
X63301Y-42190D01*
X63144Y-42255D01*
X63023Y-42375D01*
X62958Y-42532D01*
X62958Y-42702D01*
X63023Y-42859D01*
X63076Y-42913D01*
X63069Y-42921D01*
X62988Y-42887D01*
X62819Y-42887D01*
X62663Y-42952D01*
X62627Y-42987D01*
X62611Y-42987D01*
X62104Y-42480D01*
X62318Y-42480D01*
X62410Y-42442D01*
X62480Y-42372D01*
X62518Y-42280D01*
X62518Y-42181D01*
X62518Y-41943D01*
X62456Y-41880D01*
X62018Y-41880D01*
X62018Y-41888D01*
X61918Y-41888D01*
X61918Y-41880D01*
X61911Y-41880D01*
X61911Y-41780D01*
X61918Y-41780D01*
X61918Y-41243D01*
X61856Y-41180D01*
X61619Y-41180D01*
X61527Y-41218D01*
X61457Y-41288D01*
X61418Y-41380D01*
X61418Y-41480D01*
X61418Y-41668D01*
X61373Y-41601D01*
X61268Y-41530D01*
X61218Y-41520D01*
X61218Y-41381D01*
X61180Y-41289D01*
X61110Y-41218D01*
X61018Y-41180D01*
X60919Y-41180D01*
X60319Y-41180D01*
X60227Y-41218D01*
X60157Y-41288D01*
X60118Y-41380D01*
X60118Y-41480D01*
X60118Y-41505D01*
X60055Y-41505D01*
X59895Y-41346D01*
X60055Y-41186D01*
X60147Y-40966D01*
X60147Y-40727D01*
X60056Y-40507D01*
X59981Y-40432D01*
X60038Y-40408D01*
X60109Y-40338D01*
X60114Y-40326D01*
X60134Y-40377D01*
X60205Y-40447D01*
X60297Y-40485D01*
X60396Y-40485D01*
X60946Y-40485D01*
X61002Y-40462D01*
X61179Y-40640D01*
X61285Y-40710D01*
X61409Y-40735D01*
X61911Y-40735D01*
X62383Y-41207D01*
X62318Y-41180D01*
X62081Y-41180D01*
X62018Y-41243D01*
X62018Y-41780D01*
X62456Y-41780D01*
X62518Y-41718D01*
X62518Y-41480D01*
X62518Y-41380D01*
X62491Y-41315D01*
X63367Y-42190D01*
X63367Y-42190D01*
G37*
G54D25*
X63367Y-42190D02*
X63301Y-42190D01*
X63144Y-42255D01*
X63023Y-42375D01*
X62958Y-42532D01*
X62958Y-42702D01*
X63023Y-42859D01*
X63076Y-42913D01*
X63069Y-42921D01*
X62988Y-42887D01*
X62819Y-42887D01*
X62663Y-42952D01*
X62627Y-42987D01*
X62611Y-42987D01*
X62104Y-42480D01*
X62318Y-42480D01*
X62410Y-42442D01*
X62480Y-42372D01*
X62518Y-42280D01*
X62518Y-42181D01*
X62518Y-41943D01*
X62456Y-41880D01*
X62018Y-41880D01*
X62018Y-41888D01*
X61918Y-41888D01*
X61918Y-41880D01*
X61911Y-41880D01*
X61911Y-41780D01*
X61918Y-41780D01*
X61918Y-41243D01*
X61856Y-41180D01*
X61619Y-41180D01*
X61527Y-41218D01*
X61457Y-41288D01*
X61418Y-41380D01*
X61418Y-41480D01*
X61418Y-41668D01*
X61373Y-41601D01*
X61268Y-41530D01*
X61218Y-41520D01*
X61218Y-41381D01*
X61180Y-41289D01*
X61110Y-41218D01*
X61018Y-41180D01*
X60919Y-41180D01*
X60319Y-41180D01*
X60227Y-41218D01*
X60157Y-41288D01*
X60118Y-41380D01*
X60118Y-41480D01*
X60118Y-41505D01*
X60055Y-41505D01*
X59895Y-41346D01*
X60055Y-41186D01*
X60147Y-40966D01*
X60147Y-40727D01*
X60056Y-40507D01*
X59981Y-40432D01*
X60038Y-40408D01*
X60109Y-40338D01*
X60114Y-40326D01*
X60134Y-40377D01*
X60205Y-40447D01*
X60297Y-40485D01*
X60396Y-40485D01*
X60946Y-40485D01*
X61002Y-40462D01*
X61179Y-40640D01*
X61285Y-40710D01*
X61409Y-40735D01*
X61911Y-40735D01*
X62383Y-41207D01*
X62318Y-41180D01*
X62081Y-41180D01*
X62018Y-41243D01*
X62018Y-41780D01*
X62456Y-41780D01*
X62518Y-41718D01*
X62518Y-41480D01*
X62518Y-41380D01*
X62491Y-41315D01*
X63367Y-42190D01*
G54D10*
G36*
X66357Y-54888D02*
X65807Y-55438D01*
X65807Y-55309D01*
X65807Y-55072D01*
X65744Y-55010D01*
X65207Y-55010D01*
X65207Y-55447D01*
X65269Y-55510D01*
X65507Y-55510D01*
X65607Y-55510D01*
X65699Y-55472D01*
X65769Y-55401D01*
X65807Y-55309D01*
X65807Y-55438D01*
X65535Y-55710D01*
X65507Y-55710D01*
X65107Y-55710D01*
X65107Y-55447D01*
X65107Y-55010D01*
X64569Y-55010D01*
X64507Y-55072D01*
X64507Y-55309D01*
X64545Y-55401D01*
X64615Y-55472D01*
X64707Y-55510D01*
X64806Y-55510D01*
X65044Y-55510D01*
X65107Y-55447D01*
X65107Y-55710D01*
X64707Y-55710D01*
X64616Y-55748D01*
X64545Y-55818D01*
X64507Y-55910D01*
X64507Y-56009D01*
X64507Y-56567D01*
X63813Y-55873D01*
X63813Y-55820D01*
X63748Y-55663D01*
X63694Y-55610D01*
X63747Y-55557D01*
X63812Y-55400D01*
X63812Y-55347D01*
X64507Y-54652D01*
X64507Y-54847D01*
X64569Y-54910D01*
X65107Y-54910D01*
X65107Y-54902D01*
X65207Y-54902D01*
X65207Y-54910D01*
X65744Y-54910D01*
X65807Y-54847D01*
X65807Y-54610D01*
X65769Y-54518D01*
X65699Y-54448D01*
X65655Y-54430D01*
X65677Y-54408D01*
X65732Y-54275D01*
X65786Y-54407D01*
X65934Y-54555D01*
X66127Y-54635D01*
X66336Y-54635D01*
X66357Y-54626D01*
X66357Y-54888D01*
X66357Y-54888D01*
G37*
G54D25*
X66357Y-54888D02*
X65807Y-55438D01*
X65807Y-55309D01*
X65807Y-55072D01*
X65744Y-55010D01*
X65207Y-55010D01*
X65207Y-55447D01*
X65269Y-55510D01*
X65507Y-55510D01*
X65607Y-55510D01*
X65699Y-55472D01*
X65769Y-55401D01*
X65807Y-55309D01*
X65807Y-55438D01*
X65535Y-55710D01*
X65507Y-55710D01*
X65107Y-55710D01*
X65107Y-55447D01*
X65107Y-55010D01*
X64569Y-55010D01*
X64507Y-55072D01*
X64507Y-55309D01*
X64545Y-55401D01*
X64615Y-55472D01*
X64707Y-55510D01*
X64806Y-55510D01*
X65044Y-55510D01*
X65107Y-55447D01*
X65107Y-55710D01*
X64707Y-55710D01*
X64616Y-55748D01*
X64545Y-55818D01*
X64507Y-55910D01*
X64507Y-56009D01*
X64507Y-56567D01*
X63813Y-55873D01*
X63813Y-55820D01*
X63748Y-55663D01*
X63694Y-55610D01*
X63747Y-55557D01*
X63812Y-55400D01*
X63812Y-55347D01*
X64507Y-54652D01*
X64507Y-54847D01*
X64569Y-54910D01*
X65107Y-54910D01*
X65107Y-54902D01*
X65207Y-54902D01*
X65207Y-54910D01*
X65744Y-54910D01*
X65807Y-54847D01*
X65807Y-54610D01*
X65769Y-54518D01*
X65699Y-54448D01*
X65655Y-54430D01*
X65677Y-54408D01*
X65732Y-54275D01*
X65786Y-54407D01*
X65934Y-54555D01*
X66127Y-54635D01*
X66336Y-54635D01*
X66357Y-54626D01*
X66357Y-54888D01*
G54D10*
G36*
X66407Y-58023D02*
X66261Y-57963D01*
X66022Y-57962D01*
X65802Y-58054D01*
X65727Y-58128D01*
X65703Y-58071D01*
X65633Y-58001D01*
X65541Y-57963D01*
X65442Y-57962D01*
X65254Y-57962D01*
X65191Y-58025D01*
X65191Y-58512D01*
X65199Y-58512D01*
X65199Y-58612D01*
X65191Y-58612D01*
X65191Y-58620D01*
X65091Y-58620D01*
X65091Y-58612D01*
X65091Y-58512D01*
X65091Y-58025D01*
X65029Y-57962D01*
X64841Y-57962D01*
X64741Y-57963D01*
X64649Y-58001D01*
X64579Y-58071D01*
X64541Y-58163D01*
X64541Y-58450D01*
X64604Y-58512D01*
X65091Y-58512D01*
X65091Y-58612D01*
X64604Y-58612D01*
X64541Y-58675D01*
X64541Y-58785D01*
X63818Y-58785D01*
X63818Y-57434D01*
X63805Y-57264D01*
X63765Y-57168D01*
X63682Y-57155D01*
X63611Y-57226D01*
X63611Y-57085D01*
X63599Y-57002D01*
X63438Y-56949D01*
X63268Y-56962D01*
X63171Y-57002D01*
X63159Y-57085D01*
X63385Y-57311D01*
X63611Y-57085D01*
X63611Y-57226D01*
X63456Y-57381D01*
X63462Y-57387D01*
X63391Y-57458D01*
X63385Y-57452D01*
X63380Y-57458D01*
X63315Y-57393D01*
X63309Y-57387D01*
X63315Y-57381D01*
X63089Y-57155D01*
X63006Y-57168D01*
X62953Y-57329D01*
X62966Y-57498D01*
X63006Y-57595D01*
X63089Y-57607D01*
X63043Y-57653D01*
X63071Y-57682D01*
X63023Y-57730D01*
X62958Y-57887D01*
X62958Y-58057D01*
X63023Y-58214D01*
X63143Y-58334D01*
X63300Y-58399D01*
X63470Y-58399D01*
X63627Y-58334D01*
X63747Y-58214D01*
X63812Y-58057D01*
X63813Y-57887D01*
X63748Y-57730D01*
X63699Y-57682D01*
X63728Y-57653D01*
X63682Y-57607D01*
X63765Y-57595D01*
X63818Y-57434D01*
X63818Y-58785D01*
X63813Y-58785D01*
X62617Y-58785D01*
X62617Y-54878D01*
X62617Y-54177D01*
X62617Y-54077D01*
X62579Y-53985D01*
X62518Y-53925D01*
X62518Y-50645D01*
X62518Y-49944D01*
X62518Y-49845D01*
X62480Y-49753D01*
X62410Y-49683D01*
X62318Y-49645D01*
X62081Y-49645D01*
X62018Y-49707D01*
X62018Y-50245D01*
X62456Y-50245D01*
X62518Y-50182D01*
X62518Y-49944D01*
X62518Y-50645D01*
X62518Y-50407D01*
X62456Y-50345D01*
X62018Y-50345D01*
X62018Y-50882D01*
X62081Y-50945D01*
X62318Y-50945D01*
X62410Y-50907D01*
X62480Y-50837D01*
X62518Y-50745D01*
X62518Y-50645D01*
X62518Y-53925D01*
X62508Y-53915D01*
X62467Y-53898D01*
X62467Y-52351D01*
X62307Y-51965D01*
X62012Y-51669D01*
X61918Y-51630D01*
X61918Y-50882D01*
X61918Y-50345D01*
X61918Y-50245D01*
X61918Y-49707D01*
X61856Y-49645D01*
X61619Y-49645D01*
X61527Y-49683D01*
X61457Y-49753D01*
X61418Y-49845D01*
X61418Y-49944D01*
X61418Y-50182D01*
X61481Y-50245D01*
X61918Y-50245D01*
X61918Y-50345D01*
X61481Y-50345D01*
X61418Y-50407D01*
X61418Y-50645D01*
X61418Y-50745D01*
X61457Y-50837D01*
X61527Y-50907D01*
X61619Y-50945D01*
X61856Y-50945D01*
X61918Y-50882D01*
X61918Y-51630D01*
X61627Y-51509D01*
X61209Y-51508D01*
X60823Y-51668D01*
X60527Y-51963D01*
X60367Y-52349D01*
X60367Y-52766D01*
X60526Y-53153D01*
X60821Y-53448D01*
X61207Y-53608D01*
X61625Y-53609D01*
X62011Y-53449D01*
X62306Y-53154D01*
X62467Y-52768D01*
X62467Y-52351D01*
X62467Y-53898D01*
X62416Y-53877D01*
X62179Y-53877D01*
X62117Y-53940D01*
X62117Y-54477D01*
X62554Y-54477D01*
X62617Y-54415D01*
X62617Y-54177D01*
X62617Y-54878D01*
X62617Y-54640D01*
X62554Y-54577D01*
X62117Y-54577D01*
X62117Y-55115D01*
X62179Y-55177D01*
X62416Y-55177D01*
X62508Y-55139D01*
X62579Y-55069D01*
X62617Y-54977D01*
X62617Y-54878D01*
X62617Y-58785D01*
X62089Y-58785D01*
X62136Y-58656D01*
X62125Y-58418D01*
X62054Y-58245D01*
X62017Y-58232D01*
X62017Y-55115D01*
X62017Y-54577D01*
X62017Y-54477D01*
X62017Y-53940D01*
X61954Y-53877D01*
X61717Y-53877D01*
X61625Y-53915D01*
X61555Y-53985D01*
X61517Y-54077D01*
X61517Y-54177D01*
X61517Y-54415D01*
X61579Y-54477D01*
X62017Y-54477D01*
X62017Y-54577D01*
X61579Y-54577D01*
X61517Y-54640D01*
X61517Y-54878D01*
X61517Y-54977D01*
X61555Y-55069D01*
X61625Y-55139D01*
X61717Y-55177D01*
X61954Y-55177D01*
X62017Y-55115D01*
X62017Y-58232D01*
X61953Y-58211D01*
X61882Y-58282D01*
X61882Y-58140D01*
X61868Y-58099D01*
X61868Y-56183D01*
X61857Y-55966D01*
X61796Y-55817D01*
X61701Y-55790D01*
X61630Y-55861D01*
X61630Y-55719D01*
X61603Y-55625D01*
X61399Y-55552D01*
X61182Y-55563D01*
X61033Y-55625D01*
X61007Y-55719D01*
X61318Y-56031D01*
X61630Y-55719D01*
X61630Y-55861D01*
X61389Y-56102D01*
X61701Y-56414D01*
X61796Y-56387D01*
X61868Y-56183D01*
X61868Y-58099D01*
X61864Y-58084D01*
X61864Y-56781D01*
X61781Y-56581D01*
X61628Y-56427D01*
X61534Y-56389D01*
X61318Y-56173D01*
X61248Y-56243D01*
X61248Y-56102D01*
X60936Y-55790D01*
X60841Y-55817D01*
X60768Y-56021D01*
X60779Y-56238D01*
X60841Y-56387D01*
X60936Y-56414D01*
X61248Y-56102D01*
X61248Y-56243D01*
X61102Y-56388D01*
X61010Y-56427D01*
X60856Y-56580D01*
X60773Y-56780D01*
X60773Y-56997D01*
X60856Y-57198D01*
X61009Y-57351D01*
X61209Y-57434D01*
X61426Y-57435D01*
X61627Y-57352D01*
X61780Y-57199D01*
X61864Y-56998D01*
X61864Y-56781D01*
X61864Y-58084D01*
X61849Y-58040D01*
X61625Y-57958D01*
X61386Y-57968D01*
X61213Y-58040D01*
X61180Y-58140D01*
X61531Y-58492D01*
X61882Y-58140D01*
X61882Y-58282D01*
X61602Y-58562D01*
X61607Y-58568D01*
X61537Y-58639D01*
X61531Y-58633D01*
X61525Y-58639D01*
X61455Y-58568D01*
X61460Y-58562D01*
X61109Y-58211D01*
X61044Y-58233D01*
X61040Y-58223D01*
X60871Y-58054D01*
X60651Y-57963D01*
X60412Y-57962D01*
X60192Y-58054D01*
X60175Y-58070D01*
X60175Y-56268D01*
X60164Y-56060D01*
X60106Y-55920D01*
X60013Y-55895D01*
X59942Y-55966D01*
X59716Y-56192D01*
X60013Y-56489D01*
X60106Y-56465D01*
X60175Y-56268D01*
X60175Y-58070D01*
X60117Y-58128D01*
X60093Y-58071D01*
X60023Y-58001D01*
X59931Y-57963D01*
X59856Y-57962D01*
X59856Y-57891D01*
X59875Y-57872D01*
X59875Y-57872D01*
X59875Y-57872D01*
X59945Y-57767D01*
X59945Y-57767D01*
X59955Y-57717D01*
X59970Y-57717D01*
X60062Y-57679D01*
X60132Y-57609D01*
X60170Y-57517D01*
X60170Y-57418D01*
X60170Y-56868D01*
X60132Y-56776D01*
X60062Y-56706D01*
X59970Y-56667D01*
X59883Y-56667D01*
X59918Y-56653D01*
X59942Y-56560D01*
X59645Y-56263D01*
X59640Y-56269D01*
X59569Y-56198D01*
X59574Y-56192D01*
X59569Y-56187D01*
X59640Y-56116D01*
X59645Y-56122D01*
X59942Y-55825D01*
X59918Y-55732D01*
X59721Y-55663D01*
X59512Y-55674D01*
X59372Y-55732D01*
X59348Y-55825D01*
X59324Y-55801D01*
X59324Y-55100D01*
X59427Y-55143D01*
X59666Y-55143D01*
X59886Y-55052D01*
X60055Y-54883D01*
X60068Y-54852D01*
X60217Y-54852D01*
X60217Y-54977D01*
X60255Y-55068D01*
X60325Y-55139D01*
X60417Y-55177D01*
X60516Y-55177D01*
X61116Y-55177D01*
X61208Y-55139D01*
X61279Y-55069D01*
X61317Y-54977D01*
X61317Y-54878D01*
X61317Y-54078D01*
X61279Y-53986D01*
X61209Y-53915D01*
X61117Y-53877D01*
X61017Y-53877D01*
X60417Y-53877D01*
X60325Y-53915D01*
X60255Y-53985D01*
X60217Y-54077D01*
X60217Y-54177D01*
X60217Y-54202D01*
X60055Y-54202D01*
X59895Y-54043D01*
X60055Y-53883D01*
X60147Y-53663D01*
X60147Y-53424D01*
X60056Y-53203D01*
X59981Y-53129D01*
X60038Y-53105D01*
X60109Y-53035D01*
X60147Y-52943D01*
X60147Y-52843D01*
X60147Y-52242D01*
X60147Y-52143D01*
X60109Y-52051D01*
X60038Y-51981D01*
X59946Y-51943D01*
X59659Y-51943D01*
X59597Y-52005D01*
X59597Y-52493D01*
X60084Y-52493D01*
X60147Y-52430D01*
X60147Y-52242D01*
X60147Y-52843D01*
X60147Y-52655D01*
X60084Y-52593D01*
X59597Y-52593D01*
X59597Y-52601D01*
X59497Y-52601D01*
X59497Y-52593D01*
X59489Y-52593D01*
X59489Y-52493D01*
X59497Y-52493D01*
X59497Y-52005D01*
X59434Y-51943D01*
X59324Y-51943D01*
X59324Y-50868D01*
X59427Y-50910D01*
X59666Y-50911D01*
X59886Y-50819D01*
X60055Y-50651D01*
X60068Y-50620D01*
X60118Y-50620D01*
X60118Y-50744D01*
X60156Y-50836D01*
X60227Y-50907D01*
X60318Y-50945D01*
X60418Y-50945D01*
X61018Y-50945D01*
X61110Y-50907D01*
X61180Y-50837D01*
X61218Y-50745D01*
X61218Y-50645D01*
X61218Y-49845D01*
X61180Y-49753D01*
X61110Y-49683D01*
X61018Y-49645D01*
X60919Y-49645D01*
X60319Y-49645D01*
X60227Y-49683D01*
X60157Y-49753D01*
X60118Y-49845D01*
X60118Y-49944D01*
X60118Y-49970D01*
X60055Y-49970D01*
X59895Y-49810D01*
X60055Y-49651D01*
X60147Y-49430D01*
X60147Y-49192D01*
X60056Y-48971D01*
X59981Y-48896D01*
X60038Y-48873D01*
X60109Y-48802D01*
X60147Y-48710D01*
X60147Y-48611D01*
X60147Y-48010D01*
X60147Y-47911D01*
X60109Y-47819D01*
X60038Y-47748D01*
X59946Y-47710D01*
X59659Y-47711D01*
X59597Y-47773D01*
X59597Y-48261D01*
X60084Y-48261D01*
X60147Y-48198D01*
X60147Y-48010D01*
X60147Y-48611D01*
X60147Y-48423D01*
X60084Y-48361D01*
X59597Y-48361D01*
X59597Y-48368D01*
X59497Y-48368D01*
X59497Y-48361D01*
X59489Y-48361D01*
X59489Y-48261D01*
X59497Y-48261D01*
X59497Y-47773D01*
X59434Y-47711D01*
X59324Y-47711D01*
X59324Y-46636D01*
X59427Y-46678D01*
X59666Y-46678D01*
X59886Y-46587D01*
X60055Y-46419D01*
X60062Y-46403D01*
X60106Y-46403D01*
X60106Y-46493D01*
X60131Y-46617D01*
X60201Y-46722D01*
X65946Y-52467D01*
X65935Y-52510D01*
X66232Y-52807D01*
X66237Y-52801D01*
X66308Y-52872D01*
X66302Y-52877D01*
X66308Y-52883D01*
X66237Y-52954D01*
X66232Y-52948D01*
X66161Y-53019D01*
X66161Y-52877D01*
X65864Y-52580D01*
X65771Y-52605D01*
X65757Y-52646D01*
X65757Y-52553D01*
X65719Y-52461D01*
X65649Y-52391D01*
X65557Y-52352D01*
X65457Y-52352D01*
X64907Y-52352D01*
X64815Y-52390D01*
X64745Y-52461D01*
X64707Y-52553D01*
X64707Y-52652D01*
X64707Y-53202D01*
X64745Y-53294D01*
X64815Y-53364D01*
X64907Y-53402D01*
X65006Y-53402D01*
X65556Y-53402D01*
X65648Y-53365D01*
X65719Y-53294D01*
X65757Y-53202D01*
X65757Y-53115D01*
X65771Y-53150D01*
X65864Y-53175D01*
X66161Y-52877D01*
X66161Y-53019D01*
X65935Y-53245D01*
X65959Y-53338D01*
X66073Y-53378D01*
X66073Y-53488D01*
X66115Y-53590D01*
X65935Y-53664D01*
X65787Y-53812D01*
X65732Y-53945D01*
X65677Y-53813D01*
X65530Y-53665D01*
X65337Y-53585D01*
X65128Y-53585D01*
X64935Y-53664D01*
X64814Y-53785D01*
X64590Y-53785D01*
X64466Y-53810D01*
X64360Y-53880D01*
X63813Y-54428D01*
X63813Y-51588D01*
X63748Y-51431D01*
X63694Y-51377D01*
X63747Y-51324D01*
X63812Y-51168D01*
X63813Y-50998D01*
X63748Y-50841D01*
X63628Y-50720D01*
X63471Y-50655D01*
X63301Y-50655D01*
X63144Y-50720D01*
X63023Y-50840D01*
X62958Y-50997D01*
X62958Y-51167D01*
X63023Y-51324D01*
X63076Y-51377D01*
X63023Y-51430D01*
X62958Y-51587D01*
X62958Y-51757D01*
X63023Y-51914D01*
X63143Y-52035D01*
X63300Y-52100D01*
X63470Y-52100D01*
X63627Y-52035D01*
X63747Y-51915D01*
X63812Y-51758D01*
X63813Y-51588D01*
X63813Y-54428D01*
X63353Y-54887D01*
X63301Y-54887D01*
X63144Y-54952D01*
X63023Y-55072D01*
X62958Y-55229D01*
X62958Y-55399D01*
X63023Y-55556D01*
X63076Y-55610D01*
X63023Y-55663D01*
X62958Y-55820D01*
X62958Y-55990D01*
X63023Y-56147D01*
X63143Y-56267D01*
X63300Y-56332D01*
X63353Y-56332D01*
X64360Y-57339D01*
X64466Y-57410D01*
X64590Y-57435D01*
X64707Y-57435D01*
X64745Y-57526D01*
X64815Y-57597D01*
X64907Y-57635D01*
X65006Y-57635D01*
X65556Y-57635D01*
X65648Y-57597D01*
X65719Y-57527D01*
X65757Y-57435D01*
X65757Y-57348D01*
X65771Y-57383D01*
X65864Y-57407D01*
X66161Y-57110D01*
X65864Y-56813D01*
X65771Y-56837D01*
X65757Y-56878D01*
X65757Y-56785D01*
X65736Y-56734D01*
X65769Y-56702D01*
X65807Y-56610D01*
X65807Y-56548D01*
X65948Y-56690D01*
X65935Y-56742D01*
X66232Y-57039D01*
X66237Y-57033D01*
X66308Y-57104D01*
X66302Y-57110D01*
X66308Y-57115D01*
X66237Y-57186D01*
X66232Y-57180D01*
X65935Y-57478D01*
X65959Y-57570D01*
X66156Y-57640D01*
X66365Y-57628D01*
X66407Y-57611D01*
X66407Y-58023D01*
X66407Y-58023D01*
G37*
G54D25*
X66407Y-58023D02*
X66261Y-57963D01*
X66022Y-57962D01*
X65802Y-58054D01*
X65727Y-58128D01*
X65703Y-58071D01*
X65633Y-58001D01*
X65541Y-57963D01*
X65442Y-57962D01*
X65254Y-57962D01*
X65191Y-58025D01*
X65191Y-58512D01*
X65199Y-58512D01*
X65199Y-58612D01*
X65191Y-58612D01*
X65191Y-58620D01*
X65091Y-58620D01*
X65091Y-58612D01*
X65091Y-58512D01*
X65091Y-58025D01*
X65029Y-57962D01*
X64841Y-57962D01*
X64741Y-57963D01*
X64649Y-58001D01*
X64579Y-58071D01*
X64541Y-58163D01*
X64541Y-58450D01*
X64604Y-58512D01*
X65091Y-58512D01*
X65091Y-58612D01*
X64604Y-58612D01*
X64541Y-58675D01*
X64541Y-58785D01*
X63818Y-58785D01*
X63818Y-57434D01*
X63805Y-57264D01*
X63765Y-57168D01*
X63682Y-57155D01*
X63611Y-57226D01*
X63611Y-57085D01*
X63599Y-57002D01*
X63438Y-56949D01*
X63268Y-56962D01*
X63171Y-57002D01*
X63159Y-57085D01*
X63385Y-57311D01*
X63611Y-57085D01*
X63611Y-57226D01*
X63456Y-57381D01*
X63462Y-57387D01*
X63391Y-57458D01*
X63385Y-57452D01*
X63380Y-57458D01*
X63315Y-57393D01*
X63309Y-57387D01*
X63315Y-57381D01*
X63089Y-57155D01*
X63006Y-57168D01*
X62953Y-57329D01*
X62966Y-57498D01*
X63006Y-57595D01*
X63089Y-57607D01*
X63043Y-57653D01*
X63071Y-57682D01*
X63023Y-57730D01*
X62958Y-57887D01*
X62958Y-58057D01*
X63023Y-58214D01*
X63143Y-58334D01*
X63300Y-58399D01*
X63470Y-58399D01*
X63627Y-58334D01*
X63747Y-58214D01*
X63812Y-58057D01*
X63813Y-57887D01*
X63748Y-57730D01*
X63699Y-57682D01*
X63728Y-57653D01*
X63682Y-57607D01*
X63765Y-57595D01*
X63818Y-57434D01*
X63818Y-58785D01*
X63813Y-58785D01*
X62617Y-58785D01*
X62617Y-54878D01*
X62617Y-54177D01*
X62617Y-54077D01*
X62579Y-53985D01*
X62518Y-53925D01*
X62518Y-50645D01*
X62518Y-49944D01*
X62518Y-49845D01*
X62480Y-49753D01*
X62410Y-49683D01*
X62318Y-49645D01*
X62081Y-49645D01*
X62018Y-49707D01*
X62018Y-50245D01*
X62456Y-50245D01*
X62518Y-50182D01*
X62518Y-49944D01*
X62518Y-50645D01*
X62518Y-50407D01*
X62456Y-50345D01*
X62018Y-50345D01*
X62018Y-50882D01*
X62081Y-50945D01*
X62318Y-50945D01*
X62410Y-50907D01*
X62480Y-50837D01*
X62518Y-50745D01*
X62518Y-50645D01*
X62518Y-53925D01*
X62508Y-53915D01*
X62467Y-53898D01*
X62467Y-52351D01*
X62307Y-51965D01*
X62012Y-51669D01*
X61918Y-51630D01*
X61918Y-50882D01*
X61918Y-50345D01*
X61918Y-50245D01*
X61918Y-49707D01*
X61856Y-49645D01*
X61619Y-49645D01*
X61527Y-49683D01*
X61457Y-49753D01*
X61418Y-49845D01*
X61418Y-49944D01*
X61418Y-50182D01*
X61481Y-50245D01*
X61918Y-50245D01*
X61918Y-50345D01*
X61481Y-50345D01*
X61418Y-50407D01*
X61418Y-50645D01*
X61418Y-50745D01*
X61457Y-50837D01*
X61527Y-50907D01*
X61619Y-50945D01*
X61856Y-50945D01*
X61918Y-50882D01*
X61918Y-51630D01*
X61627Y-51509D01*
X61209Y-51508D01*
X60823Y-51668D01*
X60527Y-51963D01*
X60367Y-52349D01*
X60367Y-52766D01*
X60526Y-53153D01*
X60821Y-53448D01*
X61207Y-53608D01*
X61625Y-53609D01*
X62011Y-53449D01*
X62306Y-53154D01*
X62467Y-52768D01*
X62467Y-52351D01*
X62467Y-53898D01*
X62416Y-53877D01*
X62179Y-53877D01*
X62117Y-53940D01*
X62117Y-54477D01*
X62554Y-54477D01*
X62617Y-54415D01*
X62617Y-54177D01*
X62617Y-54878D01*
X62617Y-54640D01*
X62554Y-54577D01*
X62117Y-54577D01*
X62117Y-55115D01*
X62179Y-55177D01*
X62416Y-55177D01*
X62508Y-55139D01*
X62579Y-55069D01*
X62617Y-54977D01*
X62617Y-54878D01*
X62617Y-58785D01*
X62089Y-58785D01*
X62136Y-58656D01*
X62125Y-58418D01*
X62054Y-58245D01*
X62017Y-58232D01*
X62017Y-55115D01*
X62017Y-54577D01*
X62017Y-54477D01*
X62017Y-53940D01*
X61954Y-53877D01*
X61717Y-53877D01*
X61625Y-53915D01*
X61555Y-53985D01*
X61517Y-54077D01*
X61517Y-54177D01*
X61517Y-54415D01*
X61579Y-54477D01*
X62017Y-54477D01*
X62017Y-54577D01*
X61579Y-54577D01*
X61517Y-54640D01*
X61517Y-54878D01*
X61517Y-54977D01*
X61555Y-55069D01*
X61625Y-55139D01*
X61717Y-55177D01*
X61954Y-55177D01*
X62017Y-55115D01*
X62017Y-58232D01*
X61953Y-58211D01*
X61882Y-58282D01*
X61882Y-58140D01*
X61868Y-58099D01*
X61868Y-56183D01*
X61857Y-55966D01*
X61796Y-55817D01*
X61701Y-55790D01*
X61630Y-55861D01*
X61630Y-55719D01*
X61603Y-55625D01*
X61399Y-55552D01*
X61182Y-55563D01*
X61033Y-55625D01*
X61007Y-55719D01*
X61318Y-56031D01*
X61630Y-55719D01*
X61630Y-55861D01*
X61389Y-56102D01*
X61701Y-56414D01*
X61796Y-56387D01*
X61868Y-56183D01*
X61868Y-58099D01*
X61864Y-58084D01*
X61864Y-56781D01*
X61781Y-56581D01*
X61628Y-56427D01*
X61534Y-56389D01*
X61318Y-56173D01*
X61248Y-56243D01*
X61248Y-56102D01*
X60936Y-55790D01*
X60841Y-55817D01*
X60768Y-56021D01*
X60779Y-56238D01*
X60841Y-56387D01*
X60936Y-56414D01*
X61248Y-56102D01*
X61248Y-56243D01*
X61102Y-56388D01*
X61010Y-56427D01*
X60856Y-56580D01*
X60773Y-56780D01*
X60773Y-56997D01*
X60856Y-57198D01*
X61009Y-57351D01*
X61209Y-57434D01*
X61426Y-57435D01*
X61627Y-57352D01*
X61780Y-57199D01*
X61864Y-56998D01*
X61864Y-56781D01*
X61864Y-58084D01*
X61849Y-58040D01*
X61625Y-57958D01*
X61386Y-57968D01*
X61213Y-58040D01*
X61180Y-58140D01*
X61531Y-58492D01*
X61882Y-58140D01*
X61882Y-58282D01*
X61602Y-58562D01*
X61607Y-58568D01*
X61537Y-58639D01*
X61531Y-58633D01*
X61525Y-58639D01*
X61455Y-58568D01*
X61460Y-58562D01*
X61109Y-58211D01*
X61044Y-58233D01*
X61040Y-58223D01*
X60871Y-58054D01*
X60651Y-57963D01*
X60412Y-57962D01*
X60192Y-58054D01*
X60175Y-58070D01*
X60175Y-56268D01*
X60164Y-56060D01*
X60106Y-55920D01*
X60013Y-55895D01*
X59942Y-55966D01*
X59716Y-56192D01*
X60013Y-56489D01*
X60106Y-56465D01*
X60175Y-56268D01*
X60175Y-58070D01*
X60117Y-58128D01*
X60093Y-58071D01*
X60023Y-58001D01*
X59931Y-57963D01*
X59856Y-57962D01*
X59856Y-57891D01*
X59875Y-57872D01*
X59875Y-57872D01*
X59875Y-57872D01*
X59945Y-57767D01*
X59945Y-57767D01*
X59955Y-57717D01*
X59970Y-57717D01*
X60062Y-57679D01*
X60132Y-57609D01*
X60170Y-57517D01*
X60170Y-57418D01*
X60170Y-56868D01*
X60132Y-56776D01*
X60062Y-56706D01*
X59970Y-56667D01*
X59883Y-56667D01*
X59918Y-56653D01*
X59942Y-56560D01*
X59645Y-56263D01*
X59640Y-56269D01*
X59569Y-56198D01*
X59574Y-56192D01*
X59569Y-56187D01*
X59640Y-56116D01*
X59645Y-56122D01*
X59942Y-55825D01*
X59918Y-55732D01*
X59721Y-55663D01*
X59512Y-55674D01*
X59372Y-55732D01*
X59348Y-55825D01*
X59324Y-55801D01*
X59324Y-55100D01*
X59427Y-55143D01*
X59666Y-55143D01*
X59886Y-55052D01*
X60055Y-54883D01*
X60068Y-54852D01*
X60217Y-54852D01*
X60217Y-54977D01*
X60255Y-55068D01*
X60325Y-55139D01*
X60417Y-55177D01*
X60516Y-55177D01*
X61116Y-55177D01*
X61208Y-55139D01*
X61279Y-55069D01*
X61317Y-54977D01*
X61317Y-54878D01*
X61317Y-54078D01*
X61279Y-53986D01*
X61209Y-53915D01*
X61117Y-53877D01*
X61017Y-53877D01*
X60417Y-53877D01*
X60325Y-53915D01*
X60255Y-53985D01*
X60217Y-54077D01*
X60217Y-54177D01*
X60217Y-54202D01*
X60055Y-54202D01*
X59895Y-54043D01*
X60055Y-53883D01*
X60147Y-53663D01*
X60147Y-53424D01*
X60056Y-53203D01*
X59981Y-53129D01*
X60038Y-53105D01*
X60109Y-53035D01*
X60147Y-52943D01*
X60147Y-52843D01*
X60147Y-52242D01*
X60147Y-52143D01*
X60109Y-52051D01*
X60038Y-51981D01*
X59946Y-51943D01*
X59659Y-51943D01*
X59597Y-52005D01*
X59597Y-52493D01*
X60084Y-52493D01*
X60147Y-52430D01*
X60147Y-52242D01*
X60147Y-52843D01*
X60147Y-52655D01*
X60084Y-52593D01*
X59597Y-52593D01*
X59597Y-52601D01*
X59497Y-52601D01*
X59497Y-52593D01*
X59489Y-52593D01*
X59489Y-52493D01*
X59497Y-52493D01*
X59497Y-52005D01*
X59434Y-51943D01*
X59324Y-51943D01*
X59324Y-50868D01*
X59427Y-50910D01*
X59666Y-50911D01*
X59886Y-50819D01*
X60055Y-50651D01*
X60068Y-50620D01*
X60118Y-50620D01*
X60118Y-50744D01*
X60156Y-50836D01*
X60227Y-50907D01*
X60318Y-50945D01*
X60418Y-50945D01*
X61018Y-50945D01*
X61110Y-50907D01*
X61180Y-50837D01*
X61218Y-50745D01*
X61218Y-50645D01*
X61218Y-49845D01*
X61180Y-49753D01*
X61110Y-49683D01*
X61018Y-49645D01*
X60919Y-49645D01*
X60319Y-49645D01*
X60227Y-49683D01*
X60157Y-49753D01*
X60118Y-49845D01*
X60118Y-49944D01*
X60118Y-49970D01*
X60055Y-49970D01*
X59895Y-49810D01*
X60055Y-49651D01*
X60147Y-49430D01*
X60147Y-49192D01*
X60056Y-48971D01*
X59981Y-48896D01*
X60038Y-48873D01*
X60109Y-48802D01*
X60147Y-48710D01*
X60147Y-48611D01*
X60147Y-48010D01*
X60147Y-47911D01*
X60109Y-47819D01*
X60038Y-47748D01*
X59946Y-47710D01*
X59659Y-47711D01*
X59597Y-47773D01*
X59597Y-48261D01*
X60084Y-48261D01*
X60147Y-48198D01*
X60147Y-48010D01*
X60147Y-48611D01*
X60147Y-48423D01*
X60084Y-48361D01*
X59597Y-48361D01*
X59597Y-48368D01*
X59497Y-48368D01*
X59497Y-48361D01*
X59489Y-48361D01*
X59489Y-48261D01*
X59497Y-48261D01*
X59497Y-47773D01*
X59434Y-47711D01*
X59324Y-47711D01*
X59324Y-46636D01*
X59427Y-46678D01*
X59666Y-46678D01*
X59886Y-46587D01*
X60055Y-46419D01*
X60062Y-46403D01*
X60106Y-46403D01*
X60106Y-46493D01*
X60131Y-46617D01*
X60201Y-46722D01*
X65946Y-52467D01*
X65935Y-52510D01*
X66232Y-52807D01*
X66237Y-52801D01*
X66308Y-52872D01*
X66302Y-52877D01*
X66308Y-52883D01*
X66237Y-52954D01*
X66232Y-52948D01*
X66161Y-53019D01*
X66161Y-52877D01*
X65864Y-52580D01*
X65771Y-52605D01*
X65757Y-52646D01*
X65757Y-52553D01*
X65719Y-52461D01*
X65649Y-52391D01*
X65557Y-52352D01*
X65457Y-52352D01*
X64907Y-52352D01*
X64815Y-52390D01*
X64745Y-52461D01*
X64707Y-52553D01*
X64707Y-52652D01*
X64707Y-53202D01*
X64745Y-53294D01*
X64815Y-53364D01*
X64907Y-53402D01*
X65006Y-53402D01*
X65556Y-53402D01*
X65648Y-53365D01*
X65719Y-53294D01*
X65757Y-53202D01*
X65757Y-53115D01*
X65771Y-53150D01*
X65864Y-53175D01*
X66161Y-52877D01*
X66161Y-53019D01*
X65935Y-53245D01*
X65959Y-53338D01*
X66073Y-53378D01*
X66073Y-53488D01*
X66115Y-53590D01*
X65935Y-53664D01*
X65787Y-53812D01*
X65732Y-53945D01*
X65677Y-53813D01*
X65530Y-53665D01*
X65337Y-53585D01*
X65128Y-53585D01*
X64935Y-53664D01*
X64814Y-53785D01*
X64590Y-53785D01*
X64466Y-53810D01*
X64360Y-53880D01*
X63813Y-54428D01*
X63813Y-51588D01*
X63748Y-51431D01*
X63694Y-51377D01*
X63747Y-51324D01*
X63812Y-51168D01*
X63813Y-50998D01*
X63748Y-50841D01*
X63628Y-50720D01*
X63471Y-50655D01*
X63301Y-50655D01*
X63144Y-50720D01*
X63023Y-50840D01*
X62958Y-50997D01*
X62958Y-51167D01*
X63023Y-51324D01*
X63076Y-51377D01*
X63023Y-51430D01*
X62958Y-51587D01*
X62958Y-51757D01*
X63023Y-51914D01*
X63143Y-52035D01*
X63300Y-52100D01*
X63470Y-52100D01*
X63627Y-52035D01*
X63747Y-51915D01*
X63812Y-51758D01*
X63813Y-51588D01*
X63813Y-54428D01*
X63353Y-54887D01*
X63301Y-54887D01*
X63144Y-54952D01*
X63023Y-55072D01*
X62958Y-55229D01*
X62958Y-55399D01*
X63023Y-55556D01*
X63076Y-55610D01*
X63023Y-55663D01*
X62958Y-55820D01*
X62958Y-55990D01*
X63023Y-56147D01*
X63143Y-56267D01*
X63300Y-56332D01*
X63353Y-56332D01*
X64360Y-57339D01*
X64466Y-57410D01*
X64590Y-57435D01*
X64707Y-57435D01*
X64745Y-57526D01*
X64815Y-57597D01*
X64907Y-57635D01*
X65006Y-57635D01*
X65556Y-57635D01*
X65648Y-57597D01*
X65719Y-57527D01*
X65757Y-57435D01*
X65757Y-57348D01*
X65771Y-57383D01*
X65864Y-57407D01*
X66161Y-57110D01*
X65864Y-56813D01*
X65771Y-56837D01*
X65757Y-56878D01*
X65757Y-56785D01*
X65736Y-56734D01*
X65769Y-56702D01*
X65807Y-56610D01*
X65807Y-56548D01*
X65948Y-56690D01*
X65935Y-56742D01*
X66232Y-57039D01*
X66237Y-57033D01*
X66308Y-57104D01*
X66302Y-57110D01*
X66308Y-57115D01*
X66237Y-57186D01*
X66232Y-57180D01*
X65935Y-57478D01*
X65959Y-57570D01*
X66156Y-57640D01*
X66365Y-57628D01*
X66407Y-57611D01*
X66407Y-58023D01*
G54D10*
G36*
X67097Y-43901D02*
X66935Y-43968D01*
X66787Y-44115D01*
X66734Y-44242D01*
X66692Y-44140D01*
X66600Y-44116D01*
X66302Y-44413D01*
X66600Y-44710D01*
X66692Y-44686D01*
X66731Y-44576D01*
X66786Y-44710D01*
X66934Y-44858D01*
X66970Y-44873D01*
X66932Y-44930D01*
X66907Y-45054D01*
X66907Y-45228D01*
X66787Y-45347D01*
X66732Y-45480D01*
X66677Y-45348D01*
X66530Y-45200D01*
X66337Y-45120D01*
X66128Y-45120D01*
X66107Y-45129D01*
X66107Y-44925D01*
X66156Y-44943D01*
X66365Y-44931D01*
X66505Y-44873D01*
X66529Y-44781D01*
X66232Y-44484D01*
X66226Y-44489D01*
X66156Y-44418D01*
X66161Y-44413D01*
X66156Y-44407D01*
X66226Y-44337D01*
X66232Y-44342D01*
X66529Y-44045D01*
X66506Y-43957D01*
X66923Y-43957D01*
X67015Y-43919D01*
X67086Y-43848D01*
X67086Y-43847D01*
X67097Y-43901D01*
X67097Y-43901D01*
G37*
G54D25*
X67097Y-43901D02*
X66935Y-43968D01*
X66787Y-44115D01*
X66734Y-44242D01*
X66692Y-44140D01*
X66600Y-44116D01*
X66302Y-44413D01*
X66600Y-44710D01*
X66692Y-44686D01*
X66731Y-44576D01*
X66786Y-44710D01*
X66934Y-44858D01*
X66970Y-44873D01*
X66932Y-44930D01*
X66907Y-45054D01*
X66907Y-45228D01*
X66787Y-45347D01*
X66732Y-45480D01*
X66677Y-45348D01*
X66530Y-45200D01*
X66337Y-45120D01*
X66128Y-45120D01*
X66107Y-45129D01*
X66107Y-44925D01*
X66156Y-44943D01*
X66365Y-44931D01*
X66505Y-44873D01*
X66529Y-44781D01*
X66232Y-44484D01*
X66226Y-44489D01*
X66156Y-44418D01*
X66161Y-44413D01*
X66156Y-44407D01*
X66226Y-44337D01*
X66232Y-44342D01*
X66529Y-44045D01*
X66506Y-43957D01*
X66923Y-43957D01*
X67015Y-43919D01*
X67086Y-43848D01*
X67086Y-43847D01*
X67097Y-43901D01*
G54D10*
G36*
X67838Y-50227D02*
X67814Y-50263D01*
X67794Y-50363D01*
X67781Y-50350D01*
X67689Y-50312D01*
X67590Y-50312D01*
X67540Y-50312D01*
X67677Y-50175D01*
X67732Y-50042D01*
X67786Y-50174D01*
X67838Y-50227D01*
X67838Y-50227D01*
G37*
G54D25*
X67838Y-50227D02*
X67814Y-50263D01*
X67794Y-50363D01*
X67781Y-50350D01*
X67689Y-50312D01*
X67590Y-50312D01*
X67540Y-50312D01*
X67677Y-50175D01*
X67732Y-50042D01*
X67786Y-50174D01*
X67838Y-50227D01*
G54D10*
G36*
X67838Y-54459D02*
X67814Y-54495D01*
X67794Y-54596D01*
X67781Y-54582D01*
X67689Y-54544D01*
X67590Y-54544D01*
X67540Y-54544D01*
X67677Y-54408D01*
X67732Y-54275D01*
X67786Y-54407D01*
X67838Y-54459D01*
X67838Y-54459D01*
G37*
G54D25*
X67838Y-54459D02*
X67814Y-54495D01*
X67794Y-54596D01*
X67781Y-54582D01*
X67689Y-54544D01*
X67590Y-54544D01*
X67540Y-54544D01*
X67677Y-54408D01*
X67732Y-54275D01*
X67786Y-54407D01*
X67838Y-54459D01*
G54D10*
G36*
X67906Y-46062D02*
X67893Y-46131D01*
X67880Y-46118D01*
X67788Y-46080D01*
X67688Y-46080D01*
X67540Y-46080D01*
X67677Y-45943D01*
X67732Y-45810D01*
X67786Y-45942D01*
X67906Y-46062D01*
X67906Y-46062D01*
G37*
G54D25*
X67906Y-46062D02*
X67893Y-46131D01*
X67880Y-46118D01*
X67788Y-46080D01*
X67688Y-46080D01*
X67540Y-46080D01*
X67677Y-45943D01*
X67732Y-45810D01*
X67786Y-45942D01*
X67906Y-46062D01*
G54D10*
G36*
X67937Y-49431D02*
X67935Y-49432D01*
X67787Y-49580D01*
X67732Y-49713D01*
X67677Y-49580D01*
X67530Y-49433D01*
X67337Y-49353D01*
X67128Y-49352D01*
X66935Y-49432D01*
X66787Y-49580D01*
X66732Y-49713D01*
X66677Y-49580D01*
X66530Y-49433D01*
X66529Y-49432D01*
X66529Y-49013D01*
X66232Y-48716D01*
X66161Y-48787D01*
X66161Y-48645D01*
X65864Y-48348D01*
X65771Y-48372D01*
X65757Y-48413D01*
X65757Y-48321D01*
X65719Y-48229D01*
X65649Y-48158D01*
X65557Y-48120D01*
X65457Y-48120D01*
X64907Y-48120D01*
X64815Y-48158D01*
X64785Y-48189D01*
X63807Y-47211D01*
X63701Y-47140D01*
X63699Y-47140D01*
X63747Y-47092D01*
X63812Y-46935D01*
X63813Y-46765D01*
X63748Y-46608D01*
X63628Y-46488D01*
X63471Y-46423D01*
X63301Y-46423D01*
X63144Y-46488D01*
X63023Y-46608D01*
X62958Y-46765D01*
X62958Y-46934D01*
X63023Y-47092D01*
X63076Y-47145D01*
X63023Y-47198D01*
X62958Y-47355D01*
X62958Y-47525D01*
X63023Y-47682D01*
X63143Y-47802D01*
X63300Y-47868D01*
X63470Y-47868D01*
X63523Y-47846D01*
X64552Y-48875D01*
X64658Y-48945D01*
X64707Y-48955D01*
X64707Y-48970D01*
X64745Y-49062D01*
X64815Y-49132D01*
X64907Y-49170D01*
X65006Y-49170D01*
X65556Y-49170D01*
X65648Y-49132D01*
X65719Y-49062D01*
X65757Y-48970D01*
X65757Y-48883D01*
X65771Y-48918D01*
X65864Y-48942D01*
X66161Y-48645D01*
X66161Y-48787D01*
X65935Y-49013D01*
X65959Y-49106D01*
X66156Y-49175D01*
X66365Y-49164D01*
X66505Y-49106D01*
X66529Y-49013D01*
X66529Y-49432D01*
X66337Y-49353D01*
X66128Y-49352D01*
X65935Y-49432D01*
X65787Y-49580D01*
X65732Y-49713D01*
X65677Y-49580D01*
X65530Y-49433D01*
X65337Y-49353D01*
X65128Y-49352D01*
X64935Y-49432D01*
X64787Y-49580D01*
X64707Y-49773D01*
X64707Y-49981D01*
X64786Y-50174D01*
X64934Y-50322D01*
X65127Y-50402D01*
X65336Y-50403D01*
X65529Y-50323D01*
X65677Y-50175D01*
X65732Y-50042D01*
X65786Y-50174D01*
X65934Y-50322D01*
X66127Y-50402D01*
X66336Y-50403D01*
X66529Y-50323D01*
X66677Y-50175D01*
X66732Y-50042D01*
X66786Y-50174D01*
X66934Y-50322D01*
X67127Y-50402D01*
X67195Y-50402D01*
X67178Y-50420D01*
X67155Y-50474D01*
X67090Y-50487D01*
X66985Y-50557D01*
X66918Y-50625D01*
X66847Y-50730D01*
X66822Y-50854D01*
X66822Y-51121D01*
X66323Y-51121D01*
X66231Y-51159D01*
X66161Y-51229D01*
X66122Y-51321D01*
X66122Y-51421D01*
X66122Y-51725D01*
X62518Y-48121D01*
X62518Y-46413D01*
X62518Y-45712D01*
X62518Y-45613D01*
X62480Y-45521D01*
X62410Y-45450D01*
X62318Y-45412D01*
X62081Y-45412D01*
X62018Y-45475D01*
X62018Y-46012D01*
X62456Y-46012D01*
X62518Y-45950D01*
X62518Y-45712D01*
X62518Y-46413D01*
X62518Y-46175D01*
X62456Y-46112D01*
X62018Y-46112D01*
X62018Y-46650D01*
X62081Y-46712D01*
X62318Y-46713D01*
X62410Y-46675D01*
X62480Y-46604D01*
X62518Y-46512D01*
X62518Y-46413D01*
X62518Y-48121D01*
X61918Y-47521D01*
X61918Y-46650D01*
X61918Y-46112D01*
X61918Y-46012D01*
X61918Y-45475D01*
X61856Y-45412D01*
X61619Y-45412D01*
X61527Y-45450D01*
X61457Y-45521D01*
X61418Y-45613D01*
X61418Y-45712D01*
X61418Y-45950D01*
X61481Y-46012D01*
X61918Y-46012D01*
X61918Y-46112D01*
X61481Y-46112D01*
X61418Y-46175D01*
X61418Y-46413D01*
X61418Y-46512D01*
X61457Y-46604D01*
X61527Y-46675D01*
X61619Y-46713D01*
X61856Y-46712D01*
X61918Y-46650D01*
X61918Y-47521D01*
X61083Y-46686D01*
X61110Y-46675D01*
X61180Y-46604D01*
X61218Y-46512D01*
X61218Y-46413D01*
X61218Y-45613D01*
X61180Y-45521D01*
X61110Y-45451D01*
X61018Y-45413D01*
X60919Y-45412D01*
X60319Y-45412D01*
X60227Y-45450D01*
X60157Y-45521D01*
X60118Y-45613D01*
X60118Y-45712D01*
X60118Y-45753D01*
X60114Y-45753D01*
X60062Y-45753D01*
X60056Y-45739D01*
X59895Y-45578D01*
X60055Y-45419D01*
X60147Y-45198D01*
X60147Y-44959D01*
X60056Y-44739D01*
X59981Y-44664D01*
X60038Y-44640D01*
X60109Y-44570D01*
X60147Y-44478D01*
X60147Y-44379D01*
X60147Y-43778D01*
X60147Y-43678D01*
X60109Y-43586D01*
X60038Y-43516D01*
X59946Y-43478D01*
X59659Y-43478D01*
X59597Y-43541D01*
X59597Y-44028D01*
X60084Y-44028D01*
X60147Y-43966D01*
X60147Y-43778D01*
X60147Y-44379D01*
X60147Y-44191D01*
X60084Y-44128D01*
X59597Y-44128D01*
X59597Y-44136D01*
X59497Y-44136D01*
X59497Y-44128D01*
X59489Y-44128D01*
X59489Y-44028D01*
X59497Y-44028D01*
X59497Y-43541D01*
X59434Y-43478D01*
X59324Y-43478D01*
X59324Y-42403D01*
X59427Y-42446D01*
X59666Y-42446D01*
X59886Y-42355D01*
X60055Y-42186D01*
X60068Y-42155D01*
X60118Y-42155D01*
X60118Y-42280D01*
X60156Y-42372D01*
X60227Y-42442D01*
X60318Y-42480D01*
X60418Y-42480D01*
X61018Y-42480D01*
X61110Y-42442D01*
X61129Y-42423D01*
X61668Y-42963D01*
X61627Y-42946D01*
X61209Y-42945D01*
X60823Y-43105D01*
X60527Y-43400D01*
X60367Y-43786D01*
X60367Y-44204D01*
X60526Y-44590D01*
X60821Y-44885D01*
X61207Y-45045D01*
X61625Y-45046D01*
X62011Y-44886D01*
X62306Y-44591D01*
X62467Y-44205D01*
X62467Y-43788D01*
X62398Y-43621D01*
X62477Y-43637D01*
X62627Y-43637D01*
X62662Y-43672D01*
X62818Y-43737D01*
X62987Y-43737D01*
X63143Y-43673D01*
X63216Y-43600D01*
X63300Y-43635D01*
X63470Y-43635D01*
X63627Y-43571D01*
X63722Y-43476D01*
X63722Y-45788D01*
X63746Y-45913D01*
X63817Y-46018D01*
X65976Y-48177D01*
X65959Y-48185D01*
X65935Y-48277D01*
X66232Y-48574D01*
X66237Y-48569D01*
X66308Y-48640D01*
X66302Y-48645D01*
X66600Y-48942D01*
X66692Y-48918D01*
X66731Y-48808D01*
X66786Y-48942D01*
X66934Y-49090D01*
X67127Y-49170D01*
X67336Y-49170D01*
X67529Y-49091D01*
X67548Y-49071D01*
X67852Y-49375D01*
X67852Y-49375D01*
X67937Y-49431D01*
X67937Y-49431D01*
G37*
G54D25*
X67937Y-49431D02*
X67935Y-49432D01*
X67787Y-49580D01*
X67732Y-49713D01*
X67677Y-49580D01*
X67530Y-49433D01*
X67337Y-49353D01*
X67128Y-49352D01*
X66935Y-49432D01*
X66787Y-49580D01*
X66732Y-49713D01*
X66677Y-49580D01*
X66530Y-49433D01*
X66529Y-49432D01*
X66529Y-49013D01*
X66232Y-48716D01*
X66161Y-48787D01*
X66161Y-48645D01*
X65864Y-48348D01*
X65771Y-48372D01*
X65757Y-48413D01*
X65757Y-48321D01*
X65719Y-48229D01*
X65649Y-48158D01*
X65557Y-48120D01*
X65457Y-48120D01*
X64907Y-48120D01*
X64815Y-48158D01*
X64785Y-48189D01*
X63807Y-47211D01*
X63701Y-47140D01*
X63699Y-47140D01*
X63747Y-47092D01*
X63812Y-46935D01*
X63813Y-46765D01*
X63748Y-46608D01*
X63628Y-46488D01*
X63471Y-46423D01*
X63301Y-46423D01*
X63144Y-46488D01*
X63023Y-46608D01*
X62958Y-46765D01*
X62958Y-46934D01*
X63023Y-47092D01*
X63076Y-47145D01*
X63023Y-47198D01*
X62958Y-47355D01*
X62958Y-47525D01*
X63023Y-47682D01*
X63143Y-47802D01*
X63300Y-47868D01*
X63470Y-47868D01*
X63523Y-47846D01*
X64552Y-48875D01*
X64658Y-48945D01*
X64707Y-48955D01*
X64707Y-48970D01*
X64745Y-49062D01*
X64815Y-49132D01*
X64907Y-49170D01*
X65006Y-49170D01*
X65556Y-49170D01*
X65648Y-49132D01*
X65719Y-49062D01*
X65757Y-48970D01*
X65757Y-48883D01*
X65771Y-48918D01*
X65864Y-48942D01*
X66161Y-48645D01*
X66161Y-48787D01*
X65935Y-49013D01*
X65959Y-49106D01*
X66156Y-49175D01*
X66365Y-49164D01*
X66505Y-49106D01*
X66529Y-49013D01*
X66529Y-49432D01*
X66337Y-49353D01*
X66128Y-49352D01*
X65935Y-49432D01*
X65787Y-49580D01*
X65732Y-49713D01*
X65677Y-49580D01*
X65530Y-49433D01*
X65337Y-49353D01*
X65128Y-49352D01*
X64935Y-49432D01*
X64787Y-49580D01*
X64707Y-49773D01*
X64707Y-49981D01*
X64786Y-50174D01*
X64934Y-50322D01*
X65127Y-50402D01*
X65336Y-50403D01*
X65529Y-50323D01*
X65677Y-50175D01*
X65732Y-50042D01*
X65786Y-50174D01*
X65934Y-50322D01*
X66127Y-50402D01*
X66336Y-50403D01*
X66529Y-50323D01*
X66677Y-50175D01*
X66732Y-50042D01*
X66786Y-50174D01*
X66934Y-50322D01*
X67127Y-50402D01*
X67195Y-50402D01*
X67178Y-50420D01*
X67155Y-50474D01*
X67090Y-50487D01*
X66985Y-50557D01*
X66918Y-50625D01*
X66847Y-50730D01*
X66822Y-50854D01*
X66822Y-51121D01*
X66323Y-51121D01*
X66231Y-51159D01*
X66161Y-51229D01*
X66122Y-51321D01*
X66122Y-51421D01*
X66122Y-51725D01*
X62518Y-48121D01*
X62518Y-46413D01*
X62518Y-45712D01*
X62518Y-45613D01*
X62480Y-45521D01*
X62410Y-45450D01*
X62318Y-45412D01*
X62081Y-45412D01*
X62018Y-45475D01*
X62018Y-46012D01*
X62456Y-46012D01*
X62518Y-45950D01*
X62518Y-45712D01*
X62518Y-46413D01*
X62518Y-46175D01*
X62456Y-46112D01*
X62018Y-46112D01*
X62018Y-46650D01*
X62081Y-46712D01*
X62318Y-46713D01*
X62410Y-46675D01*
X62480Y-46604D01*
X62518Y-46512D01*
X62518Y-46413D01*
X62518Y-48121D01*
X61918Y-47521D01*
X61918Y-46650D01*
X61918Y-46112D01*
X61918Y-46012D01*
X61918Y-45475D01*
X61856Y-45412D01*
X61619Y-45412D01*
X61527Y-45450D01*
X61457Y-45521D01*
X61418Y-45613D01*
X61418Y-45712D01*
X61418Y-45950D01*
X61481Y-46012D01*
X61918Y-46012D01*
X61918Y-46112D01*
X61481Y-46112D01*
X61418Y-46175D01*
X61418Y-46413D01*
X61418Y-46512D01*
X61457Y-46604D01*
X61527Y-46675D01*
X61619Y-46713D01*
X61856Y-46712D01*
X61918Y-46650D01*
X61918Y-47521D01*
X61083Y-46686D01*
X61110Y-46675D01*
X61180Y-46604D01*
X61218Y-46512D01*
X61218Y-46413D01*
X61218Y-45613D01*
X61180Y-45521D01*
X61110Y-45451D01*
X61018Y-45413D01*
X60919Y-45412D01*
X60319Y-45412D01*
X60227Y-45450D01*
X60157Y-45521D01*
X60118Y-45613D01*
X60118Y-45712D01*
X60118Y-45753D01*
X60114Y-45753D01*
X60062Y-45753D01*
X60056Y-45739D01*
X59895Y-45578D01*
X60055Y-45419D01*
X60147Y-45198D01*
X60147Y-44959D01*
X60056Y-44739D01*
X59981Y-44664D01*
X60038Y-44640D01*
X60109Y-44570D01*
X60147Y-44478D01*
X60147Y-44379D01*
X60147Y-43778D01*
X60147Y-43678D01*
X60109Y-43586D01*
X60038Y-43516D01*
X59946Y-43478D01*
X59659Y-43478D01*
X59597Y-43541D01*
X59597Y-44028D01*
X60084Y-44028D01*
X60147Y-43966D01*
X60147Y-43778D01*
X60147Y-44379D01*
X60147Y-44191D01*
X60084Y-44128D01*
X59597Y-44128D01*
X59597Y-44136D01*
X59497Y-44136D01*
X59497Y-44128D01*
X59489Y-44128D01*
X59489Y-44028D01*
X59497Y-44028D01*
X59497Y-43541D01*
X59434Y-43478D01*
X59324Y-43478D01*
X59324Y-42403D01*
X59427Y-42446D01*
X59666Y-42446D01*
X59886Y-42355D01*
X60055Y-42186D01*
X60068Y-42155D01*
X60118Y-42155D01*
X60118Y-42280D01*
X60156Y-42372D01*
X60227Y-42442D01*
X60318Y-42480D01*
X60418Y-42480D01*
X61018Y-42480D01*
X61110Y-42442D01*
X61129Y-42423D01*
X61668Y-42963D01*
X61627Y-42946D01*
X61209Y-42945D01*
X60823Y-43105D01*
X60527Y-43400D01*
X60367Y-43786D01*
X60367Y-44204D01*
X60526Y-44590D01*
X60821Y-44885D01*
X61207Y-45045D01*
X61625Y-45046D01*
X62011Y-44886D01*
X62306Y-44591D01*
X62467Y-44205D01*
X62467Y-43788D01*
X62398Y-43621D01*
X62477Y-43637D01*
X62627Y-43637D01*
X62662Y-43672D01*
X62818Y-43737D01*
X62987Y-43737D01*
X63143Y-43673D01*
X63216Y-43600D01*
X63300Y-43635D01*
X63470Y-43635D01*
X63627Y-43571D01*
X63722Y-43476D01*
X63722Y-45788D01*
X63746Y-45913D01*
X63817Y-46018D01*
X65976Y-48177D01*
X65959Y-48185D01*
X65935Y-48277D01*
X66232Y-48574D01*
X66237Y-48569D01*
X66308Y-48640D01*
X66302Y-48645D01*
X66600Y-48942D01*
X66692Y-48918D01*
X66731Y-48808D01*
X66786Y-48942D01*
X66934Y-49090D01*
X67127Y-49170D01*
X67336Y-49170D01*
X67529Y-49091D01*
X67548Y-49071D01*
X67852Y-49375D01*
X67852Y-49375D01*
X67937Y-49431D01*
G54D10*
G36*
X69099Y-49643D02*
X68762Y-49306D01*
X68762Y-48721D01*
X68762Y-44489D01*
X68750Y-44280D01*
X68692Y-44140D01*
X68600Y-44116D01*
X68302Y-44413D01*
X68600Y-44710D01*
X68692Y-44686D01*
X68762Y-44489D01*
X68762Y-48721D01*
X68750Y-48512D01*
X68692Y-48372D01*
X68600Y-48348D01*
X68302Y-48645D01*
X68600Y-48942D01*
X68692Y-48918D01*
X68762Y-48721D01*
X68762Y-49306D01*
X68516Y-49061D01*
X68529Y-49013D01*
X68232Y-48716D01*
X68226Y-48721D01*
X68156Y-48651D01*
X68161Y-48645D01*
X68156Y-48640D01*
X68226Y-48569D01*
X68232Y-48574D01*
X68529Y-48277D01*
X68505Y-48185D01*
X68465Y-48171D01*
X68512Y-48151D01*
X68583Y-48081D01*
X68621Y-47989D01*
X68621Y-47889D01*
X68621Y-47651D01*
X68558Y-47589D01*
X68121Y-47589D01*
X68121Y-47597D01*
X68021Y-47597D01*
X68021Y-47589D01*
X68013Y-47589D01*
X68013Y-47489D01*
X68021Y-47489D01*
X68021Y-47481D01*
X68121Y-47481D01*
X68121Y-47489D01*
X68558Y-47489D01*
X68621Y-47426D01*
X68621Y-47188D01*
X68621Y-47089D01*
X68583Y-46997D01*
X68528Y-46943D01*
X68550Y-46921D01*
X68588Y-46830D01*
X68588Y-46730D01*
X68588Y-46280D01*
X68550Y-46188D01*
X68547Y-46185D01*
X68557Y-46136D01*
X68557Y-46063D01*
X68677Y-45943D01*
X68757Y-45750D01*
X68757Y-45541D01*
X68677Y-45348D01*
X68530Y-45200D01*
X68337Y-45120D01*
X68128Y-45120D01*
X67935Y-45200D01*
X67787Y-45347D01*
X67732Y-45480D01*
X67677Y-45348D01*
X67557Y-45227D01*
X67557Y-45189D01*
X67914Y-44832D01*
X67938Y-44795D01*
X67959Y-44873D01*
X68156Y-44943D01*
X68365Y-44931D01*
X68505Y-44873D01*
X68529Y-44781D01*
X68232Y-44484D01*
X68226Y-44489D01*
X68156Y-44418D01*
X68161Y-44413D01*
X68156Y-44407D01*
X68226Y-44337D01*
X68232Y-44342D01*
X68529Y-44045D01*
X68505Y-43952D01*
X68340Y-43894D01*
X68386Y-43848D01*
X68424Y-43757D01*
X68424Y-43657D01*
X68424Y-43419D01*
X68361Y-43357D01*
X67924Y-43357D01*
X67924Y-43364D01*
X67824Y-43364D01*
X67824Y-43357D01*
X67816Y-43357D01*
X67816Y-43257D01*
X67824Y-43257D01*
X67824Y-43249D01*
X67924Y-43249D01*
X67924Y-43257D01*
X68361Y-43257D01*
X68424Y-43194D01*
X68424Y-42956D01*
X68424Y-42857D01*
X68386Y-42765D01*
X68331Y-42711D01*
X68353Y-42689D01*
X68391Y-42597D01*
X68391Y-42498D01*
X68391Y-42048D01*
X68379Y-42019D01*
X68461Y-41936D01*
X68508Y-41867D01*
X68529Y-41858D01*
X68677Y-41711D01*
X68688Y-41684D01*
X69099Y-42095D01*
X69099Y-49643D01*
X69099Y-49643D01*
G37*
G54D25*
X69099Y-49643D02*
X68762Y-49306D01*
X68762Y-48721D01*
X68762Y-44489D01*
X68750Y-44280D01*
X68692Y-44140D01*
X68600Y-44116D01*
X68302Y-44413D01*
X68600Y-44710D01*
X68692Y-44686D01*
X68762Y-44489D01*
X68762Y-48721D01*
X68750Y-48512D01*
X68692Y-48372D01*
X68600Y-48348D01*
X68302Y-48645D01*
X68600Y-48942D01*
X68692Y-48918D01*
X68762Y-48721D01*
X68762Y-49306D01*
X68516Y-49061D01*
X68529Y-49013D01*
X68232Y-48716D01*
X68226Y-48721D01*
X68156Y-48651D01*
X68161Y-48645D01*
X68156Y-48640D01*
X68226Y-48569D01*
X68232Y-48574D01*
X68529Y-48277D01*
X68505Y-48185D01*
X68465Y-48171D01*
X68512Y-48151D01*
X68583Y-48081D01*
X68621Y-47989D01*
X68621Y-47889D01*
X68621Y-47651D01*
X68558Y-47589D01*
X68121Y-47589D01*
X68121Y-47597D01*
X68021Y-47597D01*
X68021Y-47589D01*
X68013Y-47589D01*
X68013Y-47489D01*
X68021Y-47489D01*
X68021Y-47481D01*
X68121Y-47481D01*
X68121Y-47489D01*
X68558Y-47489D01*
X68621Y-47426D01*
X68621Y-47188D01*
X68621Y-47089D01*
X68583Y-46997D01*
X68528Y-46943D01*
X68550Y-46921D01*
X68588Y-46830D01*
X68588Y-46730D01*
X68588Y-46280D01*
X68550Y-46188D01*
X68547Y-46185D01*
X68557Y-46136D01*
X68557Y-46063D01*
X68677Y-45943D01*
X68757Y-45750D01*
X68757Y-45541D01*
X68677Y-45348D01*
X68530Y-45200D01*
X68337Y-45120D01*
X68128Y-45120D01*
X67935Y-45200D01*
X67787Y-45347D01*
X67732Y-45480D01*
X67677Y-45348D01*
X67557Y-45227D01*
X67557Y-45189D01*
X67914Y-44832D01*
X67938Y-44795D01*
X67959Y-44873D01*
X68156Y-44943D01*
X68365Y-44931D01*
X68505Y-44873D01*
X68529Y-44781D01*
X68232Y-44484D01*
X68226Y-44489D01*
X68156Y-44418D01*
X68161Y-44413D01*
X68156Y-44407D01*
X68226Y-44337D01*
X68232Y-44342D01*
X68529Y-44045D01*
X68505Y-43952D01*
X68340Y-43894D01*
X68386Y-43848D01*
X68424Y-43757D01*
X68424Y-43657D01*
X68424Y-43419D01*
X68361Y-43357D01*
X67924Y-43357D01*
X67924Y-43364D01*
X67824Y-43364D01*
X67824Y-43357D01*
X67816Y-43357D01*
X67816Y-43257D01*
X67824Y-43257D01*
X67824Y-43249D01*
X67924Y-43249D01*
X67924Y-43257D01*
X68361Y-43257D01*
X68424Y-43194D01*
X68424Y-42956D01*
X68424Y-42857D01*
X68386Y-42765D01*
X68331Y-42711D01*
X68353Y-42689D01*
X68391Y-42597D01*
X68391Y-42498D01*
X68391Y-42048D01*
X68379Y-42019D01*
X68461Y-41936D01*
X68508Y-41867D01*
X68529Y-41858D01*
X68677Y-41711D01*
X68688Y-41684D01*
X69099Y-42095D01*
X69099Y-49643D01*
G54D10*
G36*
X69431Y-58612D02*
X69424Y-58612D01*
X69424Y-58620D01*
X69324Y-58620D01*
X69324Y-58612D01*
X68836Y-58612D01*
X68774Y-58675D01*
X68773Y-58785D01*
X67699Y-58785D01*
X67741Y-58682D01*
X67741Y-58444D01*
X67685Y-58308D01*
X67761Y-58276D01*
X67797Y-58241D01*
X68773Y-58241D01*
X68774Y-58450D01*
X68836Y-58512D01*
X69324Y-58512D01*
X69324Y-58505D01*
X69424Y-58505D01*
X69424Y-58512D01*
X69431Y-58512D01*
X69431Y-58612D01*
X69431Y-58612D01*
G37*
G54D25*
X69431Y-58612D02*
X69424Y-58612D01*
X69424Y-58620D01*
X69324Y-58620D01*
X69324Y-58612D01*
X68836Y-58612D01*
X68774Y-58675D01*
X68773Y-58785D01*
X67699Y-58785D01*
X67741Y-58682D01*
X67741Y-58444D01*
X67685Y-58308D01*
X67761Y-58276D01*
X67797Y-58241D01*
X68773Y-58241D01*
X68774Y-58450D01*
X68836Y-58512D01*
X69324Y-58512D01*
X69324Y-58505D01*
X69424Y-58505D01*
X69424Y-58512D01*
X69431Y-58512D01*
X69431Y-58612D01*
G54D10*
G36*
X70304Y-56581D02*
X69294Y-57591D01*
X69038Y-57591D01*
X69051Y-57578D01*
X69101Y-57578D01*
X69257Y-57513D01*
X69377Y-57394D01*
X69442Y-57237D01*
X69442Y-57068D01*
X69377Y-56912D01*
X69258Y-56792D01*
X69102Y-56728D01*
X68933Y-56727D01*
X68776Y-56792D01*
X68704Y-56865D01*
X68692Y-56837D01*
X68600Y-56813D01*
X68529Y-56883D01*
X68302Y-57110D01*
X68308Y-57115D01*
X68237Y-57186D01*
X68232Y-57180D01*
X68226Y-57186D01*
X68156Y-57115D01*
X68161Y-57110D01*
X67864Y-56813D01*
X67771Y-56837D01*
X67733Y-56947D01*
X67677Y-56813D01*
X67530Y-56665D01*
X67337Y-56585D01*
X67145Y-56585D01*
X67184Y-56545D01*
X67222Y-56453D01*
X67222Y-56354D01*
X67222Y-56313D01*
X67272Y-56304D01*
X67377Y-56233D01*
X67422Y-56165D01*
X67422Y-56354D01*
X67422Y-56453D01*
X67461Y-56545D01*
X67531Y-56616D01*
X67623Y-56653D01*
X67860Y-56653D01*
X67922Y-56591D01*
X67922Y-56653D01*
X67958Y-56653D01*
X67935Y-56742D01*
X68232Y-57039D01*
X68529Y-56742D01*
X68505Y-56649D01*
X68412Y-56616D01*
X68414Y-56616D01*
X68484Y-56545D01*
X68522Y-56453D01*
X68522Y-56354D01*
X68522Y-56116D01*
X68460Y-56053D01*
X68022Y-56053D01*
X68022Y-56061D01*
X67922Y-56061D01*
X67922Y-56053D01*
X67914Y-56053D01*
X67914Y-55953D01*
X67922Y-55953D01*
X67922Y-55946D01*
X68022Y-55946D01*
X68022Y-55953D01*
X68460Y-55953D01*
X68522Y-55891D01*
X68522Y-55653D01*
X68522Y-55553D01*
X68484Y-55462D01*
X68430Y-55407D01*
X68451Y-55386D01*
X68489Y-55294D01*
X68490Y-55195D01*
X68490Y-54745D01*
X68475Y-54711D01*
X68532Y-54626D01*
X68550Y-54534D01*
X68677Y-54408D01*
X68757Y-54215D01*
X68757Y-54006D01*
X68677Y-53813D01*
X68530Y-53665D01*
X68529Y-53665D01*
X68529Y-53245D01*
X68232Y-52948D01*
X67935Y-53245D01*
X67959Y-53338D01*
X68156Y-53407D01*
X68365Y-53396D01*
X68505Y-53338D01*
X68529Y-53245D01*
X68529Y-53665D01*
X68337Y-53585D01*
X68128Y-53585D01*
X67935Y-53664D01*
X67787Y-53812D01*
X67732Y-53945D01*
X67677Y-53813D01*
X67530Y-53665D01*
X67337Y-53585D01*
X67128Y-53585D01*
X67007Y-53635D01*
X67007Y-53588D01*
X66982Y-53464D01*
X66923Y-53376D01*
X66923Y-53320D01*
X66917Y-53305D01*
X66934Y-53322D01*
X67127Y-53402D01*
X67336Y-53403D01*
X67529Y-53323D01*
X67677Y-53175D01*
X67729Y-53049D01*
X67771Y-53150D01*
X67864Y-53175D01*
X68161Y-52877D01*
X68156Y-52872D01*
X68226Y-52801D01*
X68232Y-52807D01*
X68237Y-52801D01*
X68308Y-52872D01*
X68302Y-52877D01*
X68600Y-53175D01*
X68692Y-53150D01*
X68762Y-52953D01*
X68750Y-52745D01*
X68750Y-52744D01*
X68785Y-52744D01*
X68941Y-52679D01*
X69061Y-52560D01*
X69126Y-52404D01*
X69126Y-52235D01*
X69061Y-52079D01*
X68942Y-51959D01*
X68786Y-51894D01*
X68617Y-51894D01*
X68522Y-51933D01*
X68522Y-51884D01*
X68460Y-51821D01*
X68022Y-51821D01*
X68022Y-51829D01*
X67922Y-51829D01*
X67922Y-51821D01*
X67914Y-51821D01*
X67914Y-51721D01*
X67922Y-51721D01*
X67922Y-51713D01*
X68022Y-51713D01*
X68022Y-51721D01*
X68460Y-51721D01*
X68522Y-51659D01*
X68522Y-51421D01*
X68522Y-51321D01*
X68484Y-51229D01*
X68430Y-51175D01*
X68451Y-51154D01*
X68489Y-51062D01*
X68490Y-50962D01*
X68490Y-50512D01*
X68475Y-50478D01*
X68532Y-50394D01*
X68550Y-50301D01*
X68677Y-50175D01*
X68687Y-50150D01*
X68849Y-50312D01*
X68849Y-51387D01*
X68874Y-51512D01*
X68944Y-51617D01*
X69535Y-52208D01*
X69535Y-55392D01*
X69560Y-55516D01*
X69631Y-55621D01*
X70025Y-56016D01*
X70025Y-56210D01*
X70108Y-56410D01*
X70261Y-56564D01*
X70304Y-56581D01*
X70304Y-56581D01*
G37*
G54D25*
X70304Y-56581D02*
X69294Y-57591D01*
X69038Y-57591D01*
X69051Y-57578D01*
X69101Y-57578D01*
X69257Y-57513D01*
X69377Y-57394D01*
X69442Y-57237D01*
X69442Y-57068D01*
X69377Y-56912D01*
X69258Y-56792D01*
X69102Y-56728D01*
X68933Y-56727D01*
X68776Y-56792D01*
X68704Y-56865D01*
X68692Y-56837D01*
X68600Y-56813D01*
X68529Y-56883D01*
X68302Y-57110D01*
X68308Y-57115D01*
X68237Y-57186D01*
X68232Y-57180D01*
X68226Y-57186D01*
X68156Y-57115D01*
X68161Y-57110D01*
X67864Y-56813D01*
X67771Y-56837D01*
X67733Y-56947D01*
X67677Y-56813D01*
X67530Y-56665D01*
X67337Y-56585D01*
X67145Y-56585D01*
X67184Y-56545D01*
X67222Y-56453D01*
X67222Y-56354D01*
X67222Y-56313D01*
X67272Y-56304D01*
X67377Y-56233D01*
X67422Y-56165D01*
X67422Y-56354D01*
X67422Y-56453D01*
X67461Y-56545D01*
X67531Y-56616D01*
X67623Y-56653D01*
X67860Y-56653D01*
X67922Y-56591D01*
X67922Y-56653D01*
X67958Y-56653D01*
X67935Y-56742D01*
X68232Y-57039D01*
X68529Y-56742D01*
X68505Y-56649D01*
X68412Y-56616D01*
X68414Y-56616D01*
X68484Y-56545D01*
X68522Y-56453D01*
X68522Y-56354D01*
X68522Y-56116D01*
X68460Y-56053D01*
X68022Y-56053D01*
X68022Y-56061D01*
X67922Y-56061D01*
X67922Y-56053D01*
X67914Y-56053D01*
X67914Y-55953D01*
X67922Y-55953D01*
X67922Y-55946D01*
X68022Y-55946D01*
X68022Y-55953D01*
X68460Y-55953D01*
X68522Y-55891D01*
X68522Y-55653D01*
X68522Y-55553D01*
X68484Y-55462D01*
X68430Y-55407D01*
X68451Y-55386D01*
X68489Y-55294D01*
X68490Y-55195D01*
X68490Y-54745D01*
X68475Y-54711D01*
X68532Y-54626D01*
X68550Y-54534D01*
X68677Y-54408D01*
X68757Y-54215D01*
X68757Y-54006D01*
X68677Y-53813D01*
X68530Y-53665D01*
X68529Y-53665D01*
X68529Y-53245D01*
X68232Y-52948D01*
X67935Y-53245D01*
X67959Y-53338D01*
X68156Y-53407D01*
X68365Y-53396D01*
X68505Y-53338D01*
X68529Y-53245D01*
X68529Y-53665D01*
X68337Y-53585D01*
X68128Y-53585D01*
X67935Y-53664D01*
X67787Y-53812D01*
X67732Y-53945D01*
X67677Y-53813D01*
X67530Y-53665D01*
X67337Y-53585D01*
X67128Y-53585D01*
X67007Y-53635D01*
X67007Y-53588D01*
X66982Y-53464D01*
X66923Y-53376D01*
X66923Y-53320D01*
X66917Y-53305D01*
X66934Y-53322D01*
X67127Y-53402D01*
X67336Y-53403D01*
X67529Y-53323D01*
X67677Y-53175D01*
X67729Y-53049D01*
X67771Y-53150D01*
X67864Y-53175D01*
X68161Y-52877D01*
X68156Y-52872D01*
X68226Y-52801D01*
X68232Y-52807D01*
X68237Y-52801D01*
X68308Y-52872D01*
X68302Y-52877D01*
X68600Y-53175D01*
X68692Y-53150D01*
X68762Y-52953D01*
X68750Y-52745D01*
X68750Y-52744D01*
X68785Y-52744D01*
X68941Y-52679D01*
X69061Y-52560D01*
X69126Y-52404D01*
X69126Y-52235D01*
X69061Y-52079D01*
X68942Y-51959D01*
X68786Y-51894D01*
X68617Y-51894D01*
X68522Y-51933D01*
X68522Y-51884D01*
X68460Y-51821D01*
X68022Y-51821D01*
X68022Y-51829D01*
X67922Y-51829D01*
X67922Y-51821D01*
X67914Y-51821D01*
X67914Y-51721D01*
X67922Y-51721D01*
X67922Y-51713D01*
X68022Y-51713D01*
X68022Y-51721D01*
X68460Y-51721D01*
X68522Y-51659D01*
X68522Y-51421D01*
X68522Y-51321D01*
X68484Y-51229D01*
X68430Y-51175D01*
X68451Y-51154D01*
X68489Y-51062D01*
X68490Y-50962D01*
X68490Y-50512D01*
X68475Y-50478D01*
X68532Y-50394D01*
X68550Y-50301D01*
X68677Y-50175D01*
X68687Y-50150D01*
X68849Y-50312D01*
X68849Y-51387D01*
X68874Y-51512D01*
X68944Y-51617D01*
X69535Y-52208D01*
X69535Y-55392D01*
X69560Y-55516D01*
X69631Y-55621D01*
X70025Y-56016D01*
X70025Y-56210D01*
X70108Y-56410D01*
X70261Y-56564D01*
X70304Y-56581D01*
G54D10*
G36*
X73925Y-57962D02*
X73906Y-57962D01*
X73718Y-57962D01*
X73656Y-58025D01*
X73656Y-58512D01*
X73664Y-58512D01*
X73664Y-58612D01*
X73656Y-58612D01*
X73656Y-58620D01*
X73556Y-58620D01*
X73556Y-58612D01*
X73548Y-58612D01*
X73548Y-58512D01*
X73556Y-58512D01*
X73556Y-58025D01*
X73493Y-57962D01*
X73305Y-57962D01*
X73206Y-57963D01*
X73114Y-58001D01*
X73090Y-58024D01*
X73090Y-57573D01*
X73090Y-57336D01*
X73028Y-57274D01*
X72490Y-57274D01*
X72490Y-57711D01*
X72553Y-57774D01*
X72791Y-57774D01*
X72890Y-57773D01*
X72982Y-57735D01*
X73053Y-57665D01*
X73090Y-57573D01*
X73090Y-58024D01*
X73044Y-58071D01*
X73043Y-58073D01*
X72982Y-58012D01*
X72890Y-57974D01*
X72791Y-57973D01*
X72390Y-57973D01*
X72390Y-57711D01*
X72390Y-57274D01*
X72390Y-57174D01*
X72390Y-56736D01*
X72328Y-56674D01*
X72090Y-56673D01*
X71990Y-56674D01*
X71899Y-56712D01*
X71828Y-56782D01*
X71790Y-56874D01*
X71790Y-57111D01*
X71853Y-57174D01*
X72390Y-57174D01*
X72390Y-57274D01*
X71853Y-57274D01*
X71790Y-57336D01*
X71790Y-57573D01*
X71828Y-57665D01*
X71899Y-57735D01*
X71990Y-57773D01*
X72090Y-57774D01*
X72328Y-57774D01*
X72390Y-57711D01*
X72390Y-57973D01*
X71991Y-57973D01*
X71899Y-58011D01*
X71829Y-58082D01*
X71803Y-58143D01*
X71714Y-58054D01*
X71493Y-57963D01*
X71255Y-57962D01*
X71034Y-58054D01*
X70873Y-58214D01*
X70714Y-58054D01*
X70698Y-58048D01*
X70698Y-57682D01*
X72187Y-56193D01*
X72252Y-56290D01*
X72636Y-56674D01*
X72553Y-56674D01*
X72490Y-56736D01*
X72490Y-57174D01*
X73028Y-57174D01*
X73082Y-57120D01*
X73925Y-57962D01*
X73925Y-57962D01*
G37*
G54D25*
X73925Y-57962D02*
X73906Y-57962D01*
X73718Y-57962D01*
X73656Y-58025D01*
X73656Y-58512D01*
X73664Y-58512D01*
X73664Y-58612D01*
X73656Y-58612D01*
X73656Y-58620D01*
X73556Y-58620D01*
X73556Y-58612D01*
X73548Y-58612D01*
X73548Y-58512D01*
X73556Y-58512D01*
X73556Y-58025D01*
X73493Y-57962D01*
X73305Y-57962D01*
X73206Y-57963D01*
X73114Y-58001D01*
X73090Y-58024D01*
X73090Y-57573D01*
X73090Y-57336D01*
X73028Y-57274D01*
X72490Y-57274D01*
X72490Y-57711D01*
X72553Y-57774D01*
X72791Y-57774D01*
X72890Y-57773D01*
X72982Y-57735D01*
X73053Y-57665D01*
X73090Y-57573D01*
X73090Y-58024D01*
X73044Y-58071D01*
X73043Y-58073D01*
X72982Y-58012D01*
X72890Y-57974D01*
X72791Y-57973D01*
X72390Y-57973D01*
X72390Y-57711D01*
X72390Y-57274D01*
X72390Y-57174D01*
X72390Y-56736D01*
X72328Y-56674D01*
X72090Y-56673D01*
X71990Y-56674D01*
X71899Y-56712D01*
X71828Y-56782D01*
X71790Y-56874D01*
X71790Y-57111D01*
X71853Y-57174D01*
X72390Y-57174D01*
X72390Y-57274D01*
X71853Y-57274D01*
X71790Y-57336D01*
X71790Y-57573D01*
X71828Y-57665D01*
X71899Y-57735D01*
X71990Y-57773D01*
X72090Y-57774D01*
X72328Y-57774D01*
X72390Y-57711D01*
X72390Y-57973D01*
X71991Y-57973D01*
X71899Y-58011D01*
X71829Y-58082D01*
X71803Y-58143D01*
X71714Y-58054D01*
X71493Y-57963D01*
X71255Y-57962D01*
X71034Y-58054D01*
X70873Y-58214D01*
X70714Y-58054D01*
X70698Y-58048D01*
X70698Y-57682D01*
X72187Y-56193D01*
X72252Y-56290D01*
X72636Y-56674D01*
X72553Y-56674D01*
X72490Y-56736D01*
X72490Y-57174D01*
X73028Y-57174D01*
X73082Y-57120D01*
X73925Y-57962D01*
G54D10*
G36*
X75757Y-44418D02*
X75686Y-44489D01*
X75681Y-44484D01*
X75675Y-44489D01*
X75604Y-44418D01*
X75610Y-44413D01*
X75604Y-44407D01*
X75675Y-44337D01*
X75681Y-44342D01*
X75686Y-44337D01*
X75757Y-44407D01*
X75751Y-44413D01*
X75757Y-44418D01*
X75757Y-44418D01*
G37*
G54D25*
X75757Y-44418D02*
X75686Y-44489D01*
X75681Y-44484D01*
X75675Y-44489D01*
X75604Y-44418D01*
X75610Y-44413D01*
X75604Y-44407D01*
X75675Y-44337D01*
X75681Y-44342D01*
X75686Y-44337D01*
X75757Y-44407D01*
X75751Y-44413D01*
X75757Y-44418D01*
G54D10*
G36*
X75821Y-53600D02*
X75785Y-53585D01*
X75577Y-53585D01*
X75384Y-53664D01*
X75236Y-53812D01*
X75181Y-53945D01*
X75126Y-53813D01*
X74978Y-53665D01*
X74785Y-53585D01*
X74577Y-53585D01*
X74384Y-53664D01*
X74263Y-53785D01*
X74039Y-53785D01*
X73915Y-53810D01*
X73809Y-53880D01*
X72807Y-54883D01*
X72807Y-52100D01*
X72919Y-52100D01*
X72972Y-52078D01*
X74001Y-53107D01*
X74106Y-53178D01*
X74156Y-53187D01*
X74156Y-53202D01*
X74194Y-53294D01*
X74264Y-53364D01*
X74356Y-53402D01*
X74455Y-53402D01*
X75005Y-53402D01*
X75097Y-53365D01*
X75167Y-53294D01*
X75206Y-53202D01*
X75206Y-53115D01*
X75220Y-53150D01*
X75313Y-53175D01*
X75610Y-52877D01*
X75313Y-52580D01*
X75220Y-52605D01*
X75206Y-52646D01*
X75206Y-52553D01*
X75168Y-52461D01*
X75097Y-52391D01*
X75006Y-52352D01*
X74906Y-52352D01*
X74356Y-52352D01*
X74264Y-52390D01*
X74234Y-52421D01*
X73256Y-51443D01*
X73150Y-51373D01*
X73148Y-51372D01*
X73196Y-51324D01*
X73261Y-51168D01*
X73261Y-50998D01*
X73196Y-50841D01*
X73076Y-50720D01*
X72919Y-50655D01*
X72807Y-50655D01*
X72807Y-49994D01*
X72807Y-49994D01*
X72857Y-49920D01*
X72881Y-49795D01*
X72881Y-49795D01*
X72881Y-49149D01*
X72857Y-49025D01*
X72807Y-48951D01*
X72807Y-48951D01*
X72807Y-47868D01*
X72919Y-47868D01*
X72972Y-47846D01*
X74001Y-48875D01*
X74106Y-48945D01*
X74156Y-48955D01*
X74156Y-48970D01*
X74194Y-49062D01*
X74264Y-49132D01*
X74356Y-49170D01*
X74455Y-49170D01*
X75005Y-49170D01*
X75073Y-49142D01*
X75104Y-49173D01*
X75001Y-49276D01*
X74931Y-49381D01*
X74925Y-49410D01*
X74785Y-49353D01*
X74577Y-49352D01*
X74384Y-49432D01*
X74236Y-49580D01*
X74156Y-49773D01*
X74156Y-49981D01*
X74235Y-50174D01*
X74383Y-50322D01*
X74576Y-50402D01*
X74785Y-50403D01*
X74906Y-50352D01*
X74906Y-51788D01*
X74931Y-51912D01*
X75001Y-52018D01*
X75406Y-52423D01*
X75384Y-52510D01*
X75681Y-52807D01*
X75686Y-52801D01*
X75757Y-52872D01*
X75751Y-52877D01*
X75757Y-52883D01*
X75686Y-52954D01*
X75681Y-52948D01*
X75384Y-53245D01*
X75408Y-53338D01*
X75605Y-53407D01*
X75813Y-53396D01*
X75815Y-53395D01*
X75815Y-53569D01*
X75821Y-53600D01*
X75821Y-53600D01*
G37*
G54D25*
X75821Y-53600D02*
X75785Y-53585D01*
X75577Y-53585D01*
X75384Y-53664D01*
X75236Y-53812D01*
X75181Y-53945D01*
X75126Y-53813D01*
X74978Y-53665D01*
X74785Y-53585D01*
X74577Y-53585D01*
X74384Y-53664D01*
X74263Y-53785D01*
X74039Y-53785D01*
X73915Y-53810D01*
X73809Y-53880D01*
X72807Y-54883D01*
X72807Y-52100D01*
X72919Y-52100D01*
X72972Y-52078D01*
X74001Y-53107D01*
X74106Y-53178D01*
X74156Y-53187D01*
X74156Y-53202D01*
X74194Y-53294D01*
X74264Y-53364D01*
X74356Y-53402D01*
X74455Y-53402D01*
X75005Y-53402D01*
X75097Y-53365D01*
X75167Y-53294D01*
X75206Y-53202D01*
X75206Y-53115D01*
X75220Y-53150D01*
X75313Y-53175D01*
X75610Y-52877D01*
X75313Y-52580D01*
X75220Y-52605D01*
X75206Y-52646D01*
X75206Y-52553D01*
X75168Y-52461D01*
X75097Y-52391D01*
X75006Y-52352D01*
X74906Y-52352D01*
X74356Y-52352D01*
X74264Y-52390D01*
X74234Y-52421D01*
X73256Y-51443D01*
X73150Y-51373D01*
X73148Y-51372D01*
X73196Y-51324D01*
X73261Y-51168D01*
X73261Y-50998D01*
X73196Y-50841D01*
X73076Y-50720D01*
X72919Y-50655D01*
X72807Y-50655D01*
X72807Y-49994D01*
X72807Y-49994D01*
X72857Y-49920D01*
X72881Y-49795D01*
X72881Y-49795D01*
X72881Y-49149D01*
X72857Y-49025D01*
X72807Y-48951D01*
X72807Y-48951D01*
X72807Y-47868D01*
X72919Y-47868D01*
X72972Y-47846D01*
X74001Y-48875D01*
X74106Y-48945D01*
X74156Y-48955D01*
X74156Y-48970D01*
X74194Y-49062D01*
X74264Y-49132D01*
X74356Y-49170D01*
X74455Y-49170D01*
X75005Y-49170D01*
X75073Y-49142D01*
X75104Y-49173D01*
X75001Y-49276D01*
X74931Y-49381D01*
X74925Y-49410D01*
X74785Y-49353D01*
X74577Y-49352D01*
X74384Y-49432D01*
X74236Y-49580D01*
X74156Y-49773D01*
X74156Y-49981D01*
X74235Y-50174D01*
X74383Y-50322D01*
X74576Y-50402D01*
X74785Y-50403D01*
X74906Y-50352D01*
X74906Y-51788D01*
X74931Y-51912D01*
X75001Y-52018D01*
X75406Y-52423D01*
X75384Y-52510D01*
X75681Y-52807D01*
X75686Y-52801D01*
X75757Y-52872D01*
X75751Y-52877D01*
X75757Y-52883D01*
X75686Y-52954D01*
X75681Y-52948D01*
X75384Y-53245D01*
X75408Y-53338D01*
X75605Y-53407D01*
X75813Y-53396D01*
X75815Y-53395D01*
X75815Y-53569D01*
X75821Y-53600D01*
G54D10*
G36*
X76410Y-48189D02*
X76384Y-48200D01*
X76236Y-48347D01*
X76183Y-48474D01*
X76141Y-48372D01*
X76048Y-48348D01*
X75751Y-48645D01*
X75757Y-48651D01*
X75686Y-48721D01*
X75681Y-48716D01*
X75675Y-48721D01*
X75604Y-48651D01*
X75610Y-48645D01*
X75604Y-48640D01*
X75675Y-48569D01*
X75681Y-48574D01*
X75978Y-48277D01*
X75955Y-48189D01*
X75969Y-48189D01*
X76410Y-48189D01*
X76410Y-48189D01*
G37*
G54D25*
X76410Y-48189D02*
X76384Y-48200D01*
X76236Y-48347D01*
X76183Y-48474D01*
X76141Y-48372D01*
X76048Y-48348D01*
X75751Y-48645D01*
X75757Y-48651D01*
X75686Y-48721D01*
X75681Y-48716D01*
X75675Y-48721D01*
X75604Y-48651D01*
X75610Y-48645D01*
X75604Y-48640D01*
X75675Y-48569D01*
X75681Y-48574D01*
X75978Y-48277D01*
X75955Y-48189D01*
X75969Y-48189D01*
X76410Y-48189D01*
G54D10*
G36*
X76743Y-54635D02*
X76725Y-54652D01*
X76703Y-54706D01*
X76637Y-54719D01*
X76532Y-54790D01*
X76462Y-54895D01*
X76437Y-55019D01*
X76437Y-55353D01*
X75870Y-55353D01*
X75778Y-55391D01*
X75708Y-55462D01*
X75670Y-55553D01*
X75670Y-55653D01*
X75670Y-56453D01*
X75708Y-56545D01*
X75743Y-56581D01*
X75548Y-56591D01*
X75506Y-56609D01*
X75506Y-56260D01*
X75481Y-56135D01*
X75410Y-56030D01*
X75305Y-55960D01*
X75256Y-55950D01*
X75256Y-55910D01*
X75256Y-55309D01*
X75256Y-55072D01*
X75193Y-55010D01*
X74656Y-55010D01*
X74656Y-55447D01*
X74718Y-55510D01*
X74956Y-55510D01*
X75056Y-55510D01*
X75148Y-55472D01*
X75218Y-55401D01*
X75256Y-55309D01*
X75256Y-55910D01*
X75218Y-55818D01*
X75148Y-55748D01*
X75056Y-55710D01*
X74956Y-55710D01*
X74556Y-55710D01*
X74556Y-55447D01*
X74556Y-55010D01*
X74018Y-55010D01*
X73956Y-55072D01*
X73956Y-55309D01*
X73994Y-55401D01*
X74064Y-55472D01*
X74156Y-55510D01*
X74255Y-55510D01*
X74493Y-55510D01*
X74556Y-55447D01*
X74556Y-55710D01*
X74156Y-55710D01*
X74064Y-55748D01*
X73994Y-55818D01*
X73956Y-55910D01*
X73956Y-56009D01*
X73956Y-56375D01*
X73256Y-55675D01*
X73150Y-55605D01*
X73148Y-55605D01*
X73196Y-55557D01*
X73261Y-55400D01*
X73261Y-55347D01*
X73956Y-54652D01*
X73956Y-54847D01*
X74018Y-54910D01*
X74556Y-54910D01*
X74556Y-54902D01*
X74656Y-54902D01*
X74656Y-54910D01*
X75193Y-54910D01*
X75256Y-54847D01*
X75256Y-54610D01*
X75218Y-54518D01*
X75148Y-54448D01*
X75103Y-54430D01*
X75125Y-54408D01*
X75181Y-54275D01*
X75235Y-54407D01*
X75383Y-54555D01*
X75576Y-54635D01*
X75785Y-54635D01*
X75978Y-54555D01*
X76125Y-54408D01*
X76181Y-54275D01*
X76235Y-54407D01*
X76383Y-54555D01*
X76576Y-54635D01*
X76743Y-54635D01*
X76743Y-54635D01*
G37*
G54D25*
X76743Y-54635D02*
X76725Y-54652D01*
X76703Y-54706D01*
X76637Y-54719D01*
X76532Y-54790D01*
X76462Y-54895D01*
X76437Y-55019D01*
X76437Y-55353D01*
X75870Y-55353D01*
X75778Y-55391D01*
X75708Y-55462D01*
X75670Y-55553D01*
X75670Y-55653D01*
X75670Y-56453D01*
X75708Y-56545D01*
X75743Y-56581D01*
X75548Y-56591D01*
X75506Y-56609D01*
X75506Y-56260D01*
X75481Y-56135D01*
X75410Y-56030D01*
X75305Y-55960D01*
X75256Y-55950D01*
X75256Y-55910D01*
X75256Y-55309D01*
X75256Y-55072D01*
X75193Y-55010D01*
X74656Y-55010D01*
X74656Y-55447D01*
X74718Y-55510D01*
X74956Y-55510D01*
X75056Y-55510D01*
X75148Y-55472D01*
X75218Y-55401D01*
X75256Y-55309D01*
X75256Y-55910D01*
X75218Y-55818D01*
X75148Y-55748D01*
X75056Y-55710D01*
X74956Y-55710D01*
X74556Y-55710D01*
X74556Y-55447D01*
X74556Y-55010D01*
X74018Y-55010D01*
X73956Y-55072D01*
X73956Y-55309D01*
X73994Y-55401D01*
X74064Y-55472D01*
X74156Y-55510D01*
X74255Y-55510D01*
X74493Y-55510D01*
X74556Y-55447D01*
X74556Y-55710D01*
X74156Y-55710D01*
X74064Y-55748D01*
X73994Y-55818D01*
X73956Y-55910D01*
X73956Y-56009D01*
X73956Y-56375D01*
X73256Y-55675D01*
X73150Y-55605D01*
X73148Y-55605D01*
X73196Y-55557D01*
X73261Y-55400D01*
X73261Y-55347D01*
X73956Y-54652D01*
X73956Y-54847D01*
X74018Y-54910D01*
X74556Y-54910D01*
X74556Y-54902D01*
X74656Y-54902D01*
X74656Y-54910D01*
X75193Y-54910D01*
X75256Y-54847D01*
X75256Y-54610D01*
X75218Y-54518D01*
X75148Y-54448D01*
X75103Y-54430D01*
X75125Y-54408D01*
X75181Y-54275D01*
X75235Y-54407D01*
X75383Y-54555D01*
X75576Y-54635D01*
X75785Y-54635D01*
X75978Y-54555D01*
X76125Y-54408D01*
X76181Y-54275D01*
X76235Y-54407D01*
X76383Y-54555D01*
X76576Y-54635D01*
X76743Y-54635D01*
G54D10*
G36*
X77212Y-49636D02*
X77181Y-49713D01*
X77126Y-49580D01*
X76978Y-49433D01*
X76785Y-49353D01*
X76615Y-49352D01*
X76206Y-48943D01*
X76146Y-48904D01*
X76180Y-48808D01*
X76235Y-48942D01*
X76383Y-49090D01*
X76576Y-49170D01*
X76746Y-49170D01*
X77212Y-49636D01*
X77212Y-49636D01*
G37*
G54D25*
X77212Y-49636D02*
X77181Y-49713D01*
X77126Y-49580D01*
X76978Y-49433D01*
X76785Y-49353D01*
X76615Y-49352D01*
X76206Y-48943D01*
X76146Y-48904D01*
X76180Y-48808D01*
X76235Y-48942D01*
X76383Y-49090D01*
X76576Y-49170D01*
X76746Y-49170D01*
X77212Y-49636D01*
G54D10*
G36*
X77337Y-46126D02*
X77329Y-46118D01*
X77237Y-46080D01*
X77137Y-46080D01*
X76989Y-46080D01*
X77125Y-45943D01*
X77181Y-45810D01*
X77235Y-45942D01*
X77337Y-46044D01*
X77337Y-46126D01*
X77337Y-46126D01*
G37*
G54D25*
X77337Y-46126D02*
X77329Y-46118D01*
X77237Y-46080D01*
X77137Y-46080D01*
X76989Y-46080D01*
X77125Y-45943D01*
X77181Y-45810D01*
X77235Y-45942D01*
X77337Y-46044D01*
X77337Y-46126D01*
G54D10*
G36*
X77355Y-50295D02*
X77342Y-50363D01*
X77329Y-50350D01*
X77237Y-50312D01*
X77137Y-50312D01*
X76989Y-50312D01*
X77125Y-50175D01*
X77181Y-50042D01*
X77235Y-50174D01*
X77355Y-50295D01*
X77355Y-50295D01*
G37*
G54D25*
X77355Y-50295D02*
X77342Y-50363D01*
X77329Y-50350D01*
X77237Y-50312D01*
X77137Y-50312D01*
X76989Y-50312D01*
X77125Y-50175D01*
X77181Y-50042D01*
X77235Y-50174D01*
X77355Y-50295D01*
G54D10*
G36*
X77577Y-56053D02*
X77570Y-56053D01*
X77570Y-56061D01*
X77470Y-56061D01*
X77470Y-56053D01*
X77462Y-56053D01*
X77462Y-55953D01*
X77470Y-55953D01*
X77470Y-55946D01*
X77570Y-55946D01*
X77570Y-55953D01*
X77577Y-55953D01*
X77577Y-56053D01*
X77577Y-56053D01*
G37*
G54D25*
X77577Y-56053D02*
X77570Y-56053D01*
X77570Y-56061D01*
X77470Y-56061D01*
X77470Y-56053D01*
X77462Y-56053D01*
X77462Y-55953D01*
X77470Y-55953D01*
X77470Y-55946D01*
X77570Y-55946D01*
X77570Y-55953D01*
X77577Y-55953D01*
X77577Y-56053D01*
G54D10*
G36*
X78358Y-52385D02*
X78139Y-52604D01*
X78048Y-52580D01*
X77751Y-52877D01*
X77757Y-52883D01*
X77686Y-52954D01*
X77681Y-52948D01*
X77675Y-52954D01*
X77604Y-52883D01*
X77610Y-52877D01*
X77313Y-52580D01*
X77220Y-52605D01*
X77181Y-52715D01*
X77126Y-52580D01*
X76978Y-52433D01*
X76785Y-52353D01*
X76692Y-52352D01*
X76731Y-52313D01*
X76770Y-52221D01*
X76770Y-52122D01*
X76770Y-52081D01*
X76819Y-52071D01*
X76924Y-52001D01*
X76970Y-51955D01*
X76970Y-52122D01*
X76970Y-52221D01*
X77008Y-52313D01*
X77078Y-52383D01*
X77170Y-52421D01*
X77407Y-52421D01*
X77384Y-52510D01*
X77681Y-52807D01*
X77978Y-52510D01*
X77953Y-52417D01*
X77913Y-52403D01*
X77961Y-52383D01*
X78031Y-52313D01*
X78070Y-52221D01*
X78070Y-52122D01*
X78070Y-51884D01*
X78007Y-51821D01*
X77570Y-51821D01*
X77570Y-51829D01*
X77470Y-51829D01*
X77470Y-51821D01*
X77462Y-51821D01*
X77462Y-51721D01*
X77470Y-51721D01*
X77470Y-51713D01*
X77570Y-51713D01*
X77570Y-51721D01*
X78007Y-51721D01*
X78070Y-51659D01*
X78070Y-51421D01*
X78070Y-51321D01*
X78031Y-51229D01*
X77977Y-51175D01*
X77999Y-51154D01*
X78037Y-51062D01*
X78037Y-50962D01*
X78037Y-50512D01*
X77999Y-50420D01*
X77996Y-50417D01*
X78005Y-50368D01*
X78005Y-50295D01*
X78125Y-50175D01*
X78171Y-50065D01*
X78244Y-50095D01*
X78358Y-50095D01*
X78358Y-52385D01*
X78358Y-52385D01*
G37*
G54D25*
X78358Y-52385D02*
X78139Y-52604D01*
X78048Y-52580D01*
X77751Y-52877D01*
X77757Y-52883D01*
X77686Y-52954D01*
X77681Y-52948D01*
X77675Y-52954D01*
X77604Y-52883D01*
X77610Y-52877D01*
X77313Y-52580D01*
X77220Y-52605D01*
X77181Y-52715D01*
X77126Y-52580D01*
X76978Y-52433D01*
X76785Y-52353D01*
X76692Y-52352D01*
X76731Y-52313D01*
X76770Y-52221D01*
X76770Y-52122D01*
X76770Y-52081D01*
X76819Y-52071D01*
X76924Y-52001D01*
X76970Y-51955D01*
X76970Y-52122D01*
X76970Y-52221D01*
X77008Y-52313D01*
X77078Y-52383D01*
X77170Y-52421D01*
X77407Y-52421D01*
X77384Y-52510D01*
X77681Y-52807D01*
X77978Y-52510D01*
X77953Y-52417D01*
X77913Y-52403D01*
X77961Y-52383D01*
X78031Y-52313D01*
X78070Y-52221D01*
X78070Y-52122D01*
X78070Y-51884D01*
X78007Y-51821D01*
X77570Y-51821D01*
X77570Y-51829D01*
X77470Y-51829D01*
X77470Y-51821D01*
X77462Y-51821D01*
X77462Y-51721D01*
X77470Y-51721D01*
X77470Y-51713D01*
X77570Y-51713D01*
X77570Y-51721D01*
X78007Y-51721D01*
X78070Y-51659D01*
X78070Y-51421D01*
X78070Y-51321D01*
X78031Y-51229D01*
X77977Y-51175D01*
X77999Y-51154D01*
X78037Y-51062D01*
X78037Y-50962D01*
X78037Y-50512D01*
X77999Y-50420D01*
X77996Y-50417D01*
X78005Y-50368D01*
X78005Y-50295D01*
X78125Y-50175D01*
X78171Y-50065D01*
X78244Y-50095D01*
X78358Y-50095D01*
X78358Y-52385D01*
G54D10*
G36*
X79782Y-47145D02*
X79711Y-47175D01*
X79557Y-47328D01*
X79474Y-47528D01*
X79474Y-47745D01*
X79557Y-47946D01*
X79710Y-48099D01*
X79761Y-48120D01*
X78570Y-49311D01*
X78570Y-49310D01*
X78413Y-49245D01*
X78363Y-49245D01*
X78315Y-49198D01*
X78210Y-49128D01*
X78210Y-48721D01*
X78199Y-48512D01*
X78141Y-48372D01*
X78048Y-48348D01*
X77751Y-48645D01*
X78048Y-48942D01*
X78141Y-48918D01*
X78210Y-48721D01*
X78210Y-49128D01*
X78210Y-49127D01*
X78086Y-49103D01*
X77954Y-49103D01*
X77978Y-49013D01*
X77681Y-48716D01*
X77675Y-48721D01*
X77604Y-48651D01*
X77610Y-48645D01*
X77313Y-48348D01*
X77220Y-48372D01*
X77181Y-48482D01*
X77126Y-48348D01*
X76978Y-48200D01*
X76785Y-48120D01*
X76692Y-48120D01*
X76731Y-48081D01*
X76770Y-47989D01*
X76770Y-47889D01*
X76770Y-47849D01*
X76819Y-47839D01*
X76924Y-47769D01*
X76970Y-47723D01*
X76970Y-47889D01*
X76970Y-47989D01*
X77008Y-48081D01*
X77078Y-48151D01*
X77170Y-48189D01*
X77407Y-48189D01*
X77384Y-48277D01*
X77681Y-48574D01*
X77978Y-48277D01*
X77953Y-48185D01*
X77913Y-48171D01*
X77961Y-48151D01*
X78031Y-48081D01*
X78070Y-47989D01*
X78070Y-47889D01*
X78070Y-47651D01*
X78007Y-47589D01*
X77570Y-47589D01*
X77570Y-47597D01*
X77470Y-47597D01*
X77470Y-47589D01*
X77462Y-47589D01*
X77462Y-47489D01*
X77470Y-47489D01*
X77470Y-47481D01*
X77570Y-47481D01*
X77570Y-47489D01*
X78007Y-47489D01*
X78070Y-47426D01*
X78070Y-47188D01*
X78070Y-47089D01*
X78031Y-46997D01*
X78000Y-46966D01*
X78060Y-46978D01*
X79573Y-46978D01*
X79710Y-47115D01*
X79782Y-47145D01*
X79782Y-47145D01*
G37*
G54D25*
X79782Y-47145D02*
X79711Y-47175D01*
X79557Y-47328D01*
X79474Y-47528D01*
X79474Y-47745D01*
X79557Y-47946D01*
X79710Y-48099D01*
X79761Y-48120D01*
X78570Y-49311D01*
X78570Y-49310D01*
X78413Y-49245D01*
X78363Y-49245D01*
X78315Y-49198D01*
X78210Y-49128D01*
X78210Y-48721D01*
X78199Y-48512D01*
X78141Y-48372D01*
X78048Y-48348D01*
X77751Y-48645D01*
X78048Y-48942D01*
X78141Y-48918D01*
X78210Y-48721D01*
X78210Y-49128D01*
X78210Y-49127D01*
X78086Y-49103D01*
X77954Y-49103D01*
X77978Y-49013D01*
X77681Y-48716D01*
X77675Y-48721D01*
X77604Y-48651D01*
X77610Y-48645D01*
X77313Y-48348D01*
X77220Y-48372D01*
X77181Y-48482D01*
X77126Y-48348D01*
X76978Y-48200D01*
X76785Y-48120D01*
X76692Y-48120D01*
X76731Y-48081D01*
X76770Y-47989D01*
X76770Y-47889D01*
X76770Y-47849D01*
X76819Y-47839D01*
X76924Y-47769D01*
X76970Y-47723D01*
X76970Y-47889D01*
X76970Y-47989D01*
X77008Y-48081D01*
X77078Y-48151D01*
X77170Y-48189D01*
X77407Y-48189D01*
X77384Y-48277D01*
X77681Y-48574D01*
X77978Y-48277D01*
X77953Y-48185D01*
X77913Y-48171D01*
X77961Y-48151D01*
X78031Y-48081D01*
X78070Y-47989D01*
X78070Y-47889D01*
X78070Y-47651D01*
X78007Y-47589D01*
X77570Y-47589D01*
X77570Y-47597D01*
X77470Y-47597D01*
X77470Y-47589D01*
X77462Y-47589D01*
X77462Y-47489D01*
X77470Y-47489D01*
X77470Y-47481D01*
X77570Y-47481D01*
X77570Y-47489D01*
X78007Y-47489D01*
X78070Y-47426D01*
X78070Y-47188D01*
X78070Y-47089D01*
X78031Y-46997D01*
X78000Y-46966D01*
X78060Y-46978D01*
X79573Y-46978D01*
X79710Y-47115D01*
X79782Y-47145D01*
G54D10*
G36*
X80083Y-56647D02*
X78768Y-57962D01*
X78719Y-57962D01*
X78499Y-58054D01*
X78424Y-58128D01*
X78400Y-58071D01*
X78330Y-58001D01*
X78238Y-57963D01*
X78139Y-57962D01*
X77951Y-57962D01*
X77888Y-58025D01*
X77888Y-58512D01*
X77896Y-58512D01*
X77896Y-58612D01*
X77888Y-58612D01*
X77888Y-58620D01*
X77788Y-58620D01*
X77788Y-58612D01*
X77788Y-58512D01*
X77788Y-58025D01*
X77726Y-57962D01*
X77538Y-57962D01*
X77438Y-57963D01*
X77346Y-58001D01*
X77276Y-58071D01*
X77238Y-58163D01*
X77238Y-58450D01*
X77301Y-58512D01*
X77788Y-58512D01*
X77788Y-58612D01*
X77301Y-58612D01*
X77238Y-58675D01*
X77238Y-58785D01*
X76163Y-58785D01*
X76206Y-58682D01*
X76206Y-58444D01*
X76115Y-58223D01*
X75946Y-58054D01*
X75726Y-57963D01*
X75506Y-57962D01*
X75506Y-57605D01*
X75605Y-57640D01*
X75813Y-57628D01*
X75953Y-57570D01*
X75978Y-57478D01*
X75681Y-57180D01*
X75675Y-57186D01*
X75604Y-57115D01*
X75610Y-57110D01*
X75604Y-57104D01*
X75675Y-57033D01*
X75681Y-57039D01*
X75978Y-56742D01*
X75955Y-56653D01*
X75969Y-56653D01*
X76410Y-56653D01*
X76384Y-56664D01*
X76236Y-56812D01*
X76183Y-56939D01*
X76141Y-56837D01*
X76048Y-56813D01*
X75751Y-57110D01*
X76048Y-57407D01*
X76141Y-57383D01*
X76180Y-57273D01*
X76235Y-57407D01*
X76383Y-57555D01*
X76576Y-57635D01*
X76785Y-57635D01*
X76978Y-57555D01*
X77125Y-57408D01*
X77178Y-57281D01*
X77220Y-57383D01*
X77313Y-57407D01*
X77610Y-57110D01*
X77604Y-57104D01*
X77675Y-57033D01*
X77681Y-57039D01*
X77686Y-57033D01*
X77757Y-57104D01*
X77751Y-57110D01*
X77757Y-57115D01*
X77686Y-57186D01*
X77681Y-57180D01*
X77384Y-57478D01*
X77408Y-57570D01*
X77605Y-57640D01*
X77813Y-57628D01*
X77953Y-57570D01*
X77962Y-57539D01*
X77993Y-57570D01*
X78149Y-57635D01*
X78318Y-57635D01*
X78474Y-57570D01*
X78594Y-57451D01*
X78659Y-57295D01*
X78659Y-57126D01*
X78594Y-56969D01*
X78559Y-56934D01*
X78559Y-56112D01*
X79474Y-55197D01*
X79474Y-55226D01*
X79557Y-55426D01*
X79710Y-55580D01*
X79782Y-55610D01*
X79711Y-55639D01*
X79557Y-55793D01*
X79474Y-55993D01*
X79474Y-56210D01*
X79557Y-56410D01*
X79710Y-56564D01*
X79910Y-56647D01*
X80083Y-56647D01*
X80083Y-56647D01*
G37*
G54D25*
X80083Y-56647D02*
X78768Y-57962D01*
X78719Y-57962D01*
X78499Y-58054D01*
X78424Y-58128D01*
X78400Y-58071D01*
X78330Y-58001D01*
X78238Y-57963D01*
X78139Y-57962D01*
X77951Y-57962D01*
X77888Y-58025D01*
X77888Y-58512D01*
X77896Y-58512D01*
X77896Y-58612D01*
X77888Y-58612D01*
X77888Y-58620D01*
X77788Y-58620D01*
X77788Y-58612D01*
X77788Y-58512D01*
X77788Y-58025D01*
X77726Y-57962D01*
X77538Y-57962D01*
X77438Y-57963D01*
X77346Y-58001D01*
X77276Y-58071D01*
X77238Y-58163D01*
X77238Y-58450D01*
X77301Y-58512D01*
X77788Y-58512D01*
X77788Y-58612D01*
X77301Y-58612D01*
X77238Y-58675D01*
X77238Y-58785D01*
X76163Y-58785D01*
X76206Y-58682D01*
X76206Y-58444D01*
X76115Y-58223D01*
X75946Y-58054D01*
X75726Y-57963D01*
X75506Y-57962D01*
X75506Y-57605D01*
X75605Y-57640D01*
X75813Y-57628D01*
X75953Y-57570D01*
X75978Y-57478D01*
X75681Y-57180D01*
X75675Y-57186D01*
X75604Y-57115D01*
X75610Y-57110D01*
X75604Y-57104D01*
X75675Y-57033D01*
X75681Y-57039D01*
X75978Y-56742D01*
X75955Y-56653D01*
X75969Y-56653D01*
X76410Y-56653D01*
X76384Y-56664D01*
X76236Y-56812D01*
X76183Y-56939D01*
X76141Y-56837D01*
X76048Y-56813D01*
X75751Y-57110D01*
X76048Y-57407D01*
X76141Y-57383D01*
X76180Y-57273D01*
X76235Y-57407D01*
X76383Y-57555D01*
X76576Y-57635D01*
X76785Y-57635D01*
X76978Y-57555D01*
X77125Y-57408D01*
X77178Y-57281D01*
X77220Y-57383D01*
X77313Y-57407D01*
X77610Y-57110D01*
X77604Y-57104D01*
X77675Y-57033D01*
X77681Y-57039D01*
X77686Y-57033D01*
X77757Y-57104D01*
X77751Y-57110D01*
X77757Y-57115D01*
X77686Y-57186D01*
X77681Y-57180D01*
X77384Y-57478D01*
X77408Y-57570D01*
X77605Y-57640D01*
X77813Y-57628D01*
X77953Y-57570D01*
X77962Y-57539D01*
X77993Y-57570D01*
X78149Y-57635D01*
X78318Y-57635D01*
X78474Y-57570D01*
X78594Y-57451D01*
X78659Y-57295D01*
X78659Y-57126D01*
X78594Y-56969D01*
X78559Y-56934D01*
X78559Y-56112D01*
X79474Y-55197D01*
X79474Y-55226D01*
X79557Y-55426D01*
X79710Y-55580D01*
X79782Y-55610D01*
X79711Y-55639D01*
X79557Y-55793D01*
X79474Y-55993D01*
X79474Y-56210D01*
X79557Y-56410D01*
X79710Y-56564D01*
X79910Y-56647D01*
X80083Y-56647D01*
G54D10*
G36*
X80169Y-46125D02*
X80128Y-46108D01*
X79911Y-46108D01*
X79711Y-46191D01*
X79573Y-46328D01*
X78210Y-46328D01*
X78210Y-44489D01*
X78199Y-44280D01*
X78141Y-44140D01*
X78048Y-44116D01*
X77751Y-44413D01*
X78048Y-44710D01*
X78141Y-44686D01*
X78210Y-44489D01*
X78210Y-46328D01*
X78195Y-46328D01*
X78191Y-46325D01*
X78086Y-46255D01*
X78021Y-46242D01*
X77999Y-46188D01*
X77987Y-46176D01*
X77987Y-46082D01*
X78125Y-45943D01*
X78206Y-45750D01*
X78206Y-45541D01*
X78126Y-45348D01*
X77978Y-45200D01*
X77785Y-45120D01*
X77577Y-45120D01*
X77455Y-45170D01*
X77455Y-44890D01*
X77605Y-44943D01*
X77813Y-44931D01*
X77953Y-44873D01*
X77978Y-44781D01*
X77681Y-44484D01*
X77675Y-44489D01*
X77604Y-44418D01*
X77610Y-44413D01*
X77604Y-44407D01*
X77675Y-44337D01*
X77681Y-44342D01*
X77978Y-44045D01*
X77953Y-43952D01*
X77913Y-43938D01*
X77961Y-43919D01*
X78031Y-43848D01*
X78070Y-43757D01*
X78070Y-43657D01*
X78070Y-43419D01*
X78007Y-43357D01*
X77570Y-43357D01*
X77570Y-43364D01*
X77470Y-43364D01*
X77470Y-43357D01*
X77462Y-43357D01*
X77462Y-43257D01*
X77470Y-43257D01*
X77470Y-43249D01*
X77570Y-43249D01*
X77570Y-43257D01*
X78007Y-43257D01*
X78070Y-43194D01*
X78070Y-42956D01*
X78070Y-42857D01*
X78031Y-42765D01*
X77977Y-42711D01*
X77999Y-42689D01*
X78037Y-42597D01*
X78037Y-42498D01*
X78037Y-42048D01*
X77999Y-41956D01*
X77996Y-41953D01*
X78004Y-41912D01*
X79474Y-43382D01*
X79474Y-43513D01*
X79557Y-43713D01*
X79710Y-43867D01*
X79910Y-43950D01*
X80068Y-43950D01*
X80068Y-44110D01*
X80133Y-44266D01*
X80169Y-44302D01*
X80169Y-46125D01*
X80169Y-46125D01*
G37*
G54D25*
X80169Y-46125D02*
X80128Y-46108D01*
X79911Y-46108D01*
X79711Y-46191D01*
X79573Y-46328D01*
X78210Y-46328D01*
X78210Y-44489D01*
X78199Y-44280D01*
X78141Y-44140D01*
X78048Y-44116D01*
X77751Y-44413D01*
X78048Y-44710D01*
X78141Y-44686D01*
X78210Y-44489D01*
X78210Y-46328D01*
X78195Y-46328D01*
X78191Y-46325D01*
X78086Y-46255D01*
X78021Y-46242D01*
X77999Y-46188D01*
X77987Y-46176D01*
X77987Y-46082D01*
X78125Y-45943D01*
X78206Y-45750D01*
X78206Y-45541D01*
X78126Y-45348D01*
X77978Y-45200D01*
X77785Y-45120D01*
X77577Y-45120D01*
X77455Y-45170D01*
X77455Y-44890D01*
X77605Y-44943D01*
X77813Y-44931D01*
X77953Y-44873D01*
X77978Y-44781D01*
X77681Y-44484D01*
X77675Y-44489D01*
X77604Y-44418D01*
X77610Y-44413D01*
X77604Y-44407D01*
X77675Y-44337D01*
X77681Y-44342D01*
X77978Y-44045D01*
X77953Y-43952D01*
X77913Y-43938D01*
X77961Y-43919D01*
X78031Y-43848D01*
X78070Y-43757D01*
X78070Y-43657D01*
X78070Y-43419D01*
X78007Y-43357D01*
X77570Y-43357D01*
X77570Y-43364D01*
X77470Y-43364D01*
X77470Y-43357D01*
X77462Y-43357D01*
X77462Y-43257D01*
X77470Y-43257D01*
X77470Y-43249D01*
X77570Y-43249D01*
X77570Y-43257D01*
X78007Y-43257D01*
X78070Y-43194D01*
X78070Y-42956D01*
X78070Y-42857D01*
X78031Y-42765D01*
X77977Y-42711D01*
X77999Y-42689D01*
X78037Y-42597D01*
X78037Y-42498D01*
X78037Y-42048D01*
X77999Y-41956D01*
X77996Y-41953D01*
X78004Y-41912D01*
X79474Y-43382D01*
X79474Y-43513D01*
X79557Y-43713D01*
X79710Y-43867D01*
X79910Y-43950D01*
X80068Y-43950D01*
X80068Y-44110D01*
X80133Y-44266D01*
X80169Y-44302D01*
X80169Y-46125D01*
G54D10*
G36*
X82020Y-58025D02*
X81958Y-57962D01*
X81770Y-57962D01*
X81670Y-57963D01*
X81579Y-58001D01*
X81555Y-58024D01*
X81555Y-57671D01*
X81555Y-56972D01*
X81517Y-56881D01*
X81447Y-56810D01*
X81355Y-56772D01*
X81256Y-56772D01*
X81018Y-56772D01*
X80955Y-56834D01*
X80955Y-57272D01*
X81493Y-57272D01*
X81555Y-57209D01*
X81555Y-56972D01*
X81555Y-57671D01*
X81555Y-57434D01*
X81493Y-57372D01*
X80955Y-57372D01*
X80955Y-57809D01*
X81018Y-57872D01*
X81256Y-57872D01*
X81355Y-57872D01*
X81447Y-57834D01*
X81517Y-57763D01*
X81555Y-57671D01*
X81555Y-58024D01*
X81508Y-58071D01*
X81479Y-58142D01*
X81447Y-58110D01*
X81355Y-58072D01*
X81256Y-58072D01*
X80855Y-58072D01*
X80456Y-58072D01*
X80364Y-58110D01*
X80299Y-58175D01*
X80178Y-58054D01*
X79958Y-57963D01*
X79719Y-57962D01*
X79664Y-57985D01*
X80277Y-57372D01*
X80318Y-57372D01*
X80255Y-57434D01*
X80255Y-57671D01*
X80293Y-57763D01*
X80363Y-57834D01*
X80455Y-57872D01*
X80555Y-57872D01*
X80793Y-57872D01*
X80855Y-57809D01*
X80855Y-57372D01*
X80847Y-57372D01*
X80847Y-57272D01*
X80855Y-57272D01*
X80855Y-56834D01*
X80835Y-56814D01*
X81094Y-56555D01*
X81164Y-56450D01*
X81189Y-56326D01*
X81189Y-56326D01*
X81189Y-55141D01*
X81220Y-55217D01*
X81340Y-55337D01*
X81496Y-55401D01*
X81606Y-55401D01*
X81606Y-57423D01*
X81631Y-57547D01*
X81701Y-57653D01*
X82020Y-57972D01*
X82020Y-58025D01*
X82020Y-58025D01*
G37*
G54D25*
X82020Y-58025D02*
X81958Y-57962D01*
X81770Y-57962D01*
X81670Y-57963D01*
X81579Y-58001D01*
X81555Y-58024D01*
X81555Y-57671D01*
X81555Y-56972D01*
X81517Y-56881D01*
X81447Y-56810D01*
X81355Y-56772D01*
X81256Y-56772D01*
X81018Y-56772D01*
X80955Y-56834D01*
X80955Y-57272D01*
X81493Y-57272D01*
X81555Y-57209D01*
X81555Y-56972D01*
X81555Y-57671D01*
X81555Y-57434D01*
X81493Y-57372D01*
X80955Y-57372D01*
X80955Y-57809D01*
X81018Y-57872D01*
X81256Y-57872D01*
X81355Y-57872D01*
X81447Y-57834D01*
X81517Y-57763D01*
X81555Y-57671D01*
X81555Y-58024D01*
X81508Y-58071D01*
X81479Y-58142D01*
X81447Y-58110D01*
X81355Y-58072D01*
X81256Y-58072D01*
X80855Y-58072D01*
X80456Y-58072D01*
X80364Y-58110D01*
X80299Y-58175D01*
X80178Y-58054D01*
X79958Y-57963D01*
X79719Y-57962D01*
X79664Y-57985D01*
X80277Y-57372D01*
X80318Y-57372D01*
X80255Y-57434D01*
X80255Y-57671D01*
X80293Y-57763D01*
X80363Y-57834D01*
X80455Y-57872D01*
X80555Y-57872D01*
X80793Y-57872D01*
X80855Y-57809D01*
X80855Y-57372D01*
X80847Y-57372D01*
X80847Y-57272D01*
X80855Y-57272D01*
X80855Y-56834D01*
X80835Y-56814D01*
X81094Y-56555D01*
X81164Y-56450D01*
X81189Y-56326D01*
X81189Y-56326D01*
X81189Y-55141D01*
X81220Y-55217D01*
X81340Y-55337D01*
X81496Y-55401D01*
X81606Y-55401D01*
X81606Y-57423D01*
X81631Y-57547D01*
X81701Y-57653D01*
X82020Y-57972D01*
X82020Y-58025D01*
G54D10*
G36*
X82128Y-58612D02*
X82120Y-58612D01*
X82120Y-58620D01*
X82020Y-58620D01*
X82020Y-58612D01*
X82012Y-58612D01*
X82012Y-58512D01*
X82020Y-58512D01*
X82020Y-58505D01*
X82120Y-58505D01*
X82120Y-58512D01*
X82128Y-58512D01*
X82128Y-58612D01*
X82128Y-58612D01*
G37*
G54D25*
X82128Y-58612D02*
X82120Y-58612D01*
X82120Y-58620D01*
X82020Y-58620D01*
X82020Y-58612D01*
X82012Y-58612D01*
X82012Y-58512D01*
X82020Y-58512D01*
X82020Y-58505D01*
X82120Y-58505D01*
X82120Y-58512D01*
X82128Y-58512D01*
X82128Y-58612D01*
G54D10*
G36*
X85206Y-57115D02*
X85135Y-57186D01*
X85129Y-57180D01*
X85124Y-57186D01*
X85053Y-57115D01*
X85059Y-57110D01*
X85053Y-57104D01*
X85124Y-57033D01*
X85129Y-57039D01*
X85135Y-57033D01*
X85206Y-57104D01*
X85200Y-57110D01*
X85206Y-57115D01*
X85206Y-57115D01*
G37*
G54D25*
X85206Y-57115D02*
X85135Y-57186D01*
X85129Y-57180D01*
X85124Y-57186D01*
X85053Y-57115D01*
X85059Y-57110D01*
X85053Y-57104D01*
X85124Y-57033D01*
X85129Y-57039D01*
X85135Y-57033D01*
X85206Y-57104D01*
X85200Y-57110D01*
X85206Y-57115D01*
G54D10*
G36*
X85306Y-53614D02*
X85234Y-53585D01*
X85025Y-53585D01*
X84832Y-53664D01*
X84685Y-53812D01*
X84629Y-53945D01*
X84575Y-53813D01*
X84427Y-53665D01*
X84234Y-53585D01*
X84025Y-53585D01*
X83832Y-53664D01*
X83685Y-53812D01*
X83605Y-54005D01*
X83604Y-54214D01*
X83684Y-54407D01*
X83687Y-54410D01*
X83605Y-54410D01*
X83513Y-54448D01*
X83443Y-54518D01*
X83405Y-54610D01*
X83405Y-54810D01*
X82050Y-53455D01*
X82050Y-52038D01*
X82198Y-52100D01*
X82368Y-52100D01*
X82421Y-52078D01*
X83450Y-53107D01*
X83555Y-53178D01*
X83604Y-53187D01*
X83604Y-53202D01*
X83642Y-53294D01*
X83713Y-53364D01*
X83804Y-53402D01*
X83904Y-53402D01*
X84454Y-53402D01*
X84546Y-53365D01*
X84616Y-53294D01*
X84654Y-53202D01*
X84654Y-53115D01*
X84669Y-53150D01*
X84762Y-53175D01*
X85059Y-52877D01*
X84762Y-52580D01*
X84669Y-52605D01*
X84654Y-52646D01*
X84654Y-52553D01*
X84616Y-52461D01*
X84546Y-52391D01*
X84454Y-52352D01*
X84355Y-52352D01*
X83805Y-52352D01*
X83713Y-52390D01*
X83682Y-52421D01*
X82704Y-51443D01*
X82650Y-51407D01*
X82925Y-51407D01*
X83049Y-51382D01*
X83154Y-51312D01*
X84064Y-50402D01*
X84233Y-50403D01*
X84426Y-50323D01*
X84574Y-50175D01*
X84629Y-50042D01*
X84684Y-50174D01*
X84832Y-50322D01*
X85025Y-50402D01*
X85145Y-50402D01*
X84964Y-50584D01*
X84893Y-50689D01*
X84869Y-50813D01*
X84869Y-52303D01*
X84889Y-52404D01*
X84857Y-52417D01*
X84832Y-52510D01*
X85129Y-52807D01*
X85135Y-52801D01*
X85206Y-52872D01*
X85200Y-52877D01*
X85206Y-52883D01*
X85135Y-52954D01*
X85129Y-52948D01*
X84832Y-53245D01*
X84857Y-53338D01*
X85054Y-53407D01*
X85262Y-53396D01*
X85305Y-53378D01*
X85305Y-53610D01*
X85306Y-53614D01*
X85306Y-53614D01*
G37*
G54D25*
X85306Y-53614D02*
X85234Y-53585D01*
X85025Y-53585D01*
X84832Y-53664D01*
X84685Y-53812D01*
X84629Y-53945D01*
X84575Y-53813D01*
X84427Y-53665D01*
X84234Y-53585D01*
X84025Y-53585D01*
X83832Y-53664D01*
X83685Y-53812D01*
X83605Y-54005D01*
X83604Y-54214D01*
X83684Y-54407D01*
X83687Y-54410D01*
X83605Y-54410D01*
X83513Y-54448D01*
X83443Y-54518D01*
X83405Y-54610D01*
X83405Y-54810D01*
X82050Y-53455D01*
X82050Y-52038D01*
X82198Y-52100D01*
X82368Y-52100D01*
X82421Y-52078D01*
X83450Y-53107D01*
X83555Y-53178D01*
X83604Y-53187D01*
X83604Y-53202D01*
X83642Y-53294D01*
X83713Y-53364D01*
X83804Y-53402D01*
X83904Y-53402D01*
X84454Y-53402D01*
X84546Y-53365D01*
X84616Y-53294D01*
X84654Y-53202D01*
X84654Y-53115D01*
X84669Y-53150D01*
X84762Y-53175D01*
X85059Y-52877D01*
X84762Y-52580D01*
X84669Y-52605D01*
X84654Y-52646D01*
X84654Y-52553D01*
X84616Y-52461D01*
X84546Y-52391D01*
X84454Y-52352D01*
X84355Y-52352D01*
X83805Y-52352D01*
X83713Y-52390D01*
X83682Y-52421D01*
X82704Y-51443D01*
X82650Y-51407D01*
X82925Y-51407D01*
X83049Y-51382D01*
X83154Y-51312D01*
X84064Y-50402D01*
X84233Y-50403D01*
X84426Y-50323D01*
X84574Y-50175D01*
X84629Y-50042D01*
X84684Y-50174D01*
X84832Y-50322D01*
X85025Y-50402D01*
X85145Y-50402D01*
X84964Y-50584D01*
X84893Y-50689D01*
X84869Y-50813D01*
X84869Y-52303D01*
X84889Y-52404D01*
X84857Y-52417D01*
X84832Y-52510D01*
X85129Y-52807D01*
X85135Y-52801D01*
X85206Y-52872D01*
X85200Y-52877D01*
X85206Y-52883D01*
X85135Y-52954D01*
X85129Y-52948D01*
X84832Y-53245D01*
X84857Y-53338D01*
X85054Y-53407D01*
X85262Y-53396D01*
X85305Y-53378D01*
X85305Y-53610D01*
X85306Y-53614D01*
G54D10*
G36*
X86191Y-54635D02*
X86174Y-54652D01*
X86151Y-54706D01*
X86086Y-54719D01*
X85981Y-54790D01*
X85911Y-54895D01*
X85886Y-55019D01*
X85886Y-55353D01*
X85319Y-55353D01*
X85227Y-55391D01*
X85157Y-55462D01*
X85118Y-55553D01*
X85118Y-55653D01*
X85118Y-55909D01*
X84695Y-55486D01*
X84627Y-55441D01*
X84667Y-55401D01*
X84705Y-55309D01*
X84705Y-55072D01*
X84642Y-55010D01*
X84105Y-55010D01*
X84105Y-55018D01*
X84005Y-55018D01*
X84005Y-55010D01*
X83997Y-55010D01*
X83997Y-54910D01*
X84005Y-54910D01*
X84005Y-54902D01*
X84105Y-54902D01*
X84105Y-54910D01*
X84642Y-54910D01*
X84705Y-54847D01*
X84705Y-54610D01*
X84667Y-54518D01*
X84596Y-54448D01*
X84552Y-54430D01*
X84574Y-54408D01*
X84629Y-54275D01*
X84684Y-54407D01*
X84832Y-54555D01*
X85025Y-54635D01*
X85233Y-54635D01*
X85426Y-54555D01*
X85574Y-54408D01*
X85629Y-54275D01*
X85684Y-54407D01*
X85832Y-54555D01*
X86025Y-54635D01*
X86191Y-54635D01*
X86191Y-54635D01*
G37*
G54D25*
X86191Y-54635D02*
X86174Y-54652D01*
X86151Y-54706D01*
X86086Y-54719D01*
X85981Y-54790D01*
X85911Y-54895D01*
X85886Y-55019D01*
X85886Y-55353D01*
X85319Y-55353D01*
X85227Y-55391D01*
X85157Y-55462D01*
X85118Y-55553D01*
X85118Y-55653D01*
X85118Y-55909D01*
X84695Y-55486D01*
X84627Y-55441D01*
X84667Y-55401D01*
X84705Y-55309D01*
X84705Y-55072D01*
X84642Y-55010D01*
X84105Y-55010D01*
X84105Y-55018D01*
X84005Y-55018D01*
X84005Y-55010D01*
X83997Y-55010D01*
X83997Y-54910D01*
X84005Y-54910D01*
X84005Y-54902D01*
X84105Y-54902D01*
X84105Y-54910D01*
X84642Y-54910D01*
X84705Y-54847D01*
X84705Y-54610D01*
X84667Y-54518D01*
X84596Y-54448D01*
X84552Y-54430D01*
X84574Y-54408D01*
X84629Y-54275D01*
X84684Y-54407D01*
X84832Y-54555D01*
X85025Y-54635D01*
X85233Y-54635D01*
X85426Y-54555D01*
X85574Y-54408D01*
X85629Y-54275D01*
X85684Y-54407D01*
X85832Y-54555D01*
X86025Y-54635D01*
X86191Y-54635D01*
G54D10*
G36*
X86361Y-58612D02*
X86353Y-58612D01*
X86353Y-58620D01*
X86253Y-58620D01*
X86253Y-58612D01*
X85765Y-58612D01*
X85703Y-58675D01*
X85703Y-58785D01*
X84628Y-58785D01*
X84670Y-58682D01*
X84670Y-58444D01*
X84664Y-58428D01*
X84859Y-58233D01*
X84930Y-58128D01*
X84954Y-58003D01*
X84954Y-58003D01*
X84954Y-57605D01*
X85054Y-57640D01*
X85262Y-57628D01*
X85402Y-57570D01*
X85419Y-57506D01*
X85837Y-57923D01*
X85837Y-57923D01*
X85898Y-57964D01*
X85811Y-58001D01*
X85741Y-58071D01*
X85703Y-58163D01*
X85703Y-58450D01*
X85765Y-58512D01*
X86253Y-58512D01*
X86253Y-58505D01*
X86353Y-58505D01*
X86353Y-58512D01*
X86361Y-58512D01*
X86361Y-58612D01*
X86361Y-58612D01*
G37*
G54D25*
X86361Y-58612D02*
X86353Y-58612D01*
X86353Y-58620D01*
X86253Y-58620D01*
X86253Y-58612D01*
X85765Y-58612D01*
X85703Y-58675D01*
X85703Y-58785D01*
X84628Y-58785D01*
X84670Y-58682D01*
X84670Y-58444D01*
X84664Y-58428D01*
X84859Y-58233D01*
X84930Y-58128D01*
X84954Y-58003D01*
X84954Y-58003D01*
X84954Y-57605D01*
X85054Y-57640D01*
X85262Y-57628D01*
X85402Y-57570D01*
X85419Y-57506D01*
X85837Y-57923D01*
X85837Y-57923D01*
X85898Y-57964D01*
X85811Y-58001D01*
X85741Y-58071D01*
X85703Y-58163D01*
X85703Y-58450D01*
X85765Y-58512D01*
X86253Y-58512D01*
X86253Y-58505D01*
X86353Y-58505D01*
X86353Y-58512D01*
X86361Y-58512D01*
X86361Y-58612D01*
G54D10*
G36*
X86834Y-45199D02*
X86832Y-45200D01*
X86685Y-45347D01*
X86629Y-45480D01*
X86575Y-45348D01*
X86427Y-45200D01*
X86234Y-45120D01*
X86025Y-45120D01*
X85832Y-45200D01*
X85685Y-45347D01*
X85629Y-45480D01*
X85575Y-45348D01*
X85427Y-45200D01*
X85427Y-45200D01*
X85427Y-44781D01*
X85129Y-44484D01*
X84832Y-44781D01*
X84857Y-44873D01*
X85054Y-44943D01*
X85262Y-44931D01*
X85402Y-44873D01*
X85427Y-44781D01*
X85427Y-45200D01*
X85234Y-45120D01*
X85025Y-45120D01*
X84832Y-45200D01*
X84685Y-45347D01*
X84629Y-45480D01*
X84575Y-45348D01*
X84427Y-45200D01*
X84234Y-45120D01*
X84025Y-45120D01*
X83832Y-45200D01*
X83685Y-45347D01*
X83605Y-45540D01*
X83604Y-45749D01*
X83684Y-45942D01*
X83832Y-46090D01*
X84025Y-46170D01*
X84233Y-46170D01*
X84426Y-46091D01*
X84574Y-45943D01*
X84629Y-45810D01*
X84684Y-45942D01*
X84832Y-46090D01*
X85025Y-46170D01*
X85145Y-46170D01*
X84950Y-46365D01*
X84880Y-46471D01*
X84855Y-46595D01*
X84855Y-47907D01*
X84880Y-48032D01*
X84950Y-48137D01*
X84956Y-48143D01*
X84857Y-48185D01*
X84832Y-48277D01*
X85129Y-48574D01*
X85135Y-48569D01*
X85206Y-48640D01*
X85200Y-48645D01*
X85206Y-48651D01*
X85135Y-48721D01*
X85129Y-48716D01*
X84832Y-49013D01*
X84857Y-49106D01*
X85054Y-49175D01*
X85262Y-49164D01*
X85305Y-49146D01*
X85305Y-49377D01*
X85306Y-49382D01*
X85234Y-49353D01*
X85025Y-49352D01*
X84832Y-49432D01*
X84685Y-49580D01*
X84629Y-49713D01*
X84575Y-49580D01*
X84427Y-49433D01*
X84234Y-49353D01*
X84025Y-49352D01*
X83832Y-49432D01*
X83685Y-49580D01*
X83605Y-49773D01*
X83604Y-49943D01*
X82790Y-50757D01*
X82562Y-50757D01*
X82525Y-50720D01*
X82368Y-50655D01*
X82198Y-50655D01*
X82050Y-50716D01*
X82050Y-47806D01*
X82198Y-47868D01*
X82368Y-47868D01*
X82421Y-47846D01*
X83450Y-48875D01*
X83555Y-48945D01*
X83604Y-48955D01*
X83604Y-48970D01*
X83642Y-49062D01*
X83713Y-49132D01*
X83804Y-49170D01*
X83904Y-49170D01*
X84454Y-49170D01*
X84546Y-49132D01*
X84616Y-49062D01*
X84654Y-48970D01*
X84654Y-48883D01*
X84669Y-48918D01*
X84762Y-48942D01*
X85059Y-48645D01*
X84762Y-48348D01*
X84669Y-48372D01*
X84654Y-48413D01*
X84654Y-48321D01*
X84616Y-48229D01*
X84546Y-48158D01*
X84454Y-48120D01*
X84355Y-48120D01*
X83805Y-48120D01*
X83713Y-48158D01*
X83682Y-48189D01*
X82704Y-47211D01*
X82599Y-47140D01*
X82597Y-47140D01*
X82645Y-47092D01*
X82710Y-46935D01*
X82710Y-46765D01*
X82645Y-46608D01*
X82525Y-46488D01*
X82368Y-46423D01*
X82198Y-46423D01*
X82050Y-46484D01*
X82050Y-43574D01*
X82198Y-43635D01*
X82368Y-43635D01*
X82421Y-43613D01*
X83450Y-44643D01*
X83555Y-44713D01*
X83604Y-44723D01*
X83604Y-44737D01*
X83642Y-44829D01*
X83713Y-44900D01*
X83804Y-44938D01*
X83904Y-44938D01*
X84454Y-44938D01*
X84546Y-44900D01*
X84616Y-44830D01*
X84654Y-44738D01*
X84654Y-44651D01*
X84669Y-44686D01*
X84762Y-44710D01*
X85059Y-44413D01*
X85053Y-44407D01*
X85124Y-44337D01*
X85129Y-44342D01*
X85135Y-44337D01*
X85206Y-44407D01*
X85200Y-44413D01*
X85497Y-44710D01*
X85590Y-44686D01*
X85629Y-44576D01*
X85684Y-44710D01*
X85832Y-44858D01*
X86025Y-44938D01*
X86233Y-44938D01*
X86426Y-44858D01*
X86446Y-44839D01*
X86749Y-45142D01*
X86749Y-45142D01*
X86834Y-45199D01*
X86834Y-45199D01*
G37*
G54D25*
X86834Y-45199D02*
X86832Y-45200D01*
X86685Y-45347D01*
X86629Y-45480D01*
X86575Y-45348D01*
X86427Y-45200D01*
X86234Y-45120D01*
X86025Y-45120D01*
X85832Y-45200D01*
X85685Y-45347D01*
X85629Y-45480D01*
X85575Y-45348D01*
X85427Y-45200D01*
X85427Y-45200D01*
X85427Y-44781D01*
X85129Y-44484D01*
X84832Y-44781D01*
X84857Y-44873D01*
X85054Y-44943D01*
X85262Y-44931D01*
X85402Y-44873D01*
X85427Y-44781D01*
X85427Y-45200D01*
X85234Y-45120D01*
X85025Y-45120D01*
X84832Y-45200D01*
X84685Y-45347D01*
X84629Y-45480D01*
X84575Y-45348D01*
X84427Y-45200D01*
X84234Y-45120D01*
X84025Y-45120D01*
X83832Y-45200D01*
X83685Y-45347D01*
X83605Y-45540D01*
X83604Y-45749D01*
X83684Y-45942D01*
X83832Y-46090D01*
X84025Y-46170D01*
X84233Y-46170D01*
X84426Y-46091D01*
X84574Y-45943D01*
X84629Y-45810D01*
X84684Y-45942D01*
X84832Y-46090D01*
X85025Y-46170D01*
X85145Y-46170D01*
X84950Y-46365D01*
X84880Y-46471D01*
X84855Y-46595D01*
X84855Y-47907D01*
X84880Y-48032D01*
X84950Y-48137D01*
X84956Y-48143D01*
X84857Y-48185D01*
X84832Y-48277D01*
X85129Y-48574D01*
X85135Y-48569D01*
X85206Y-48640D01*
X85200Y-48645D01*
X85206Y-48651D01*
X85135Y-48721D01*
X85129Y-48716D01*
X84832Y-49013D01*
X84857Y-49106D01*
X85054Y-49175D01*
X85262Y-49164D01*
X85305Y-49146D01*
X85305Y-49377D01*
X85306Y-49382D01*
X85234Y-49353D01*
X85025Y-49352D01*
X84832Y-49432D01*
X84685Y-49580D01*
X84629Y-49713D01*
X84575Y-49580D01*
X84427Y-49433D01*
X84234Y-49353D01*
X84025Y-49352D01*
X83832Y-49432D01*
X83685Y-49580D01*
X83605Y-49773D01*
X83604Y-49943D01*
X82790Y-50757D01*
X82562Y-50757D01*
X82525Y-50720D01*
X82368Y-50655D01*
X82198Y-50655D01*
X82050Y-50716D01*
X82050Y-47806D01*
X82198Y-47868D01*
X82368Y-47868D01*
X82421Y-47846D01*
X83450Y-48875D01*
X83555Y-48945D01*
X83604Y-48955D01*
X83604Y-48970D01*
X83642Y-49062D01*
X83713Y-49132D01*
X83804Y-49170D01*
X83904Y-49170D01*
X84454Y-49170D01*
X84546Y-49132D01*
X84616Y-49062D01*
X84654Y-48970D01*
X84654Y-48883D01*
X84669Y-48918D01*
X84762Y-48942D01*
X85059Y-48645D01*
X84762Y-48348D01*
X84669Y-48372D01*
X84654Y-48413D01*
X84654Y-48321D01*
X84616Y-48229D01*
X84546Y-48158D01*
X84454Y-48120D01*
X84355Y-48120D01*
X83805Y-48120D01*
X83713Y-48158D01*
X83682Y-48189D01*
X82704Y-47211D01*
X82599Y-47140D01*
X82597Y-47140D01*
X82645Y-47092D01*
X82710Y-46935D01*
X82710Y-46765D01*
X82645Y-46608D01*
X82525Y-46488D01*
X82368Y-46423D01*
X82198Y-46423D01*
X82050Y-46484D01*
X82050Y-43574D01*
X82198Y-43635D01*
X82368Y-43635D01*
X82421Y-43613D01*
X83450Y-44643D01*
X83555Y-44713D01*
X83604Y-44723D01*
X83604Y-44737D01*
X83642Y-44829D01*
X83713Y-44900D01*
X83804Y-44938D01*
X83904Y-44938D01*
X84454Y-44938D01*
X84546Y-44900D01*
X84616Y-44830D01*
X84654Y-44738D01*
X84654Y-44651D01*
X84669Y-44686D01*
X84762Y-44710D01*
X85059Y-44413D01*
X85053Y-44407D01*
X85124Y-44337D01*
X85129Y-44342D01*
X85135Y-44337D01*
X85206Y-44407D01*
X85200Y-44413D01*
X85497Y-44710D01*
X85590Y-44686D01*
X85629Y-44576D01*
X85684Y-44710D01*
X85832Y-44858D01*
X86025Y-44938D01*
X86233Y-44938D01*
X86426Y-44858D01*
X86446Y-44839D01*
X86749Y-45142D01*
X86749Y-45142D01*
X86834Y-45199D01*
G54D10*
G36*
X87026Y-43357D02*
X87018Y-43357D01*
X87018Y-43364D01*
X86918Y-43364D01*
X86918Y-43357D01*
X86911Y-43357D01*
X86911Y-43257D01*
X86918Y-43257D01*
X86918Y-43249D01*
X87018Y-43249D01*
X87018Y-43257D01*
X87026Y-43257D01*
X87026Y-43357D01*
X87026Y-43357D01*
G37*
G54D25*
X87026Y-43357D02*
X87018Y-43357D01*
X87018Y-43364D01*
X86918Y-43364D01*
X86918Y-43357D01*
X86911Y-43357D01*
X86911Y-43257D01*
X86918Y-43257D01*
X86918Y-43249D01*
X87018Y-43249D01*
X87018Y-43257D01*
X87026Y-43257D01*
X87026Y-43357D01*
G54D10*
G36*
X87026Y-56053D02*
X87018Y-56053D01*
X87018Y-56061D01*
X86918Y-56061D01*
X86918Y-56053D01*
X86911Y-56053D01*
X86911Y-55953D01*
X86918Y-55953D01*
X86918Y-55946D01*
X87018Y-55946D01*
X87018Y-55953D01*
X87026Y-55953D01*
X87026Y-56053D01*
X87026Y-56053D01*
G37*
G54D25*
X87026Y-56053D02*
X87018Y-56053D01*
X87018Y-56061D01*
X86918Y-56061D01*
X86918Y-56053D01*
X86911Y-56053D01*
X86911Y-55953D01*
X86918Y-55953D01*
X86918Y-55946D01*
X87018Y-55946D01*
X87018Y-55953D01*
X87026Y-55953D01*
X87026Y-56053D01*
G54D10*
G36*
X87206Y-57115D02*
X87135Y-57186D01*
X87129Y-57180D01*
X87124Y-57186D01*
X87053Y-57115D01*
X87059Y-57110D01*
X86762Y-56813D01*
X86669Y-56837D01*
X86630Y-56947D01*
X86575Y-56813D01*
X86427Y-56665D01*
X86234Y-56585D01*
X86141Y-56585D01*
X86180Y-56545D01*
X86218Y-56453D01*
X86218Y-56354D01*
X86218Y-56313D01*
X86268Y-56304D01*
X86373Y-56233D01*
X86418Y-56188D01*
X86418Y-56354D01*
X86418Y-56453D01*
X86457Y-56545D01*
X86527Y-56616D01*
X86619Y-56653D01*
X86856Y-56653D01*
X86832Y-56742D01*
X87129Y-57039D01*
X87135Y-57033D01*
X87206Y-57104D01*
X87200Y-57110D01*
X87206Y-57115D01*
X87206Y-57115D01*
G37*
G54D25*
X87206Y-57115D02*
X87135Y-57186D01*
X87129Y-57180D01*
X87124Y-57186D01*
X87053Y-57115D01*
X87059Y-57110D01*
X86762Y-56813D01*
X86669Y-56837D01*
X86630Y-56947D01*
X86575Y-56813D01*
X86427Y-56665D01*
X86234Y-56585D01*
X86141Y-56585D01*
X86180Y-56545D01*
X86218Y-56453D01*
X86218Y-56354D01*
X86218Y-56313D01*
X86268Y-56304D01*
X86373Y-56233D01*
X86418Y-56188D01*
X86418Y-56354D01*
X86418Y-56453D01*
X86457Y-56545D01*
X86527Y-56616D01*
X86619Y-56653D01*
X86856Y-56653D01*
X86832Y-56742D01*
X87129Y-57039D01*
X87135Y-57033D01*
X87206Y-57104D01*
X87200Y-57110D01*
X87206Y-57115D01*
G54D10*
G36*
X87290Y-53608D02*
X87234Y-53585D01*
X87025Y-53585D01*
X86832Y-53664D01*
X86685Y-53812D01*
X86629Y-53945D01*
X86575Y-53813D01*
X86427Y-53665D01*
X86234Y-53585D01*
X86064Y-53585D01*
X85954Y-53475D01*
X85954Y-53373D01*
X86025Y-53402D01*
X86233Y-53403D01*
X86426Y-53323D01*
X86574Y-53175D01*
X86627Y-53049D01*
X86669Y-53150D01*
X86762Y-53175D01*
X87059Y-52877D01*
X86762Y-52580D01*
X86669Y-52605D01*
X86630Y-52715D01*
X86575Y-52580D01*
X86427Y-52433D01*
X86234Y-52353D01*
X86025Y-52352D01*
X85832Y-52432D01*
X85807Y-52457D01*
X85673Y-52323D01*
X86018Y-52323D01*
X86110Y-52285D01*
X86180Y-52215D01*
X86218Y-52123D01*
X86218Y-52023D01*
X86218Y-51983D01*
X86268Y-51973D01*
X86373Y-51902D01*
X86418Y-51857D01*
X86418Y-52023D01*
X86418Y-52123D01*
X86457Y-52215D01*
X86527Y-52285D01*
X86619Y-52323D01*
X86856Y-52323D01*
X86918Y-52260D01*
X86918Y-51723D01*
X86911Y-51723D01*
X86911Y-51623D01*
X86918Y-51623D01*
X86918Y-51615D01*
X87018Y-51615D01*
X87018Y-51623D01*
X87026Y-51623D01*
X87026Y-51723D01*
X87018Y-51723D01*
X87018Y-52260D01*
X87081Y-52323D01*
X87290Y-52323D01*
X87290Y-52377D01*
X87205Y-52348D01*
X86997Y-52359D01*
X86857Y-52417D01*
X86832Y-52510D01*
X87129Y-52807D01*
X87135Y-52801D01*
X87206Y-52872D01*
X87200Y-52877D01*
X87206Y-52883D01*
X87135Y-52954D01*
X87129Y-52948D01*
X86832Y-53245D01*
X86857Y-53338D01*
X87054Y-53407D01*
X87262Y-53396D01*
X87290Y-53385D01*
X87290Y-53608D01*
X87290Y-53608D01*
G37*
G54D25*
X87290Y-53608D02*
X87234Y-53585D01*
X87025Y-53585D01*
X86832Y-53664D01*
X86685Y-53812D01*
X86629Y-53945D01*
X86575Y-53813D01*
X86427Y-53665D01*
X86234Y-53585D01*
X86064Y-53585D01*
X85954Y-53475D01*
X85954Y-53373D01*
X86025Y-53402D01*
X86233Y-53403D01*
X86426Y-53323D01*
X86574Y-53175D01*
X86627Y-53049D01*
X86669Y-53150D01*
X86762Y-53175D01*
X87059Y-52877D01*
X86762Y-52580D01*
X86669Y-52605D01*
X86630Y-52715D01*
X86575Y-52580D01*
X86427Y-52433D01*
X86234Y-52353D01*
X86025Y-52352D01*
X85832Y-52432D01*
X85807Y-52457D01*
X85673Y-52323D01*
X86018Y-52323D01*
X86110Y-52285D01*
X86180Y-52215D01*
X86218Y-52123D01*
X86218Y-52023D01*
X86218Y-51983D01*
X86268Y-51973D01*
X86373Y-51902D01*
X86418Y-51857D01*
X86418Y-52023D01*
X86418Y-52123D01*
X86457Y-52215D01*
X86527Y-52285D01*
X86619Y-52323D01*
X86856Y-52323D01*
X86918Y-52260D01*
X86918Y-51723D01*
X86911Y-51723D01*
X86911Y-51623D01*
X86918Y-51623D01*
X86918Y-51615D01*
X87018Y-51615D01*
X87018Y-51623D01*
X87026Y-51623D01*
X87026Y-51723D01*
X87018Y-51723D01*
X87018Y-52260D01*
X87081Y-52323D01*
X87290Y-52323D01*
X87290Y-52377D01*
X87205Y-52348D01*
X86997Y-52359D01*
X86857Y-52417D01*
X86832Y-52510D01*
X87129Y-52807D01*
X87135Y-52801D01*
X87206Y-52872D01*
X87200Y-52877D01*
X87206Y-52883D01*
X87135Y-52954D01*
X87129Y-52948D01*
X86832Y-53245D01*
X86857Y-53338D01*
X87054Y-53407D01*
X87262Y-53396D01*
X87290Y-53385D01*
X87290Y-53608D01*
G54D10*
G36*
X87449Y-48255D02*
X87427Y-48277D01*
X87402Y-48185D01*
X87205Y-48115D01*
X86997Y-48127D01*
X86857Y-48185D01*
X86832Y-48277D01*
X87129Y-48574D01*
X87135Y-48569D01*
X87206Y-48640D01*
X87200Y-48645D01*
X87206Y-48651D01*
X87135Y-48721D01*
X87129Y-48716D01*
X87124Y-48721D01*
X87053Y-48651D01*
X87059Y-48645D01*
X86762Y-48348D01*
X86669Y-48372D01*
X86630Y-48482D01*
X86575Y-48348D01*
X86427Y-48200D01*
X86234Y-48120D01*
X86025Y-48120D01*
X85891Y-48176D01*
X85859Y-48127D01*
X85859Y-48127D01*
X85822Y-48090D01*
X86018Y-48090D01*
X86110Y-48053D01*
X86180Y-47982D01*
X86218Y-47890D01*
X86218Y-47791D01*
X86218Y-47750D01*
X86268Y-47741D01*
X86373Y-47670D01*
X86418Y-47625D01*
X86418Y-47791D01*
X86418Y-47890D01*
X86457Y-47982D01*
X86527Y-48053D01*
X86619Y-48090D01*
X86856Y-48090D01*
X86918Y-48028D01*
X86918Y-47490D01*
X86911Y-47490D01*
X86911Y-47390D01*
X86918Y-47390D01*
X86918Y-47383D01*
X87018Y-47383D01*
X87018Y-47390D01*
X87026Y-47390D01*
X87026Y-47490D01*
X87018Y-47490D01*
X87018Y-48028D01*
X87081Y-48090D01*
X87318Y-48090D01*
X87410Y-48053D01*
X87449Y-48014D01*
X87449Y-48255D01*
X87449Y-48255D01*
G37*
G54D25*
X87449Y-48255D02*
X87427Y-48277D01*
X87402Y-48185D01*
X87205Y-48115D01*
X86997Y-48127D01*
X86857Y-48185D01*
X86832Y-48277D01*
X87129Y-48574D01*
X87135Y-48569D01*
X87206Y-48640D01*
X87200Y-48645D01*
X87206Y-48651D01*
X87135Y-48721D01*
X87129Y-48716D01*
X87124Y-48721D01*
X87053Y-48651D01*
X87059Y-48645D01*
X86762Y-48348D01*
X86669Y-48372D01*
X86630Y-48482D01*
X86575Y-48348D01*
X86427Y-48200D01*
X86234Y-48120D01*
X86025Y-48120D01*
X85891Y-48176D01*
X85859Y-48127D01*
X85859Y-48127D01*
X85822Y-48090D01*
X86018Y-48090D01*
X86110Y-48053D01*
X86180Y-47982D01*
X86218Y-47890D01*
X86218Y-47791D01*
X86218Y-47750D01*
X86268Y-47741D01*
X86373Y-47670D01*
X86418Y-47625D01*
X86418Y-47791D01*
X86418Y-47890D01*
X86457Y-47982D01*
X86527Y-48053D01*
X86619Y-48090D01*
X86856Y-48090D01*
X86918Y-48028D01*
X86918Y-47490D01*
X86911Y-47490D01*
X86911Y-47390D01*
X86918Y-47390D01*
X86918Y-47383D01*
X87018Y-47383D01*
X87018Y-47390D01*
X87026Y-47390D01*
X87026Y-47490D01*
X87018Y-47490D01*
X87018Y-48028D01*
X87081Y-48090D01*
X87318Y-48090D01*
X87410Y-48053D01*
X87449Y-48014D01*
X87449Y-48255D01*
G54D10*
G36*
X88648Y-45135D02*
X88196Y-44683D01*
X88091Y-44613D01*
X87967Y-44588D01*
X87624Y-44588D01*
X87659Y-44489D01*
X87648Y-44280D01*
X87590Y-44140D01*
X87497Y-44116D01*
X87200Y-44413D01*
X87206Y-44418D01*
X87135Y-44489D01*
X87129Y-44484D01*
X87124Y-44489D01*
X87053Y-44418D01*
X87059Y-44413D01*
X87053Y-44407D01*
X87124Y-44337D01*
X87129Y-44342D01*
X87427Y-44045D01*
X87402Y-43952D01*
X87362Y-43938D01*
X87410Y-43919D01*
X87480Y-43848D01*
X87518Y-43757D01*
X87518Y-43657D01*
X87518Y-43419D01*
X87456Y-43357D01*
X87518Y-43357D01*
X87518Y-43350D01*
X87805Y-43637D01*
X87805Y-43718D01*
X87830Y-43842D01*
X87900Y-43948D01*
X88648Y-44696D01*
X88648Y-45135D01*
X88648Y-45135D01*
G37*
G54D25*
X88648Y-45135D02*
X88196Y-44683D01*
X88091Y-44613D01*
X87967Y-44588D01*
X87624Y-44588D01*
X87659Y-44489D01*
X87648Y-44280D01*
X87590Y-44140D01*
X87497Y-44116D01*
X87200Y-44413D01*
X87206Y-44418D01*
X87135Y-44489D01*
X87129Y-44484D01*
X87124Y-44489D01*
X87053Y-44418D01*
X87059Y-44413D01*
X87053Y-44407D01*
X87124Y-44337D01*
X87129Y-44342D01*
X87427Y-44045D01*
X87402Y-43952D01*
X87362Y-43938D01*
X87410Y-43919D01*
X87480Y-43848D01*
X87518Y-43757D01*
X87518Y-43657D01*
X87518Y-43419D01*
X87456Y-43357D01*
X87518Y-43357D01*
X87518Y-43350D01*
X87805Y-43637D01*
X87805Y-43718D01*
X87830Y-43842D01*
X87900Y-43948D01*
X88648Y-44696D01*
X88648Y-45135D01*
G54D10*
G36*
X91297Y-58012D02*
X91196Y-58054D01*
X91121Y-58128D01*
X91097Y-58071D01*
X91027Y-58001D01*
X90935Y-57963D01*
X90835Y-57962D01*
X90647Y-57962D01*
X90585Y-58025D01*
X90585Y-58512D01*
X90593Y-58512D01*
X90593Y-58612D01*
X90585Y-58612D01*
X90585Y-58620D01*
X90485Y-58620D01*
X90485Y-58612D01*
X90477Y-58612D01*
X90477Y-58512D01*
X90485Y-58512D01*
X90485Y-58025D01*
X90422Y-57962D01*
X90234Y-57962D01*
X90135Y-57963D01*
X90043Y-58001D01*
X90020Y-58024D01*
X90020Y-57671D01*
X90020Y-57434D01*
X89957Y-57372D01*
X89420Y-57372D01*
X89420Y-57809D01*
X89482Y-57872D01*
X89720Y-57872D01*
X89820Y-57872D01*
X89911Y-57834D01*
X89982Y-57763D01*
X90020Y-57671D01*
X90020Y-58024D01*
X89973Y-58071D01*
X89943Y-58142D01*
X89911Y-58110D01*
X89820Y-58072D01*
X89720Y-58072D01*
X89320Y-58072D01*
X89320Y-57809D01*
X89320Y-57372D01*
X88782Y-57372D01*
X88720Y-57434D01*
X88720Y-57671D01*
X88758Y-57763D01*
X88828Y-57834D01*
X88920Y-57872D01*
X89019Y-57872D01*
X89257Y-57872D01*
X89320Y-57809D01*
X89320Y-58072D01*
X88920Y-58072D01*
X88828Y-58110D01*
X88763Y-58175D01*
X88643Y-58054D01*
X88423Y-57963D01*
X88295Y-57962D01*
X88295Y-57518D01*
X88409Y-57518D01*
X88565Y-57453D01*
X88685Y-57334D01*
X88731Y-57221D01*
X88782Y-57272D01*
X89320Y-57272D01*
X89320Y-57264D01*
X89420Y-57264D01*
X89420Y-57272D01*
X89957Y-57272D01*
X90020Y-57209D01*
X90020Y-57006D01*
X90091Y-57006D01*
X90216Y-56981D01*
X90321Y-56911D01*
X91297Y-55935D01*
X91297Y-58012D01*
X91297Y-58012D01*
G37*
G54D25*
X91297Y-58012D02*
X91196Y-58054D01*
X91121Y-58128D01*
X91097Y-58071D01*
X91027Y-58001D01*
X90935Y-57963D01*
X90835Y-57962D01*
X90647Y-57962D01*
X90585Y-58025D01*
X90585Y-58512D01*
X90593Y-58512D01*
X90593Y-58612D01*
X90585Y-58612D01*
X90585Y-58620D01*
X90485Y-58620D01*
X90485Y-58612D01*
X90477Y-58612D01*
X90477Y-58512D01*
X90485Y-58512D01*
X90485Y-58025D01*
X90422Y-57962D01*
X90234Y-57962D01*
X90135Y-57963D01*
X90043Y-58001D01*
X90020Y-58024D01*
X90020Y-57671D01*
X90020Y-57434D01*
X89957Y-57372D01*
X89420Y-57372D01*
X89420Y-57809D01*
X89482Y-57872D01*
X89720Y-57872D01*
X89820Y-57872D01*
X89911Y-57834D01*
X89982Y-57763D01*
X90020Y-57671D01*
X90020Y-58024D01*
X89973Y-58071D01*
X89943Y-58142D01*
X89911Y-58110D01*
X89820Y-58072D01*
X89720Y-58072D01*
X89320Y-58072D01*
X89320Y-57809D01*
X89320Y-57372D01*
X88782Y-57372D01*
X88720Y-57434D01*
X88720Y-57671D01*
X88758Y-57763D01*
X88828Y-57834D01*
X88920Y-57872D01*
X89019Y-57872D01*
X89257Y-57872D01*
X89320Y-57809D01*
X89320Y-58072D01*
X88920Y-58072D01*
X88828Y-58110D01*
X88763Y-58175D01*
X88643Y-58054D01*
X88423Y-57963D01*
X88295Y-57962D01*
X88295Y-57518D01*
X88409Y-57518D01*
X88565Y-57453D01*
X88685Y-57334D01*
X88731Y-57221D01*
X88782Y-57272D01*
X89320Y-57272D01*
X89320Y-57264D01*
X89420Y-57264D01*
X89420Y-57272D01*
X89957Y-57272D01*
X90020Y-57209D01*
X90020Y-57006D01*
X90091Y-57006D01*
X90216Y-56981D01*
X90321Y-56911D01*
X91297Y-55935D01*
X91297Y-58012D01*
G54D10*
G36*
X92572Y-49415D02*
X92501Y-49485D01*
X92496Y-49480D01*
X92490Y-49485D01*
X92419Y-49415D01*
X92425Y-49409D01*
X92419Y-49403D01*
X92490Y-49333D01*
X92496Y-49338D01*
X92501Y-49333D01*
X92572Y-49403D01*
X92566Y-49409D01*
X92572Y-49415D01*
X92572Y-49415D01*
G37*
G54D25*
X92572Y-49415D02*
X92501Y-49485D01*
X92496Y-49480D01*
X92490Y-49485D01*
X92419Y-49415D01*
X92425Y-49409D01*
X92419Y-49403D01*
X92490Y-49333D01*
X92496Y-49338D01*
X92501Y-49333D01*
X92572Y-49403D01*
X92566Y-49409D01*
X92572Y-49415D01*
G54D10*
G36*
X94717Y-58025D02*
X94655Y-57962D01*
X94467Y-57962D01*
X94367Y-57963D01*
X94275Y-58001D01*
X94205Y-58071D01*
X94176Y-58142D01*
X94144Y-58110D01*
X94052Y-58072D01*
X93952Y-58072D01*
X93552Y-58072D01*
X93552Y-57809D01*
X93552Y-57372D01*
X93552Y-57272D01*
X93552Y-56834D01*
X93489Y-56772D01*
X93251Y-56772D01*
X93152Y-56772D01*
X93060Y-56810D01*
X92990Y-56881D01*
X92952Y-56972D01*
X92952Y-57209D01*
X93014Y-57272D01*
X93552Y-57272D01*
X93552Y-57372D01*
X93014Y-57372D01*
X92952Y-57434D01*
X92952Y-57671D01*
X92990Y-57763D01*
X93060Y-57834D01*
X93152Y-57872D01*
X93251Y-57872D01*
X93489Y-57872D01*
X93552Y-57809D01*
X93552Y-58072D01*
X93152Y-58072D01*
X93060Y-58110D01*
X92996Y-58175D01*
X92875Y-58054D01*
X92755Y-58004D01*
X92755Y-55854D01*
X92809Y-55909D01*
X93195Y-56069D01*
X93613Y-56069D01*
X93999Y-55910D01*
X94119Y-55790D01*
X94119Y-56800D01*
X94052Y-56772D01*
X93952Y-56772D01*
X93714Y-56772D01*
X93652Y-56834D01*
X93652Y-57272D01*
X93660Y-57272D01*
X93660Y-57372D01*
X93652Y-57372D01*
X93652Y-57809D01*
X93714Y-57872D01*
X93952Y-57872D01*
X94052Y-57872D01*
X94144Y-57834D01*
X94214Y-57763D01*
X94252Y-57671D01*
X94252Y-57647D01*
X94420Y-57815D01*
X94525Y-57885D01*
X94649Y-57910D01*
X94655Y-57910D01*
X94717Y-57972D01*
X94717Y-58025D01*
X94717Y-58025D01*
G37*
G54D25*
X94717Y-58025D02*
X94655Y-57962D01*
X94467Y-57962D01*
X94367Y-57963D01*
X94275Y-58001D01*
X94205Y-58071D01*
X94176Y-58142D01*
X94144Y-58110D01*
X94052Y-58072D01*
X93952Y-58072D01*
X93552Y-58072D01*
X93552Y-57809D01*
X93552Y-57372D01*
X93552Y-57272D01*
X93552Y-56834D01*
X93489Y-56772D01*
X93251Y-56772D01*
X93152Y-56772D01*
X93060Y-56810D01*
X92990Y-56881D01*
X92952Y-56972D01*
X92952Y-57209D01*
X93014Y-57272D01*
X93552Y-57272D01*
X93552Y-57372D01*
X93014Y-57372D01*
X92952Y-57434D01*
X92952Y-57671D01*
X92990Y-57763D01*
X93060Y-57834D01*
X93152Y-57872D01*
X93251Y-57872D01*
X93489Y-57872D01*
X93552Y-57809D01*
X93552Y-58072D01*
X93152Y-58072D01*
X93060Y-58110D01*
X92996Y-58175D01*
X92875Y-58054D01*
X92755Y-58004D01*
X92755Y-55854D01*
X92809Y-55909D01*
X93195Y-56069D01*
X93613Y-56069D01*
X93999Y-55910D01*
X94119Y-55790D01*
X94119Y-56800D01*
X94052Y-56772D01*
X93952Y-56772D01*
X93714Y-56772D01*
X93652Y-56834D01*
X93652Y-57272D01*
X93660Y-57272D01*
X93660Y-57372D01*
X93652Y-57372D01*
X93652Y-57809D01*
X93714Y-57872D01*
X93952Y-57872D01*
X94052Y-57872D01*
X94144Y-57834D01*
X94214Y-57763D01*
X94252Y-57671D01*
X94252Y-57647D01*
X94420Y-57815D01*
X94525Y-57885D01*
X94649Y-57910D01*
X94655Y-57910D01*
X94717Y-57972D01*
X94717Y-58025D01*
G54D10*
G36*
X94825Y-58612D02*
X94817Y-58612D01*
X94817Y-58620D01*
X94717Y-58620D01*
X94717Y-58612D01*
X94709Y-58612D01*
X94709Y-58512D01*
X94717Y-58512D01*
X94717Y-58505D01*
X94817Y-58505D01*
X94817Y-58512D01*
X94825Y-58512D01*
X94825Y-58612D01*
X94825Y-58612D01*
G37*
G54D25*
X94825Y-58612D02*
X94817Y-58612D01*
X94817Y-58620D01*
X94717Y-58620D01*
X94717Y-58612D01*
X94709Y-58612D01*
X94709Y-58512D01*
X94717Y-58512D01*
X94717Y-58505D01*
X94817Y-58505D01*
X94817Y-58512D01*
X94825Y-58512D01*
X94825Y-58612D01*
G54D10*
G36*
X96729Y-54131D02*
X96659Y-54202D01*
X96653Y-54196D01*
X96647Y-54202D01*
X96577Y-54131D01*
X96582Y-54125D01*
X96577Y-54120D01*
X96647Y-54049D01*
X96653Y-54055D01*
X96659Y-54049D01*
X96729Y-54120D01*
X96724Y-54125D01*
X96729Y-54131D01*
X96729Y-54131D01*
G37*
G54D25*
X96729Y-54131D02*
X96659Y-54202D01*
X96653Y-54196D01*
X96647Y-54202D01*
X96577Y-54131D01*
X96582Y-54125D01*
X96577Y-54120D01*
X96647Y-54049D01*
X96653Y-54055D01*
X96659Y-54049D01*
X96729Y-54120D01*
X96724Y-54125D01*
X96729Y-54131D01*
G54D10*
G36*
X97926Y-56304D02*
X97855Y-56375D01*
X97850Y-56369D01*
X97844Y-56375D01*
X97774Y-56304D01*
X97779Y-56299D01*
X97774Y-56293D01*
X97844Y-56222D01*
X97850Y-56228D01*
X97855Y-56222D01*
X97926Y-56293D01*
X97921Y-56299D01*
X97926Y-56304D01*
X97926Y-56304D01*
G37*
G54D25*
X97926Y-56304D02*
X97855Y-56375D01*
X97850Y-56369D01*
X97844Y-56375D01*
X97774Y-56304D01*
X97779Y-56299D01*
X97774Y-56293D01*
X97844Y-56222D01*
X97850Y-56228D01*
X97855Y-56222D01*
X97926Y-56293D01*
X97921Y-56299D01*
X97926Y-56304D01*
G54D10*
G36*
X98155Y-40633D02*
X98132Y-40610D01*
X97939Y-40530D01*
X97730Y-40530D01*
X97537Y-40609D01*
X97389Y-40757D01*
X97309Y-40950D01*
X97309Y-41120D01*
X97113Y-41317D01*
X97178Y-41160D01*
X97178Y-40951D01*
X97098Y-40758D01*
X96951Y-40610D01*
X96758Y-40530D01*
X96549Y-40530D01*
X96356Y-40609D01*
X96208Y-40757D01*
X96128Y-40950D01*
X96128Y-41159D01*
X96208Y-41352D01*
X96355Y-41499D01*
X96488Y-41555D01*
X96356Y-41609D01*
X96208Y-41757D01*
X96128Y-41950D01*
X96128Y-42159D01*
X96208Y-42352D01*
X96229Y-42373D01*
X96056Y-42546D01*
X96056Y-40328D01*
X95759Y-40031D01*
X95689Y-40102D01*
X95462Y-40328D01*
X95487Y-40421D01*
X95684Y-40490D01*
X95892Y-40479D01*
X96032Y-40421D01*
X96056Y-40328D01*
X96056Y-42546D01*
X95482Y-43120D01*
X95449Y-43071D01*
X95449Y-43071D01*
X95335Y-42957D01*
X95335Y-42928D01*
X95335Y-42328D01*
X95297Y-42236D01*
X95226Y-42165D01*
X95134Y-42127D01*
X95035Y-42127D01*
X94235Y-42127D01*
X94143Y-42165D01*
X94073Y-42235D01*
X94035Y-42327D01*
X94034Y-42427D01*
X94034Y-42964D01*
X93951Y-42908D01*
X93916Y-42901D01*
X93916Y-42730D01*
X93854Y-42668D01*
X93416Y-42668D01*
X93416Y-42675D01*
X93316Y-42675D01*
X93316Y-42668D01*
X93308Y-42668D01*
X93308Y-42568D01*
X93316Y-42568D01*
X93316Y-42030D01*
X93254Y-41968D01*
X93017Y-41968D01*
X92925Y-42006D01*
X92854Y-42076D01*
X92816Y-42168D01*
X92816Y-42267D01*
X92816Y-42456D01*
X92771Y-42388D01*
X92665Y-42318D01*
X92628Y-42310D01*
X92628Y-41869D01*
X93069Y-41429D01*
X93069Y-41548D01*
X93149Y-41741D01*
X93296Y-41889D01*
X93485Y-41968D01*
X93479Y-41968D01*
X93416Y-42030D01*
X93416Y-42568D01*
X93854Y-42568D01*
X93916Y-42505D01*
X93916Y-42267D01*
X93916Y-42168D01*
X93878Y-42076D01*
X93807Y-42006D01*
X93716Y-41968D01*
X93703Y-41968D01*
X93891Y-41890D01*
X94039Y-41742D01*
X94040Y-41740D01*
X94072Y-41818D01*
X94143Y-41889D01*
X94235Y-41927D01*
X94334Y-41927D01*
X95134Y-41927D01*
X95226Y-41889D01*
X95296Y-41819D01*
X95334Y-41727D01*
X95335Y-41628D01*
X95335Y-41028D01*
X95297Y-40936D01*
X95226Y-40865D01*
X95134Y-40827D01*
X95095Y-40827D01*
X95119Y-40769D01*
X95119Y-40670D01*
X95119Y-40120D01*
X95081Y-40028D01*
X95011Y-39958D01*
X94919Y-39919D01*
X94819Y-39919D01*
X94269Y-39919D01*
X94178Y-39957D01*
X94107Y-40028D01*
X94069Y-40119D01*
X94069Y-40219D01*
X94069Y-40219D01*
X94039Y-40147D01*
X93892Y-40000D01*
X93699Y-39919D01*
X93490Y-39919D01*
X93297Y-39999D01*
X93149Y-40147D01*
X93069Y-40339D01*
X93069Y-40510D01*
X92074Y-41505D01*
X92003Y-41611D01*
X91979Y-41735D01*
X91979Y-41968D01*
X91717Y-41968D01*
X91625Y-42006D01*
X91554Y-42076D01*
X91516Y-42168D01*
X91516Y-42267D01*
X91516Y-42366D01*
X91501Y-42289D01*
X91501Y-42289D01*
X91430Y-42184D01*
X91430Y-42184D01*
X90946Y-41699D01*
X91054Y-41699D01*
X91440Y-41540D01*
X91736Y-41245D01*
X91896Y-40859D01*
X91896Y-40441D01*
X91737Y-40055D01*
X91442Y-39759D01*
X91152Y-39639D01*
X95368Y-39639D01*
X95392Y-39663D01*
X95299Y-39687D01*
X95229Y-39884D01*
X95241Y-40093D01*
X95299Y-40233D01*
X95392Y-40257D01*
X95689Y-39960D01*
X95683Y-39955D01*
X95754Y-39884D01*
X95759Y-39889D01*
X95765Y-39884D01*
X95836Y-39955D01*
X95830Y-39960D01*
X96127Y-40257D01*
X96220Y-40233D01*
X96234Y-40192D01*
X96234Y-40285D01*
X96272Y-40377D01*
X96343Y-40447D01*
X96434Y-40485D01*
X96534Y-40485D01*
X97084Y-40485D01*
X97176Y-40447D01*
X97246Y-40377D01*
X97284Y-40285D01*
X97284Y-40186D01*
X97284Y-39639D01*
X97309Y-39639D01*
X97309Y-39735D01*
X97309Y-40285D01*
X97347Y-40377D01*
X97417Y-40447D01*
X97509Y-40485D01*
X97609Y-40485D01*
X98155Y-40485D01*
X98155Y-40633D01*
X98155Y-40633D01*
G37*
G54D25*
X98155Y-40633D02*
X98132Y-40610D01*
X97939Y-40530D01*
X97730Y-40530D01*
X97537Y-40609D01*
X97389Y-40757D01*
X97309Y-40950D01*
X97309Y-41120D01*
X97113Y-41317D01*
X97178Y-41160D01*
X97178Y-40951D01*
X97098Y-40758D01*
X96951Y-40610D01*
X96758Y-40530D01*
X96549Y-40530D01*
X96356Y-40609D01*
X96208Y-40757D01*
X96128Y-40950D01*
X96128Y-41159D01*
X96208Y-41352D01*
X96355Y-41499D01*
X96488Y-41555D01*
X96356Y-41609D01*
X96208Y-41757D01*
X96128Y-41950D01*
X96128Y-42159D01*
X96208Y-42352D01*
X96229Y-42373D01*
X96056Y-42546D01*
X96056Y-40328D01*
X95759Y-40031D01*
X95689Y-40102D01*
X95462Y-40328D01*
X95487Y-40421D01*
X95684Y-40490D01*
X95892Y-40479D01*
X96032Y-40421D01*
X96056Y-40328D01*
X96056Y-42546D01*
X95482Y-43120D01*
X95449Y-43071D01*
X95449Y-43071D01*
X95335Y-42957D01*
X95335Y-42928D01*
X95335Y-42328D01*
X95297Y-42236D01*
X95226Y-42165D01*
X95134Y-42127D01*
X95035Y-42127D01*
X94235Y-42127D01*
X94143Y-42165D01*
X94073Y-42235D01*
X94035Y-42327D01*
X94034Y-42427D01*
X94034Y-42964D01*
X93951Y-42908D01*
X93916Y-42901D01*
X93916Y-42730D01*
X93854Y-42668D01*
X93416Y-42668D01*
X93416Y-42675D01*
X93316Y-42675D01*
X93316Y-42668D01*
X93308Y-42668D01*
X93308Y-42568D01*
X93316Y-42568D01*
X93316Y-42030D01*
X93254Y-41968D01*
X93017Y-41968D01*
X92925Y-42006D01*
X92854Y-42076D01*
X92816Y-42168D01*
X92816Y-42267D01*
X92816Y-42456D01*
X92771Y-42388D01*
X92665Y-42318D01*
X92628Y-42310D01*
X92628Y-41869D01*
X93069Y-41429D01*
X93069Y-41548D01*
X93149Y-41741D01*
X93296Y-41889D01*
X93485Y-41968D01*
X93479Y-41968D01*
X93416Y-42030D01*
X93416Y-42568D01*
X93854Y-42568D01*
X93916Y-42505D01*
X93916Y-42267D01*
X93916Y-42168D01*
X93878Y-42076D01*
X93807Y-42006D01*
X93716Y-41968D01*
X93703Y-41968D01*
X93891Y-41890D01*
X94039Y-41742D01*
X94040Y-41740D01*
X94072Y-41818D01*
X94143Y-41889D01*
X94235Y-41927D01*
X94334Y-41927D01*
X95134Y-41927D01*
X95226Y-41889D01*
X95296Y-41819D01*
X95334Y-41727D01*
X95335Y-41628D01*
X95335Y-41028D01*
X95297Y-40936D01*
X95226Y-40865D01*
X95134Y-40827D01*
X95095Y-40827D01*
X95119Y-40769D01*
X95119Y-40670D01*
X95119Y-40120D01*
X95081Y-40028D01*
X95011Y-39958D01*
X94919Y-39919D01*
X94819Y-39919D01*
X94269Y-39919D01*
X94178Y-39957D01*
X94107Y-40028D01*
X94069Y-40119D01*
X94069Y-40219D01*
X94069Y-40219D01*
X94039Y-40147D01*
X93892Y-40000D01*
X93699Y-39919D01*
X93490Y-39919D01*
X93297Y-39999D01*
X93149Y-40147D01*
X93069Y-40339D01*
X93069Y-40510D01*
X92074Y-41505D01*
X92003Y-41611D01*
X91979Y-41735D01*
X91979Y-41968D01*
X91717Y-41968D01*
X91625Y-42006D01*
X91554Y-42076D01*
X91516Y-42168D01*
X91516Y-42267D01*
X91516Y-42366D01*
X91501Y-42289D01*
X91501Y-42289D01*
X91430Y-42184D01*
X91430Y-42184D01*
X90946Y-41699D01*
X91054Y-41699D01*
X91440Y-41540D01*
X91736Y-41245D01*
X91896Y-40859D01*
X91896Y-40441D01*
X91737Y-40055D01*
X91442Y-39759D01*
X91152Y-39639D01*
X95368Y-39639D01*
X95392Y-39663D01*
X95299Y-39687D01*
X95229Y-39884D01*
X95241Y-40093D01*
X95299Y-40233D01*
X95392Y-40257D01*
X95689Y-39960D01*
X95683Y-39955D01*
X95754Y-39884D01*
X95759Y-39889D01*
X95765Y-39884D01*
X95836Y-39955D01*
X95830Y-39960D01*
X96127Y-40257D01*
X96220Y-40233D01*
X96234Y-40192D01*
X96234Y-40285D01*
X96272Y-40377D01*
X96343Y-40447D01*
X96434Y-40485D01*
X96534Y-40485D01*
X97084Y-40485D01*
X97176Y-40447D01*
X97246Y-40377D01*
X97284Y-40285D01*
X97284Y-40186D01*
X97284Y-39639D01*
X97309Y-39639D01*
X97309Y-39735D01*
X97309Y-40285D01*
X97347Y-40377D01*
X97417Y-40447D01*
X97509Y-40485D01*
X97609Y-40485D01*
X98155Y-40485D01*
X98155Y-40633D01*
G54D10*
G36*
X98155Y-58072D02*
X97784Y-58072D01*
X97784Y-57809D01*
X97784Y-57372D01*
X97247Y-57372D01*
X97184Y-57434D01*
X97184Y-57671D01*
X97222Y-57763D01*
X97292Y-57834D01*
X97384Y-57872D01*
X97484Y-57872D01*
X97722Y-57872D01*
X97784Y-57809D01*
X97784Y-58072D01*
X97385Y-58072D01*
X97293Y-58110D01*
X97228Y-58175D01*
X97108Y-58054D01*
X96887Y-57963D01*
X96648Y-57962D01*
X96633Y-57969D01*
X95461Y-56797D01*
X95525Y-56824D01*
X95624Y-56824D01*
X96174Y-56824D01*
X96266Y-56786D01*
X96337Y-56716D01*
X96375Y-56624D01*
X96375Y-56524D01*
X96375Y-56524D01*
X96405Y-56596D01*
X96467Y-56658D01*
X96350Y-56775D01*
X96285Y-56931D01*
X96285Y-57100D01*
X96350Y-57257D01*
X96469Y-57376D01*
X96625Y-57441D01*
X96794Y-57441D01*
X96951Y-57377D01*
X97070Y-57257D01*
X97117Y-57144D01*
X97184Y-57077D01*
X97184Y-57209D01*
X97247Y-57272D01*
X97784Y-57272D01*
X97784Y-57264D01*
X97884Y-57264D01*
X97884Y-57272D01*
X97892Y-57272D01*
X97892Y-57372D01*
X97884Y-57372D01*
X97884Y-57809D01*
X97947Y-57872D01*
X98155Y-57872D01*
X98155Y-58072D01*
X98155Y-58072D01*
G37*
G54D25*
X98155Y-58072D02*
X97784Y-58072D01*
X97784Y-57809D01*
X97784Y-57372D01*
X97247Y-57372D01*
X97184Y-57434D01*
X97184Y-57671D01*
X97222Y-57763D01*
X97292Y-57834D01*
X97384Y-57872D01*
X97484Y-57872D01*
X97722Y-57872D01*
X97784Y-57809D01*
X97784Y-58072D01*
X97385Y-58072D01*
X97293Y-58110D01*
X97228Y-58175D01*
X97108Y-58054D01*
X96887Y-57963D01*
X96648Y-57962D01*
X96633Y-57969D01*
X95461Y-56797D01*
X95525Y-56824D01*
X95624Y-56824D01*
X96174Y-56824D01*
X96266Y-56786D01*
X96337Y-56716D01*
X96375Y-56624D01*
X96375Y-56524D01*
X96375Y-56524D01*
X96405Y-56596D01*
X96467Y-56658D01*
X96350Y-56775D01*
X96285Y-56931D01*
X96285Y-57100D01*
X96350Y-57257D01*
X96469Y-57376D01*
X96625Y-57441D01*
X96794Y-57441D01*
X96951Y-57377D01*
X97070Y-57257D01*
X97117Y-57144D01*
X97184Y-57077D01*
X97184Y-57209D01*
X97247Y-57272D01*
X97784Y-57272D01*
X97784Y-57264D01*
X97884Y-57264D01*
X97884Y-57272D01*
X97892Y-57272D01*
X97892Y-57372D01*
X97884Y-57372D01*
X97884Y-57809D01*
X97947Y-57872D01*
X98155Y-57872D01*
X98155Y-58072D01*
M02*
