G04 (created by PCBNEW (2013-07-07 BZR 4022)-stable) date 4/3/2014 12:54:25 PM*
%MOIN*%
G04 Gerber Fmt 3.4, Leading zero omitted, Abs format*
%FSLAX34Y34*%
G01*
G70*
G90*
G04 APERTURE LIST*
%ADD10C,0.00590551*%
%ADD11R,0.055X0.055*%
%ADD12C,0.055*%
%ADD13R,0.35X0.35*%
%ADD14C,0.07*%
%ADD15R,0.07X0.07*%
%ADD16C,0.0354331*%
%ADD17C,0.0590551*%
%ADD18C,0.16*%
%ADD19C,0.0708661*%
%ADD20C,0.035*%
%ADD21C,0.0149606*%
%ADD22C,0.01*%
G04 APERTURE END LIST*
G54D10*
G54D11*
X94594Y-40444D03*
G54D12*
X93594Y-40444D03*
X93594Y-41444D03*
G54D13*
X83070Y-65062D03*
G54D14*
X84070Y-58562D03*
X83070Y-58562D03*
G54D15*
X82070Y-58562D03*
G54D13*
X95767Y-65062D03*
G54D14*
X96767Y-58562D03*
X95767Y-58562D03*
G54D15*
X94767Y-58562D03*
G54D13*
X53047Y-45078D03*
G54D14*
X59547Y-46078D03*
X59547Y-45078D03*
G54D15*
X59547Y-44078D03*
G54D13*
X70374Y-65062D03*
G54D14*
X71374Y-58562D03*
X70374Y-58562D03*
G54D15*
X69374Y-58562D03*
G54D13*
X53047Y-49311D03*
G54D14*
X59547Y-50311D03*
X59547Y-49311D03*
G54D15*
X59547Y-48311D03*
G54D13*
X74606Y-65062D03*
G54D14*
X75606Y-58562D03*
X74606Y-58562D03*
G54D15*
X73606Y-58562D03*
G54D13*
X91535Y-65062D03*
G54D14*
X92535Y-58562D03*
X91535Y-58562D03*
G54D15*
X90535Y-58562D03*
G54D13*
X53047Y-53543D03*
G54D14*
X59547Y-54543D03*
X59547Y-53543D03*
G54D15*
X59547Y-52543D03*
G54D13*
X53047Y-40846D03*
G54D14*
X59547Y-41846D03*
X59547Y-40846D03*
G54D15*
X59547Y-39846D03*
G54D13*
X78838Y-65062D03*
G54D14*
X79838Y-58562D03*
X78838Y-58562D03*
G54D15*
X77838Y-58562D03*
G54D13*
X87303Y-65062D03*
G54D14*
X88303Y-58562D03*
X87303Y-58562D03*
G54D15*
X86303Y-58562D03*
G54D13*
X66141Y-65062D03*
G54D14*
X67141Y-58562D03*
X66141Y-58562D03*
G54D15*
X65141Y-58562D03*
X59531Y-58562D03*
G54D14*
X61531Y-58562D03*
X60531Y-58562D03*
G54D13*
X60531Y-65062D03*
G54D11*
X97834Y-53133D03*
G54D12*
X97834Y-54133D03*
X97834Y-55133D03*
G54D11*
X67118Y-39960D03*
G54D12*
X68118Y-39960D03*
G54D11*
X77944Y-39960D03*
G54D12*
X78944Y-39960D03*
G54D11*
X62787Y-39960D03*
G54D12*
X63787Y-39960D03*
G54D11*
X69283Y-39960D03*
G54D12*
X70283Y-39960D03*
G54D11*
X82275Y-39960D03*
G54D12*
X83275Y-39960D03*
G54D11*
X64952Y-39960D03*
G54D12*
X65952Y-39960D03*
G54D11*
X80110Y-39960D03*
G54D12*
X81110Y-39960D03*
G54D11*
X71448Y-39960D03*
G54D12*
X72448Y-39960D03*
G54D11*
X96759Y-39960D03*
G54D12*
X95759Y-39960D03*
G54D11*
X96653Y-55125D03*
G54D12*
X96653Y-54125D03*
G54D11*
X75779Y-39960D03*
G54D12*
X76779Y-39960D03*
G54D11*
X84440Y-39960D03*
G54D12*
X85440Y-39960D03*
G54D11*
X60622Y-39960D03*
G54D12*
X61622Y-39960D03*
G54D11*
X73614Y-39960D03*
G54D12*
X74614Y-39960D03*
G54D11*
X59645Y-57192D03*
G54D12*
X59645Y-56192D03*
G54D11*
X96653Y-52055D03*
G54D12*
X96653Y-51055D03*
X96653Y-50055D03*
X96653Y-49055D03*
X96653Y-48055D03*
X96653Y-47055D03*
X96653Y-46055D03*
X96653Y-45055D03*
X96653Y-44055D03*
X96653Y-43055D03*
X96653Y-42055D03*
X96653Y-41055D03*
G54D11*
X97834Y-52055D03*
G54D12*
X97834Y-51055D03*
X97834Y-50055D03*
X97834Y-49055D03*
X97834Y-48055D03*
X97834Y-47055D03*
X97834Y-46055D03*
X97834Y-45055D03*
X97834Y-44055D03*
X97834Y-43055D03*
X97834Y-42055D03*
X97834Y-41055D03*
G54D11*
X97834Y-39960D03*
X84129Y-48645D03*
G54D12*
X85129Y-48645D03*
X86129Y-48645D03*
X87129Y-48645D03*
X87129Y-45645D03*
X86129Y-45645D03*
X85129Y-45645D03*
X84129Y-45645D03*
G54D11*
X74681Y-44413D03*
G54D12*
X75681Y-44413D03*
X76681Y-44413D03*
X77681Y-44413D03*
X77681Y-41413D03*
X76681Y-41413D03*
X75681Y-41413D03*
X74681Y-41413D03*
G54D11*
X74681Y-52877D03*
G54D12*
X75681Y-52877D03*
X76681Y-52877D03*
X77681Y-52877D03*
X77681Y-49877D03*
X76681Y-49877D03*
X75681Y-49877D03*
X74681Y-49877D03*
G54D11*
X84129Y-52877D03*
G54D12*
X85129Y-52877D03*
X86129Y-52877D03*
X87129Y-52877D03*
X87129Y-49877D03*
X86129Y-49877D03*
X85129Y-49877D03*
X84129Y-49877D03*
G54D11*
X84129Y-44413D03*
G54D12*
X85129Y-44413D03*
X86129Y-44413D03*
X87129Y-44413D03*
X87129Y-41413D03*
X86129Y-41413D03*
X85129Y-41413D03*
X84129Y-41413D03*
G54D11*
X84129Y-57110D03*
G54D12*
X85129Y-57110D03*
X86129Y-57110D03*
X87129Y-57110D03*
X87129Y-54110D03*
X86129Y-54110D03*
X85129Y-54110D03*
X84129Y-54110D03*
G54D11*
X65232Y-57110D03*
G54D12*
X66232Y-57110D03*
X67232Y-57110D03*
X68232Y-57110D03*
X68232Y-54110D03*
X67232Y-54110D03*
X66232Y-54110D03*
X65232Y-54110D03*
G54D11*
X74681Y-48645D03*
G54D12*
X75681Y-48645D03*
X76681Y-48645D03*
X77681Y-48645D03*
X77681Y-45645D03*
X76681Y-45645D03*
X75681Y-45645D03*
X74681Y-45645D03*
G54D11*
X65232Y-52877D03*
G54D12*
X66232Y-52877D03*
X67232Y-52877D03*
X68232Y-52877D03*
X68232Y-49877D03*
X67232Y-49877D03*
X66232Y-49877D03*
X65232Y-49877D03*
G54D11*
X65232Y-48645D03*
G54D12*
X66232Y-48645D03*
X67232Y-48645D03*
X68232Y-48645D03*
X68232Y-45645D03*
X67232Y-45645D03*
X66232Y-45645D03*
X65232Y-45645D03*
G54D11*
X65232Y-44413D03*
G54D12*
X66232Y-44413D03*
X67232Y-44413D03*
X68232Y-44413D03*
X68232Y-41413D03*
X67232Y-41413D03*
X66232Y-41413D03*
X65232Y-41413D03*
G54D11*
X74681Y-57110D03*
G54D12*
X75681Y-57110D03*
X76681Y-57110D03*
X77681Y-57110D03*
X77681Y-54110D03*
X76681Y-54110D03*
X75681Y-54110D03*
X74681Y-54110D03*
G54D16*
X63385Y-51673D03*
X63385Y-51082D03*
X63385Y-55905D03*
X63385Y-55314D03*
X82283Y-43208D03*
X82283Y-42618D03*
X82283Y-47440D03*
X82283Y-46850D03*
X72834Y-43208D03*
X72834Y-42618D03*
X72834Y-51673D03*
X72834Y-51082D03*
X63385Y-47440D03*
X63385Y-46850D03*
X72834Y-47440D03*
X72834Y-46850D03*
X82283Y-51673D03*
X82283Y-51082D03*
X63385Y-57972D03*
X63385Y-57381D03*
X72834Y-55905D03*
X72834Y-55314D03*
X63385Y-43208D03*
X63385Y-42618D03*
X82283Y-55905D03*
X82283Y-55314D03*
G54D17*
X61318Y-56889D03*
X61318Y-56102D03*
X80019Y-46653D03*
X80019Y-47637D03*
X89468Y-42421D03*
X89468Y-43405D03*
X70570Y-55118D03*
X70570Y-56102D03*
X89468Y-48031D03*
X89468Y-49015D03*
X70570Y-50885D03*
X70570Y-51870D03*
X89468Y-50885D03*
X89468Y-51870D03*
X70570Y-46653D03*
X70570Y-47637D03*
X70570Y-42421D03*
X70570Y-43405D03*
X89468Y-55118D03*
X89468Y-56102D03*
X80019Y-42421D03*
X80019Y-43405D03*
X80019Y-55118D03*
X80019Y-56102D03*
X80019Y-50885D03*
X80019Y-51870D03*
G54D18*
X93405Y-55019D03*
X61417Y-52559D03*
X61417Y-43996D03*
X90846Y-40649D03*
G54D11*
X95850Y-56299D03*
G54D12*
X96850Y-56299D03*
X97850Y-56299D03*
G54D11*
X96653Y-53149D03*
G54D19*
X90551Y-46712D03*
X90551Y-44625D03*
X92496Y-49409D03*
X95496Y-49409D03*
G54D20*
X92456Y-45534D03*
X90533Y-55738D03*
X62903Y-43312D03*
X70105Y-44434D03*
X70924Y-53231D03*
X89866Y-45557D03*
X92841Y-54055D03*
X95702Y-54053D03*
X68701Y-52319D03*
X96227Y-49413D03*
X66498Y-53404D03*
X95245Y-51747D03*
X88324Y-56497D03*
X90634Y-47996D03*
X78234Y-57210D03*
X80499Y-51313D03*
X87553Y-50657D03*
X88124Y-46522D03*
X88325Y-57093D03*
X91252Y-46945D03*
X94794Y-57235D03*
X91298Y-45738D03*
X69017Y-57153D03*
X96710Y-57016D03*
X93981Y-53113D03*
X87957Y-45398D03*
X79214Y-52503D03*
X94786Y-51711D03*
X80493Y-44026D03*
X89741Y-40954D03*
X93580Y-47055D03*
X78328Y-49670D03*
X94380Y-50211D03*
X88373Y-45822D03*
X80030Y-57808D03*
X67521Y-57916D03*
X71297Y-53910D03*
X71936Y-49431D03*
X66732Y-41711D03*
X65632Y-46873D03*
X93022Y-51630D03*
X94230Y-51664D03*
X75396Y-46179D03*
X80548Y-40534D03*
X81581Y-54976D03*
G54D21*
X97284Y-55865D02*
X96850Y-56299D01*
X97284Y-54683D02*
X97284Y-55865D01*
X97834Y-54133D02*
X97284Y-54683D01*
X61122Y-57972D02*
X60531Y-58562D01*
X63385Y-57972D02*
X61122Y-57972D01*
X90533Y-55738D02*
X90533Y-56510D01*
X90659Y-56635D02*
X90533Y-56510D01*
X95042Y-56635D02*
X90659Y-56635D01*
X95169Y-56762D02*
X95042Y-56635D01*
X96387Y-56762D02*
X95169Y-56762D01*
X96850Y-56299D02*
X96387Y-56762D01*
X91652Y-46337D02*
X92456Y-45534D01*
X91258Y-46337D02*
X91652Y-46337D01*
X90883Y-46712D02*
X91258Y-46337D01*
X90551Y-46712D02*
X90883Y-46712D01*
X90462Y-56580D02*
X90533Y-56510D01*
X89278Y-56580D02*
X90462Y-56580D01*
X88575Y-55878D02*
X89278Y-56580D01*
X83383Y-55878D02*
X88575Y-55878D01*
X82687Y-56573D02*
X83383Y-55878D01*
X79513Y-56573D02*
X82687Y-56573D01*
X79082Y-56142D02*
X79513Y-56573D01*
X73862Y-56142D02*
X79082Y-56142D01*
X73351Y-56653D02*
X73862Y-56142D01*
X64704Y-56653D02*
X73351Y-56653D01*
X63385Y-57972D02*
X64704Y-56653D01*
X97834Y-39960D02*
X96759Y-39960D01*
X94938Y-41444D02*
X93594Y-41444D01*
X96309Y-40073D02*
X94938Y-41444D01*
X96309Y-39960D02*
X96309Y-40073D01*
X96759Y-39960D02*
X96309Y-39960D01*
X69615Y-43944D02*
X70105Y-44434D01*
X66048Y-43944D02*
X69615Y-43944D01*
X65682Y-44310D02*
X66048Y-43944D01*
X65682Y-44773D02*
X65682Y-44310D01*
X65592Y-44863D02*
X65682Y-44773D01*
X64454Y-44863D02*
X65592Y-44863D01*
X62903Y-43312D02*
X64454Y-44863D01*
X97834Y-52055D02*
X97834Y-52505D01*
X71466Y-53231D02*
X70924Y-53231D01*
X71562Y-53327D02*
X71466Y-53231D01*
X76838Y-53327D02*
X71562Y-53327D01*
X77133Y-53623D02*
X76838Y-53327D01*
X87522Y-53623D02*
X77133Y-53623D01*
X88160Y-54262D02*
X87522Y-53623D01*
X90847Y-54262D02*
X88160Y-54262D01*
X92584Y-55999D02*
X90847Y-54262D01*
X93968Y-55999D02*
X92584Y-55999D01*
X95292Y-54676D02*
X93968Y-55999D01*
X96744Y-54676D02*
X95292Y-54676D01*
X97384Y-54035D02*
X96744Y-54676D01*
X97384Y-52786D02*
X97384Y-54035D01*
X97665Y-52505D02*
X97384Y-52786D01*
X97834Y-52505D02*
X97665Y-52505D01*
X97284Y-43605D02*
X97834Y-43055D01*
X92320Y-43605D02*
X97284Y-43605D01*
X90368Y-45557D02*
X92320Y-43605D01*
X89866Y-45557D02*
X90368Y-45557D01*
X95684Y-54035D02*
X95702Y-54053D01*
X92861Y-54035D02*
X95684Y-54035D01*
X92841Y-54055D02*
X92861Y-54035D01*
X69252Y-52870D02*
X68701Y-52319D01*
X73882Y-52870D02*
X69252Y-52870D01*
X74584Y-52169D02*
X73882Y-52870D01*
X77672Y-52169D02*
X74584Y-52169D01*
X78860Y-53357D02*
X77672Y-52169D01*
X84473Y-53357D02*
X78860Y-53357D01*
X84671Y-53160D02*
X84473Y-53357D01*
X84671Y-52698D02*
X84671Y-53160D01*
X85222Y-52147D02*
X84671Y-52698D01*
X87605Y-52147D02*
X85222Y-52147D01*
X88576Y-53118D02*
X87605Y-52147D01*
X93206Y-53118D02*
X88576Y-53118D01*
X93561Y-52764D02*
X93206Y-53118D01*
X95101Y-52764D02*
X93561Y-52764D01*
X96260Y-51605D02*
X95101Y-52764D01*
X97284Y-51605D02*
X96260Y-51605D01*
X97834Y-51055D02*
X97284Y-51605D01*
X59547Y-50162D02*
X59547Y-50311D01*
X64514Y-45195D02*
X59547Y-50162D01*
X68472Y-45195D02*
X64514Y-45195D01*
X68998Y-45721D02*
X68472Y-45195D01*
X70312Y-45721D02*
X68998Y-45721D01*
X72704Y-48113D02*
X70312Y-45721D01*
X80397Y-48113D02*
X72704Y-48113D01*
X80566Y-47944D02*
X80397Y-48113D01*
X87488Y-47944D02*
X80566Y-47944D01*
X89034Y-49491D02*
X87488Y-47944D01*
X91104Y-49491D02*
X89034Y-49491D01*
X91988Y-48607D02*
X91104Y-49491D01*
X95450Y-48607D02*
X91988Y-48607D01*
X96227Y-49384D02*
X95450Y-48607D01*
X96227Y-49413D02*
X96227Y-49384D01*
X97284Y-49605D02*
X97834Y-49055D01*
X97284Y-50066D02*
X97284Y-49605D01*
X96790Y-50561D02*
X97284Y-50066D01*
X92685Y-50561D02*
X96790Y-50561D01*
X91885Y-51360D02*
X92685Y-50561D01*
X88584Y-51360D02*
X91885Y-51360D01*
X88372Y-51149D02*
X88584Y-51360D01*
X83318Y-51149D02*
X88372Y-51149D01*
X82108Y-52358D02*
X83318Y-51149D01*
X79704Y-52358D02*
X82108Y-52358D01*
X78765Y-51420D02*
X79704Y-52358D01*
X74097Y-51420D02*
X78765Y-51420D01*
X73490Y-52027D02*
X74097Y-51420D01*
X72483Y-52027D02*
X73490Y-52027D01*
X71854Y-51398D02*
X72483Y-52027D01*
X67055Y-51398D02*
X71854Y-51398D01*
X65682Y-52771D02*
X67055Y-51398D01*
X65682Y-53241D02*
X65682Y-52771D01*
X65568Y-53355D02*
X65682Y-53241D01*
X65214Y-53355D02*
X65568Y-53355D01*
X64026Y-54543D02*
X65214Y-53355D01*
X59547Y-54543D02*
X64026Y-54543D01*
X66732Y-53171D02*
X66498Y-53404D01*
X66732Y-52718D02*
X66732Y-53171D01*
X67732Y-51718D02*
X66732Y-52718D01*
X69086Y-51718D02*
X67732Y-51718D01*
X69724Y-52356D02*
X69086Y-51718D01*
X73514Y-52356D02*
X69724Y-52356D01*
X74200Y-51669D02*
X73514Y-52356D01*
X77879Y-51669D02*
X74200Y-51669D01*
X79067Y-52858D02*
X77879Y-51669D01*
X82668Y-52858D02*
X79067Y-52858D01*
X83878Y-51648D02*
X82668Y-52858D01*
X88165Y-51648D02*
X83878Y-51648D01*
X89136Y-52619D02*
X88165Y-51648D01*
X92999Y-52619D02*
X89136Y-52619D01*
X93354Y-52264D02*
X92999Y-52619D01*
X94728Y-52264D02*
X93354Y-52264D01*
X95245Y-51747D02*
X94728Y-52264D01*
X97308Y-47581D02*
X97834Y-47055D01*
X91049Y-47581D02*
X97308Y-47581D01*
X90634Y-47996D02*
X91049Y-47581D01*
X88226Y-56399D02*
X88324Y-56497D01*
X83568Y-56399D02*
X88226Y-56399D01*
X82851Y-57116D02*
X83568Y-56399D01*
X78996Y-57116D02*
X82851Y-57116D01*
X78529Y-56649D02*
X78996Y-57116D01*
X74095Y-56649D02*
X78529Y-56649D01*
X72182Y-58562D02*
X74095Y-56649D01*
X71374Y-58562D02*
X72182Y-58562D01*
X81155Y-50657D02*
X87553Y-50657D01*
X80499Y-51313D02*
X81155Y-50657D01*
X88911Y-47310D02*
X88124Y-46522D01*
X92830Y-47310D02*
X88911Y-47310D01*
X93566Y-46573D02*
X92830Y-47310D01*
X97316Y-46573D02*
X93566Y-46573D01*
X97834Y-46055D02*
X97316Y-46573D01*
X76881Y-58562D02*
X78234Y-57210D01*
X75606Y-58562D02*
X76881Y-58562D01*
X87881Y-56648D02*
X88325Y-57093D01*
X83675Y-56648D02*
X87881Y-56648D01*
X82923Y-57400D02*
X83675Y-56648D01*
X81000Y-57400D02*
X82923Y-57400D01*
X79838Y-58562D02*
X81000Y-57400D01*
X97334Y-45555D02*
X97834Y-45055D01*
X92993Y-45555D02*
X97334Y-45555D01*
X91602Y-46945D02*
X92993Y-45555D01*
X91252Y-46945D02*
X91602Y-46945D01*
X94267Y-57762D02*
X94794Y-57235D01*
X86733Y-57762D02*
X94267Y-57762D01*
X86650Y-57845D02*
X86733Y-57762D01*
X84788Y-57845D02*
X86650Y-57845D01*
X84070Y-58562D02*
X84788Y-57845D01*
X97334Y-44555D02*
X97834Y-44055D01*
X92481Y-44555D02*
X97334Y-44555D01*
X91298Y-45738D02*
X92481Y-44555D01*
X95070Y-57016D02*
X96710Y-57016D01*
X94939Y-56885D02*
X95070Y-57016D01*
X89229Y-56885D02*
X94939Y-56885D01*
X88486Y-56141D02*
X89229Y-56885D01*
X83472Y-56141D02*
X88486Y-56141D01*
X82764Y-56849D02*
X83472Y-56141D01*
X79436Y-56849D02*
X82764Y-56849D01*
X78980Y-56393D02*
X79436Y-56849D01*
X73997Y-56393D02*
X78980Y-56393D01*
X73238Y-57153D02*
X73997Y-56393D01*
X69017Y-57153D02*
X73238Y-57153D01*
X93704Y-53391D02*
X93981Y-53113D01*
X88285Y-53391D02*
X93704Y-53391D01*
X87317Y-52422D02*
X88285Y-53391D01*
X86585Y-52422D02*
X87317Y-52422D01*
X86129Y-52877D02*
X86585Y-52422D01*
X95361Y-43347D02*
X96653Y-42055D01*
X91049Y-43347D02*
X95361Y-43347D01*
X88998Y-45398D02*
X91049Y-43347D01*
X87957Y-45398D02*
X88998Y-45398D01*
X87629Y-42913D02*
X86129Y-44413D01*
X94795Y-42913D02*
X87629Y-42913D01*
X96653Y-41055D02*
X94795Y-42913D01*
X68140Y-51969D02*
X67232Y-52877D01*
X68984Y-51969D02*
X68140Y-51969D01*
X69635Y-52621D02*
X68984Y-51969D01*
X73602Y-52621D02*
X69635Y-52621D01*
X74304Y-51919D02*
X73602Y-52621D01*
X77775Y-51919D02*
X74304Y-51919D01*
X78964Y-53107D02*
X77775Y-51919D01*
X82772Y-53107D02*
X78964Y-53107D01*
X83981Y-51898D02*
X82772Y-53107D01*
X88062Y-51898D02*
X83981Y-51898D01*
X89033Y-52868D02*
X88062Y-51898D01*
X93103Y-52868D02*
X89033Y-52868D01*
X93457Y-52514D02*
X93103Y-52868D01*
X94997Y-52514D02*
X93457Y-52514D01*
X96457Y-51055D02*
X94997Y-52514D01*
X96653Y-51055D02*
X96457Y-51055D01*
X67686Y-49100D02*
X67232Y-48645D01*
X71773Y-49100D02*
X67686Y-49100D01*
X71791Y-49081D02*
X71773Y-49100D01*
X72081Y-49081D02*
X71791Y-49081D01*
X72100Y-49100D02*
X72081Y-49081D01*
X77945Y-49100D02*
X72100Y-49100D01*
X78007Y-49038D02*
X77945Y-49100D01*
X82181Y-49038D02*
X78007Y-49038D01*
X83025Y-48194D02*
X82181Y-49038D01*
X87384Y-48194D02*
X83025Y-48194D01*
X88940Y-49750D02*
X87384Y-48194D01*
X91323Y-49750D02*
X88940Y-49750D01*
X92216Y-48857D02*
X91323Y-49750D01*
X94044Y-48857D02*
X92216Y-48857D01*
X95242Y-50055D02*
X94044Y-48857D01*
X96653Y-50055D02*
X95242Y-50055D01*
X95956Y-48357D02*
X96653Y-49055D01*
X91803Y-48357D02*
X95956Y-48357D01*
X91658Y-48503D02*
X91803Y-48357D01*
X89145Y-48503D02*
X91658Y-48503D01*
X87723Y-47081D02*
X89145Y-48503D01*
X85914Y-47081D02*
X87723Y-47081D01*
X84629Y-45796D02*
X85914Y-47081D01*
X84629Y-45497D02*
X84629Y-45796D01*
X84287Y-45155D02*
X84629Y-45497D01*
X68910Y-45155D02*
X84287Y-45155D01*
X68660Y-44905D02*
X68910Y-45155D01*
X67724Y-44905D02*
X68660Y-44905D01*
X67232Y-44413D02*
X67724Y-44905D01*
X79319Y-52608D02*
X79214Y-52503D01*
X82565Y-52608D02*
X79319Y-52608D01*
X83774Y-51398D02*
X82565Y-52608D01*
X88269Y-51398D02*
X83774Y-51398D01*
X89218Y-52347D02*
X88269Y-51398D01*
X92918Y-52347D02*
X89218Y-52347D01*
X93250Y-52014D02*
X92918Y-52347D01*
X94483Y-52014D02*
X93250Y-52014D01*
X94786Y-51711D02*
X94483Y-52014D01*
X96653Y-47055D02*
X93580Y-47055D01*
X80562Y-43957D02*
X80493Y-44026D01*
X84250Y-43957D02*
X80562Y-43957D01*
X86629Y-41578D02*
X84250Y-43957D01*
X86629Y-41270D02*
X86629Y-41578D01*
X86945Y-40954D02*
X86629Y-41270D01*
X89741Y-40954D02*
X86945Y-40954D01*
X78986Y-50327D02*
X78328Y-49670D01*
X86345Y-50327D02*
X78986Y-50327D01*
X86629Y-50043D02*
X86345Y-50327D01*
X86629Y-49732D02*
X86629Y-50043D01*
X86939Y-49422D02*
X86629Y-49732D01*
X87553Y-49422D02*
X86939Y-49422D01*
X88380Y-50249D02*
X87553Y-49422D01*
X94342Y-50249D02*
X88380Y-50249D01*
X94380Y-50211D02*
X94342Y-50249D01*
X96653Y-45055D02*
X96653Y-45055D01*
X92440Y-45055D02*
X96653Y-45055D01*
X91648Y-45847D02*
X92440Y-45055D01*
X91648Y-45883D02*
X91648Y-45847D01*
X91443Y-46088D02*
X91648Y-45883D01*
X91154Y-46088D02*
X91443Y-46088D01*
X91068Y-46174D02*
X91154Y-46088D01*
X89263Y-46174D02*
X91068Y-46174D01*
X89261Y-46172D02*
X89263Y-46174D01*
X88228Y-46172D02*
X89261Y-46172D01*
X87607Y-45550D02*
X88228Y-46172D01*
X87607Y-45480D02*
X87607Y-45550D01*
X87245Y-45118D02*
X87607Y-45480D01*
X84808Y-45118D02*
X87245Y-45118D01*
X84595Y-44905D02*
X84808Y-45118D01*
X78820Y-44905D02*
X84595Y-44905D01*
X77866Y-43951D02*
X78820Y-44905D01*
X77142Y-43951D02*
X77866Y-43951D01*
X76681Y-44413D02*
X77142Y-43951D01*
X89264Y-45822D02*
X88373Y-45822D01*
X89367Y-45924D02*
X89264Y-45822D01*
X90574Y-45924D02*
X89367Y-45924D01*
X92444Y-44055D02*
X90574Y-45924D01*
X96653Y-44055D02*
X92444Y-44055D01*
X59736Y-56102D02*
X59645Y-56192D01*
X61318Y-56102D02*
X59736Y-56102D01*
X74753Y-58038D02*
X75681Y-57110D01*
X73606Y-58038D02*
X74753Y-58038D01*
X84671Y-57568D02*
X85129Y-57110D01*
X83187Y-57568D02*
X84671Y-57568D01*
X82193Y-58562D02*
X83187Y-57568D01*
X82070Y-58562D02*
X82193Y-58562D01*
X85925Y-44868D02*
X85475Y-44418D01*
X86674Y-44868D02*
X85925Y-44868D01*
X87129Y-44413D02*
X86674Y-44868D01*
X85134Y-44418D02*
X85475Y-44418D01*
X85129Y-44413D02*
X85134Y-44418D01*
X95759Y-40104D02*
X95759Y-39960D01*
X94919Y-40944D02*
X95759Y-40104D01*
X93009Y-40944D02*
X94919Y-40944D01*
X92024Y-41930D02*
X93009Y-40944D01*
X87963Y-41930D02*
X92024Y-41930D01*
X85475Y-44418D02*
X87963Y-41930D01*
X86680Y-49095D02*
X87129Y-48645D01*
X85579Y-49095D02*
X86680Y-49095D01*
X85129Y-48645D02*
X85579Y-49095D01*
X76131Y-52427D02*
X75681Y-52877D01*
X77231Y-52427D02*
X76131Y-52427D01*
X77681Y-52877D02*
X77231Y-52427D01*
X66682Y-48195D02*
X66232Y-48645D01*
X67782Y-48195D02*
X66682Y-48195D01*
X68232Y-48645D02*
X67782Y-48195D01*
X66688Y-57566D02*
X66232Y-57110D01*
X67859Y-57566D02*
X66688Y-57566D01*
X67859Y-57483D02*
X68232Y-57110D01*
X67859Y-57566D02*
X67859Y-57483D01*
X68849Y-58556D02*
X68849Y-58562D01*
X67859Y-57566D02*
X68849Y-58556D01*
X69374Y-58562D02*
X68849Y-58562D01*
X97850Y-56376D02*
X97850Y-56299D01*
X96696Y-57529D02*
X97850Y-56376D01*
X95800Y-57529D02*
X96696Y-57529D01*
X94767Y-58562D02*
X95800Y-57529D01*
X73606Y-58562D02*
X73606Y-58038D01*
X93717Y-58038D02*
X94242Y-58562D01*
X91060Y-58038D02*
X93717Y-58038D01*
X90535Y-58562D02*
X91060Y-58038D01*
X94767Y-58562D02*
X94242Y-58562D01*
X89485Y-58038D02*
X90010Y-58562D01*
X86828Y-58038D02*
X89485Y-58038D01*
X86303Y-58562D02*
X86828Y-58038D01*
X90535Y-58562D02*
X90010Y-58562D01*
X88483Y-49999D02*
X87129Y-48645D01*
X91905Y-49999D02*
X88483Y-49999D01*
X92496Y-49409D02*
X91905Y-49999D01*
X87943Y-53691D02*
X87129Y-52877D01*
X96219Y-53691D02*
X87943Y-53691D01*
X96653Y-54125D02*
X96219Y-53691D01*
X78592Y-57808D02*
X77838Y-58562D01*
X80030Y-57808D02*
X78592Y-57808D01*
X75231Y-44863D02*
X75681Y-44413D01*
X70039Y-44863D02*
X75231Y-44863D01*
X69589Y-44413D02*
X70039Y-44863D01*
X68232Y-44413D02*
X69589Y-44413D01*
X76131Y-44863D02*
X75681Y-44413D01*
X77231Y-44863D02*
X76131Y-44863D01*
X77681Y-44413D02*
X77231Y-44863D01*
X85579Y-57560D02*
X85129Y-57110D01*
X86534Y-57560D02*
X85579Y-57560D01*
X86984Y-57110D02*
X86534Y-57560D01*
X87129Y-57110D02*
X86984Y-57110D01*
X66788Y-57916D02*
X67521Y-57916D01*
X66141Y-58562D02*
X66788Y-57916D01*
X72034Y-54647D02*
X71297Y-53910D01*
X78565Y-54647D02*
X72034Y-54647D01*
X80019Y-56102D02*
X78565Y-54647D01*
X64027Y-42618D02*
X65232Y-41413D01*
X63385Y-42618D02*
X64027Y-42618D01*
X69562Y-41413D02*
X70570Y-42421D01*
X68232Y-41413D02*
X69562Y-41413D01*
X74039Y-49877D02*
X72834Y-51082D01*
X74681Y-49877D02*
X74039Y-49877D01*
X78688Y-50885D02*
X80019Y-50885D01*
X77681Y-49877D02*
X78688Y-50885D01*
X71967Y-49400D02*
X71936Y-49431D01*
X75847Y-49400D02*
X71967Y-49400D01*
X76181Y-49734D02*
X75847Y-49400D01*
X76181Y-50040D02*
X76181Y-49734D01*
X77311Y-51170D02*
X76181Y-50040D01*
X79320Y-51170D02*
X77311Y-51170D01*
X80019Y-51870D02*
X79320Y-51170D01*
X60168Y-44457D02*
X59547Y-45078D01*
X60168Y-43579D02*
X60168Y-44457D01*
X63787Y-39960D02*
X60168Y-43579D01*
X63577Y-51673D02*
X64782Y-52877D01*
X63385Y-51673D02*
X63577Y-51673D01*
X65232Y-52877D02*
X64782Y-52877D01*
X69562Y-54110D02*
X70570Y-55118D01*
X68232Y-54110D02*
X69562Y-54110D01*
X69240Y-46653D02*
X70570Y-46653D01*
X68232Y-45645D02*
X69240Y-46653D01*
X66732Y-41235D02*
X66732Y-41711D01*
X68007Y-39960D02*
X66732Y-41235D01*
X68118Y-39960D02*
X68007Y-39960D01*
X60442Y-52648D02*
X59547Y-53543D01*
X60442Y-52063D02*
X60442Y-52648D01*
X65632Y-46873D02*
X60442Y-52063D01*
X64027Y-51082D02*
X63385Y-51082D01*
X65232Y-49877D02*
X64027Y-51082D01*
X69562Y-49877D02*
X70570Y-50885D01*
X68232Y-49877D02*
X69562Y-49877D01*
X64091Y-41821D02*
X65952Y-39960D01*
X63680Y-41821D02*
X64091Y-41821D01*
X62523Y-42979D02*
X63680Y-41821D01*
X62523Y-46334D02*
X62523Y-42979D01*
X59547Y-49311D02*
X62523Y-46334D01*
X82925Y-46850D02*
X84129Y-45645D01*
X82283Y-46850D02*
X82925Y-46850D01*
X89138Y-48031D02*
X89468Y-48031D01*
X87129Y-46022D02*
X89138Y-48031D01*
X87129Y-45645D02*
X87129Y-46022D01*
X87269Y-49877D02*
X87129Y-49877D01*
X88276Y-50885D02*
X87269Y-49877D01*
X89468Y-50885D02*
X88276Y-50885D01*
X93057Y-51664D02*
X93022Y-51630D01*
X94230Y-51664D02*
X93057Y-51664D01*
X82925Y-42618D02*
X84129Y-41413D01*
X82283Y-42618D02*
X82925Y-42618D01*
X73476Y-42618D02*
X74681Y-41413D01*
X72834Y-42618D02*
X73476Y-42618D01*
X79011Y-41413D02*
X80019Y-42421D01*
X77681Y-41413D02*
X79011Y-41413D01*
X79011Y-54110D02*
X80019Y-55118D01*
X77681Y-54110D02*
X79011Y-54110D01*
X78561Y-46179D02*
X75396Y-46179D01*
X80019Y-47637D02*
X78561Y-46179D01*
X74039Y-45645D02*
X72834Y-46850D01*
X74681Y-45645D02*
X74039Y-45645D01*
X80548Y-40522D02*
X80548Y-40534D01*
X81110Y-39960D02*
X80548Y-40522D01*
X65232Y-44413D02*
X64782Y-44413D01*
X64590Y-44413D02*
X64782Y-44413D01*
X63385Y-43208D02*
X64590Y-44413D01*
X87911Y-54891D02*
X87129Y-54110D01*
X89241Y-54891D02*
X87911Y-54891D01*
X89468Y-55118D02*
X89241Y-54891D01*
X81581Y-55732D02*
X81581Y-54976D01*
X82121Y-56272D02*
X81581Y-55732D01*
X82438Y-56272D02*
X82121Y-56272D01*
X83087Y-55623D02*
X82438Y-56272D01*
X88674Y-55623D02*
X83087Y-55623D01*
X89153Y-56102D02*
X88674Y-55623D01*
X89468Y-56102D02*
X89153Y-56102D01*
X82925Y-55314D02*
X84129Y-54110D01*
X82283Y-55314D02*
X82925Y-55314D01*
X64590Y-45645D02*
X63385Y-46850D01*
X65232Y-45645D02*
X64590Y-45645D01*
X60736Y-40846D02*
X59547Y-40846D01*
X61622Y-39960D02*
X60736Y-40846D01*
X59645Y-57192D02*
X60095Y-57192D01*
X95850Y-56299D02*
X95400Y-56299D01*
X67690Y-40955D02*
X67232Y-41413D01*
X76223Y-40955D02*
X67690Y-40955D01*
X76681Y-41413D02*
X76223Y-40955D01*
X85679Y-40963D02*
X86129Y-41413D01*
X77131Y-40963D02*
X85679Y-40963D01*
X76681Y-41413D02*
X77131Y-40963D01*
X60398Y-56889D02*
X61318Y-56889D01*
X60095Y-57192D02*
X60398Y-56889D01*
X66879Y-54110D02*
X67232Y-54110D01*
X64099Y-56889D02*
X66879Y-54110D01*
X61318Y-56889D02*
X64099Y-56889D01*
X87160Y-55141D02*
X86129Y-54110D01*
X88794Y-55141D02*
X87160Y-55141D01*
X89255Y-55601D02*
X88794Y-55141D01*
X90175Y-55601D02*
X89255Y-55601D01*
X90388Y-55388D02*
X90175Y-55601D01*
X91447Y-55388D02*
X90388Y-55388D01*
X92358Y-56299D02*
X91447Y-55388D01*
X95400Y-56299D02*
X92358Y-56299D01*
X66704Y-49349D02*
X67232Y-49877D01*
X66291Y-49349D02*
X66704Y-49349D01*
X65763Y-48821D02*
X66291Y-49349D01*
X65763Y-47713D02*
X65763Y-48821D01*
X67232Y-46244D02*
X65763Y-47713D01*
X67232Y-45645D02*
X67232Y-46244D01*
X77131Y-49427D02*
X76681Y-49877D01*
X78011Y-49427D02*
X77131Y-49427D01*
X78127Y-49312D02*
X78011Y-49427D01*
X78465Y-49312D02*
X78127Y-49312D01*
X78539Y-49386D02*
X78465Y-49312D01*
X85638Y-49386D02*
X78539Y-49386D01*
X86129Y-49877D02*
X85638Y-49386D01*
X67749Y-53592D02*
X67232Y-54110D01*
X71082Y-53592D02*
X67749Y-53592D01*
X71115Y-53560D02*
X71082Y-53592D01*
X71442Y-53560D02*
X71115Y-53560D01*
X71474Y-53592D02*
X71442Y-53560D01*
X76163Y-53592D02*
X71474Y-53592D01*
X76681Y-54110D02*
X76163Y-53592D01*
G54D10*
G36*
X59605Y-39896D02*
X59597Y-39896D01*
X59597Y-39904D01*
X59497Y-39904D01*
X59497Y-39896D01*
X59489Y-39896D01*
X59489Y-39796D01*
X59497Y-39796D01*
X59497Y-39788D01*
X59597Y-39788D01*
X59597Y-39796D01*
X59605Y-39796D01*
X59605Y-39896D01*
X59605Y-39896D01*
G37*
G54D22*
X59605Y-39896D02*
X59597Y-39896D01*
X59597Y-39904D01*
X59497Y-39904D01*
X59497Y-39896D01*
X59489Y-39896D01*
X59489Y-39796D01*
X59497Y-39796D01*
X59497Y-39788D01*
X59597Y-39788D01*
X59597Y-39796D01*
X59605Y-39796D01*
X59605Y-39896D01*
G54D10*
G36*
X61607Y-58568D02*
X61537Y-58639D01*
X61531Y-58633D01*
X61525Y-58639D01*
X61455Y-58568D01*
X61460Y-58562D01*
X61455Y-58557D01*
X61525Y-58486D01*
X61531Y-58492D01*
X61537Y-58486D01*
X61607Y-58557D01*
X61602Y-58562D01*
X61607Y-58568D01*
X61607Y-58568D01*
G37*
G54D22*
X61607Y-58568D02*
X61537Y-58639D01*
X61531Y-58633D01*
X61525Y-58639D01*
X61455Y-58568D01*
X61460Y-58562D01*
X61455Y-58557D01*
X61525Y-58486D01*
X61531Y-58492D01*
X61537Y-58486D01*
X61607Y-58557D01*
X61602Y-58562D01*
X61607Y-58568D01*
G54D10*
G36*
X62198Y-46200D02*
X60147Y-48251D01*
X60137Y-48261D01*
X60084Y-48261D01*
X60147Y-48198D01*
X60147Y-48010D01*
X60147Y-47911D01*
X60109Y-47819D01*
X60038Y-47748D01*
X59946Y-47710D01*
X59659Y-47711D01*
X59597Y-47773D01*
X59597Y-48261D01*
X59605Y-48261D01*
X59605Y-48361D01*
X59597Y-48361D01*
X59597Y-48368D01*
X59497Y-48368D01*
X59497Y-48361D01*
X59489Y-48361D01*
X59489Y-48261D01*
X59497Y-48261D01*
X59497Y-47773D01*
X59434Y-47711D01*
X59324Y-47711D01*
X59324Y-46636D01*
X59427Y-46678D01*
X59666Y-46678D01*
X59886Y-46587D01*
X60055Y-46419D01*
X60147Y-46198D01*
X60147Y-45959D01*
X60056Y-45739D01*
X59895Y-45578D01*
X60055Y-45419D01*
X60147Y-45198D01*
X60147Y-44959D01*
X60140Y-44944D01*
X60398Y-44686D01*
X60469Y-44581D01*
X60486Y-44493D01*
X60526Y-44590D01*
X60821Y-44885D01*
X61207Y-45045D01*
X61625Y-45046D01*
X62011Y-44886D01*
X62198Y-44699D01*
X62198Y-46200D01*
X62198Y-46200D01*
G37*
G54D22*
X62198Y-46200D02*
X60147Y-48251D01*
X60137Y-48261D01*
X60084Y-48261D01*
X60147Y-48198D01*
X60147Y-48010D01*
X60147Y-47911D01*
X60109Y-47819D01*
X60038Y-47748D01*
X59946Y-47710D01*
X59659Y-47711D01*
X59597Y-47773D01*
X59597Y-48261D01*
X59605Y-48261D01*
X59605Y-48361D01*
X59597Y-48361D01*
X59597Y-48368D01*
X59497Y-48368D01*
X59497Y-48361D01*
X59489Y-48361D01*
X59489Y-48261D01*
X59497Y-48261D01*
X59497Y-47773D01*
X59434Y-47711D01*
X59324Y-47711D01*
X59324Y-46636D01*
X59427Y-46678D01*
X59666Y-46678D01*
X59886Y-46587D01*
X60055Y-46419D01*
X60147Y-46198D01*
X60147Y-45959D01*
X60056Y-45739D01*
X59895Y-45578D01*
X60055Y-45419D01*
X60147Y-45198D01*
X60147Y-44959D01*
X60140Y-44944D01*
X60398Y-44686D01*
X60469Y-44581D01*
X60486Y-44493D01*
X60526Y-44590D01*
X60821Y-44885D01*
X61207Y-45045D01*
X61625Y-45046D01*
X62011Y-44886D01*
X62198Y-44699D01*
X62198Y-46200D01*
G54D10*
G36*
X62803Y-40485D02*
X59939Y-43349D01*
X59868Y-43454D01*
X59864Y-43478D01*
X59659Y-43478D01*
X59597Y-43541D01*
X59597Y-44028D01*
X59605Y-44028D01*
X59605Y-44128D01*
X59597Y-44128D01*
X59597Y-44136D01*
X59497Y-44136D01*
X59497Y-44128D01*
X59489Y-44128D01*
X59489Y-44028D01*
X59497Y-44028D01*
X59497Y-43541D01*
X59434Y-43478D01*
X59324Y-43478D01*
X59324Y-42403D01*
X59427Y-42446D01*
X59666Y-42446D01*
X59886Y-42355D01*
X60055Y-42186D01*
X60147Y-41966D01*
X60147Y-41727D01*
X60056Y-41507D01*
X59895Y-41346D01*
X60055Y-41186D01*
X60062Y-41171D01*
X60736Y-41171D01*
X60860Y-41146D01*
X60965Y-41076D01*
X61556Y-40485D01*
X61726Y-40485D01*
X61919Y-40405D01*
X62066Y-40258D01*
X62146Y-40065D01*
X62147Y-39856D01*
X62067Y-39663D01*
X62043Y-39639D01*
X62262Y-39639D01*
X62262Y-39735D01*
X62262Y-40285D01*
X62300Y-40377D01*
X62370Y-40447D01*
X62462Y-40485D01*
X62561Y-40485D01*
X62803Y-40485D01*
X62803Y-40485D01*
G37*
G54D22*
X62803Y-40485D02*
X59939Y-43349D01*
X59868Y-43454D01*
X59864Y-43478D01*
X59659Y-43478D01*
X59597Y-43541D01*
X59597Y-44028D01*
X59605Y-44028D01*
X59605Y-44128D01*
X59597Y-44128D01*
X59597Y-44136D01*
X59497Y-44136D01*
X59497Y-44128D01*
X59489Y-44128D01*
X59489Y-44028D01*
X59497Y-44028D01*
X59497Y-43541D01*
X59434Y-43478D01*
X59324Y-43478D01*
X59324Y-42403D01*
X59427Y-42446D01*
X59666Y-42446D01*
X59886Y-42355D01*
X60055Y-42186D01*
X60147Y-41966D01*
X60147Y-41727D01*
X60056Y-41507D01*
X59895Y-41346D01*
X60055Y-41186D01*
X60062Y-41171D01*
X60736Y-41171D01*
X60860Y-41146D01*
X60965Y-41076D01*
X61556Y-40485D01*
X61726Y-40485D01*
X61919Y-40405D01*
X62066Y-40258D01*
X62146Y-40065D01*
X62147Y-39856D01*
X62067Y-39663D01*
X62043Y-39639D01*
X62262Y-39639D01*
X62262Y-39735D01*
X62262Y-40285D01*
X62300Y-40377D01*
X62370Y-40447D01*
X62462Y-40485D01*
X62561Y-40485D01*
X62803Y-40485D01*
G54D10*
G36*
X63462Y-57387D02*
X63391Y-57458D01*
X63385Y-57452D01*
X63380Y-57458D01*
X63309Y-57387D01*
X63315Y-57381D01*
X63309Y-57376D01*
X63380Y-57305D01*
X63385Y-57311D01*
X63391Y-57305D01*
X63462Y-57376D01*
X63456Y-57381D01*
X63462Y-57387D01*
X63462Y-57387D01*
G37*
G54D22*
X63462Y-57387D02*
X63391Y-57458D01*
X63385Y-57452D01*
X63380Y-57458D01*
X63309Y-57387D01*
X63315Y-57381D01*
X63309Y-57376D01*
X63380Y-57305D01*
X63385Y-57311D01*
X63391Y-57305D01*
X63462Y-57376D01*
X63456Y-57381D01*
X63462Y-57387D01*
G54D10*
G36*
X65963Y-54566D02*
X63965Y-56564D01*
X63813Y-56564D01*
X63813Y-55820D01*
X63748Y-55663D01*
X63694Y-55610D01*
X63747Y-55557D01*
X63812Y-55400D01*
X63813Y-55230D01*
X63748Y-55073D01*
X63628Y-54953D01*
X63471Y-54887D01*
X63301Y-54887D01*
X63144Y-54952D01*
X63023Y-55072D01*
X62958Y-55229D01*
X62958Y-55399D01*
X63023Y-55556D01*
X63076Y-55610D01*
X63023Y-55663D01*
X62958Y-55820D01*
X62958Y-55990D01*
X63023Y-56147D01*
X63143Y-56267D01*
X63300Y-56332D01*
X63470Y-56332D01*
X63627Y-56267D01*
X63747Y-56147D01*
X63812Y-55990D01*
X63813Y-55820D01*
X63813Y-56564D01*
X61868Y-56564D01*
X61868Y-56183D01*
X61857Y-55966D01*
X61796Y-55817D01*
X61701Y-55790D01*
X61630Y-55861D01*
X61630Y-55719D01*
X61603Y-55625D01*
X61399Y-55552D01*
X61182Y-55563D01*
X61033Y-55625D01*
X61007Y-55719D01*
X61318Y-56031D01*
X61630Y-55719D01*
X61630Y-55861D01*
X61389Y-56102D01*
X61701Y-56414D01*
X61796Y-56387D01*
X61868Y-56183D01*
X61868Y-56564D01*
X61765Y-56564D01*
X61628Y-56427D01*
X61534Y-56389D01*
X61318Y-56173D01*
X61248Y-56243D01*
X61248Y-56102D01*
X60936Y-55790D01*
X60841Y-55817D01*
X60768Y-56021D01*
X60779Y-56238D01*
X60841Y-56387D01*
X60936Y-56414D01*
X61248Y-56102D01*
X61248Y-56243D01*
X61102Y-56388D01*
X61010Y-56427D01*
X60872Y-56564D01*
X60398Y-56564D01*
X60274Y-56589D01*
X60175Y-56655D01*
X60175Y-56268D01*
X60164Y-56060D01*
X60106Y-55920D01*
X60013Y-55895D01*
X59942Y-55966D01*
X59716Y-56192D01*
X60013Y-56489D01*
X60106Y-56465D01*
X60175Y-56268D01*
X60175Y-56655D01*
X60169Y-56660D01*
X60092Y-56736D01*
X60062Y-56706D01*
X59970Y-56667D01*
X59883Y-56667D01*
X59918Y-56653D01*
X59942Y-56560D01*
X59645Y-56263D01*
X59640Y-56269D01*
X59569Y-56198D01*
X59574Y-56192D01*
X59569Y-56187D01*
X59640Y-56116D01*
X59645Y-56122D01*
X59942Y-55825D01*
X59918Y-55732D01*
X59721Y-55663D01*
X59512Y-55674D01*
X59372Y-55732D01*
X59348Y-55825D01*
X59324Y-55801D01*
X59324Y-55100D01*
X59427Y-55143D01*
X59666Y-55143D01*
X59886Y-55052D01*
X60055Y-54883D01*
X60062Y-54868D01*
X64026Y-54868D01*
X64150Y-54843D01*
X64256Y-54772D01*
X64738Y-54290D01*
X64786Y-54407D01*
X64934Y-54555D01*
X65127Y-54635D01*
X65336Y-54635D01*
X65529Y-54555D01*
X65677Y-54408D01*
X65732Y-54275D01*
X65786Y-54407D01*
X65934Y-54555D01*
X65963Y-54566D01*
X65963Y-54566D01*
G37*
G54D22*
X65963Y-54566D02*
X63965Y-56564D01*
X63813Y-56564D01*
X63813Y-55820D01*
X63748Y-55663D01*
X63694Y-55610D01*
X63747Y-55557D01*
X63812Y-55400D01*
X63813Y-55230D01*
X63748Y-55073D01*
X63628Y-54953D01*
X63471Y-54887D01*
X63301Y-54887D01*
X63144Y-54952D01*
X63023Y-55072D01*
X62958Y-55229D01*
X62958Y-55399D01*
X63023Y-55556D01*
X63076Y-55610D01*
X63023Y-55663D01*
X62958Y-55820D01*
X62958Y-55990D01*
X63023Y-56147D01*
X63143Y-56267D01*
X63300Y-56332D01*
X63470Y-56332D01*
X63627Y-56267D01*
X63747Y-56147D01*
X63812Y-55990D01*
X63813Y-55820D01*
X63813Y-56564D01*
X61868Y-56564D01*
X61868Y-56183D01*
X61857Y-55966D01*
X61796Y-55817D01*
X61701Y-55790D01*
X61630Y-55861D01*
X61630Y-55719D01*
X61603Y-55625D01*
X61399Y-55552D01*
X61182Y-55563D01*
X61033Y-55625D01*
X61007Y-55719D01*
X61318Y-56031D01*
X61630Y-55719D01*
X61630Y-55861D01*
X61389Y-56102D01*
X61701Y-56414D01*
X61796Y-56387D01*
X61868Y-56183D01*
X61868Y-56564D01*
X61765Y-56564D01*
X61628Y-56427D01*
X61534Y-56389D01*
X61318Y-56173D01*
X61248Y-56243D01*
X61248Y-56102D01*
X60936Y-55790D01*
X60841Y-55817D01*
X60768Y-56021D01*
X60779Y-56238D01*
X60841Y-56387D01*
X60936Y-56414D01*
X61248Y-56102D01*
X61248Y-56243D01*
X61102Y-56388D01*
X61010Y-56427D01*
X60872Y-56564D01*
X60398Y-56564D01*
X60274Y-56589D01*
X60175Y-56655D01*
X60175Y-56268D01*
X60164Y-56060D01*
X60106Y-55920D01*
X60013Y-55895D01*
X59942Y-55966D01*
X59716Y-56192D01*
X60013Y-56489D01*
X60106Y-56465D01*
X60175Y-56268D01*
X60175Y-56655D01*
X60169Y-56660D01*
X60092Y-56736D01*
X60062Y-56706D01*
X59970Y-56667D01*
X59883Y-56667D01*
X59918Y-56653D01*
X59942Y-56560D01*
X59645Y-56263D01*
X59640Y-56269D01*
X59569Y-56198D01*
X59574Y-56192D01*
X59569Y-56187D01*
X59640Y-56116D01*
X59645Y-56122D01*
X59942Y-55825D01*
X59918Y-55732D01*
X59721Y-55663D01*
X59512Y-55674D01*
X59372Y-55732D01*
X59348Y-55825D01*
X59324Y-55801D01*
X59324Y-55100D01*
X59427Y-55143D01*
X59666Y-55143D01*
X59886Y-55052D01*
X60055Y-54883D01*
X60062Y-54868D01*
X64026Y-54868D01*
X64150Y-54843D01*
X64256Y-54772D01*
X64738Y-54290D01*
X64786Y-54407D01*
X64934Y-54555D01*
X65127Y-54635D01*
X65336Y-54635D01*
X65529Y-54555D01*
X65677Y-54408D01*
X65732Y-54275D01*
X65786Y-54407D01*
X65934Y-54555D01*
X65963Y-54566D01*
G54D10*
G36*
X66308Y-52883D02*
X66237Y-52954D01*
X66232Y-52948D01*
X66226Y-52954D01*
X66156Y-52883D01*
X66161Y-52877D01*
X66156Y-52872D01*
X66226Y-52801D01*
X66232Y-52807D01*
X66237Y-52801D01*
X66308Y-52872D01*
X66302Y-52877D01*
X66308Y-52883D01*
X66308Y-52883D01*
G37*
G54D22*
X66308Y-52883D02*
X66237Y-52954D01*
X66232Y-52948D01*
X66226Y-52954D01*
X66156Y-52883D01*
X66161Y-52877D01*
X66156Y-52872D01*
X66226Y-52801D01*
X66232Y-52807D01*
X66237Y-52801D01*
X66308Y-52872D01*
X66302Y-52877D01*
X66308Y-52883D01*
G54D10*
G36*
X66907Y-46109D02*
X66056Y-46960D01*
X66057Y-46958D01*
X66057Y-46789D01*
X65993Y-46633D01*
X65873Y-46513D01*
X65717Y-46448D01*
X65548Y-46448D01*
X65392Y-46513D01*
X65272Y-46632D01*
X65207Y-46788D01*
X65207Y-46839D01*
X60212Y-51834D01*
X60142Y-51939D01*
X60117Y-52063D01*
X60117Y-52071D01*
X60109Y-52051D01*
X60038Y-51981D01*
X59946Y-51943D01*
X59659Y-51943D01*
X59597Y-52005D01*
X59597Y-52493D01*
X59605Y-52493D01*
X59605Y-52593D01*
X59597Y-52593D01*
X59597Y-52601D01*
X59497Y-52601D01*
X59497Y-52593D01*
X59489Y-52593D01*
X59489Y-52493D01*
X59497Y-52493D01*
X59497Y-52005D01*
X59434Y-51943D01*
X59324Y-51943D01*
X59324Y-50868D01*
X59427Y-50910D01*
X59666Y-50911D01*
X59886Y-50819D01*
X60055Y-50651D01*
X60147Y-50430D01*
X60147Y-50192D01*
X60097Y-50071D01*
X63050Y-47119D01*
X63076Y-47145D01*
X63023Y-47198D01*
X62958Y-47355D01*
X62958Y-47525D01*
X63023Y-47682D01*
X63143Y-47802D01*
X63300Y-47868D01*
X63470Y-47868D01*
X63627Y-47803D01*
X63747Y-47683D01*
X63812Y-47526D01*
X63813Y-47356D01*
X63748Y-47199D01*
X63694Y-47145D01*
X63747Y-47092D01*
X63812Y-46935D01*
X63812Y-46882D01*
X64725Y-45970D01*
X64814Y-45970D01*
X64934Y-46090D01*
X65127Y-46170D01*
X65336Y-46170D01*
X65529Y-46091D01*
X65677Y-45943D01*
X65732Y-45810D01*
X65786Y-45942D01*
X65934Y-46090D01*
X66127Y-46170D01*
X66336Y-46170D01*
X66529Y-46091D01*
X66677Y-45943D01*
X66732Y-45810D01*
X66786Y-45942D01*
X66907Y-46063D01*
X66907Y-46109D01*
X66907Y-46109D01*
G37*
G54D22*
X66907Y-46109D02*
X66056Y-46960D01*
X66057Y-46958D01*
X66057Y-46789D01*
X65993Y-46633D01*
X65873Y-46513D01*
X65717Y-46448D01*
X65548Y-46448D01*
X65392Y-46513D01*
X65272Y-46632D01*
X65207Y-46788D01*
X65207Y-46839D01*
X60212Y-51834D01*
X60142Y-51939D01*
X60117Y-52063D01*
X60117Y-52071D01*
X60109Y-52051D01*
X60038Y-51981D01*
X59946Y-51943D01*
X59659Y-51943D01*
X59597Y-52005D01*
X59597Y-52493D01*
X59605Y-52493D01*
X59605Y-52593D01*
X59597Y-52593D01*
X59597Y-52601D01*
X59497Y-52601D01*
X59497Y-52593D01*
X59489Y-52593D01*
X59489Y-52493D01*
X59497Y-52493D01*
X59497Y-52005D01*
X59434Y-51943D01*
X59324Y-51943D01*
X59324Y-50868D01*
X59427Y-50910D01*
X59666Y-50911D01*
X59886Y-50819D01*
X60055Y-50651D01*
X60147Y-50430D01*
X60147Y-50192D01*
X60097Y-50071D01*
X63050Y-47119D01*
X63076Y-47145D01*
X63023Y-47198D01*
X62958Y-47355D01*
X62958Y-47525D01*
X63023Y-47682D01*
X63143Y-47802D01*
X63300Y-47868D01*
X63470Y-47868D01*
X63627Y-47803D01*
X63747Y-47683D01*
X63812Y-47526D01*
X63813Y-47356D01*
X63748Y-47199D01*
X63694Y-47145D01*
X63747Y-47092D01*
X63812Y-46935D01*
X63812Y-46882D01*
X64725Y-45970D01*
X64814Y-45970D01*
X64934Y-46090D01*
X65127Y-46170D01*
X65336Y-46170D01*
X65529Y-46091D01*
X65677Y-45943D01*
X65732Y-45810D01*
X65786Y-45942D01*
X65934Y-46090D01*
X66127Y-46170D01*
X66336Y-46170D01*
X66529Y-46091D01*
X66677Y-45943D01*
X66732Y-45810D01*
X66786Y-45942D01*
X66907Y-46063D01*
X66907Y-46109D01*
G54D10*
G36*
X66964Y-44870D02*
X66505Y-44870D01*
X66529Y-44781D01*
X66232Y-44484D01*
X66226Y-44489D01*
X66156Y-44418D01*
X66161Y-44413D01*
X66156Y-44407D01*
X66226Y-44337D01*
X66232Y-44342D01*
X66237Y-44337D01*
X66308Y-44407D01*
X66302Y-44413D01*
X66600Y-44710D01*
X66692Y-44686D01*
X66731Y-44576D01*
X66786Y-44710D01*
X66934Y-44858D01*
X66964Y-44870D01*
X66964Y-44870D01*
G37*
G54D22*
X66964Y-44870D02*
X66505Y-44870D01*
X66529Y-44781D01*
X66232Y-44484D01*
X66226Y-44489D01*
X66156Y-44418D01*
X66161Y-44413D01*
X66156Y-44407D01*
X66226Y-44337D01*
X66232Y-44342D01*
X66237Y-44337D01*
X66308Y-44407D01*
X66302Y-44413D01*
X66600Y-44710D01*
X66692Y-44686D01*
X66731Y-44576D01*
X66786Y-44710D01*
X66934Y-44858D01*
X66964Y-44870D01*
G54D10*
G36*
X67022Y-57591D02*
X66788Y-57591D01*
X66664Y-57616D01*
X66558Y-57686D01*
X66529Y-57716D01*
X66529Y-57478D01*
X66232Y-57180D01*
X65935Y-57478D01*
X65959Y-57570D01*
X66156Y-57640D01*
X66365Y-57628D01*
X66505Y-57570D01*
X66529Y-57478D01*
X66529Y-57716D01*
X66276Y-57969D01*
X66261Y-57963D01*
X66022Y-57962D01*
X65802Y-58054D01*
X65727Y-58128D01*
X65703Y-58071D01*
X65633Y-58001D01*
X65541Y-57963D01*
X65442Y-57962D01*
X65254Y-57962D01*
X65191Y-58025D01*
X65191Y-58512D01*
X65199Y-58512D01*
X65199Y-58612D01*
X65191Y-58612D01*
X65191Y-58620D01*
X65091Y-58620D01*
X65091Y-58612D01*
X65091Y-58512D01*
X65091Y-58025D01*
X65029Y-57962D01*
X64841Y-57962D01*
X64741Y-57963D01*
X64649Y-58001D01*
X64579Y-58071D01*
X64541Y-58163D01*
X64541Y-58450D01*
X64604Y-58512D01*
X65091Y-58512D01*
X65091Y-58612D01*
X64604Y-58612D01*
X64541Y-58675D01*
X64541Y-58785D01*
X62089Y-58785D01*
X62136Y-58656D01*
X62125Y-58418D01*
X62075Y-58297D01*
X63106Y-58297D01*
X63143Y-58334D01*
X63300Y-58399D01*
X63470Y-58399D01*
X63627Y-58334D01*
X63747Y-58214D01*
X63812Y-58057D01*
X63812Y-58004D01*
X64707Y-57110D01*
X64707Y-57434D01*
X64745Y-57526D01*
X64815Y-57597D01*
X64907Y-57635D01*
X65006Y-57635D01*
X65556Y-57635D01*
X65648Y-57597D01*
X65719Y-57527D01*
X65757Y-57435D01*
X65757Y-57348D01*
X65771Y-57383D01*
X65864Y-57407D01*
X66161Y-57110D01*
X66156Y-57104D01*
X66226Y-57033D01*
X66232Y-57039D01*
X66237Y-57033D01*
X66308Y-57104D01*
X66302Y-57110D01*
X66600Y-57407D01*
X66692Y-57383D01*
X66731Y-57273D01*
X66786Y-57407D01*
X66934Y-57555D01*
X67022Y-57591D01*
X67022Y-57591D01*
G37*
G54D22*
X67022Y-57591D02*
X66788Y-57591D01*
X66664Y-57616D01*
X66558Y-57686D01*
X66529Y-57716D01*
X66529Y-57478D01*
X66232Y-57180D01*
X65935Y-57478D01*
X65959Y-57570D01*
X66156Y-57640D01*
X66365Y-57628D01*
X66505Y-57570D01*
X66529Y-57478D01*
X66529Y-57716D01*
X66276Y-57969D01*
X66261Y-57963D01*
X66022Y-57962D01*
X65802Y-58054D01*
X65727Y-58128D01*
X65703Y-58071D01*
X65633Y-58001D01*
X65541Y-57963D01*
X65442Y-57962D01*
X65254Y-57962D01*
X65191Y-58025D01*
X65191Y-58512D01*
X65199Y-58512D01*
X65199Y-58612D01*
X65191Y-58612D01*
X65191Y-58620D01*
X65091Y-58620D01*
X65091Y-58612D01*
X65091Y-58512D01*
X65091Y-58025D01*
X65029Y-57962D01*
X64841Y-57962D01*
X64741Y-57963D01*
X64649Y-58001D01*
X64579Y-58071D01*
X64541Y-58163D01*
X64541Y-58450D01*
X64604Y-58512D01*
X65091Y-58512D01*
X65091Y-58612D01*
X64604Y-58612D01*
X64541Y-58675D01*
X64541Y-58785D01*
X62089Y-58785D01*
X62136Y-58656D01*
X62125Y-58418D01*
X62075Y-58297D01*
X63106Y-58297D01*
X63143Y-58334D01*
X63300Y-58399D01*
X63470Y-58399D01*
X63627Y-58334D01*
X63747Y-58214D01*
X63812Y-58057D01*
X63812Y-58004D01*
X64707Y-57110D01*
X64707Y-57434D01*
X64745Y-57526D01*
X64815Y-57597D01*
X64907Y-57635D01*
X65006Y-57635D01*
X65556Y-57635D01*
X65648Y-57597D01*
X65719Y-57527D01*
X65757Y-57435D01*
X65757Y-57348D01*
X65771Y-57383D01*
X65864Y-57407D01*
X66161Y-57110D01*
X66156Y-57104D01*
X66226Y-57033D01*
X66232Y-57039D01*
X66237Y-57033D01*
X66308Y-57104D01*
X66302Y-57110D01*
X66600Y-57407D01*
X66692Y-57383D01*
X66731Y-57273D01*
X66786Y-57407D01*
X66934Y-57555D01*
X67022Y-57591D01*
G54D10*
G36*
X68308Y-44418D02*
X68237Y-44489D01*
X68232Y-44484D01*
X68226Y-44489D01*
X68156Y-44418D01*
X68161Y-44413D01*
X68156Y-44407D01*
X68226Y-44337D01*
X68232Y-44342D01*
X68237Y-44337D01*
X68308Y-44407D01*
X68302Y-44413D01*
X68308Y-44418D01*
X68308Y-44418D01*
G37*
G54D22*
X68308Y-44418D02*
X68237Y-44489D01*
X68232Y-44484D01*
X68226Y-44489D01*
X68156Y-44418D01*
X68161Y-44413D01*
X68156Y-44407D01*
X68226Y-44337D01*
X68232Y-44342D01*
X68237Y-44337D01*
X68308Y-44407D01*
X68302Y-44413D01*
X68308Y-44418D01*
G54D10*
G36*
X69950Y-44830D02*
X69045Y-44830D01*
X68890Y-44675D01*
X68785Y-44605D01*
X68725Y-44593D01*
X68762Y-44489D01*
X68750Y-44280D01*
X68746Y-44269D01*
X69480Y-44269D01*
X69680Y-44468D01*
X69680Y-44518D01*
X69744Y-44674D01*
X69864Y-44794D01*
X69950Y-44830D01*
X69950Y-44830D01*
G37*
G54D22*
X69950Y-44830D02*
X69045Y-44830D01*
X68890Y-44675D01*
X68785Y-44605D01*
X68725Y-44593D01*
X68762Y-44489D01*
X68750Y-44280D01*
X68746Y-44269D01*
X69480Y-44269D01*
X69680Y-44468D01*
X69680Y-44518D01*
X69744Y-44674D01*
X69864Y-44794D01*
X69950Y-44830D01*
G54D10*
G36*
X70499Y-53195D02*
X70499Y-53268D01*
X68523Y-53268D01*
X68529Y-53245D01*
X68232Y-52948D01*
X67935Y-53245D01*
X67941Y-53268D01*
X67749Y-53268D01*
X67625Y-53292D01*
X67590Y-53316D01*
X67519Y-53363D01*
X67297Y-53585D01*
X67128Y-53585D01*
X66935Y-53664D01*
X66798Y-53801D01*
X66798Y-53801D01*
X66754Y-53810D01*
X66719Y-53833D01*
X66693Y-53851D01*
X66677Y-53813D01*
X66661Y-53797D01*
X66739Y-53765D01*
X66858Y-53645D01*
X66923Y-53489D01*
X66923Y-53439D01*
X66961Y-53400D01*
X66961Y-53400D01*
X66996Y-53348D01*
X67127Y-53402D01*
X67336Y-53403D01*
X67529Y-53323D01*
X67677Y-53175D01*
X67729Y-53049D01*
X67771Y-53150D01*
X67864Y-53175D01*
X68161Y-52877D01*
X68156Y-52872D01*
X68226Y-52801D01*
X68232Y-52807D01*
X68237Y-52801D01*
X68308Y-52872D01*
X68302Y-52877D01*
X68600Y-53175D01*
X68692Y-53150D01*
X68762Y-52953D01*
X68755Y-52833D01*
X69022Y-53100D01*
X69022Y-53100D01*
X69128Y-53170D01*
X69252Y-53195D01*
X70499Y-53195D01*
X70499Y-53195D01*
G37*
G54D22*
X70499Y-53195D02*
X70499Y-53268D01*
X68523Y-53268D01*
X68529Y-53245D01*
X68232Y-52948D01*
X67935Y-53245D01*
X67941Y-53268D01*
X67749Y-53268D01*
X67625Y-53292D01*
X67590Y-53316D01*
X67519Y-53363D01*
X67297Y-53585D01*
X67128Y-53585D01*
X66935Y-53664D01*
X66798Y-53801D01*
X66798Y-53801D01*
X66754Y-53810D01*
X66719Y-53833D01*
X66693Y-53851D01*
X66677Y-53813D01*
X66661Y-53797D01*
X66739Y-53765D01*
X66858Y-53645D01*
X66923Y-53489D01*
X66923Y-53439D01*
X66961Y-53400D01*
X66961Y-53400D01*
X66996Y-53348D01*
X67127Y-53402D01*
X67336Y-53403D01*
X67529Y-53323D01*
X67677Y-53175D01*
X67729Y-53049D01*
X67771Y-53150D01*
X67864Y-53175D01*
X68161Y-52877D01*
X68156Y-52872D01*
X68226Y-52801D01*
X68232Y-52807D01*
X68237Y-52801D01*
X68308Y-52872D01*
X68302Y-52877D01*
X68600Y-53175D01*
X68692Y-53150D01*
X68762Y-52953D01*
X68755Y-52833D01*
X69022Y-53100D01*
X69022Y-53100D01*
X69128Y-53170D01*
X69252Y-53195D01*
X70499Y-53195D01*
G54D10*
G36*
X72807Y-57477D02*
X72047Y-58238D01*
X71889Y-58238D01*
X71882Y-58223D01*
X71714Y-58054D01*
X71493Y-57963D01*
X71255Y-57962D01*
X71034Y-58054D01*
X70873Y-58214D01*
X70714Y-58054D01*
X70493Y-57963D01*
X70255Y-57962D01*
X70034Y-58054D01*
X69959Y-58128D01*
X69936Y-58071D01*
X69865Y-58001D01*
X69773Y-57963D01*
X69674Y-57962D01*
X69486Y-57962D01*
X69424Y-58025D01*
X69424Y-58512D01*
X69431Y-58512D01*
X69431Y-58612D01*
X69424Y-58612D01*
X69424Y-58620D01*
X69324Y-58620D01*
X69324Y-58612D01*
X69324Y-58512D01*
X69324Y-58025D01*
X69261Y-57962D01*
X69073Y-57962D01*
X68974Y-57963D01*
X68882Y-58001D01*
X68811Y-58071D01*
X68773Y-58163D01*
X68774Y-58450D01*
X68836Y-58512D01*
X69324Y-58512D01*
X69324Y-58612D01*
X68836Y-58612D01*
X68774Y-58675D01*
X68773Y-58785D01*
X68529Y-58785D01*
X68529Y-57478D01*
X68232Y-57180D01*
X67935Y-57478D01*
X67959Y-57570D01*
X68156Y-57640D01*
X68365Y-57628D01*
X68505Y-57570D01*
X68529Y-57478D01*
X68529Y-58785D01*
X67699Y-58785D01*
X67741Y-58682D01*
X67741Y-58444D01*
X67685Y-58308D01*
X67761Y-58276D01*
X67881Y-58157D01*
X67946Y-58001D01*
X67946Y-57832D01*
X67881Y-57675D01*
X67762Y-57556D01*
X67606Y-57491D01*
X67593Y-57491D01*
X67677Y-57408D01*
X67729Y-57281D01*
X67771Y-57383D01*
X67864Y-57407D01*
X68161Y-57110D01*
X68156Y-57104D01*
X68226Y-57033D01*
X68232Y-57039D01*
X68237Y-57033D01*
X68308Y-57104D01*
X68302Y-57110D01*
X68600Y-57407D01*
X68656Y-57392D01*
X68656Y-57393D01*
X68776Y-57513D01*
X68932Y-57577D01*
X69101Y-57578D01*
X69257Y-57513D01*
X69293Y-57477D01*
X72807Y-57477D01*
X72807Y-57477D01*
G37*
G54D22*
X72807Y-57477D02*
X72047Y-58238D01*
X71889Y-58238D01*
X71882Y-58223D01*
X71714Y-58054D01*
X71493Y-57963D01*
X71255Y-57962D01*
X71034Y-58054D01*
X70873Y-58214D01*
X70714Y-58054D01*
X70493Y-57963D01*
X70255Y-57962D01*
X70034Y-58054D01*
X69959Y-58128D01*
X69936Y-58071D01*
X69865Y-58001D01*
X69773Y-57963D01*
X69674Y-57962D01*
X69486Y-57962D01*
X69424Y-58025D01*
X69424Y-58512D01*
X69431Y-58512D01*
X69431Y-58612D01*
X69424Y-58612D01*
X69424Y-58620D01*
X69324Y-58620D01*
X69324Y-58612D01*
X69324Y-58512D01*
X69324Y-58025D01*
X69261Y-57962D01*
X69073Y-57962D01*
X68974Y-57963D01*
X68882Y-58001D01*
X68811Y-58071D01*
X68773Y-58163D01*
X68774Y-58450D01*
X68836Y-58512D01*
X69324Y-58512D01*
X69324Y-58612D01*
X68836Y-58612D01*
X68774Y-58675D01*
X68773Y-58785D01*
X68529Y-58785D01*
X68529Y-57478D01*
X68232Y-57180D01*
X67935Y-57478D01*
X67959Y-57570D01*
X68156Y-57640D01*
X68365Y-57628D01*
X68505Y-57570D01*
X68529Y-57478D01*
X68529Y-58785D01*
X67699Y-58785D01*
X67741Y-58682D01*
X67741Y-58444D01*
X67685Y-58308D01*
X67761Y-58276D01*
X67881Y-58157D01*
X67946Y-58001D01*
X67946Y-57832D01*
X67881Y-57675D01*
X67762Y-57556D01*
X67606Y-57491D01*
X67593Y-57491D01*
X67677Y-57408D01*
X67729Y-57281D01*
X67771Y-57383D01*
X67864Y-57407D01*
X68161Y-57110D01*
X68156Y-57104D01*
X68226Y-57033D01*
X68232Y-57039D01*
X68237Y-57033D01*
X68308Y-57104D01*
X68302Y-57110D01*
X68600Y-57407D01*
X68656Y-57392D01*
X68656Y-57393D01*
X68776Y-57513D01*
X68932Y-57577D01*
X69101Y-57578D01*
X69257Y-57513D01*
X69293Y-57477D01*
X72807Y-57477D01*
G54D10*
G36*
X74156Y-48775D02*
X72175Y-48775D01*
X72081Y-48756D01*
X71791Y-48756D01*
X71697Y-48775D01*
X68743Y-48775D01*
X68762Y-48721D01*
X68750Y-48512D01*
X68692Y-48372D01*
X68600Y-48348D01*
X68529Y-48419D01*
X68529Y-48277D01*
X68505Y-48185D01*
X68308Y-48115D01*
X68099Y-48127D01*
X67959Y-48185D01*
X67935Y-48277D01*
X68232Y-48574D01*
X68529Y-48277D01*
X68529Y-48419D01*
X68302Y-48645D01*
X68308Y-48651D01*
X68237Y-48721D01*
X68232Y-48716D01*
X68226Y-48721D01*
X68156Y-48651D01*
X68161Y-48645D01*
X67864Y-48348D01*
X67771Y-48372D01*
X67733Y-48482D01*
X67677Y-48348D01*
X67530Y-48200D01*
X67337Y-48120D01*
X67128Y-48120D01*
X66935Y-48200D01*
X66787Y-48347D01*
X66734Y-48474D01*
X66692Y-48372D01*
X66600Y-48348D01*
X66302Y-48645D01*
X66600Y-48942D01*
X66692Y-48918D01*
X66731Y-48808D01*
X66786Y-48942D01*
X66934Y-49090D01*
X67127Y-49170D01*
X67297Y-49170D01*
X67456Y-49329D01*
X67456Y-49329D01*
X67562Y-49400D01*
X67562Y-49400D01*
X67686Y-49424D01*
X67686Y-49424D01*
X67954Y-49424D01*
X67935Y-49432D01*
X67787Y-49580D01*
X67732Y-49713D01*
X67677Y-49580D01*
X67530Y-49433D01*
X67337Y-49353D01*
X67166Y-49352D01*
X66933Y-49120D01*
X66828Y-49049D01*
X66704Y-49025D01*
X66526Y-49025D01*
X66529Y-49013D01*
X66232Y-48716D01*
X66226Y-48721D01*
X66156Y-48651D01*
X66161Y-48645D01*
X66156Y-48640D01*
X66226Y-48569D01*
X66232Y-48574D01*
X66529Y-48277D01*
X66505Y-48185D01*
X66308Y-48115D01*
X66099Y-48127D01*
X66088Y-48131D01*
X66088Y-47847D01*
X67461Y-46473D01*
X67461Y-46473D01*
X67508Y-46403D01*
X67532Y-46368D01*
X67532Y-46368D01*
X67557Y-46244D01*
X67557Y-46244D01*
X67557Y-46063D01*
X67677Y-45943D01*
X67732Y-45810D01*
X67786Y-45942D01*
X67934Y-46090D01*
X68127Y-46170D01*
X68297Y-46170D01*
X69010Y-46883D01*
X69010Y-46883D01*
X69052Y-46911D01*
X69115Y-46953D01*
X69240Y-46978D01*
X69240Y-46978D01*
X70124Y-46978D01*
X70261Y-47115D01*
X70334Y-47145D01*
X70262Y-47175D01*
X70108Y-47328D01*
X70025Y-47528D01*
X70025Y-47745D01*
X70108Y-47946D01*
X70261Y-48099D01*
X70461Y-48182D01*
X70678Y-48183D01*
X70879Y-48100D01*
X71032Y-47947D01*
X71116Y-47746D01*
X71116Y-47529D01*
X71033Y-47329D01*
X70880Y-47175D01*
X70807Y-47145D01*
X70879Y-47116D01*
X71032Y-46962D01*
X71050Y-46919D01*
X72474Y-48342D01*
X72474Y-48342D01*
X72580Y-48413D01*
X72704Y-48437D01*
X74156Y-48437D01*
X74156Y-48775D01*
X74156Y-48775D01*
G37*
G54D22*
X74156Y-48775D02*
X72175Y-48775D01*
X72081Y-48756D01*
X71791Y-48756D01*
X71697Y-48775D01*
X68743Y-48775D01*
X68762Y-48721D01*
X68750Y-48512D01*
X68692Y-48372D01*
X68600Y-48348D01*
X68529Y-48419D01*
X68529Y-48277D01*
X68505Y-48185D01*
X68308Y-48115D01*
X68099Y-48127D01*
X67959Y-48185D01*
X67935Y-48277D01*
X68232Y-48574D01*
X68529Y-48277D01*
X68529Y-48419D01*
X68302Y-48645D01*
X68308Y-48651D01*
X68237Y-48721D01*
X68232Y-48716D01*
X68226Y-48721D01*
X68156Y-48651D01*
X68161Y-48645D01*
X67864Y-48348D01*
X67771Y-48372D01*
X67733Y-48482D01*
X67677Y-48348D01*
X67530Y-48200D01*
X67337Y-48120D01*
X67128Y-48120D01*
X66935Y-48200D01*
X66787Y-48347D01*
X66734Y-48474D01*
X66692Y-48372D01*
X66600Y-48348D01*
X66302Y-48645D01*
X66600Y-48942D01*
X66692Y-48918D01*
X66731Y-48808D01*
X66786Y-48942D01*
X66934Y-49090D01*
X67127Y-49170D01*
X67297Y-49170D01*
X67456Y-49329D01*
X67456Y-49329D01*
X67562Y-49400D01*
X67562Y-49400D01*
X67686Y-49424D01*
X67686Y-49424D01*
X67954Y-49424D01*
X67935Y-49432D01*
X67787Y-49580D01*
X67732Y-49713D01*
X67677Y-49580D01*
X67530Y-49433D01*
X67337Y-49353D01*
X67166Y-49352D01*
X66933Y-49120D01*
X66828Y-49049D01*
X66704Y-49025D01*
X66526Y-49025D01*
X66529Y-49013D01*
X66232Y-48716D01*
X66226Y-48721D01*
X66156Y-48651D01*
X66161Y-48645D01*
X66156Y-48640D01*
X66226Y-48569D01*
X66232Y-48574D01*
X66529Y-48277D01*
X66505Y-48185D01*
X66308Y-48115D01*
X66099Y-48127D01*
X66088Y-48131D01*
X66088Y-47847D01*
X67461Y-46473D01*
X67461Y-46473D01*
X67508Y-46403D01*
X67532Y-46368D01*
X67532Y-46368D01*
X67557Y-46244D01*
X67557Y-46244D01*
X67557Y-46063D01*
X67677Y-45943D01*
X67732Y-45810D01*
X67786Y-45942D01*
X67934Y-46090D01*
X68127Y-46170D01*
X68297Y-46170D01*
X69010Y-46883D01*
X69010Y-46883D01*
X69052Y-46911D01*
X69115Y-46953D01*
X69240Y-46978D01*
X69240Y-46978D01*
X70124Y-46978D01*
X70261Y-47115D01*
X70334Y-47145D01*
X70262Y-47175D01*
X70108Y-47328D01*
X70025Y-47528D01*
X70025Y-47745D01*
X70108Y-47946D01*
X70261Y-48099D01*
X70461Y-48182D01*
X70678Y-48183D01*
X70879Y-48100D01*
X71032Y-47947D01*
X71116Y-47746D01*
X71116Y-47529D01*
X71033Y-47329D01*
X70880Y-47175D01*
X70807Y-47145D01*
X70879Y-47116D01*
X71032Y-46962D01*
X71050Y-46919D01*
X72474Y-48342D01*
X72474Y-48342D01*
X72580Y-48413D01*
X72704Y-48437D01*
X74156Y-48437D01*
X74156Y-48775D01*
G54D10*
G36*
X75757Y-48651D02*
X75686Y-48721D01*
X75681Y-48716D01*
X75675Y-48721D01*
X75604Y-48651D01*
X75610Y-48645D01*
X75604Y-48640D01*
X75675Y-48569D01*
X75681Y-48574D01*
X75686Y-48569D01*
X75757Y-48640D01*
X75751Y-48645D01*
X75757Y-48651D01*
X75757Y-48651D01*
G37*
G54D22*
X75757Y-48651D02*
X75686Y-48721D01*
X75681Y-48716D01*
X75675Y-48721D01*
X75604Y-48651D01*
X75610Y-48645D01*
X75604Y-48640D01*
X75675Y-48569D01*
X75681Y-48574D01*
X75686Y-48569D01*
X75757Y-48640D01*
X75751Y-48645D01*
X75757Y-48651D01*
G54D10*
G36*
X76322Y-52494D02*
X76236Y-52580D01*
X76183Y-52706D01*
X76141Y-52605D01*
X76048Y-52580D01*
X75751Y-52877D01*
X75757Y-52883D01*
X75686Y-52954D01*
X75681Y-52948D01*
X75675Y-52954D01*
X75604Y-52883D01*
X75610Y-52877D01*
X75313Y-52580D01*
X75220Y-52605D01*
X75206Y-52646D01*
X75206Y-52553D01*
X75181Y-52494D01*
X75388Y-52494D01*
X75384Y-52510D01*
X75681Y-52807D01*
X75978Y-52510D01*
X75973Y-52494D01*
X76322Y-52494D01*
X76322Y-52494D01*
G37*
G54D22*
X76322Y-52494D02*
X76236Y-52580D01*
X76183Y-52706D01*
X76141Y-52605D01*
X76048Y-52580D01*
X75751Y-52877D01*
X75757Y-52883D01*
X75686Y-52954D01*
X75681Y-52948D01*
X75675Y-52954D01*
X75604Y-52883D01*
X75610Y-52877D01*
X75313Y-52580D01*
X75220Y-52605D01*
X75206Y-52646D01*
X75206Y-52553D01*
X75181Y-52494D01*
X75388Y-52494D01*
X75384Y-52510D01*
X75681Y-52807D01*
X75978Y-52510D01*
X75973Y-52494D01*
X76322Y-52494D01*
G54D10*
G36*
X77757Y-48651D02*
X77686Y-48721D01*
X77681Y-48716D01*
X77675Y-48721D01*
X77604Y-48651D01*
X77610Y-48645D01*
X77604Y-48640D01*
X77675Y-48569D01*
X77681Y-48574D01*
X77686Y-48569D01*
X77757Y-48640D01*
X77751Y-48645D01*
X77757Y-48651D01*
X77757Y-48651D01*
G37*
G54D22*
X77757Y-48651D02*
X77686Y-48721D01*
X77681Y-48716D01*
X77675Y-48721D01*
X77604Y-48651D01*
X77610Y-48645D01*
X77604Y-48640D01*
X77675Y-48569D01*
X77681Y-48574D01*
X77686Y-48569D01*
X77757Y-48640D01*
X77751Y-48645D01*
X77757Y-48651D01*
G54D10*
G36*
X77757Y-57115D02*
X77686Y-57186D01*
X77681Y-57180D01*
X77384Y-57478D01*
X77408Y-57570D01*
X77412Y-57572D01*
X76746Y-58238D01*
X76121Y-58238D01*
X76115Y-58223D01*
X75978Y-58086D01*
X75978Y-57478D01*
X75681Y-57180D01*
X75384Y-57478D01*
X75408Y-57570D01*
X75605Y-57640D01*
X75813Y-57628D01*
X75953Y-57570D01*
X75978Y-57478D01*
X75978Y-58086D01*
X75946Y-58054D01*
X75726Y-57963D01*
X75487Y-57962D01*
X75266Y-58054D01*
X75106Y-58214D01*
X74946Y-58054D01*
X74726Y-57963D01*
X74487Y-57962D01*
X74266Y-58054D01*
X74192Y-58128D01*
X74168Y-58071D01*
X74098Y-58001D01*
X74006Y-57963D01*
X73906Y-57962D01*
X73718Y-57962D01*
X73656Y-58025D01*
X73656Y-58512D01*
X73664Y-58512D01*
X73664Y-58612D01*
X73656Y-58612D01*
X73656Y-58620D01*
X73556Y-58620D01*
X73556Y-58612D01*
X73068Y-58612D01*
X73006Y-58675D01*
X73006Y-58785D01*
X72419Y-58785D01*
X73006Y-58198D01*
X73006Y-58450D01*
X73068Y-58512D01*
X73556Y-58512D01*
X73556Y-58025D01*
X73493Y-57962D01*
X73305Y-57962D01*
X73241Y-57963D01*
X74156Y-57048D01*
X74156Y-57434D01*
X74194Y-57526D01*
X74264Y-57597D01*
X74356Y-57635D01*
X74455Y-57635D01*
X75005Y-57635D01*
X75097Y-57597D01*
X75167Y-57527D01*
X75206Y-57435D01*
X75206Y-57348D01*
X75220Y-57383D01*
X75313Y-57407D01*
X75610Y-57110D01*
X75604Y-57104D01*
X75675Y-57033D01*
X75681Y-57039D01*
X75686Y-57033D01*
X75757Y-57104D01*
X75751Y-57110D01*
X76048Y-57407D01*
X76141Y-57383D01*
X76180Y-57273D01*
X76235Y-57407D01*
X76383Y-57555D01*
X76576Y-57635D01*
X76785Y-57635D01*
X76978Y-57555D01*
X77125Y-57408D01*
X77178Y-57281D01*
X77220Y-57383D01*
X77313Y-57407D01*
X77610Y-57110D01*
X77604Y-57104D01*
X77675Y-57033D01*
X77681Y-57039D01*
X77686Y-57033D01*
X77757Y-57104D01*
X77751Y-57110D01*
X77757Y-57115D01*
X77757Y-57115D01*
G37*
G54D22*
X77757Y-57115D02*
X77686Y-57186D01*
X77681Y-57180D01*
X77384Y-57478D01*
X77408Y-57570D01*
X77412Y-57572D01*
X76746Y-58238D01*
X76121Y-58238D01*
X76115Y-58223D01*
X75978Y-58086D01*
X75978Y-57478D01*
X75681Y-57180D01*
X75384Y-57478D01*
X75408Y-57570D01*
X75605Y-57640D01*
X75813Y-57628D01*
X75953Y-57570D01*
X75978Y-57478D01*
X75978Y-58086D01*
X75946Y-58054D01*
X75726Y-57963D01*
X75487Y-57962D01*
X75266Y-58054D01*
X75106Y-58214D01*
X74946Y-58054D01*
X74726Y-57963D01*
X74487Y-57962D01*
X74266Y-58054D01*
X74192Y-58128D01*
X74168Y-58071D01*
X74098Y-58001D01*
X74006Y-57963D01*
X73906Y-57962D01*
X73718Y-57962D01*
X73656Y-58025D01*
X73656Y-58512D01*
X73664Y-58512D01*
X73664Y-58612D01*
X73656Y-58612D01*
X73656Y-58620D01*
X73556Y-58620D01*
X73556Y-58612D01*
X73068Y-58612D01*
X73006Y-58675D01*
X73006Y-58785D01*
X72419Y-58785D01*
X73006Y-58198D01*
X73006Y-58450D01*
X73068Y-58512D01*
X73556Y-58512D01*
X73556Y-58025D01*
X73493Y-57962D01*
X73305Y-57962D01*
X73241Y-57963D01*
X74156Y-57048D01*
X74156Y-57434D01*
X74194Y-57526D01*
X74264Y-57597D01*
X74356Y-57635D01*
X74455Y-57635D01*
X75005Y-57635D01*
X75097Y-57597D01*
X75167Y-57527D01*
X75206Y-57435D01*
X75206Y-57348D01*
X75220Y-57383D01*
X75313Y-57407D01*
X75610Y-57110D01*
X75604Y-57104D01*
X75675Y-57033D01*
X75681Y-57039D01*
X75686Y-57033D01*
X75757Y-57104D01*
X75751Y-57110D01*
X76048Y-57407D01*
X76141Y-57383D01*
X76180Y-57273D01*
X76235Y-57407D01*
X76383Y-57555D01*
X76576Y-57635D01*
X76785Y-57635D01*
X76978Y-57555D01*
X77125Y-57408D01*
X77178Y-57281D01*
X77220Y-57383D01*
X77313Y-57407D01*
X77610Y-57110D01*
X77604Y-57104D01*
X77675Y-57033D01*
X77681Y-57039D01*
X77686Y-57033D01*
X77757Y-57104D01*
X77751Y-57110D01*
X77757Y-57115D01*
G54D10*
G36*
X77896Y-58612D02*
X77888Y-58612D01*
X77888Y-58620D01*
X77788Y-58620D01*
X77788Y-58612D01*
X77780Y-58612D01*
X77780Y-58512D01*
X77788Y-58512D01*
X77788Y-58505D01*
X77888Y-58505D01*
X77888Y-58512D01*
X77896Y-58512D01*
X77896Y-58612D01*
X77896Y-58612D01*
G37*
G54D22*
X77896Y-58612D02*
X77888Y-58612D01*
X77888Y-58620D01*
X77788Y-58620D01*
X77788Y-58612D01*
X77780Y-58612D01*
X77780Y-58512D01*
X77788Y-58512D01*
X77788Y-58505D01*
X77888Y-58505D01*
X77888Y-58512D01*
X77896Y-58512D01*
X77896Y-58612D01*
G54D10*
G36*
X78285Y-44830D02*
X77965Y-44830D01*
X77978Y-44781D01*
X77681Y-44484D01*
X77384Y-44781D01*
X77396Y-44830D01*
X77006Y-44830D01*
X77125Y-44711D01*
X77178Y-44584D01*
X77220Y-44686D01*
X77313Y-44710D01*
X77610Y-44413D01*
X77604Y-44407D01*
X77675Y-44337D01*
X77681Y-44342D01*
X77686Y-44337D01*
X77757Y-44407D01*
X77751Y-44413D01*
X78048Y-44710D01*
X78141Y-44686D01*
X78141Y-44686D01*
X78285Y-44830D01*
X78285Y-44830D01*
G37*
G54D22*
X78285Y-44830D02*
X77965Y-44830D01*
X77978Y-44781D01*
X77681Y-44484D01*
X77384Y-44781D01*
X77396Y-44830D01*
X77006Y-44830D01*
X77125Y-44711D01*
X77178Y-44584D01*
X77220Y-44686D01*
X77313Y-44710D01*
X77610Y-44413D01*
X77604Y-44407D01*
X77675Y-44337D01*
X77681Y-44342D01*
X77686Y-44337D01*
X77757Y-44407D01*
X77751Y-44413D01*
X78048Y-44710D01*
X78141Y-44686D01*
X78141Y-44686D01*
X78285Y-44830D01*
G54D10*
G36*
X78342Y-53298D02*
X77964Y-53298D01*
X77978Y-53245D01*
X77681Y-52948D01*
X77384Y-53245D01*
X77397Y-53298D01*
X77268Y-53298D01*
X77131Y-53161D01*
X77178Y-53049D01*
X77220Y-53150D01*
X77313Y-53175D01*
X77610Y-52877D01*
X77313Y-52580D01*
X77220Y-52605D01*
X77181Y-52715D01*
X77126Y-52580D01*
X77039Y-52494D01*
X77388Y-52494D01*
X77384Y-52510D01*
X77681Y-52807D01*
X77686Y-52801D01*
X77757Y-52872D01*
X77751Y-52877D01*
X78048Y-53175D01*
X78141Y-53150D01*
X78155Y-53111D01*
X78342Y-53298D01*
X78342Y-53298D01*
G37*
G54D22*
X78342Y-53298D02*
X77964Y-53298D01*
X77978Y-53245D01*
X77681Y-52948D01*
X77384Y-53245D01*
X77397Y-53298D01*
X77268Y-53298D01*
X77131Y-53161D01*
X77178Y-53049D01*
X77220Y-53150D01*
X77313Y-53175D01*
X77610Y-52877D01*
X77313Y-52580D01*
X77220Y-52605D01*
X77181Y-52715D01*
X77126Y-52580D01*
X77039Y-52494D01*
X77388Y-52494D01*
X77384Y-52510D01*
X77681Y-52807D01*
X77686Y-52801D01*
X77757Y-52872D01*
X77751Y-52877D01*
X78048Y-53175D01*
X78141Y-53150D01*
X78155Y-53111D01*
X78342Y-53298D01*
G54D10*
G36*
X80501Y-57440D02*
X79973Y-57969D01*
X79958Y-57963D01*
X79719Y-57962D01*
X79499Y-58054D01*
X79338Y-58214D01*
X79178Y-58054D01*
X78958Y-57963D01*
X78719Y-57962D01*
X78499Y-58054D01*
X78424Y-58128D01*
X78400Y-58071D01*
X78330Y-58001D01*
X78238Y-57963D01*
X78139Y-57962D01*
X77951Y-57962D01*
X77888Y-58025D01*
X77888Y-58015D01*
X78268Y-57635D01*
X78318Y-57635D01*
X78474Y-57570D01*
X78594Y-57451D01*
X78659Y-57295D01*
X78659Y-57238D01*
X78766Y-57345D01*
X78766Y-57345D01*
X78871Y-57416D01*
X78871Y-57416D01*
X78996Y-57440D01*
X78996Y-57440D01*
X80501Y-57440D01*
X80501Y-57440D01*
G37*
G54D22*
X80501Y-57440D02*
X79973Y-57969D01*
X79958Y-57963D01*
X79719Y-57962D01*
X79499Y-58054D01*
X79338Y-58214D01*
X79178Y-58054D01*
X78958Y-57963D01*
X78719Y-57962D01*
X78499Y-58054D01*
X78424Y-58128D01*
X78400Y-58071D01*
X78330Y-58001D01*
X78238Y-57963D01*
X78139Y-57962D01*
X77951Y-57962D01*
X77888Y-58025D01*
X77888Y-58015D01*
X78268Y-57635D01*
X78318Y-57635D01*
X78474Y-57570D01*
X78594Y-57451D01*
X78659Y-57295D01*
X78659Y-57238D01*
X78766Y-57345D01*
X78766Y-57345D01*
X78871Y-57416D01*
X78871Y-57416D01*
X78996Y-57440D01*
X78996Y-57440D01*
X80501Y-57440D01*
G54D10*
G36*
X83604Y-44580D02*
X78954Y-44580D01*
X78096Y-43721D01*
X77990Y-43651D01*
X77866Y-43626D01*
X77142Y-43626D01*
X77018Y-43651D01*
X76913Y-43721D01*
X76746Y-43888D01*
X76577Y-43888D01*
X76384Y-43968D01*
X76236Y-44115D01*
X76183Y-44242D01*
X76141Y-44140D01*
X76048Y-44116D01*
X75978Y-44187D01*
X75978Y-44045D01*
X75953Y-43952D01*
X75756Y-43883D01*
X75548Y-43894D01*
X75408Y-43952D01*
X75384Y-44045D01*
X75681Y-44342D01*
X75978Y-44045D01*
X75978Y-44187D01*
X75751Y-44413D01*
X76048Y-44710D01*
X76141Y-44686D01*
X76180Y-44576D01*
X76235Y-44710D01*
X76355Y-44830D01*
X75965Y-44830D01*
X75978Y-44781D01*
X75681Y-44484D01*
X75384Y-44781D01*
X75396Y-44830D01*
X75167Y-44830D01*
X75167Y-44830D01*
X75206Y-44738D01*
X75206Y-44651D01*
X75220Y-44686D01*
X75313Y-44710D01*
X75610Y-44413D01*
X75313Y-44116D01*
X75220Y-44140D01*
X75206Y-44181D01*
X75206Y-44088D01*
X75168Y-43996D01*
X75097Y-43926D01*
X75006Y-43888D01*
X74906Y-43888D01*
X74356Y-43888D01*
X74264Y-43926D01*
X74194Y-43996D01*
X74156Y-44088D01*
X74156Y-44187D01*
X74156Y-44737D01*
X74194Y-44829D01*
X74194Y-44830D01*
X70260Y-44830D01*
X70345Y-44794D01*
X70465Y-44675D01*
X70530Y-44519D01*
X70530Y-44350D01*
X70465Y-44193D01*
X70346Y-44074D01*
X70190Y-44009D01*
X70139Y-44009D01*
X69845Y-43714D01*
X69739Y-43644D01*
X69615Y-43619D01*
X66048Y-43619D01*
X65924Y-43644D01*
X65818Y-43714D01*
X65619Y-43914D01*
X65557Y-43888D01*
X65457Y-43888D01*
X64907Y-43888D01*
X64815Y-43926D01*
X64745Y-43996D01*
X64712Y-44075D01*
X63813Y-43176D01*
X63813Y-43124D01*
X63748Y-42967D01*
X63724Y-42942D01*
X64027Y-42942D01*
X64151Y-42918D01*
X64257Y-42847D01*
X65166Y-41938D01*
X65336Y-41938D01*
X65529Y-41858D01*
X65677Y-41711D01*
X65732Y-41578D01*
X65786Y-41710D01*
X65934Y-41858D01*
X66127Y-41938D01*
X66336Y-41938D01*
X66361Y-41927D01*
X66371Y-41952D01*
X66491Y-42071D01*
X66647Y-42136D01*
X66816Y-42136D01*
X66972Y-42072D01*
X67092Y-41952D01*
X67102Y-41928D01*
X67127Y-41938D01*
X67336Y-41938D01*
X67529Y-41858D01*
X67677Y-41711D01*
X67732Y-41578D01*
X67786Y-41710D01*
X67934Y-41858D01*
X68127Y-41938D01*
X68336Y-41938D01*
X68529Y-41858D01*
X68650Y-41738D01*
X69428Y-41738D01*
X70025Y-42335D01*
X70025Y-42529D01*
X70108Y-42729D01*
X70261Y-42883D01*
X70334Y-42913D01*
X70262Y-42942D01*
X70108Y-43096D01*
X70025Y-43296D01*
X70025Y-43513D01*
X70108Y-43713D01*
X70261Y-43867D01*
X70461Y-43950D01*
X70678Y-43950D01*
X70879Y-43868D01*
X71032Y-43714D01*
X71116Y-43514D01*
X71116Y-43297D01*
X71033Y-43097D01*
X70880Y-42943D01*
X70807Y-42913D01*
X70879Y-42883D01*
X71032Y-42730D01*
X71116Y-42530D01*
X71116Y-42313D01*
X71033Y-42112D01*
X70880Y-41959D01*
X70679Y-41876D01*
X70484Y-41875D01*
X69889Y-41280D01*
X74167Y-41280D01*
X74156Y-41308D01*
X74156Y-41479D01*
X73341Y-42293D01*
X73113Y-42293D01*
X73076Y-42256D01*
X72919Y-42191D01*
X72750Y-42190D01*
X72592Y-42255D01*
X72472Y-42375D01*
X72407Y-42532D01*
X72407Y-42702D01*
X72472Y-42859D01*
X72525Y-42913D01*
X72472Y-42966D01*
X72407Y-43123D01*
X72407Y-43293D01*
X72472Y-43450D01*
X72592Y-43570D01*
X72749Y-43635D01*
X72919Y-43635D01*
X73076Y-43571D01*
X73196Y-43450D01*
X73261Y-43294D01*
X73261Y-43124D01*
X73196Y-42967D01*
X73172Y-42942D01*
X73476Y-42942D01*
X73600Y-42918D01*
X73706Y-42847D01*
X74615Y-41938D01*
X74785Y-41938D01*
X74978Y-41858D01*
X75125Y-41711D01*
X75181Y-41578D01*
X75235Y-41710D01*
X75383Y-41858D01*
X75576Y-41938D01*
X75785Y-41938D01*
X75978Y-41858D01*
X76125Y-41711D01*
X76181Y-41578D01*
X76235Y-41710D01*
X76383Y-41858D01*
X76576Y-41938D01*
X76785Y-41938D01*
X76978Y-41858D01*
X77125Y-41711D01*
X77181Y-41578D01*
X77235Y-41710D01*
X77383Y-41858D01*
X77576Y-41938D01*
X77785Y-41938D01*
X77978Y-41858D01*
X78098Y-41738D01*
X78877Y-41738D01*
X79474Y-42335D01*
X79474Y-42529D01*
X79557Y-42729D01*
X79710Y-42883D01*
X79782Y-42913D01*
X79711Y-42942D01*
X79557Y-43096D01*
X79474Y-43296D01*
X79474Y-43513D01*
X79557Y-43713D01*
X79710Y-43867D01*
X79910Y-43950D01*
X80068Y-43950D01*
X80068Y-44110D01*
X80133Y-44266D01*
X80252Y-44386D01*
X80408Y-44451D01*
X80578Y-44451D01*
X80734Y-44386D01*
X80839Y-44282D01*
X83604Y-44282D01*
X83604Y-44580D01*
X83604Y-44580D01*
G37*
G54D22*
X83604Y-44580D02*
X78954Y-44580D01*
X78096Y-43721D01*
X77990Y-43651D01*
X77866Y-43626D01*
X77142Y-43626D01*
X77018Y-43651D01*
X76913Y-43721D01*
X76746Y-43888D01*
X76577Y-43888D01*
X76384Y-43968D01*
X76236Y-44115D01*
X76183Y-44242D01*
X76141Y-44140D01*
X76048Y-44116D01*
X75978Y-44187D01*
X75978Y-44045D01*
X75953Y-43952D01*
X75756Y-43883D01*
X75548Y-43894D01*
X75408Y-43952D01*
X75384Y-44045D01*
X75681Y-44342D01*
X75978Y-44045D01*
X75978Y-44187D01*
X75751Y-44413D01*
X76048Y-44710D01*
X76141Y-44686D01*
X76180Y-44576D01*
X76235Y-44710D01*
X76355Y-44830D01*
X75965Y-44830D01*
X75978Y-44781D01*
X75681Y-44484D01*
X75384Y-44781D01*
X75396Y-44830D01*
X75167Y-44830D01*
X75167Y-44830D01*
X75206Y-44738D01*
X75206Y-44651D01*
X75220Y-44686D01*
X75313Y-44710D01*
X75610Y-44413D01*
X75313Y-44116D01*
X75220Y-44140D01*
X75206Y-44181D01*
X75206Y-44088D01*
X75168Y-43996D01*
X75097Y-43926D01*
X75006Y-43888D01*
X74906Y-43888D01*
X74356Y-43888D01*
X74264Y-43926D01*
X74194Y-43996D01*
X74156Y-44088D01*
X74156Y-44187D01*
X74156Y-44737D01*
X74194Y-44829D01*
X74194Y-44830D01*
X70260Y-44830D01*
X70345Y-44794D01*
X70465Y-44675D01*
X70530Y-44519D01*
X70530Y-44350D01*
X70465Y-44193D01*
X70346Y-44074D01*
X70190Y-44009D01*
X70139Y-44009D01*
X69845Y-43714D01*
X69739Y-43644D01*
X69615Y-43619D01*
X66048Y-43619D01*
X65924Y-43644D01*
X65818Y-43714D01*
X65619Y-43914D01*
X65557Y-43888D01*
X65457Y-43888D01*
X64907Y-43888D01*
X64815Y-43926D01*
X64745Y-43996D01*
X64712Y-44075D01*
X63813Y-43176D01*
X63813Y-43124D01*
X63748Y-42967D01*
X63724Y-42942D01*
X64027Y-42942D01*
X64151Y-42918D01*
X64257Y-42847D01*
X65166Y-41938D01*
X65336Y-41938D01*
X65529Y-41858D01*
X65677Y-41711D01*
X65732Y-41578D01*
X65786Y-41710D01*
X65934Y-41858D01*
X66127Y-41938D01*
X66336Y-41938D01*
X66361Y-41927D01*
X66371Y-41952D01*
X66491Y-42071D01*
X66647Y-42136D01*
X66816Y-42136D01*
X66972Y-42072D01*
X67092Y-41952D01*
X67102Y-41928D01*
X67127Y-41938D01*
X67336Y-41938D01*
X67529Y-41858D01*
X67677Y-41711D01*
X67732Y-41578D01*
X67786Y-41710D01*
X67934Y-41858D01*
X68127Y-41938D01*
X68336Y-41938D01*
X68529Y-41858D01*
X68650Y-41738D01*
X69428Y-41738D01*
X70025Y-42335D01*
X70025Y-42529D01*
X70108Y-42729D01*
X70261Y-42883D01*
X70334Y-42913D01*
X70262Y-42942D01*
X70108Y-43096D01*
X70025Y-43296D01*
X70025Y-43513D01*
X70108Y-43713D01*
X70261Y-43867D01*
X70461Y-43950D01*
X70678Y-43950D01*
X70879Y-43868D01*
X71032Y-43714D01*
X71116Y-43514D01*
X71116Y-43297D01*
X71033Y-43097D01*
X70880Y-42943D01*
X70807Y-42913D01*
X70879Y-42883D01*
X71032Y-42730D01*
X71116Y-42530D01*
X71116Y-42313D01*
X71033Y-42112D01*
X70880Y-41959D01*
X70679Y-41876D01*
X70484Y-41875D01*
X69889Y-41280D01*
X74167Y-41280D01*
X74156Y-41308D01*
X74156Y-41479D01*
X73341Y-42293D01*
X73113Y-42293D01*
X73076Y-42256D01*
X72919Y-42191D01*
X72750Y-42190D01*
X72592Y-42255D01*
X72472Y-42375D01*
X72407Y-42532D01*
X72407Y-42702D01*
X72472Y-42859D01*
X72525Y-42913D01*
X72472Y-42966D01*
X72407Y-43123D01*
X72407Y-43293D01*
X72472Y-43450D01*
X72592Y-43570D01*
X72749Y-43635D01*
X72919Y-43635D01*
X73076Y-43571D01*
X73196Y-43450D01*
X73261Y-43294D01*
X73261Y-43124D01*
X73196Y-42967D01*
X73172Y-42942D01*
X73476Y-42942D01*
X73600Y-42918D01*
X73706Y-42847D01*
X74615Y-41938D01*
X74785Y-41938D01*
X74978Y-41858D01*
X75125Y-41711D01*
X75181Y-41578D01*
X75235Y-41710D01*
X75383Y-41858D01*
X75576Y-41938D01*
X75785Y-41938D01*
X75978Y-41858D01*
X76125Y-41711D01*
X76181Y-41578D01*
X76235Y-41710D01*
X76383Y-41858D01*
X76576Y-41938D01*
X76785Y-41938D01*
X76978Y-41858D01*
X77125Y-41711D01*
X77181Y-41578D01*
X77235Y-41710D01*
X77383Y-41858D01*
X77576Y-41938D01*
X77785Y-41938D01*
X77978Y-41858D01*
X78098Y-41738D01*
X78877Y-41738D01*
X79474Y-42335D01*
X79474Y-42529D01*
X79557Y-42729D01*
X79710Y-42883D01*
X79782Y-42913D01*
X79711Y-42942D01*
X79557Y-43096D01*
X79474Y-43296D01*
X79474Y-43513D01*
X79557Y-43713D01*
X79710Y-43867D01*
X79910Y-43950D01*
X80068Y-43950D01*
X80068Y-44110D01*
X80133Y-44266D01*
X80252Y-44386D01*
X80408Y-44451D01*
X80578Y-44451D01*
X80734Y-44386D01*
X80839Y-44282D01*
X83604Y-44282D01*
X83604Y-44580D01*
G54D10*
G36*
X85797Y-57520D02*
X85415Y-57520D01*
X85427Y-57478D01*
X85129Y-57180D01*
X84832Y-57478D01*
X84843Y-57520D01*
X84788Y-57520D01*
X84664Y-57545D01*
X84558Y-57615D01*
X84205Y-57969D01*
X84190Y-57963D01*
X83952Y-57962D01*
X83731Y-58054D01*
X83570Y-58214D01*
X83411Y-58054D01*
X83190Y-57963D01*
X82952Y-57962D01*
X82731Y-58054D01*
X82656Y-58128D01*
X82632Y-58071D01*
X82562Y-58001D01*
X82470Y-57963D01*
X82371Y-57962D01*
X82183Y-57962D01*
X82120Y-58025D01*
X82120Y-58512D01*
X82128Y-58512D01*
X82128Y-58612D01*
X82120Y-58612D01*
X82120Y-58620D01*
X82020Y-58620D01*
X82020Y-58612D01*
X82020Y-58512D01*
X82020Y-58025D01*
X81958Y-57962D01*
X81770Y-57962D01*
X81670Y-57963D01*
X81579Y-58001D01*
X81508Y-58071D01*
X81470Y-58163D01*
X81470Y-58450D01*
X81533Y-58512D01*
X82020Y-58512D01*
X82020Y-58612D01*
X81533Y-58612D01*
X81470Y-58675D01*
X81470Y-58785D01*
X80395Y-58785D01*
X80438Y-58682D01*
X80438Y-58444D01*
X80432Y-58428D01*
X81135Y-57725D01*
X82923Y-57725D01*
X83047Y-57701D01*
X83152Y-57630D01*
X83604Y-57178D01*
X83604Y-57434D01*
X83642Y-57526D01*
X83713Y-57597D01*
X83804Y-57635D01*
X83904Y-57635D01*
X84454Y-57635D01*
X84546Y-57597D01*
X84616Y-57527D01*
X84654Y-57435D01*
X84654Y-57348D01*
X84669Y-57383D01*
X84762Y-57407D01*
X85059Y-57110D01*
X85053Y-57104D01*
X85124Y-57033D01*
X85129Y-57039D01*
X85135Y-57033D01*
X85206Y-57104D01*
X85200Y-57110D01*
X85497Y-57407D01*
X85590Y-57383D01*
X85629Y-57273D01*
X85684Y-57407D01*
X85797Y-57520D01*
X85797Y-57520D01*
G37*
G54D22*
X85797Y-57520D02*
X85415Y-57520D01*
X85427Y-57478D01*
X85129Y-57180D01*
X84832Y-57478D01*
X84843Y-57520D01*
X84788Y-57520D01*
X84664Y-57545D01*
X84558Y-57615D01*
X84205Y-57969D01*
X84190Y-57963D01*
X83952Y-57962D01*
X83731Y-58054D01*
X83570Y-58214D01*
X83411Y-58054D01*
X83190Y-57963D01*
X82952Y-57962D01*
X82731Y-58054D01*
X82656Y-58128D01*
X82632Y-58071D01*
X82562Y-58001D01*
X82470Y-57963D01*
X82371Y-57962D01*
X82183Y-57962D01*
X82120Y-58025D01*
X82120Y-58512D01*
X82128Y-58512D01*
X82128Y-58612D01*
X82120Y-58612D01*
X82120Y-58620D01*
X82020Y-58620D01*
X82020Y-58612D01*
X82020Y-58512D01*
X82020Y-58025D01*
X81958Y-57962D01*
X81770Y-57962D01*
X81670Y-57963D01*
X81579Y-58001D01*
X81508Y-58071D01*
X81470Y-58163D01*
X81470Y-58450D01*
X81533Y-58512D01*
X82020Y-58512D01*
X82020Y-58612D01*
X81533Y-58612D01*
X81470Y-58675D01*
X81470Y-58785D01*
X80395Y-58785D01*
X80438Y-58682D01*
X80438Y-58444D01*
X80432Y-58428D01*
X81135Y-57725D01*
X82923Y-57725D01*
X83047Y-57701D01*
X83152Y-57630D01*
X83604Y-57178D01*
X83604Y-57434D01*
X83642Y-57526D01*
X83713Y-57597D01*
X83804Y-57635D01*
X83904Y-57635D01*
X84454Y-57635D01*
X84546Y-57597D01*
X84616Y-57527D01*
X84654Y-57435D01*
X84654Y-57348D01*
X84669Y-57383D01*
X84762Y-57407D01*
X85059Y-57110D01*
X85053Y-57104D01*
X85124Y-57033D01*
X85129Y-57039D01*
X85135Y-57033D01*
X85206Y-57104D01*
X85200Y-57110D01*
X85497Y-57407D01*
X85590Y-57383D01*
X85629Y-57273D01*
X85684Y-57407D01*
X85797Y-57520D01*
G54D10*
G36*
X85807Y-53298D02*
X85413Y-53298D01*
X85427Y-53245D01*
X85129Y-52948D01*
X85124Y-52954D01*
X85053Y-52883D01*
X85059Y-52877D01*
X85053Y-52872D01*
X85124Y-52801D01*
X85129Y-52807D01*
X85427Y-52510D01*
X85417Y-52472D01*
X85792Y-52472D01*
X85685Y-52580D01*
X85632Y-52706D01*
X85590Y-52605D01*
X85497Y-52580D01*
X85200Y-52877D01*
X85497Y-53175D01*
X85590Y-53150D01*
X85629Y-53040D01*
X85684Y-53174D01*
X85807Y-53298D01*
X85807Y-53298D01*
G37*
G54D22*
X85807Y-53298D02*
X85413Y-53298D01*
X85427Y-53245D01*
X85129Y-52948D01*
X85124Y-52954D01*
X85053Y-52883D01*
X85059Y-52877D01*
X85053Y-52872D01*
X85124Y-52801D01*
X85129Y-52807D01*
X85427Y-52510D01*
X85417Y-52472D01*
X85792Y-52472D01*
X85685Y-52580D01*
X85632Y-52706D01*
X85590Y-52605D01*
X85497Y-52580D01*
X85200Y-52877D01*
X85497Y-53175D01*
X85590Y-53150D01*
X85629Y-53040D01*
X85684Y-53174D01*
X85807Y-53298D01*
G54D10*
G36*
X86361Y-58612D02*
X86353Y-58612D01*
X86353Y-58620D01*
X86253Y-58620D01*
X86253Y-58612D01*
X85765Y-58612D01*
X85703Y-58675D01*
X85703Y-58785D01*
X84628Y-58785D01*
X84670Y-58682D01*
X84670Y-58444D01*
X84664Y-58428D01*
X84923Y-58170D01*
X85703Y-58170D01*
X85703Y-58450D01*
X85765Y-58512D01*
X86253Y-58512D01*
X86253Y-58505D01*
X86353Y-58505D01*
X86353Y-58512D01*
X86361Y-58512D01*
X86361Y-58612D01*
X86361Y-58612D01*
G37*
G54D22*
X86361Y-58612D02*
X86353Y-58612D01*
X86353Y-58620D01*
X86253Y-58620D01*
X86253Y-58612D01*
X85765Y-58612D01*
X85703Y-58675D01*
X85703Y-58785D01*
X84628Y-58785D01*
X84670Y-58682D01*
X84670Y-58444D01*
X84664Y-58428D01*
X84923Y-58170D01*
X85703Y-58170D01*
X85703Y-58450D01*
X85765Y-58512D01*
X86253Y-58512D01*
X86253Y-58505D01*
X86353Y-58505D01*
X86353Y-58512D01*
X86361Y-58512D01*
X86361Y-58612D01*
G54D10*
G36*
X87206Y-57115D02*
X87135Y-57186D01*
X87129Y-57180D01*
X87124Y-57186D01*
X87053Y-57115D01*
X87059Y-57110D01*
X87053Y-57104D01*
X87124Y-57033D01*
X87129Y-57039D01*
X87135Y-57033D01*
X87206Y-57104D01*
X87200Y-57110D01*
X87206Y-57115D01*
X87206Y-57115D01*
G37*
G54D22*
X87206Y-57115D02*
X87135Y-57186D01*
X87129Y-57180D01*
X87124Y-57186D01*
X87053Y-57115D01*
X87059Y-57110D01*
X87053Y-57104D01*
X87124Y-57033D01*
X87129Y-57039D01*
X87135Y-57033D01*
X87206Y-57104D01*
X87200Y-57110D01*
X87206Y-57115D01*
G54D10*
G36*
X88655Y-49924D02*
X88515Y-49924D01*
X87783Y-49192D01*
X87677Y-49122D01*
X87553Y-49097D01*
X87405Y-49097D01*
X87427Y-49013D01*
X87129Y-48716D01*
X86832Y-49013D01*
X86857Y-49106D01*
X86871Y-49111D01*
X86815Y-49122D01*
X86710Y-49192D01*
X86448Y-49454D01*
X86427Y-49433D01*
X86234Y-49353D01*
X86064Y-49352D01*
X85867Y-49156D01*
X85762Y-49086D01*
X85638Y-49061D01*
X85414Y-49061D01*
X85427Y-49013D01*
X85129Y-48716D01*
X84832Y-49013D01*
X84845Y-49061D01*
X84617Y-49061D01*
X84654Y-48970D01*
X84654Y-48883D01*
X84669Y-48918D01*
X84762Y-48942D01*
X85059Y-48645D01*
X85053Y-48640D01*
X85124Y-48569D01*
X85129Y-48574D01*
X85135Y-48569D01*
X85206Y-48640D01*
X85200Y-48645D01*
X85497Y-48942D01*
X85590Y-48918D01*
X85629Y-48808D01*
X85684Y-48942D01*
X85832Y-49090D01*
X86025Y-49170D01*
X86233Y-49170D01*
X86426Y-49091D01*
X86574Y-48943D01*
X86627Y-48816D01*
X86669Y-48918D01*
X86762Y-48942D01*
X87059Y-48645D01*
X87053Y-48640D01*
X87124Y-48569D01*
X87129Y-48574D01*
X87135Y-48569D01*
X87206Y-48640D01*
X87200Y-48645D01*
X87497Y-48942D01*
X87590Y-48918D01*
X87605Y-48874D01*
X88655Y-49924D01*
X88655Y-49924D01*
G37*
G54D22*
X88655Y-49924D02*
X88515Y-49924D01*
X87783Y-49192D01*
X87677Y-49122D01*
X87553Y-49097D01*
X87405Y-49097D01*
X87427Y-49013D01*
X87129Y-48716D01*
X86832Y-49013D01*
X86857Y-49106D01*
X86871Y-49111D01*
X86815Y-49122D01*
X86710Y-49192D01*
X86448Y-49454D01*
X86427Y-49433D01*
X86234Y-49353D01*
X86064Y-49352D01*
X85867Y-49156D01*
X85762Y-49086D01*
X85638Y-49061D01*
X85414Y-49061D01*
X85427Y-49013D01*
X85129Y-48716D01*
X84832Y-49013D01*
X84845Y-49061D01*
X84617Y-49061D01*
X84654Y-48970D01*
X84654Y-48883D01*
X84669Y-48918D01*
X84762Y-48942D01*
X85059Y-48645D01*
X85053Y-48640D01*
X85124Y-48569D01*
X85129Y-48574D01*
X85135Y-48569D01*
X85206Y-48640D01*
X85200Y-48645D01*
X85497Y-48942D01*
X85590Y-48918D01*
X85629Y-48808D01*
X85684Y-48942D01*
X85832Y-49090D01*
X86025Y-49170D01*
X86233Y-49170D01*
X86426Y-49091D01*
X86574Y-48943D01*
X86627Y-48816D01*
X86669Y-48918D01*
X86762Y-48942D01*
X87059Y-48645D01*
X87053Y-48640D01*
X87124Y-48569D01*
X87129Y-48574D01*
X87135Y-48569D01*
X87206Y-48640D01*
X87200Y-48645D01*
X87497Y-48942D01*
X87590Y-48918D01*
X87605Y-48874D01*
X88655Y-49924D01*
G54D10*
G36*
X90593Y-58612D02*
X90585Y-58612D01*
X90585Y-58620D01*
X90485Y-58620D01*
X90485Y-58612D01*
X89997Y-58612D01*
X89935Y-58675D01*
X89935Y-58785D01*
X88860Y-58785D01*
X88903Y-58682D01*
X88903Y-58444D01*
X88812Y-58223D01*
X88676Y-58087D01*
X89966Y-58087D01*
X89935Y-58163D01*
X89935Y-58450D01*
X89997Y-58512D01*
X90485Y-58512D01*
X90485Y-58505D01*
X90585Y-58505D01*
X90585Y-58512D01*
X90593Y-58512D01*
X90593Y-58612D01*
X90593Y-58612D01*
G37*
G54D22*
X90593Y-58612D02*
X90585Y-58612D01*
X90585Y-58620D01*
X90485Y-58620D01*
X90485Y-58612D01*
X89997Y-58612D01*
X89935Y-58675D01*
X89935Y-58785D01*
X88860Y-58785D01*
X88903Y-58682D01*
X88903Y-58444D01*
X88812Y-58223D01*
X88676Y-58087D01*
X89966Y-58087D01*
X89935Y-58163D01*
X89935Y-58450D01*
X89997Y-58512D01*
X90485Y-58512D01*
X90485Y-58505D01*
X90585Y-58505D01*
X90585Y-58512D01*
X90593Y-58512D01*
X90593Y-58612D01*
G54D10*
G36*
X90699Y-43238D02*
X88863Y-45073D01*
X88233Y-45073D01*
X88198Y-45038D01*
X88042Y-44973D01*
X87873Y-44973D01*
X87716Y-45038D01*
X87670Y-45084D01*
X87659Y-45073D01*
X87659Y-44489D01*
X87648Y-44280D01*
X87590Y-44140D01*
X87497Y-44116D01*
X87200Y-44413D01*
X87497Y-44710D01*
X87590Y-44686D01*
X87659Y-44489D01*
X87659Y-45073D01*
X87474Y-44888D01*
X87410Y-44845D01*
X87427Y-44781D01*
X87129Y-44484D01*
X86832Y-44781D01*
X86836Y-44793D01*
X86492Y-44793D01*
X86574Y-44711D01*
X86627Y-44584D01*
X86669Y-44686D01*
X86762Y-44710D01*
X87059Y-44413D01*
X87053Y-44407D01*
X87124Y-44337D01*
X87129Y-44342D01*
X87427Y-44045D01*
X87402Y-43952D01*
X87205Y-43883D01*
X87114Y-43888D01*
X87764Y-43238D01*
X88947Y-43238D01*
X88923Y-43296D01*
X88923Y-43513D01*
X89005Y-43713D01*
X89159Y-43867D01*
X89359Y-43950D01*
X89576Y-43950D01*
X89776Y-43868D01*
X89930Y-43714D01*
X90013Y-43514D01*
X90013Y-43297D01*
X89989Y-43238D01*
X90699Y-43238D01*
X90699Y-43238D01*
G37*
G54D22*
X90699Y-43238D02*
X88863Y-45073D01*
X88233Y-45073D01*
X88198Y-45038D01*
X88042Y-44973D01*
X87873Y-44973D01*
X87716Y-45038D01*
X87670Y-45084D01*
X87659Y-45073D01*
X87659Y-44489D01*
X87648Y-44280D01*
X87590Y-44140D01*
X87497Y-44116D01*
X87200Y-44413D01*
X87497Y-44710D01*
X87590Y-44686D01*
X87659Y-44489D01*
X87659Y-45073D01*
X87474Y-44888D01*
X87410Y-44845D01*
X87427Y-44781D01*
X87129Y-44484D01*
X86832Y-44781D01*
X86836Y-44793D01*
X86492Y-44793D01*
X86574Y-44711D01*
X86627Y-44584D01*
X86669Y-44686D01*
X86762Y-44710D01*
X87059Y-44413D01*
X87053Y-44407D01*
X87124Y-44337D01*
X87129Y-44342D01*
X87427Y-44045D01*
X87402Y-43952D01*
X87205Y-43883D01*
X87114Y-43888D01*
X87764Y-43238D01*
X88947Y-43238D01*
X88923Y-43296D01*
X88923Y-43513D01*
X89005Y-43713D01*
X89159Y-43867D01*
X89359Y-43950D01*
X89576Y-43950D01*
X89776Y-43868D01*
X89930Y-43714D01*
X90013Y-43514D01*
X90013Y-43297D01*
X89989Y-43238D01*
X90699Y-43238D01*
G54D10*
G36*
X92580Y-53715D02*
X92481Y-53814D01*
X92416Y-53970D01*
X92416Y-54139D01*
X92480Y-54296D01*
X92562Y-54377D01*
X92515Y-54424D01*
X92355Y-54809D01*
X92355Y-55227D01*
X92414Y-55370D01*
X91076Y-54032D01*
X90971Y-53962D01*
X90847Y-53937D01*
X88295Y-53937D01*
X87751Y-53393D01*
X87646Y-53323D01*
X87522Y-53298D01*
X87413Y-53298D01*
X87427Y-53245D01*
X87129Y-52948D01*
X86832Y-53245D01*
X86846Y-53298D01*
X86451Y-53298D01*
X86574Y-53175D01*
X86627Y-53049D01*
X86669Y-53150D01*
X86762Y-53175D01*
X87059Y-52877D01*
X87053Y-52872D01*
X87124Y-52801D01*
X87129Y-52807D01*
X87135Y-52801D01*
X87206Y-52872D01*
X87200Y-52877D01*
X87497Y-53175D01*
X87587Y-53151D01*
X88056Y-53620D01*
X88161Y-53691D01*
X88285Y-53715D01*
X92580Y-53715D01*
X92580Y-53715D01*
G37*
G54D22*
X92580Y-53715D02*
X92481Y-53814D01*
X92416Y-53970D01*
X92416Y-54139D01*
X92480Y-54296D01*
X92562Y-54377D01*
X92515Y-54424D01*
X92355Y-54809D01*
X92355Y-55227D01*
X92414Y-55370D01*
X91076Y-54032D01*
X90971Y-53962D01*
X90847Y-53937D01*
X88295Y-53937D01*
X87751Y-53393D01*
X87646Y-53323D01*
X87522Y-53298D01*
X87413Y-53298D01*
X87427Y-53245D01*
X87129Y-52948D01*
X86832Y-53245D01*
X86846Y-53298D01*
X86451Y-53298D01*
X86574Y-53175D01*
X86627Y-53049D01*
X86669Y-53150D01*
X86762Y-53175D01*
X87059Y-52877D01*
X87053Y-52872D01*
X87124Y-52801D01*
X87129Y-52807D01*
X87135Y-52801D01*
X87206Y-52872D01*
X87200Y-52877D01*
X87497Y-53175D01*
X87587Y-53151D01*
X88056Y-53620D01*
X88161Y-53691D01*
X88285Y-53715D01*
X92580Y-53715D01*
G54D10*
G36*
X94548Y-49820D02*
X94465Y-49786D01*
X94296Y-49786D01*
X94140Y-49850D01*
X94065Y-49924D01*
X92820Y-49924D01*
X92850Y-49834D01*
X92496Y-49480D01*
X92141Y-49834D01*
X92171Y-49924D01*
X91608Y-49924D01*
X91920Y-49612D01*
X91969Y-49729D01*
X92070Y-49763D01*
X92425Y-49409D01*
X92419Y-49403D01*
X92490Y-49333D01*
X92496Y-49338D01*
X92501Y-49333D01*
X92572Y-49403D01*
X92566Y-49409D01*
X92921Y-49763D01*
X93022Y-49729D01*
X93104Y-49504D01*
X93094Y-49263D01*
X93060Y-49181D01*
X93909Y-49181D01*
X94548Y-49820D01*
X94548Y-49820D01*
G37*
G54D22*
X94548Y-49820D02*
X94465Y-49786D01*
X94296Y-49786D01*
X94140Y-49850D01*
X94065Y-49924D01*
X92820Y-49924D01*
X92850Y-49834D01*
X92496Y-49480D01*
X92141Y-49834D01*
X92171Y-49924D01*
X91608Y-49924D01*
X91920Y-49612D01*
X91969Y-49729D01*
X92070Y-49763D01*
X92425Y-49409D01*
X92419Y-49403D01*
X92490Y-49333D01*
X92496Y-49338D01*
X92501Y-49333D01*
X92572Y-49403D01*
X92566Y-49409D01*
X92921Y-49763D01*
X93022Y-49729D01*
X93104Y-49504D01*
X93094Y-49263D01*
X93060Y-49181D01*
X93909Y-49181D01*
X94548Y-49820D01*
G54D10*
G36*
X97316Y-52395D02*
X97155Y-52556D01*
X97084Y-52661D01*
X97082Y-52674D01*
X97070Y-52662D01*
X96978Y-52624D01*
X96879Y-52624D01*
X96329Y-52624D01*
X96237Y-52662D01*
X96166Y-52732D01*
X96128Y-52824D01*
X96128Y-52924D01*
X96128Y-53474D01*
X96166Y-53566D01*
X96236Y-53636D01*
X96328Y-53674D01*
X96378Y-53674D01*
X96356Y-53758D01*
X96653Y-54055D01*
X96950Y-53758D01*
X96928Y-53674D01*
X96978Y-53674D01*
X97059Y-53640D01*
X97059Y-53839D01*
X97021Y-53828D01*
X96724Y-54125D01*
X96729Y-54131D01*
X96659Y-54202D01*
X96653Y-54196D01*
X96647Y-54202D01*
X96577Y-54131D01*
X96582Y-54125D01*
X96285Y-53828D01*
X96192Y-53853D01*
X96127Y-54039D01*
X96127Y-53969D01*
X96063Y-53813D01*
X95943Y-53693D01*
X95787Y-53628D01*
X95618Y-53628D01*
X95462Y-53693D01*
X95444Y-53710D01*
X93731Y-53710D01*
X93828Y-53691D01*
X93933Y-53620D01*
X94015Y-53538D01*
X94065Y-53539D01*
X94221Y-53474D01*
X94341Y-53354D01*
X94406Y-53198D01*
X94406Y-53088D01*
X95101Y-53088D01*
X95225Y-53064D01*
X95330Y-52993D01*
X96128Y-52196D01*
X96128Y-52379D01*
X96166Y-52471D01*
X96236Y-52541D01*
X96328Y-52580D01*
X96428Y-52580D01*
X96978Y-52580D01*
X97069Y-52542D01*
X97140Y-52471D01*
X97178Y-52380D01*
X97178Y-52280D01*
X97178Y-51929D01*
X97284Y-51929D01*
X97309Y-51924D01*
X97309Y-52379D01*
X97316Y-52395D01*
X97316Y-52395D01*
G37*
G54D22*
X97316Y-52395D02*
X97155Y-52556D01*
X97084Y-52661D01*
X97082Y-52674D01*
X97070Y-52662D01*
X96978Y-52624D01*
X96879Y-52624D01*
X96329Y-52624D01*
X96237Y-52662D01*
X96166Y-52732D01*
X96128Y-52824D01*
X96128Y-52924D01*
X96128Y-53474D01*
X96166Y-53566D01*
X96236Y-53636D01*
X96328Y-53674D01*
X96378Y-53674D01*
X96356Y-53758D01*
X96653Y-54055D01*
X96950Y-53758D01*
X96928Y-53674D01*
X96978Y-53674D01*
X97059Y-53640D01*
X97059Y-53839D01*
X97021Y-53828D01*
X96724Y-54125D01*
X96729Y-54131D01*
X96659Y-54202D01*
X96653Y-54196D01*
X96647Y-54202D01*
X96577Y-54131D01*
X96582Y-54125D01*
X96285Y-53828D01*
X96192Y-53853D01*
X96127Y-54039D01*
X96127Y-53969D01*
X96063Y-53813D01*
X95943Y-53693D01*
X95787Y-53628D01*
X95618Y-53628D01*
X95462Y-53693D01*
X95444Y-53710D01*
X93731Y-53710D01*
X93828Y-53691D01*
X93933Y-53620D01*
X94015Y-53538D01*
X94065Y-53539D01*
X94221Y-53474D01*
X94341Y-53354D01*
X94406Y-53198D01*
X94406Y-53088D01*
X95101Y-53088D01*
X95225Y-53064D01*
X95330Y-52993D01*
X96128Y-52196D01*
X96128Y-52379D01*
X96166Y-52471D01*
X96236Y-52541D01*
X96328Y-52580D01*
X96428Y-52580D01*
X96978Y-52580D01*
X97069Y-52542D01*
X97140Y-52471D01*
X97178Y-52380D01*
X97178Y-52280D01*
X97178Y-51929D01*
X97284Y-51929D01*
X97309Y-51924D01*
X97309Y-52379D01*
X97316Y-52395D01*
G54D10*
G36*
X98155Y-40633D02*
X98132Y-40610D01*
X97939Y-40530D01*
X97730Y-40530D01*
X97537Y-40609D01*
X97389Y-40757D01*
X97309Y-40950D01*
X97309Y-41159D01*
X97389Y-41352D01*
X97536Y-41499D01*
X97669Y-41555D01*
X97537Y-41609D01*
X97389Y-41757D01*
X97309Y-41950D01*
X97309Y-42159D01*
X97389Y-42352D01*
X97536Y-42499D01*
X97669Y-42555D01*
X97537Y-42609D01*
X97389Y-42757D01*
X97309Y-42950D01*
X97309Y-43120D01*
X97150Y-43280D01*
X97128Y-43280D01*
X97178Y-43160D01*
X97178Y-42951D01*
X97098Y-42758D01*
X96951Y-42610D01*
X96818Y-42555D01*
X96950Y-42500D01*
X97098Y-42352D01*
X97178Y-42160D01*
X97178Y-41951D01*
X97098Y-41758D01*
X96951Y-41610D01*
X96818Y-41555D01*
X96950Y-41500D01*
X97098Y-41352D01*
X97178Y-41160D01*
X97178Y-40951D01*
X97098Y-40758D01*
X96951Y-40610D01*
X96758Y-40530D01*
X96549Y-40530D01*
X96356Y-40609D01*
X96208Y-40757D01*
X96128Y-40950D01*
X96128Y-41120D01*
X94660Y-42588D01*
X89989Y-42588D01*
X90013Y-42530D01*
X90013Y-42313D01*
X89931Y-42112D01*
X89777Y-41959D01*
X89577Y-41876D01*
X89360Y-41875D01*
X89160Y-41958D01*
X89006Y-42111D01*
X88923Y-42312D01*
X88923Y-42529D01*
X88947Y-42588D01*
X87629Y-42588D01*
X87505Y-42613D01*
X87400Y-42683D01*
X86195Y-43888D01*
X86025Y-43888D01*
X85832Y-43968D01*
X85685Y-44115D01*
X85632Y-44242D01*
X85590Y-44140D01*
X85497Y-44116D01*
X85427Y-44187D01*
X85427Y-44045D01*
X85402Y-43952D01*
X85205Y-43883D01*
X84997Y-43894D01*
X84857Y-43952D01*
X84832Y-44045D01*
X85129Y-44342D01*
X85427Y-44045D01*
X85427Y-44187D01*
X85200Y-44413D01*
X85497Y-44710D01*
X85590Y-44686D01*
X85629Y-44576D01*
X85684Y-44710D01*
X85767Y-44793D01*
X85423Y-44793D01*
X85427Y-44781D01*
X85129Y-44484D01*
X85124Y-44489D01*
X85053Y-44418D01*
X85059Y-44413D01*
X84762Y-44116D01*
X84669Y-44140D01*
X84654Y-44181D01*
X84654Y-44088D01*
X84632Y-44034D01*
X86820Y-41846D01*
X86832Y-41858D01*
X87025Y-41938D01*
X87233Y-41938D01*
X87426Y-41858D01*
X87574Y-41711D01*
X87654Y-41518D01*
X87655Y-41309D01*
X87642Y-41279D01*
X89465Y-41279D01*
X89500Y-41315D01*
X89657Y-41379D01*
X89826Y-41379D01*
X89982Y-41315D01*
X90004Y-41292D01*
X90250Y-41539D01*
X90636Y-41699D01*
X91054Y-41699D01*
X91440Y-41540D01*
X91736Y-41245D01*
X91896Y-40859D01*
X91896Y-40441D01*
X91737Y-40055D01*
X91442Y-39759D01*
X91152Y-39639D01*
X95368Y-39639D01*
X95392Y-39663D01*
X95299Y-39687D01*
X95229Y-39884D01*
X95241Y-40093D01*
X95299Y-40233D01*
X95392Y-40257D01*
X95689Y-39960D01*
X95683Y-39955D01*
X95754Y-39884D01*
X95759Y-39889D01*
X95765Y-39884D01*
X95836Y-39955D01*
X95830Y-39960D01*
X95836Y-39966D01*
X95765Y-40036D01*
X95759Y-40031D01*
X95689Y-40102D01*
X95462Y-40328D01*
X95487Y-40421D01*
X95498Y-40425D01*
X95095Y-40828D01*
X95119Y-40769D01*
X95119Y-40670D01*
X95119Y-40120D01*
X95081Y-40028D01*
X95011Y-39958D01*
X94919Y-39919D01*
X94819Y-39919D01*
X94269Y-39919D01*
X94178Y-39957D01*
X94107Y-40028D01*
X94069Y-40119D01*
X94069Y-40219D01*
X94069Y-40219D01*
X94039Y-40147D01*
X93892Y-40000D01*
X93699Y-39919D01*
X93490Y-39919D01*
X93297Y-39999D01*
X93149Y-40147D01*
X93069Y-40339D01*
X93069Y-40548D01*
X93149Y-40741D01*
X93296Y-40889D01*
X93429Y-40944D01*
X93297Y-40999D01*
X93149Y-41147D01*
X93069Y-41339D01*
X93069Y-41548D01*
X93149Y-41741D01*
X93296Y-41889D01*
X93489Y-41969D01*
X93698Y-41969D01*
X93891Y-41890D01*
X94012Y-41769D01*
X94938Y-41769D01*
X95062Y-41744D01*
X95167Y-41674D01*
X96379Y-40462D01*
X96434Y-40485D01*
X96534Y-40485D01*
X97084Y-40485D01*
X97176Y-40447D01*
X97246Y-40377D01*
X97284Y-40285D01*
X97284Y-40285D01*
X97309Y-40285D01*
X97347Y-40377D01*
X97417Y-40447D01*
X97509Y-40485D01*
X97609Y-40485D01*
X98155Y-40485D01*
X98155Y-40633D01*
X98155Y-40633D01*
G37*
G54D22*
X98155Y-40633D02*
X98132Y-40610D01*
X97939Y-40530D01*
X97730Y-40530D01*
X97537Y-40609D01*
X97389Y-40757D01*
X97309Y-40950D01*
X97309Y-41159D01*
X97389Y-41352D01*
X97536Y-41499D01*
X97669Y-41555D01*
X97537Y-41609D01*
X97389Y-41757D01*
X97309Y-41950D01*
X97309Y-42159D01*
X97389Y-42352D01*
X97536Y-42499D01*
X97669Y-42555D01*
X97537Y-42609D01*
X97389Y-42757D01*
X97309Y-42950D01*
X97309Y-43120D01*
X97150Y-43280D01*
X97128Y-43280D01*
X97178Y-43160D01*
X97178Y-42951D01*
X97098Y-42758D01*
X96951Y-42610D01*
X96818Y-42555D01*
X96950Y-42500D01*
X97098Y-42352D01*
X97178Y-42160D01*
X97178Y-41951D01*
X97098Y-41758D01*
X96951Y-41610D01*
X96818Y-41555D01*
X96950Y-41500D01*
X97098Y-41352D01*
X97178Y-41160D01*
X97178Y-40951D01*
X97098Y-40758D01*
X96951Y-40610D01*
X96758Y-40530D01*
X96549Y-40530D01*
X96356Y-40609D01*
X96208Y-40757D01*
X96128Y-40950D01*
X96128Y-41120D01*
X94660Y-42588D01*
X89989Y-42588D01*
X90013Y-42530D01*
X90013Y-42313D01*
X89931Y-42112D01*
X89777Y-41959D01*
X89577Y-41876D01*
X89360Y-41875D01*
X89160Y-41958D01*
X89006Y-42111D01*
X88923Y-42312D01*
X88923Y-42529D01*
X88947Y-42588D01*
X87629Y-42588D01*
X87505Y-42613D01*
X87400Y-42683D01*
X86195Y-43888D01*
X86025Y-43888D01*
X85832Y-43968D01*
X85685Y-44115D01*
X85632Y-44242D01*
X85590Y-44140D01*
X85497Y-44116D01*
X85427Y-44187D01*
X85427Y-44045D01*
X85402Y-43952D01*
X85205Y-43883D01*
X84997Y-43894D01*
X84857Y-43952D01*
X84832Y-44045D01*
X85129Y-44342D01*
X85427Y-44045D01*
X85427Y-44187D01*
X85200Y-44413D01*
X85497Y-44710D01*
X85590Y-44686D01*
X85629Y-44576D01*
X85684Y-44710D01*
X85767Y-44793D01*
X85423Y-44793D01*
X85427Y-44781D01*
X85129Y-44484D01*
X85124Y-44489D01*
X85053Y-44418D01*
X85059Y-44413D01*
X84762Y-44116D01*
X84669Y-44140D01*
X84654Y-44181D01*
X84654Y-44088D01*
X84632Y-44034D01*
X86820Y-41846D01*
X86832Y-41858D01*
X87025Y-41938D01*
X87233Y-41938D01*
X87426Y-41858D01*
X87574Y-41711D01*
X87654Y-41518D01*
X87655Y-41309D01*
X87642Y-41279D01*
X89465Y-41279D01*
X89500Y-41315D01*
X89657Y-41379D01*
X89826Y-41379D01*
X89982Y-41315D01*
X90004Y-41292D01*
X90250Y-41539D01*
X90636Y-41699D01*
X91054Y-41699D01*
X91440Y-41540D01*
X91736Y-41245D01*
X91896Y-40859D01*
X91896Y-40441D01*
X91737Y-40055D01*
X91442Y-39759D01*
X91152Y-39639D01*
X95368Y-39639D01*
X95392Y-39663D01*
X95299Y-39687D01*
X95229Y-39884D01*
X95241Y-40093D01*
X95299Y-40233D01*
X95392Y-40257D01*
X95689Y-39960D01*
X95683Y-39955D01*
X95754Y-39884D01*
X95759Y-39889D01*
X95765Y-39884D01*
X95836Y-39955D01*
X95830Y-39960D01*
X95836Y-39966D01*
X95765Y-40036D01*
X95759Y-40031D01*
X95689Y-40102D01*
X95462Y-40328D01*
X95487Y-40421D01*
X95498Y-40425D01*
X95095Y-40828D01*
X95119Y-40769D01*
X95119Y-40670D01*
X95119Y-40120D01*
X95081Y-40028D01*
X95011Y-39958D01*
X94919Y-39919D01*
X94819Y-39919D01*
X94269Y-39919D01*
X94178Y-39957D01*
X94107Y-40028D01*
X94069Y-40119D01*
X94069Y-40219D01*
X94069Y-40219D01*
X94039Y-40147D01*
X93892Y-40000D01*
X93699Y-39919D01*
X93490Y-39919D01*
X93297Y-39999D01*
X93149Y-40147D01*
X93069Y-40339D01*
X93069Y-40548D01*
X93149Y-40741D01*
X93296Y-40889D01*
X93429Y-40944D01*
X93297Y-40999D01*
X93149Y-41147D01*
X93069Y-41339D01*
X93069Y-41548D01*
X93149Y-41741D01*
X93296Y-41889D01*
X93489Y-41969D01*
X93698Y-41969D01*
X93891Y-41890D01*
X94012Y-41769D01*
X94938Y-41769D01*
X95062Y-41744D01*
X95167Y-41674D01*
X96379Y-40462D01*
X96434Y-40485D01*
X96534Y-40485D01*
X97084Y-40485D01*
X97176Y-40447D01*
X97246Y-40377D01*
X97284Y-40285D01*
X97284Y-40285D01*
X97309Y-40285D01*
X97347Y-40377D01*
X97417Y-40447D01*
X97509Y-40485D01*
X97609Y-40485D01*
X98155Y-40485D01*
X98155Y-40633D01*
G54D10*
G36*
X98155Y-58785D02*
X98147Y-58785D01*
X97325Y-58785D01*
X97367Y-58682D01*
X97367Y-58444D01*
X97276Y-58223D01*
X97108Y-58054D01*
X96887Y-57963D01*
X96648Y-57962D01*
X96428Y-58054D01*
X96267Y-58214D01*
X96108Y-58054D01*
X95887Y-57963D01*
X95648Y-57962D01*
X95428Y-58054D01*
X95353Y-58128D01*
X95329Y-58071D01*
X95259Y-58001D01*
X95167Y-57963D01*
X95068Y-57962D01*
X94880Y-57962D01*
X94817Y-58025D01*
X94817Y-58512D01*
X94825Y-58512D01*
X94825Y-58612D01*
X94817Y-58612D01*
X94817Y-58620D01*
X94717Y-58620D01*
X94717Y-58612D01*
X94230Y-58612D01*
X94167Y-58675D01*
X94167Y-58785D01*
X93092Y-58785D01*
X93135Y-58682D01*
X93135Y-58444D01*
X93044Y-58223D01*
X92908Y-58087D01*
X94199Y-58087D01*
X94167Y-58163D01*
X94167Y-58450D01*
X94230Y-58512D01*
X94717Y-58512D01*
X94717Y-58025D01*
X94655Y-57962D01*
X94526Y-57962D01*
X94828Y-57660D01*
X94878Y-57660D01*
X95035Y-57596D01*
X95154Y-57476D01*
X95210Y-57341D01*
X96434Y-57341D01*
X96469Y-57376D01*
X96625Y-57441D01*
X96794Y-57441D01*
X96951Y-57377D01*
X97070Y-57257D01*
X97135Y-57101D01*
X97135Y-56932D01*
X97071Y-56776D01*
X97070Y-56776D01*
X97147Y-56744D01*
X97295Y-56596D01*
X97347Y-56470D01*
X97389Y-56572D01*
X97482Y-56596D01*
X97779Y-56299D01*
X97774Y-56293D01*
X97844Y-56222D01*
X97850Y-56228D01*
X97855Y-56222D01*
X97926Y-56293D01*
X97921Y-56299D01*
X97926Y-56304D01*
X97855Y-56375D01*
X97850Y-56369D01*
X97553Y-56667D01*
X97577Y-56759D01*
X97774Y-56829D01*
X97983Y-56817D01*
X98123Y-56759D01*
X98147Y-56667D01*
X98147Y-56667D01*
X98155Y-56675D01*
X98155Y-58785D01*
X98155Y-58785D01*
G37*
G54D22*
X98155Y-58785D02*
X98147Y-58785D01*
X97325Y-58785D01*
X97367Y-58682D01*
X97367Y-58444D01*
X97276Y-58223D01*
X97108Y-58054D01*
X96887Y-57963D01*
X96648Y-57962D01*
X96428Y-58054D01*
X96267Y-58214D01*
X96108Y-58054D01*
X95887Y-57963D01*
X95648Y-57962D01*
X95428Y-58054D01*
X95353Y-58128D01*
X95329Y-58071D01*
X95259Y-58001D01*
X95167Y-57963D01*
X95068Y-57962D01*
X94880Y-57962D01*
X94817Y-58025D01*
X94817Y-58512D01*
X94825Y-58512D01*
X94825Y-58612D01*
X94817Y-58612D01*
X94817Y-58620D01*
X94717Y-58620D01*
X94717Y-58612D01*
X94230Y-58612D01*
X94167Y-58675D01*
X94167Y-58785D01*
X93092Y-58785D01*
X93135Y-58682D01*
X93135Y-58444D01*
X93044Y-58223D01*
X92908Y-58087D01*
X94199Y-58087D01*
X94167Y-58163D01*
X94167Y-58450D01*
X94230Y-58512D01*
X94717Y-58512D01*
X94717Y-58025D01*
X94655Y-57962D01*
X94526Y-57962D01*
X94828Y-57660D01*
X94878Y-57660D01*
X95035Y-57596D01*
X95154Y-57476D01*
X95210Y-57341D01*
X96434Y-57341D01*
X96469Y-57376D01*
X96625Y-57441D01*
X96794Y-57441D01*
X96951Y-57377D01*
X97070Y-57257D01*
X97135Y-57101D01*
X97135Y-56932D01*
X97071Y-56776D01*
X97070Y-56776D01*
X97147Y-56744D01*
X97295Y-56596D01*
X97347Y-56470D01*
X97389Y-56572D01*
X97482Y-56596D01*
X97779Y-56299D01*
X97774Y-56293D01*
X97844Y-56222D01*
X97850Y-56228D01*
X97855Y-56222D01*
X97926Y-56293D01*
X97921Y-56299D01*
X97926Y-56304D01*
X97855Y-56375D01*
X97850Y-56369D01*
X97553Y-56667D01*
X97577Y-56759D01*
X97774Y-56829D01*
X97983Y-56817D01*
X98123Y-56759D01*
X98147Y-56667D01*
X98147Y-56667D01*
X98155Y-56675D01*
X98155Y-58785D01*
M02*
